<?xml version="1.0" encoding="UTF-8" standalone="no"?>
<!-- Created with matplotlib (https://matplotlib.org/) -->

<svg
   height="345.6pt"
   version="1.1"
   viewBox="0 0 460.8 345.6"
   width="460.8pt"
   id="svg79"
   sodipodi:docname="freqPlot.svg"
   inkscape:version="1.3 (0e150ed6c4, 2023-07-21)"
   xmlns:inkscape="http://www.inkscape.org/namespaces/inkscape"
   xmlns:sodipodi="http://sodipodi.sourceforge.net/DTD/sodipodi-0.dtd"
   xmlns:xlink="http://www.w3.org/1999/xlink"
   xmlns="http://www.w3.org/2000/svg"
   xmlns:svg="http://www.w3.org/2000/svg">
  <sodipodi:namedview
     id="namedview79"
     pagecolor="#505050"
     bordercolor="#eeeeee"
     borderopacity="1"
     inkscape:showpageshadow="0"
     inkscape:pageopacity="0"
     inkscape:pagecheckerboard="0"
     inkscape:deskcolor="#505050"
     inkscape:document-units="pt"
     inkscape:zoom="1.781684"
     inkscape:cx="337.88259"
     inkscape:cy="230.4"
     inkscape:window-width="1920"
     inkscape:window-height="1017"
     inkscape:window-x="-8"
     inkscape:window-y="-8"
     inkscape:window-maximized="1"
     inkscape:current-layer="svg79" />
  <defs
     id="defs1">
    <linearGradient
       id="swatch87"
       inkscape:swatch="solid">
      <stop
         style="stop-color:#010000;stop-opacity:1;"
         offset="0"
         id="stop87" />
    </linearGradient>
    <linearGradient
       id="swatch86"
       inkscape:swatch="solid">
      <stop
         style="stop-color:#5d5d5d;stop-opacity:0;"
         offset="0"
         id="stop86" />
    </linearGradient>
    <linearGradient
       id="swatch85"
       inkscape:swatch="solid">
      <stop
         style="stop-color:#ff0000;stop-opacity:1;"
         offset="0"
         id="stop85" />
    </linearGradient>
    <style
       type="text/css"
       id="style1">&#10;*{stroke-linecap:butt;stroke-linejoin:round;}&#10;  </style>
    <linearGradient
       inkscape:collect="always"
       xlink:href="#swatch85"
       id="linearGradient85"
       x1="323.7363"
       y1="125.65359"
       x2="361.14945"
       y2="125.65359"
       gradientUnits="userSpaceOnUse"
       gradientTransform="matrix(2.1038963,0,0,5.925892,-339.44111,-570.08157)" />
  </defs>
  <g
     id="figure_1">
    <g
       id="patch_1">
      <path
         d="M 0 345.6  L 460.8 345.6  L 460.8 0  L 0 0  z "
         style="fill:#ffffff;"
         id="path1" />
    </g>
    <rect
       style="opacity:0.5;fill:url(#linearGradient85);fill-opacity:1;stroke:none;stroke-width:17.6546"
       id="rect80"
       width="68.193909"
       height="266.91199"
       x="346.92609"
       y="41.071999" />
    <g
       id="axes_1">
      <g
         id="matplotlib.axis_1">
        <g
           id="xtick_1">
          <g
             id="line2d_1">
            <defs
               id="defs2">
              <path
                 d="M 0 0  L 0 3.5  "
                 id="mad8b0c3765"
                 style="stroke:#000000;stroke-width:0.8;" />
            </defs>
            <g
               id="g2">
              <use
                 style="stroke:#000000;stroke-width:0.8;"
                 x="106.367336"
                 xlink:href="#mad8b0c3765"
                 y="307.584"
                 id="use2" />
            </g>
          </g>
          <g
             id="text_1">
            <!-- $\mathdefault{10^{-1}}$ -->
            <defs
               id="defs3">
              <path
                 d="M 12.40625 8.296875  L 28.515625 8.296875  L 28.515625 63.921875  L 10.984375 60.40625  L 10.984375 69.390625  L 28.421875 72.90625  L 38.28125 72.90625  L 38.28125 8.296875  L 54.390625 8.296875  L 54.390625 0  L 12.40625 0  z "
                 id="DejaVuSans-49" />
              <path
                 d="M 31.78125 66.40625  Q 24.171875 66.40625 20.328125 58.90625  Q 16.5 51.421875 16.5 36.375  Q 16.5 21.390625 20.328125 13.890625  Q 24.171875 6.390625 31.78125 6.390625  Q 39.453125 6.390625 43.28125 13.890625  Q 47.125 21.390625 47.125 36.375  Q 47.125 51.421875 43.28125 58.90625  Q 39.453125 66.40625 31.78125 66.40625  z M 31.78125 74.21875  Q 44.046875 74.21875 50.515625 64.515625  Q 56.984375 54.828125 56.984375 36.375  Q 56.984375 17.96875 50.515625 8.265625  Q 44.046875 -1.421875 31.78125 -1.421875  Q 19.53125 -1.421875 13.0625 8.265625  Q 6.59375 17.96875 6.59375 36.375  Q 6.59375 54.828125 13.0625 64.515625  Q 19.53125 74.21875 31.78125 74.21875  z "
                 id="DejaVuSans-48" />
              <path
                 d="M 10.59375 35.5  L 73.1875 35.5  L 73.1875 27.203125  L 10.59375 27.203125  z "
                 id="DejaVuSans-8722" />
            </defs>
            <g
               transform="translate(94.617336 322.182437)scale(0.1 -0.1)"
               id="g6">
              <use
                 transform="translate(0 0.684375)"
                 xlink:href="#DejaVuSans-49"
                 id="use3" />
              <use
                 transform="translate(63.623047 0.684375)"
                 xlink:href="#DejaVuSans-48"
                 id="use4" />
              <use
                 transform="translate(128.203125 38.965625)scale(0.7)"
                 xlink:href="#DejaVuSans-8722"
                 id="use5" />
              <use
                 transform="translate(186.855469 38.965625)scale(0.7)"
                 xlink:href="#DejaVuSans-49"
                 id="use6" />
            </g>
          </g>
        </g>
        <g
           id="xtick_2">
          <g
             id="line2d_2">
            <g
               id="g7">
              <use
                 style="stroke:#000000;stroke-width:0.8;"
                 x="214.601194"
                 xlink:href="#mad8b0c3765"
                 y="307.584"
                 id="use7" />
            </g>
          </g>
          <g
             id="text_2">
            <!-- $\mathdefault{10^{0}}$ -->
            <g
               transform="translate(205.801194 322.182437)scale(0.1 -0.1)"
               id="g10">
              <use
                 transform="translate(0 0.765625)"
                 xlink:href="#DejaVuSans-49"
                 id="use8" />
              <use
                 transform="translate(63.623047 0.765625)"
                 xlink:href="#DejaVuSans-48"
                 id="use9" />
              <use
                 transform="translate(128.203125 39.046875)scale(0.7)"
                 xlink:href="#DejaVuSans-48"
                 id="use10" />
            </g>
          </g>
        </g>
        <g
           id="xtick_3">
          <g
             id="line2d_3">
            <g
               id="g11">
              <use
                 style="stroke:#000000;stroke-width:0.8;"
                 x="322.835052"
                 xlink:href="#mad8b0c3765"
                 y="307.584"
                 id="use11" />
            </g>
          </g>
          <g
             id="text_3">
            <!-- $\mathdefault{10^{1}}$ -->
            <g
               transform="translate(314.035052 322.182437)scale(0.1 -0.1)"
               id="g14">
              <use
                 transform="translate(0 0.684375)"
                 xlink:href="#DejaVuSans-49"
                 id="use12" />
              <use
                 transform="translate(63.623047 0.684375)"
                 xlink:href="#DejaVuSans-48"
                 id="use13" />
              <use
                 transform="translate(128.203125 38.965625)scale(0.7)"
                 xlink:href="#DejaVuSans-49"
                 id="use14" />
            </g>
          </g>
        </g>
        <g
           id="xtick_4">
          <g
             id="line2d_4">
            <defs
               id="defs14">
              <path
                 d="M 0 0  L 0 2  "
                 id="m59d2b64ac1"
                 style="stroke:#000000;stroke-width:0.6;" />
            </defs>
            <g
               id="g15">
              <use
                 style="stroke:#000000;stroke-width:0.6;"
                 x="63.296754"
                 xlink:href="#m59d2b64ac1"
                 y="307.584"
                 id="use15" />
            </g>
          </g>
        </g>
        <g
           id="xtick_5">
          <g
             id="line2d_5">
            <g
               id="g16">
              <use
                 style="stroke:#000000;stroke-width:0.6;"
                 x="73.785698"
                 xlink:href="#m59d2b64ac1"
                 y="307.584"
                 id="use16" />
            </g>
          </g>
        </g>
        <g
           id="xtick_6">
          <g
             id="line2d_6">
            <g
               id="g17">
              <use
                 style="stroke:#000000;stroke-width:0.6;"
                 x="82.35579"
                 xlink:href="#m59d2b64ac1"
                 y="307.584"
                 id="use17" />
            </g>
          </g>
        </g>
        <g
           id="xtick_7">
          <g
             id="line2d_7">
            <g
               id="g18">
              <use
                 style="stroke:#000000;stroke-width:0.6;"
                 x="89.601699"
                 xlink:href="#m59d2b64ac1"
                 y="307.584"
                 id="use18" />
            </g>
          </g>
        </g>
        <g
           id="xtick_8">
          <g
             id="line2d_8">
            <g
               id="g19">
              <use
                 style="stroke:#000000;stroke-width:0.6;"
                 x="95.878392"
                 xlink:href="#m59d2b64ac1"
                 y="307.584"
                 id="use19" />
            </g>
          </g>
        </g>
        <g
           id="xtick_9">
          <g
             id="line2d_9">
            <g
               id="g20">
              <use
                 style="stroke:#000000;stroke-width:0.6;"
                 x="101.414826"
                 xlink:href="#m59d2b64ac1"
                 y="307.584"
                 id="use20" />
            </g>
          </g>
        </g>
        <g
           id="xtick_10">
          <g
             id="line2d_10">
            <g
               id="g21">
              <use
                 style="stroke:#000000;stroke-width:0.6;"
                 x="138.948974"
                 xlink:href="#m59d2b64ac1"
                 y="307.584"
                 id="use21" />
            </g>
          </g>
        </g>
        <g
           id="xtick_11">
          <g
             id="line2d_11">
            <g
               id="g22">
              <use
                 style="stroke:#000000;stroke-width:0.6;"
                 x="158.00801"
                 xlink:href="#m59d2b64ac1"
                 y="307.584"
                 id="use22" />
            </g>
          </g>
        </g>
        <g
           id="xtick_12">
          <g
             id="line2d_12">
            <g
               id="g23">
              <use
                 style="stroke:#000000;stroke-width:0.6;"
                 x="171.530612"
                 xlink:href="#m59d2b64ac1"
                 y="307.584"
                 id="use23" />
            </g>
          </g>
        </g>
        <g
           id="xtick_13">
          <g
             id="line2d_13">
            <g
               id="g24">
              <use
                 style="stroke:#000000;stroke-width:0.6;"
                 x="182.019557"
                 xlink:href="#m59d2b64ac1"
                 y="307.584"
                 id="use24" />
            </g>
          </g>
        </g>
        <g
           id="xtick_14">
          <g
             id="line2d_14">
            <g
               id="g25">
              <use
                 style="stroke:#000000;stroke-width:0.6;"
                 x="190.589648"
                 xlink:href="#m59d2b64ac1"
                 y="307.584"
                 id="use25" />
            </g>
          </g>
        </g>
        <g
           id="xtick_15">
          <g
             id="line2d_15">
            <g
               id="g26">
              <use
                 style="stroke:#000000;stroke-width:0.6;"
                 x="197.835558"
                 xlink:href="#m59d2b64ac1"
                 y="307.584"
                 id="use26" />
            </g>
          </g>
        </g>
        <g
           id="xtick_16">
          <g
             id="line2d_16">
            <g
               id="g27">
              <use
                 style="stroke:#000000;stroke-width:0.6;"
                 x="204.11225"
                 xlink:href="#m59d2b64ac1"
                 y="307.584"
                 id="use27" />
            </g>
          </g>
        </g>
        <g
           id="xtick_17">
          <g
             id="line2d_17">
            <g
               id="g28">
              <use
                 style="stroke:#000000;stroke-width:0.6;"
                 x="209.648685"
                 xlink:href="#m59d2b64ac1"
                 y="307.584"
                 id="use28" />
            </g>
          </g>
        </g>
        <g
           id="xtick_18">
          <g
             id="line2d_18">
            <g
               id="g29">
              <use
                 style="stroke:#000000;stroke-width:0.6;"
                 x="247.182832"
                 xlink:href="#m59d2b64ac1"
                 y="307.584"
                 id="use29" />
            </g>
          </g>
        </g>
        <g
           id="xtick_19">
          <g
             id="line2d_19">
            <g
               id="g30">
              <use
                 style="stroke:#000000;stroke-width:0.6;"
                 x="266.241869"
                 xlink:href="#m59d2b64ac1"
                 y="307.584"
                 id="use30" />
            </g>
          </g>
        </g>
        <g
           id="xtick_20">
          <g
             id="line2d_20">
            <g
               id="g31">
              <use
                 style="stroke:#000000;stroke-width:0.6;"
                 x="279.76447"
                 xlink:href="#m59d2b64ac1"
                 y="307.584"
                 id="use31" />
            </g>
          </g>
        </g>
        <g
           id="xtick_21">
          <g
             id="line2d_21">
            <g
               id="g32">
              <use
                 style="stroke:#000000;stroke-width:0.6;"
                 x="290.253415"
                 xlink:href="#m59d2b64ac1"
                 y="307.584"
                 id="use32" />
            </g>
          </g>
        </g>
        <g
           id="xtick_22">
          <g
             id="line2d_22">
            <g
               id="g33">
              <use
                 style="stroke:#000000;stroke-width:0.6;"
                 x="298.823506"
                 xlink:href="#m59d2b64ac1"
                 y="307.584"
                 id="use33" />
            </g>
          </g>
        </g>
        <g
           id="xtick_23">
          <g
             id="line2d_23">
            <g
               id="g34">
              <use
                 style="stroke:#000000;stroke-width:0.6;"
                 x="306.069416"
                 xlink:href="#m59d2b64ac1"
                 y="307.584"
                 id="use34" />
            </g>
          </g>
        </g>
        <g
           id="xtick_24">
          <g
             id="line2d_24">
            <g
               id="g35">
              <use
                 style="stroke:#000000;stroke-width:0.6;"
                 x="312.346108"
                 xlink:href="#m59d2b64ac1"
                 y="307.584"
                 id="use35" />
            </g>
          </g>
        </g>
        <g
           id="xtick_25">
          <g
             id="line2d_25">
            <g
               id="g36">
              <use
                 style="stroke:#000000;stroke-width:0.6;"
                 x="317.882543"
                 xlink:href="#m59d2b64ac1"
                 y="307.584"
                 id="use36" />
            </g>
          </g>
        </g>
        <g
           id="xtick_26">
          <g
             id="line2d_26">
            <g
               id="g37">
              <use
                 style="stroke:#000000;stroke-width:0.6;"
                 x="355.41669"
                 xlink:href="#m59d2b64ac1"
                 y="307.584"
                 id="use37" />
            </g>
          </g>
        </g>
        <g
           id="xtick_27">
          <g
             id="line2d_27">
            <g
               id="g38">
              <use
                 style="stroke:#000000;stroke-width:0.6;"
                 x="374.475727"
                 xlink:href="#m59d2b64ac1"
                 y="307.584"
                 id="use38" />
            </g>
          </g>
        </g>
        <g
           id="xtick_28">
          <g
             id="line2d_28">
            <g
               id="g39">
              <use
                 style="stroke:#000000;stroke-width:0.6;"
                 x="387.998328"
                 xlink:href="#m59d2b64ac1"
                 y="307.584"
                 id="use39" />
            </g>
          </g>
        </g>
        <g
           id="xtick_29">
          <g
             id="line2d_29">
            <g
               id="g40">
              <use
                 style="stroke:#000000;stroke-width:0.6;"
                 x="398.487273"
                 xlink:href="#m59d2b64ac1"
                 y="307.584"
                 id="use40" />
            </g>
          </g>
        </g>
        <g
           id="xtick_30">
          <g
             id="line2d_30">
            <g
               id="g41">
              <use
                 style="stroke:#000000;stroke-width:0.6;"
                 x="407.057364"
                 xlink:href="#m59d2b64ac1"
                 y="307.584"
                 id="use41" />
            </g>
          </g>
        </g>
        <g
           id="xtick_31">
          <g
             id="line2d_31">
            <g
               id="g42">
              <use
                 style="stroke:#000000;stroke-width:0.6;"
                 x="414.303274"
                 xlink:href="#m59d2b64ac1"
                 y="307.584"
                 id="use42" />
            </g>
          </g>
        </g>
      </g>
      <g
         id="matplotlib.axis_2">
        <g
           id="ytick_1">
          <g
             id="line2d_32">
            <defs
               id="defs42">
              <path
                 d="M 0 0  L -3.5 0  "
                 id="m1dcf3980c4"
                 style="stroke:#000000;stroke-width:0.8;" />
            </defs>
            <g
               id="g43">
              <use
                 style="stroke:#000000;stroke-width:0.8;"
                 x="57.6"
                 xlink:href="#m1dcf3980c4"
                 y="284.049916"
                 id="use43" />
            </g>
          </g>
          <g
             id="text_4">
            <!-- −40 -->
            <defs
               id="defs43">
              <path
                 d="M 37.796875 64.3125  L 12.890625 25.390625  L 37.796875 25.390625  z M 35.203125 72.90625  L 47.609375 72.90625  L 47.609375 25.390625  L 58.015625 25.390625  L 58.015625 17.1875  L 47.609375 17.1875  L 47.609375 0  L 37.796875 0  L 37.796875 17.1875  L 4.890625 17.1875  L 4.890625 26.703125  z "
                 id="DejaVuSans-52" />
            </defs>
            <g
               transform="translate(29.495313 287.849134)scale(0.1 -0.1)"
               id="g46">
              <use
                 xlink:href="#DejaVuSans-8722"
                 id="use44" />
              <use
                 x="83.789062"
                 xlink:href="#DejaVuSans-52"
                 id="use45" />
              <use
                 x="147.412109"
                 xlink:href="#DejaVuSans-48"
                 id="use46" />
            </g>
          </g>
        </g>
        <g
           id="ytick_2">
          <g
             id="line2d_33">
            <g
               id="g47">
              <use
                 style="stroke:#000000;stroke-width:0.8;"
                 x="57.6"
                 xlink:href="#m1dcf3980c4"
                 y="253.727676"
                 id="use47" />
            </g>
          </g>
          <g
             id="text_5">
            <!-- −35 -->
            <defs
               id="defs47">
              <path
                 d="M 40.578125 39.3125  Q 47.65625 37.796875 51.625 33  Q 55.609375 28.21875 55.609375 21.1875  Q 55.609375 10.40625 48.1875 4.484375  Q 40.765625 -1.421875 27.09375 -1.421875  Q 22.515625 -1.421875 17.65625 -0.515625  Q 12.796875 0.390625 7.625 2.203125  L 7.625 11.71875  Q 11.71875 9.328125 16.59375 8.109375  Q 21.484375 6.890625 26.8125 6.890625  Q 36.078125 6.890625 40.9375 10.546875  Q 45.796875 14.203125 45.796875 21.1875  Q 45.796875 27.640625 41.28125 31.265625  Q 36.765625 34.90625 28.71875 34.90625  L 20.21875 34.90625  L 20.21875 43.015625  L 29.109375 43.015625  Q 36.375 43.015625 40.234375 45.921875  Q 44.09375 48.828125 44.09375 54.296875  Q 44.09375 59.90625 40.109375 62.90625  Q 36.140625 65.921875 28.71875 65.921875  Q 24.65625 65.921875 20.015625 65.03125  Q 15.375 64.15625 9.8125 62.3125  L 9.8125 71.09375  Q 15.4375 72.65625 20.34375 73.4375  Q 25.25 74.21875 29.59375 74.21875  Q 40.828125 74.21875 47.359375 69.109375  Q 53.90625 64.015625 53.90625 55.328125  Q 53.90625 49.265625 50.4375 45.09375  Q 46.96875 40.921875 40.578125 39.3125  z "
                 id="DejaVuSans-51" />
              <path
                 d="M 10.796875 72.90625  L 49.515625 72.90625  L 49.515625 64.59375  L 19.828125 64.59375  L 19.828125 46.734375  Q 21.96875 47.46875 24.109375 47.828125  Q 26.265625 48.1875 28.421875 48.1875  Q 40.625 48.1875 47.75 41.5  Q 54.890625 34.8125 54.890625 23.390625  Q 54.890625 11.625 47.5625 5.09375  Q 40.234375 -1.421875 26.90625 -1.421875  Q 22.3125 -1.421875 17.546875 -0.640625  Q 12.796875 0.140625 7.71875 1.703125  L 7.71875 11.625  Q 12.109375 9.234375 16.796875 8.0625  Q 21.484375 6.890625 26.703125 6.890625  Q 35.15625 6.890625 40.078125 11.328125  Q 45.015625 15.765625 45.015625 23.390625  Q 45.015625 31 40.078125 35.4375  Q 35.15625 39.890625 26.703125 39.890625  Q 22.75 39.890625 18.8125 39.015625  Q 14.890625 38.140625 10.796875 36.28125  z "
                 id="DejaVuSans-53" />
            </defs>
            <g
               transform="translate(29.495313 257.526895)scale(0.1 -0.1)"
               id="g50">
              <use
                 xlink:href="#DejaVuSans-8722"
                 id="use48" />
              <use
                 x="83.789062"
                 xlink:href="#DejaVuSans-51"
                 id="use49" />
              <use
                 x="147.412109"
                 xlink:href="#DejaVuSans-53"
                 id="use50" />
            </g>
          </g>
        </g>
        <g
           id="ytick_3">
          <g
             id="line2d_34">
            <g
               id="g51">
              <use
                 style="stroke:#000000;stroke-width:0.8;"
                 x="57.6"
                 xlink:href="#m1dcf3980c4"
                 y="223.405437"
                 id="use51" />
            </g>
          </g>
          <g
             id="text_6">
            <!-- −30 -->
            <g
               transform="translate(29.495313 227.204655)scale(0.1 -0.1)"
               id="g54">
              <use
                 xlink:href="#DejaVuSans-8722"
                 id="use52" />
              <use
                 x="83.789062"
                 xlink:href="#DejaVuSans-51"
                 id="use53" />
              <use
                 x="147.412109"
                 xlink:href="#DejaVuSans-48"
                 id="use54" />
            </g>
          </g>
        </g>
        <g
           id="ytick_4">
          <g
             id="line2d_35">
            <g
               id="g55">
              <use
                 style="stroke:#000000;stroke-width:0.8;"
                 x="57.6"
                 xlink:href="#m1dcf3980c4"
                 y="193.083197"
                 id="use55" />
            </g>
          </g>
          <g
             id="text_7">
            <!-- −25 -->
            <defs
               id="defs55">
              <path
                 d="M 19.1875 8.296875  L 53.609375 8.296875  L 53.609375 0  L 7.328125 0  L 7.328125 8.296875  Q 12.9375 14.109375 22.625 23.890625  Q 32.328125 33.6875 34.8125 36.53125  Q 39.546875 41.84375 41.421875 45.53125  Q 43.3125 49.21875 43.3125 52.78125  Q 43.3125 58.59375 39.234375 62.25  Q 35.15625 65.921875 28.609375 65.921875  Q 23.96875 65.921875 18.8125 64.3125  Q 13.671875 62.703125 7.8125 59.421875  L 7.8125 69.390625  Q 13.765625 71.78125 18.9375 73  Q 24.125 74.21875 28.421875 74.21875  Q 39.75 74.21875 46.484375 68.546875  Q 53.21875 62.890625 53.21875 53.421875  Q 53.21875 48.921875 51.53125 44.890625  Q 49.859375 40.875 45.40625 35.40625  Q 44.1875 33.984375 37.640625 27.21875  Q 31.109375 20.453125 19.1875 8.296875  z "
                 id="DejaVuSans-50" />
            </defs>
            <g
               transform="translate(29.495313 196.882416)scale(0.1 -0.1)"
               id="g58">
              <use
                 xlink:href="#DejaVuSans-8722"
                 id="use56" />
              <use
                 x="83.789062"
                 xlink:href="#DejaVuSans-50"
                 id="use57" />
              <use
                 x="147.412109"
                 xlink:href="#DejaVuSans-53"
                 id="use58" />
            </g>
          </g>
        </g>
        <g
           id="ytick_5">
          <g
             id="line2d_36">
            <g
               id="g59">
              <use
                 style="stroke:#000000;stroke-width:0.8;"
                 x="57.6"
                 xlink:href="#m1dcf3980c4"
                 y="162.760958"
                 id="use59" />
            </g>
          </g>
          <g
             id="text_8">
            <!-- −20 -->
            <g
               transform="translate(29.495313 166.560177)scale(0.1 -0.1)"
               id="g62">
              <use
                 xlink:href="#DejaVuSans-8722"
                 id="use60" />
              <use
                 x="83.789062"
                 xlink:href="#DejaVuSans-50"
                 id="use61" />
              <use
                 x="147.412109"
                 xlink:href="#DejaVuSans-48"
                 id="use62" />
            </g>
          </g>
        </g>
        <g
           id="ytick_6">
          <g
             id="line2d_37">
            <g
               id="g63">
              <use
                 style="stroke:#000000;stroke-width:0.8;"
                 x="57.6"
                 xlink:href="#m1dcf3980c4"
                 y="132.438718"
                 id="use63" />
            </g>
          </g>
          <g
             id="text_9">
            <!-- −15 -->
            <g
               transform="translate(29.495313 136.237937)scale(0.1 -0.1)"
               id="g66">
              <use
                 xlink:href="#DejaVuSans-8722"
                 id="use64" />
              <use
                 x="83.789062"
                 xlink:href="#DejaVuSans-49"
                 id="use65" />
              <use
                 x="147.412109"
                 xlink:href="#DejaVuSans-53"
                 id="use66" />
            </g>
          </g>
        </g>
        <g
           id="ytick_7">
          <g
             id="line2d_38">
            <g
               id="g67">
              <use
                 style="stroke:#000000;stroke-width:0.8;"
                 x="57.6"
                 xlink:href="#m1dcf3980c4"
                 y="102.116479"
                 id="use67" />
            </g>
          </g>
          <g
             id="text_10">
            <!-- −10 -->
            <g
               transform="translate(29.495313 105.915698)scale(0.1 -0.1)"
               id="g70">
              <use
                 xlink:href="#DejaVuSans-8722"
                 id="use68" />
              <use
                 x="83.789062"
                 xlink:href="#DejaVuSans-49"
                 id="use69" />
              <use
                 x="147.412109"
                 xlink:href="#DejaVuSans-48"
                 id="use70" />
            </g>
          </g>
        </g>
        <g
           id="ytick_8">
          <g
             id="line2d_39">
            <g
               id="g71">
              <use
                 style="stroke:#000000;stroke-width:0.8;"
                 x="57.6"
                 xlink:href="#m1dcf3980c4"
                 y="71.794239"
                 id="use71" />
            </g>
          </g>
          <g
             id="text_11">
            <!-- −5 -->
            <g
               transform="translate(35.857813 75.593458)scale(0.1 -0.1)"
               id="g73">
              <use
                 xlink:href="#DejaVuSans-8722"
                 id="use72" />
              <use
                 x="83.789062"
                 xlink:href="#DejaVuSans-53"
                 id="use73" />
            </g>
          </g>
        </g>
        <g
           id="ytick_9">
          <g
             id="line2d_40">
            <g
               id="g74">
              <use
                 style="stroke:#000000;stroke-width:0.8;"
                 x="57.6"
                 xlink:href="#m1dcf3980c4"
                 y="41.472"
                 id="use74" />
            </g>
          </g>
          <g
             id="text_12">
            <!-- 0 -->
            <g
               transform="translate(44.2375 45.271219)scale(0.1 -0.1)"
               id="g75">
              <use
                 xlink:href="#DejaVuSans-48"
                 id="use75" />
            </g>
          </g>
        </g>
      </g>
      <g
         id="line2d_41">
        <path
           clip-path="url(#p937ba67920)"
           d="M -1 97.637346  L 73.832727 97.642981  L 106.414365 126.5714  L 125.473401 109.418192  L 138.996003 117.79186  L 149.484948 119.262445  L 158.055039 100.042047  L 165.300949 97.854822  L 171.577641 109.887492  L 177.114076 150.479019  L 182.066585 153.434352  L 186.546675 131.789081  L 190.636677 117.173823  L 194.399114 126.422206  L 197.882586 125.477069  L 201.125622 128.007274  L 204.159279 134.209304  L 207.008961 153.216532  L 209.695713 155.921447  L 212.237163 145.548705  L 214.648223 144.393747  L 216.941623 150.048778  L 219.128313 153.533497  L 221.217785 152.403631  L 223.218315 172.158799  L 225.137168 165.5916  L 226.980752 148.224238  L 228.75475 141.494601  L 230.464224 140.797456  L 232.113705 162.033736  L 233.70726 161.380776  L 235.248557 156.372504  L 236.740916 190.309123  L 238.18735 175.901046  L 239.590599 189.147609  L 240.953169 175.783472  L 242.277351 182.888818  L 243.56525 185.955707  L 244.818801 176.847917  L 246.039788 193.873648  L 248.390546 170.25651  L 249.523261 172.614864  L 250.62932 178.833873  L 251.709951 190.121504  L 252.766296 164.774958  L 253.799423 207.966001  L 254.81033 188.340254  L 255.799953 171.831529  L 256.76917 170.603677  L 257.718806 167.858402  L 258.649635 198.988708  L 259.56239 174.883271  L 260.457757 173.528559  L 261.336388 151.916289  L 263.045862 180.755046  L 264.695343 157.588134  L 265.498873 139.339056  L 266.288897 154.102046  L 267.830195 178.419825  L 268.582297 146.430484  L 269.322554 144.204405  L 270.051334 157.699133  L 270.768987 226.3399  L 271.475848 182.494999  L 272.172237 191.653486  L 272.858459 147.976323  L 273.534807 213.465017  L 274.201561 167.936012  L 274.858989 163.688097  L 275.507349 164.843793  L 276.146888 194.492622  L 276.777842 162.271671  L 277.400439 167.67086  L 278.014897 160.765884  L 278.621426 166.820676  L 279.220229 183.507438  L 279.811499 174.571941  L 280.395424 196.029479  L 280.972184 187.805764  L 281.541953 210.913197  L 282.104898 191.766392  L 282.661182 161.649812  L 283.210958 191.932155  L 283.754379 182.840395  L 284.291589 176.373478  L 284.822729 176.342093  L 285.347934 183.36351  L 285.867335 173.931952  L 286.38106 179.871846  L 286.889231 202.125617  L 287.391967 193.065875  L 287.889383 195.306329  L 288.381591 188.9279  L 288.868697 228.038867  L 289.350808 181.363149  L 289.828024 179.292238  L 290.300443 201.306001  L 291.231273 226.247053  L 291.689866 195.38752  L 292.144028 179.146512  L 292.593843 185.797647  L 293.039395 206.448896  L 293.480763 188.941283  L 293.918026 221.43249  L 294.351258 181.880128  L 294.780534 190.512032  L 295.205924 185.343004  L 295.6275 191.565004  L 296.045328 236.553093  L 296.870005 195.19249  L 297.27698 180.461411  L 297.680462 173.131798  L 298.08051 178.715423  L 298.477183 190.571436  L 298.870535 177.622323  L 299.260624 188.047529  L 299.647501 181.530764  L 300.031221 199.477011  L 300.789388 165.443604  L 301.163935 171.021457  L 301.535521 226.511729  L 301.904192 209.549289  L 302.269995 200.123883  L 302.632972 174.582908  L 302.993168 182.715159  L 303.350625 206.114469  L 303.705384 181.749612  L 304.057486 202.592093  L 304.753875 179.916746  L 305.098238 181.302148  L 305.440097 190.717463  L 305.779487 208.344857  L 306.116445 184.833001  L 306.451004 191.352186  L 306.783199 212.306566  L 307.113062 190.874014  L 307.765925 179.761042  L 308.088987 191.567548  L 308.409844 178.09535  L 308.728526 175.553543  L 309.045062 178.508035  L 309.35948 187.56216  L 309.982077 171.338294  L 310.29031 201.835029  L 310.596535 193.079044  L 310.900778 181.195079  L 311.503419 185.728419  L 311.801866 204.658119  L 312.098431 196.019419  L 312.393137 195.053778  L 312.686006 175.410281  L 312.977062 190.199088  L 313.266327 178.610518  L 313.553822 219.449416  L 313.83957 189.031584  L 314.123591 192.448007  L 314.686536 181.328474  L 314.965501 238.064311  L 315.242819 205.438538  L 315.518511 187.146126  L 316.065092 211.21118  L 316.336017 207.931245  L 316.605389 189.837117  L 316.873227 192.182549  L 317.139547 184.876022  L 317.404366 197.667257  L 317.667703 172.53462  L 317.929572 184.065006  L 318.18999 219.016251  L 318.448973 194.223081  L 318.706538 203.04746  L 318.962698 172.371642  L 319.21747 172.857849  L 319.470869 208.773533  L 319.722909 193.339204  L 319.973605 168.398538  L 320.222971 176.066192  L 320.471021 207.787056  L 321.207413 174.419281  L 321.450335 180.638056  L 321.692008 194.14543  L 321.932446 196.239179  L 322.171659 212.624645  L 322.409662 203.373404  L 322.646465 184.039653  L 322.882081 184.619303  L 323.116523 182.221175  L 323.3498 188.875477  L 323.581926 185.341341  L 323.812911 202.183311  L 324.499133 179.468279  L 324.725665 202.650872  L 324.951111 185.377841  L 325.175481 190.625058  L 325.398785 188.061934  L 325.842235 201.647173  L 326.062401 189.346589  L 326.281541 190.675636  L 326.499663 205.849102  L 326.716779 194.047972  L 327.362171 180.138449  L 327.575348 201.219166  L 327.998823 171.468011  L 328.418516 189.647438  L 328.626966 185.488988  L 328.834496 167.323254  L 329.041113 165.194908  L 329.246826 186.50246  L 329.451643 181.778573  L 329.655571 182.980105  L 329.858618 191.435932  L 330.060792 228.420703  L 330.2621 185.025049  L 330.46255 199.12716  L 330.662148 221.641103  L 330.860903 175.652239  L 331.05882 185.007222  L 331.255908 211.380153  L 331.452173 190.286674  L 331.647622 198.573838  L 331.842261 212.537044  L 332.036098 279.522067  L 332.229139 201.420428  L 332.42139 181.37583  L 332.612858 178.215593  L 332.80355 212.735538  L 333.182627 204.746507  L 333.371026 205.196689  L 333.558672 193.500369  L 333.745573 207.579249  L 333.931733 181.72388  L 334.117159 174.284732  L 334.301856 172.970469  L 334.48583 164.75136  L 334.669087 172.13519  L 335.033472 177.644056  L 335.21461 184.71844  L 335.574806 167.659875  L 335.932263 188.527373  L 336.109977 180.758628  L 336.287022 179.936391  L 336.463403 197.296094  L 336.639124 190.415925  L 336.814191 193.42061  L 336.988608 183.915982  L 337.16238 189.151912  L 337.335513 189.960309  L 337.50801 170.949661  L 337.679876 174.326793  L 338.021735 225.951002  L 338.191736 172.755219  L 338.361125 218.40712  L 338.529906 175.835119  L 338.698082 185.755774  L 338.86566 186.397336  L 339.199032 170.02506  L 339.530058 198.104088  L 339.6947 177.325114  L 339.858768 187.814454  L 340.022265 161.525876  L 340.509371 217.80548  L 340.670625 193.598092  L 340.831327 233.809437  L 340.991482 186.814369  L 341.151093 182.036916  L 341.310164 200.614506  L 341.784171 168.403378  L 341.941118 179.59432  L 342.097542 178.568806  L 342.408837 254.862939  L 342.563714 185.879659  L 342.718084 182.38309  L 342.871947 190.29245  L 343.025309 209.803228  L 343.178172 206.346723  L 343.33054 169.999427  L 343.482415 197.711063  L 343.633802 173.26977  L 343.935119 183.08569  L 344.085057 176.34294  L 344.234517 176.625636  L 344.383504 175.012722  L 344.532021 174.908741  L 344.680069 171.128217  L 344.827653 184.426428  L 344.974775 183.827779  L 345.121437 207.31607  L 345.413397 186.020533  L 345.5587 206.818651  L 345.703555 205.144279  L 345.991932 171.276255  L 346.13546 180.752793  L 346.278551 181.225294  L 346.421208 173.52697  L 346.563433 183.26747  L 346.705229 202.820465  L 346.846599 179.360422  L 347.128069 174.097077  L 347.268174 184.848936  L 347.407863 176.829274  L 347.547139 177.323385  L 347.686002 208.747823  L 347.824457 179.462934  L 347.962505 207.909189  L 348.100149 204.79289  L 348.237391 236.058597  L 348.510679 177.88991  L 348.646729 192.336418  L 348.782387 185.841276  L 348.917655 171.984248  L 349.052534 189.441032  L 349.187027 187.348956  L 349.321137 173.828664  L 349.454865 181.414894  L 349.588213 180.791137  L 349.853781 187.4856  L 350.117857 180.794619  L 350.380457 190.618016  L 350.511209 238.491538  L 350.771628 176.472251  L 350.901298 178.095954  L 351.15957 191.86518  L 351.41643 204.40971  L 351.544336 185.736019  L 351.671895 207.497867  L 351.799108 200.070668  L 352.052507 214.065028  L 352.178696 243.159096  L 352.304547 182.409159  L 352.555243 170.649125  L 352.680091 181.827949  L 352.804609 209.118754  L 352.928798 207.992045  L 353.176195 178.716494  L 353.422297 220.875169  L 353.667117 176.086788  L 353.789051 176.994647  L 354.031973 163.235472  L 354.273646 187.175841  L 354.394019 184.830667  L 354.514083 170.959019  L 354.633842 184.029714  L 354.753297 169.152785  L 354.991299 178.08781  L 355.10985 176.774545  L 355.228103 163.625411  L 355.346059 224.778312  L 355.463719 176.164887  L 355.581086 194.042493  L 355.814944 150.125165  L 356.163564 200.36731  L 356.279198 155.565738  L 356.738912 191.62495  L 356.853142 161.697524  L 356.967094 162.435182  L 357.194174 227.658973  L 357.420161 187.978932  L 357.532749 179.197356  L 357.645068 192.777846  L 357.757119 190.690242  L 357.980423 172.598096  L 358.091678 186.049181  L 358.202671 182.461675  L 358.313402 172.108879  L 358.423873 213.834174  L 358.534085 188.736219  L 358.644039 204.308169  L 358.753736 172.771283  L 358.863178 178.62963  L 358.972366 177.329297  L 359.081301 186.837004  L 359.189984 177.877658  L 359.298416 190.80596  L 359.406599 174.21291  L 359.514533 201.656914  L 359.62222 197.946089  L 359.943809 167.474004  L 360.050518 174.470436  L 360.263213 198.161705  L 360.3692 194.922942  L 360.474949 187.288189  L 360.58046 201.819377  L 360.685736 188.708516  L 360.790776 202.058326  L 360.895581 195.892584  L 361.104495 175.183679  L 361.208604 172.822309  L 361.312483 164.536509  L 361.72572 236.602525  L 361.930984 156.83449  L 362.033281 158.642079  L 362.237209 170.795966  L 362.440256 216.607495  L 362.541452 179.9856  L 362.64243 193.423221  L 362.94407 156.833344  L 363.144093 175.958258  L 363.243786 170.13271  L 363.343268 205.715506  L 363.541604 185.840406  L 363.739105 147.131952  L 363.935781 200.176265  L 364.131637 154.449767  L 364.22926 206.248744  L 364.423899 177.008897  L 364.520918 172.92856  L 364.617736 164.179405  L 364.714356 175.436011  L 364.810777 158.919457  L 364.907001 171.533266  L 365.003028 171.145285  L 365.09886 165.067152  L 365.194496 183.52114  L 365.289939 165.291759  L 365.385188 205.689146  L 365.480244 195.558617  L 365.575109 217.182297  L 365.764265 185.972977  L 365.858559 181.083936  L 365.952664 151.15541  L 366.14031 165.848101  L 366.233853 189.743865  L 366.420383 161.975823  L 366.513371 195.133521  L 366.606175 165.70496  L 366.698796 206.441426  L 366.883494 153.461494  L 366.975571 178.987233  L 367.067468 172.503739  L 367.159186 179.352191  L 367.250725 151.888256  L 367.342086 168.109746  L 367.43327 214.953082  L 367.615109 158.65628  L 367.705766 148.769874  L 367.886556 176.714819  L 368.066653 135.078292  L 368.156444 145.995274  L 368.246063 214.111312  L 368.335512 200.880048  L 368.513901 126.668688  L 368.691615 177.998277  L 368.780221 171.829403  L 368.956933 127.861309  L 369.132983 200.337153  L 369.395829 138.733237  L 369.570246 201.265067  L 369.657212 164.354391  L 369.744018 167.59194  L 369.830664 156.127218  L 369.91715 205.180298  L 370.003478 190.630219  L 370.089647 149.36686  L 370.347212 203.3769  L 370.51814 176.342549  L 370.603372 185.562135  L 370.68845 184.735461  L 370.773374 168.509344  L 370.858145 244.421574  L 370.942763 163.03385  L 371.027229 175.195588  L 371.111543 218.792963  L 371.195707 170.95326  L 371.27972 177.974428  L 371.363584 194.696118  L 371.447298 173.589882  L 371.530863 181.087494  L 371.614279 162.388943  L 371.78067 190.760097  L 371.863645 189.673742  L 371.946474 171.703139  L 372.029157 196.80322  L 372.111695 169.416918  L 372.194089 176.426043  L 372.358443 223.290803  L 372.522225 169.307647  L 372.603903 172.549423  L 372.685438 170.341256  L 372.766833 157.232773  L 372.848087 165.014587  L 373.010175 206.62972  L 373.171705 165.661701  L 373.252263 169.655608  L 373.332683 165.270804  L 373.412965 172.163624  L 373.493111 213.324199  L 373.57312 198.971668  L 373.652993 184.110519  L 373.732731 188.475447  L 373.812333 226.169412  L 373.971135 173.504829  L 374.129403 201.754745  L 374.287139 177.978664  L 374.365809 182.648227  L 374.444348 209.484953  L 374.601033 175.332778  L 374.67918 283.392  L 374.835085 201.725579  L 374.912844 198.695768  L 374.990474 171.350242  L 375.067977 176.529459  L 375.145352 208.88442  L 375.299721 170.22884  L 375.376716 176.147549  L 375.530329 180.825792  L 375.606947 163.405704  L 375.912178 207.595048  L 376.064053 182.525757  L 376.139807 201.036831  L 376.215439 180.919393  L 376.29095 205.910261  L 376.441608 183.17669  L 376.516757 187.090757  L 376.591785 177.013957  L 376.741484 195.614364  L 376.965142 177.422348  L 377.039459 205.352458  L 377.187741 170.367997  L 377.261707 197.045443  L 377.409291 164.894684  L 377.482909 172.462505  L 377.556412 217.017209  L 377.629801 188.311159  L 377.703075 220.698411  L 377.776235 211.696731  L 377.849282 174.828226  L 377.922215 188.559438  L 377.995035 187.987179  L 378.140338 166.515584  L 378.212821 195.971905  L 378.285192 189.885679  L 378.501641 171.599293  L 378.57357 191.643375  L 378.860189 154.248893  L 378.931571 172.906806  L 379.002846 221.308164  L 379.074012 214.326157  L 379.145071 165.933091  L 379.286867 206.531841  L 379.428236 168.275062  L 379.569182 189.315379  L 379.639497 235.223294  L 379.849812 169.276743  L 380.128776 223.277384  L 380.19826 182.121425  L 380.26764 197.544414  L 380.406095 175.31898  L 380.47517 178.651666  L 380.544143 204.96964  L 380.681787 170.714427  L 380.750458 213.189222  L 380.819029 203.66709  L 380.8875 202.044918  L 380.955872 207.258067  L 381.160391 186.50708  L 381.228367 189.564934  L 381.364025 203.749793  L 381.431707 175.189562  L 381.499292 175.328908  L 381.701466 196.721023  L 381.768665 179.582372  L 381.835767 188.023785  L 381.902774 187.900076  L 381.969686 214.864678  L 382.103224 182.118276  L 382.169851 207.978625  L 382.236384 178.584554  L 382.302823 194.871945  L 382.369167 212.230399  L 382.435419 177.429665  L 382.501577 188.656011  L 382.567642 187.026187  L 382.633615 206.778941  L 382.765282 179.373472  L 382.896582 197.908363  L 383.092847 168.52349  L 383.223237 186.864473  L 383.288296 182.120317  L 383.353265 183.775923  L 383.482936 167.86239  L 383.547637 193.635349  L 383.612249 170.50859  L 383.676772 180.92252  L 383.805554 210.884837  L 383.869813 176.119996  L 383.933984 184.140531  L 383.998068 194.498853  L 384.125974 161.059558  L 384.189796 162.023726  L 384.380746 185.52565  L 384.507616 159.191823  L 384.570923 165.479407  L 384.823302 201.126953  L 384.886185 168.774524  L 384.948984 196.971259  L 385.0117 165.998673  L 385.074332 213.320587  L 385.199347 156.299826  L 385.386247 186.503988  L 385.572407 168.614063  L 385.634297 170.251601  L 385.696105 194.619376  L 385.757833 190.902924  L 385.94253 181.383696  L 386.065259 174.654487  L 386.126504 166.689605  L 386.248755 194.336092  L 386.309761 220.569624  L 386.492307 165.649727  L 386.552998 154.299433  L 386.734603 188.411159  L 386.794982 165.084498  L 386.855284 180.290394  L 386.975656 165.054546  L 387.035727 176.643212  L 387.095721 161.65086  L 387.334935 221.922916  L 387.394549 172.872941  L 387.454087 186.775064  L 387.51355 193.479026  L 387.691488 159.7516  L 387.750652 159.647856  L 387.809741 154.697339  L 387.868756 155.565132  L 387.986564 173.740027  L 388.104077 171.162206  L 388.221297 184.726757  L 388.279798 207.332403  L 388.396582 170.555338  L 388.454865 185.694595  L 388.513076 165.573089  L 388.571215 197.891356  L 388.629282 166.334146  L 388.687278 167.410713  L 388.745202 183.473494  L 388.803054 163.600917  L 388.860836 180.533974  L 388.918547 212.638038  L 388.976187 196.738465  L 389.033756 166.951819  L 389.091255 172.30779  L 389.148684 201.014313  L 389.263331 162.352948  L 389.32055 184.732192  L 389.434779 159.388136  L 389.548732 193.256624  L 389.662409 169.967231  L 389.83241 185.943213  L 389.945404 155.295169  L 390.001799 179.305185  L 390.058127 168.697167  L 390.114387 173.108682  L 390.282764 193.549478  L 390.450541 145.005086  L 390.617721 182.275224  L 390.673316 176.672738  L 390.839707 151.52157  L 391.005511 185.979618  L 391.170732 176.32886  L 391.225677 197.180845  L 391.335374 159.466199  L 391.390127 207.121891  L 391.444816 160.867624  L 391.499442 150.169872  L 391.554004 191.289783  L 391.608503 186.167815  L 391.662939 184.187895  L 391.771622 146.552129  L 391.825869 188.775285  L 391.880054 168.395928  L 391.988237 180.98189  L 392.150046 156.101979  L 392.203858 159.656471  L 392.311299 195.070593  L 392.364928 147.319845  L 392.418495 158.727571  L 392.472001 173.094062  L 392.578832 142.065969  L 392.68542 205.193565  L 392.791767 153.457911  L 393.003742 178.45467  L 393.109372 164.634492  L 393.162098 165.867086  L 393.214765 168.650745  L 393.372413 195.066116  L 393.477219 150.214001  L 393.529535 177.474608  L 393.581792 176.216511  L 393.686132 152.666988  L 393.790242 188.749906  L 393.84221 180.442547  L 393.894121 180.9836  L 393.945975 180.167414  L 394.049511 144.641877  L 394.101193 164.745542  L 394.152819 145.463005  L 394.204389 144.747409  L 394.307358 178.178449  L 394.358758 154.312244  L 394.410102 156.25784  L 394.46139 166.777473  L 394.512622 157.34834  L 394.563798 149.137665  L 394.614918 169.625536  L 394.665983 165.253157  L 394.716993 148.049145  L 394.767947 151.681089  L 394.818847 186.191691  L 394.869691 156.803374  L 394.971214 186.945906  L 395.072519 150.547987  L 395.12309 151.102747  L 395.173606 156.831773  L 395.224068 203.389642  L 395.274476 142.015054  L 395.32483 151.52774  L 395.37513 167.463282  L 395.425376 147.4095  L 395.475569 150.92419  L 395.525708 155.920424  L 395.575793 155.323596  L 395.675805 138.426945  L 395.725731 165.380683  L 395.775604 139.67447  L 395.825424 145.368553  L 395.875191 164.054529  L 395.924906 141.72846  L 395.974569 135.917413  L 396.172695 195.930993  L 396.320743 133.113056  L 396.419184 171.352326  L 396.468327 146.019717  L 396.517419 133.066331  L 396.566459 133.745385  L 396.762111 179.420666  L 396.859633 124.743132  L 396.908318 131.3827  L 396.956953 135.612182  L 397.005537 128.63776  L 397.102555 141.758617  L 397.15099 138.503905  L 397.199374 146.529596  L 397.247708 136.797578  L 397.344229 117.868104  L 397.536677 154.574209  L 397.680498 112.162114  L 397.776134 123.632009  L 397.82388 127.093907  L 397.919225 114.807659  L 397.966825 128.604878  L 398.061882 124.771957  L 398.109338 77.391477  L 398.156746 97.785507  L 398.204107 98.618784  L 398.25142 112.715085  L 398.393074 41.472  L 398.487273 69.586461  L 398.487273 69.586461  "
           style="fill:none;stroke:#1f77b4;stroke-linecap:square;stroke-width:1.5;"
           id="path75" />
      </g>
      <g
         id="patch_3">
        <path
           d="M 57.6 307.584  L 57.6 41.472  "
           style="fill:none;stroke:#000000;stroke-linecap:square;stroke-linejoin:miter;stroke-width:0.8;"
           id="path76" />
      </g>
      <g
         id="patch_4">
        <path
           d="M 414.72 307.584  L 414.72 41.472  "
           style="fill:none;stroke:#000000;stroke-linecap:square;stroke-linejoin:miter;stroke-width:0.8;"
           id="path77" />
      </g>
      <g
         id="patch_5">
        <path
           d="M 57.6 307.584  L 414.72 307.584  "
           style="fill:none;stroke:#000000;stroke-linecap:square;stroke-linejoin:miter;stroke-width:0.8;"
           id="path78" />
      </g>
      <g
         id="patch_6">
        <path
           d="M 57.6 41.472  L 414.72 41.472  "
           style="fill:none;stroke:#000000;stroke-linecap:square;stroke-linejoin:miter;stroke-width:0.8;"
           id="path79" />
      </g>
    </g>
  </g>
  <defs
     id="defs79">
    <clipPath
       id="p937ba67920">
      <rect
         height="266.112"
         width="357.12"
         x="57.6"
         y="41.472"
         id="rect79" />
    </clipPath>
  </defs>
</svg>
