<?xml version="1.0" encoding="UTF-8" standalone="no"?>
<!-- Created with matplotlib (https://matplotlib.org/) -->

<svg
   height="345.6pt"
   version="1.1"
   viewBox="0 0 460.8 345.6"
   width="460.8pt"
   id="svg99"
   sodipodi:docname="freqPlotAnnotated.svg"
   inkscape:version="1.3 (0e150ed6c4, 2023-07-21)"
   xmlns:inkscape="http://www.inkscape.org/namespaces/inkscape"
   xmlns:sodipodi="http://sodipodi.sourceforge.net/DTD/sodipodi-0.dtd"
   xmlns:xlink="http://www.w3.org/1999/xlink"
   xmlns="http://www.w3.org/2000/svg"
   xmlns:svg="http://www.w3.org/2000/svg">
  <sodipodi:namedview
     id="namedview99"
     pagecolor="#505050"
     bordercolor="#eeeeee"
     borderopacity="1"
     inkscape:showpageshadow="0"
     inkscape:pageopacity="0"
     inkscape:pagecheckerboard="0"
     inkscape:deskcolor="#505050"
     inkscape:document-units="pt"
     inkscape:zoom="1.781684"
     inkscape:cx="307.01292"
     inkscape:cy="230.4"
     inkscape:window-width="1920"
     inkscape:window-height="1017"
     inkscape:window-x="-8"
     inkscape:window-y="-8"
     inkscape:window-maximized="1"
     inkscape:current-layer="svg99" />
  <defs
     id="defs1">
    <style
       type="text/css"
       id="style1">&#10;*{stroke-linecap:butt;stroke-linejoin:round;}&#10;  </style>
  </defs>
  <g
     id="figure_1">
    <g
       id="patch_1">
      <path
         d="M 0 345.6  L 460.8 345.6  L 460.8 0  L 0 0  z "
         style="fill:#ffffff;"
         id="path1" />
    </g>
    <g
       id="axes_1">
      <g
         id="patch_2">
        <path
           d="M 57.6 307.584  L 414.72 307.584  L 414.72 41.472  L 57.6 41.472  z "
           style="fill:#ffffff;"
           id="path2" />
      </g>
      <rect
         style="opacity:0.5;fill:#ff0000;fill-opacity:1;stroke:none;stroke-width:6.52364"
         id="rect100"
         width="125.02216"
         height="266.91199"
         x="290.09784"
         y="41.071999" />
      <g
         id="matplotlib.axis_1">
        <g
           id="xtick_1">
          <g
             id="line2d_1">
            <defs
               id="defs2">
              <path
                 d="M 0 0  L 0 3.5  "
                 id="m4307f65637"
                 style="stroke:#000000;stroke-width:0.8;" />
            </defs>
            <g
               id="g2">
              <use
                 style="stroke:#000000;stroke-width:0.8;"
                 x="106.367336"
                 xlink:href="#m4307f65637"
                 y="307.584"
                 id="use2" />
            </g>
          </g>
          <g
             id="text_1">
            <!-- $\mathdefault{10^{-1}}$ -->
            <defs
               id="defs3">
              <path
                 d="M 12.40625 8.296875  L 28.515625 8.296875  L 28.515625 63.921875  L 10.984375 60.40625  L 10.984375 69.390625  L 28.421875 72.90625  L 38.28125 72.90625  L 38.28125 8.296875  L 54.390625 8.296875  L 54.390625 0  L 12.40625 0  z "
                 id="DejaVuSans-49" />
              <path
                 d="M 31.78125 66.40625  Q 24.171875 66.40625 20.328125 58.90625  Q 16.5 51.421875 16.5 36.375  Q 16.5 21.390625 20.328125 13.890625  Q 24.171875 6.390625 31.78125 6.390625  Q 39.453125 6.390625 43.28125 13.890625  Q 47.125 21.390625 47.125 36.375  Q 47.125 51.421875 43.28125 58.90625  Q 39.453125 66.40625 31.78125 66.40625  z M 31.78125 74.21875  Q 44.046875 74.21875 50.515625 64.515625  Q 56.984375 54.828125 56.984375 36.375  Q 56.984375 17.96875 50.515625 8.265625  Q 44.046875 -1.421875 31.78125 -1.421875  Q 19.53125 -1.421875 13.0625 8.265625  Q 6.59375 17.96875 6.59375 36.375  Q 6.59375 54.828125 13.0625 64.515625  Q 19.53125 74.21875 31.78125 74.21875  z "
                 id="DejaVuSans-48" />
              <path
                 d="M 10.59375 35.5  L 73.1875 35.5  L 73.1875 27.203125  L 10.59375 27.203125  z "
                 id="DejaVuSans-8722" />
            </defs>
            <g
               transform="translate(94.617336 322.182437)scale(0.1 -0.1)"
               id="g6">
              <use
                 transform="translate(0 0.684375)"
                 xlink:href="#DejaVuSans-49"
                 id="use3" />
              <use
                 transform="translate(63.623047 0.684375)"
                 xlink:href="#DejaVuSans-48"
                 id="use4" />
              <use
                 transform="translate(128.203125 38.965625)scale(0.7)"
                 xlink:href="#DejaVuSans-8722"
                 id="use5" />
              <use
                 transform="translate(186.855469 38.965625)scale(0.7)"
                 xlink:href="#DejaVuSans-49"
                 id="use6" />
            </g>
          </g>
        </g>
        <g
           id="xtick_2">
          <g
             id="line2d_2">
            <g
               id="g7">
              <use
                 style="stroke:#000000;stroke-width:0.8;"
                 x="214.601194"
                 xlink:href="#m4307f65637"
                 y="307.584"
                 id="use7" />
            </g>
          </g>
          <g
             id="text_2">
            <!-- $\mathdefault{10^{0}}$ -->
            <g
               transform="translate(205.801194 322.182437)scale(0.1 -0.1)"
               id="g10">
              <use
                 transform="translate(0 0.765625)"
                 xlink:href="#DejaVuSans-49"
                 id="use8" />
              <use
                 transform="translate(63.623047 0.765625)"
                 xlink:href="#DejaVuSans-48"
                 id="use9" />
              <use
                 transform="translate(128.203125 39.046875)scale(0.7)"
                 xlink:href="#DejaVuSans-48"
                 id="use10" />
            </g>
          </g>
        </g>
        <g
           id="xtick_3">
          <g
             id="line2d_3">
            <g
               id="g11">
              <use
                 style="stroke:#000000;stroke-width:0.8;"
                 x="322.835052"
                 xlink:href="#m4307f65637"
                 y="307.584"
                 id="use11" />
            </g>
          </g>
          <g
             id="text_3">
            <!-- $\mathdefault{10^{1}}$ -->
            <g
               transform="translate(314.035052 322.182437)scale(0.1 -0.1)"
               id="g14">
              <use
                 transform="translate(0 0.684375)"
                 xlink:href="#DejaVuSans-49"
                 id="use12" />
              <use
                 transform="translate(63.623047 0.684375)"
                 xlink:href="#DejaVuSans-48"
                 id="use13" />
              <use
                 transform="translate(128.203125 38.965625)scale(0.7)"
                 xlink:href="#DejaVuSans-49"
                 id="use14" />
            </g>
          </g>
        </g>
        <g
           id="xtick_4">
          <g
             id="line2d_4">
            <defs
               id="defs14">
              <path
                 d="M 0 0  L 0 2  "
                 id="m886ebe82e1"
                 style="stroke:#000000;stroke-width:0.6;" />
            </defs>
            <g
               id="g15">
              <use
                 style="stroke:#000000;stroke-width:0.6;"
                 x="63.296754"
                 xlink:href="#m886ebe82e1"
                 y="307.584"
                 id="use15" />
            </g>
          </g>
        </g>
        <g
           id="xtick_5">
          <g
             id="line2d_5">
            <g
               id="g16">
              <use
                 style="stroke:#000000;stroke-width:0.6;"
                 x="73.785698"
                 xlink:href="#m886ebe82e1"
                 y="307.584"
                 id="use16" />
            </g>
          </g>
        </g>
        <g
           id="xtick_6">
          <g
             id="line2d_6">
            <g
               id="g17">
              <use
                 style="stroke:#000000;stroke-width:0.6;"
                 x="82.35579"
                 xlink:href="#m886ebe82e1"
                 y="307.584"
                 id="use17" />
            </g>
          </g>
        </g>
        <g
           id="xtick_7">
          <g
             id="line2d_7">
            <g
               id="g18">
              <use
                 style="stroke:#000000;stroke-width:0.6;"
                 x="89.601699"
                 xlink:href="#m886ebe82e1"
                 y="307.584"
                 id="use18" />
            </g>
          </g>
        </g>
        <g
           id="xtick_8">
          <g
             id="line2d_8">
            <g
               id="g19">
              <use
                 style="stroke:#000000;stroke-width:0.6;"
                 x="95.878392"
                 xlink:href="#m886ebe82e1"
                 y="307.584"
                 id="use19" />
            </g>
          </g>
        </g>
        <g
           id="xtick_9">
          <g
             id="line2d_9">
            <g
               id="g20">
              <use
                 style="stroke:#000000;stroke-width:0.6;"
                 x="101.414826"
                 xlink:href="#m886ebe82e1"
                 y="307.584"
                 id="use20" />
            </g>
          </g>
        </g>
        <g
           id="xtick_10">
          <g
             id="line2d_10">
            <g
               id="g21">
              <use
                 style="stroke:#000000;stroke-width:0.6;"
                 x="138.948974"
                 xlink:href="#m886ebe82e1"
                 y="307.584"
                 id="use21" />
            </g>
          </g>
        </g>
        <g
           id="xtick_11">
          <g
             id="line2d_11">
            <g
               id="g22">
              <use
                 style="stroke:#000000;stroke-width:0.6;"
                 x="158.00801"
                 xlink:href="#m886ebe82e1"
                 y="307.584"
                 id="use22" />
            </g>
          </g>
        </g>
        <g
           id="xtick_12">
          <g
             id="line2d_12">
            <g
               id="g23">
              <use
                 style="stroke:#000000;stroke-width:0.6;"
                 x="171.530612"
                 xlink:href="#m886ebe82e1"
                 y="307.584"
                 id="use23" />
            </g>
          </g>
        </g>
        <g
           id="xtick_13">
          <g
             id="line2d_13">
            <g
               id="g24">
              <use
                 style="stroke:#000000;stroke-width:0.6;"
                 x="182.019557"
                 xlink:href="#m886ebe82e1"
                 y="307.584"
                 id="use24" />
            </g>
          </g>
        </g>
        <g
           id="xtick_14">
          <g
             id="line2d_14">
            <g
               id="g25">
              <use
                 style="stroke:#000000;stroke-width:0.6;"
                 x="190.589648"
                 xlink:href="#m886ebe82e1"
                 y="307.584"
                 id="use25" />
            </g>
          </g>
        </g>
        <g
           id="xtick_15">
          <g
             id="line2d_15">
            <g
               id="g26">
              <use
                 style="stroke:#000000;stroke-width:0.6;"
                 x="197.835558"
                 xlink:href="#m886ebe82e1"
                 y="307.584"
                 id="use26" />
            </g>
          </g>
        </g>
        <g
           id="xtick_16">
          <g
             id="line2d_16">
            <g
               id="g27">
              <use
                 style="stroke:#000000;stroke-width:0.6;"
                 x="204.11225"
                 xlink:href="#m886ebe82e1"
                 y="307.584"
                 id="use27" />
            </g>
          </g>
        </g>
        <g
           id="xtick_17">
          <g
             id="line2d_17">
            <g
               id="g28">
              <use
                 style="stroke:#000000;stroke-width:0.6;"
                 x="209.648685"
                 xlink:href="#m886ebe82e1"
                 y="307.584"
                 id="use28" />
            </g>
          </g>
        </g>
        <g
           id="xtick_18">
          <g
             id="line2d_18">
            <g
               id="g29">
              <use
                 style="stroke:#000000;stroke-width:0.6;"
                 x="247.182832"
                 xlink:href="#m886ebe82e1"
                 y="307.584"
                 id="use29" />
            </g>
          </g>
        </g>
        <g
           id="xtick_19">
          <g
             id="line2d_19">
            <g
               id="g30">
              <use
                 style="stroke:#000000;stroke-width:0.6;"
                 x="266.241869"
                 xlink:href="#m886ebe82e1"
                 y="307.584"
                 id="use30" />
            </g>
          </g>
        </g>
        <g
           id="xtick_20">
          <g
             id="line2d_20">
            <g
               id="g31">
              <use
                 style="stroke:#000000;stroke-width:0.6;"
                 x="279.76447"
                 xlink:href="#m886ebe82e1"
                 y="307.584"
                 id="use31" />
            </g>
          </g>
        </g>
        <g
           id="xtick_21">
          <g
             id="line2d_21">
            <g
               id="g32">
              <use
                 style="stroke:#000000;stroke-width:0.6;"
                 x="290.253415"
                 xlink:href="#m886ebe82e1"
                 y="307.584"
                 id="use32" />
            </g>
          </g>
        </g>
        <g
           id="xtick_22">
          <g
             id="line2d_22">
            <g
               id="g33">
              <use
                 style="stroke:#000000;stroke-width:0.6;"
                 x="298.823506"
                 xlink:href="#m886ebe82e1"
                 y="307.584"
                 id="use33" />
            </g>
          </g>
        </g>
        <g
           id="xtick_23">
          <g
             id="line2d_23">
            <g
               id="g34">
              <use
                 style="stroke:#000000;stroke-width:0.6;"
                 x="306.069416"
                 xlink:href="#m886ebe82e1"
                 y="307.584"
                 id="use34" />
            </g>
          </g>
        </g>
        <g
           id="xtick_24">
          <g
             id="line2d_24">
            <g
               id="g35">
              <use
                 style="stroke:#000000;stroke-width:0.6;"
                 x="312.346108"
                 xlink:href="#m886ebe82e1"
                 y="307.584"
                 id="use35" />
            </g>
          </g>
        </g>
        <g
           id="xtick_25">
          <g
             id="line2d_25">
            <g
               id="g36">
              <use
                 style="stroke:#000000;stroke-width:0.6;"
                 x="317.882543"
                 xlink:href="#m886ebe82e1"
                 y="307.584"
                 id="use36" />
            </g>
          </g>
        </g>
        <g
           id="xtick_26">
          <g
             id="line2d_26">
            <g
               id="g37">
              <use
                 style="stroke:#000000;stroke-width:0.6;"
                 x="355.41669"
                 xlink:href="#m886ebe82e1"
                 y="307.584"
                 id="use37" />
            </g>
          </g>
        </g>
        <g
           id="xtick_27">
          <g
             id="line2d_27">
            <g
               id="g38">
              <use
                 style="stroke:#000000;stroke-width:0.6;"
                 x="374.475727"
                 xlink:href="#m886ebe82e1"
                 y="307.584"
                 id="use38" />
            </g>
          </g>
        </g>
        <g
           id="xtick_28">
          <g
             id="line2d_28">
            <g
               id="g39">
              <use
                 style="stroke:#000000;stroke-width:0.6;"
                 x="387.998328"
                 xlink:href="#m886ebe82e1"
                 y="307.584"
                 id="use39" />
            </g>
          </g>
        </g>
        <g
           id="xtick_29">
          <g
             id="line2d_29">
            <g
               id="g40">
              <use
                 style="stroke:#000000;stroke-width:0.6;"
                 x="398.487273"
                 xlink:href="#m886ebe82e1"
                 y="307.584"
                 id="use40" />
            </g>
          </g>
        </g>
        <g
           id="xtick_30">
          <g
             id="line2d_30">
            <g
               id="g41">
              <use
                 style="stroke:#000000;stroke-width:0.6;"
                 x="407.057364"
                 xlink:href="#m886ebe82e1"
                 y="307.584"
                 id="use41" />
            </g>
          </g>
        </g>
        <g
           id="xtick_31">
          <g
             id="line2d_31">
            <g
               id="g42">
              <use
                 style="stroke:#000000;stroke-width:0.6;"
                 x="414.303274"
                 xlink:href="#m886ebe82e1"
                 y="307.584"
                 id="use42" />
            </g>
          </g>
        </g>
        <g
           id="text_4">
          <!-- Frequency (Hz) -->
          <defs
             id="defs42">
            <path
               d="M 9.8125 72.90625  L 51.703125 72.90625  L 51.703125 64.59375  L 19.671875 64.59375  L 19.671875 43.109375  L 48.578125 43.109375  L 48.578125 34.8125  L 19.671875 34.8125  L 19.671875 0  L 9.8125 0  z "
               id="DejaVuSans-70" />
            <path
               d="M 41.109375 46.296875  Q 39.59375 47.171875 37.8125 47.578125  Q 36.03125 48 33.890625 48  Q 26.265625 48 22.1875 43.046875  Q 18.109375 38.09375 18.109375 28.8125  L 18.109375 0  L 9.078125 0  L 9.078125 54.6875  L 18.109375 54.6875  L 18.109375 46.1875  Q 20.953125 51.171875 25.484375 53.578125  Q 30.03125 56 36.53125 56  Q 37.453125 56 38.578125 55.875  Q 39.703125 55.765625 41.0625 55.515625  z "
               id="DejaVuSans-114" />
            <path
               d="M 56.203125 29.59375  L 56.203125 25.203125  L 14.890625 25.203125  Q 15.484375 15.921875 20.484375 11.0625  Q 25.484375 6.203125 34.421875 6.203125  Q 39.59375 6.203125 44.453125 7.46875  Q 49.3125 8.734375 54.109375 11.28125  L 54.109375 2.78125  Q 49.265625 0.734375 44.1875 -0.34375  Q 39.109375 -1.421875 33.890625 -1.421875  Q 20.796875 -1.421875 13.15625 6.1875  Q 5.515625 13.8125 5.515625 26.8125  Q 5.515625 40.234375 12.765625 48.109375  Q 20.015625 56 32.328125 56  Q 43.359375 56 49.78125 48.890625  Q 56.203125 41.796875 56.203125 29.59375  z M 47.21875 32.234375  Q 47.125 39.59375 43.09375 43.984375  Q 39.0625 48.390625 32.421875 48.390625  Q 24.90625 48.390625 20.390625 44.140625  Q 15.875 39.890625 15.1875 32.171875  z "
               id="DejaVuSans-101" />
            <path
               d="M 14.796875 27.296875  Q 14.796875 17.390625 18.875 11.75  Q 22.953125 6.109375 30.078125 6.109375  Q 37.203125 6.109375 41.296875 11.75  Q 45.40625 17.390625 45.40625 27.296875  Q 45.40625 37.203125 41.296875 42.84375  Q 37.203125 48.484375 30.078125 48.484375  Q 22.953125 48.484375 18.875 42.84375  Q 14.796875 37.203125 14.796875 27.296875  z M 45.40625 8.203125  Q 42.578125 3.328125 38.25 0.953125  Q 33.9375 -1.421875 27.875 -1.421875  Q 17.96875 -1.421875 11.734375 6.484375  Q 5.515625 14.40625 5.515625 27.296875  Q 5.515625 40.1875 11.734375 48.09375  Q 17.96875 56 27.875 56  Q 33.9375 56 38.25 53.625  Q 42.578125 51.265625 45.40625 46.390625  L 45.40625 54.6875  L 54.390625 54.6875  L 54.390625 -20.796875  L 45.40625 -20.796875  z "
               id="DejaVuSans-113" />
            <path
               d="M 8.5 21.578125  L 8.5 54.6875  L 17.484375 54.6875  L 17.484375 21.921875  Q 17.484375 14.15625 20.5 10.265625  Q 23.53125 6.390625 29.59375 6.390625  Q 36.859375 6.390625 41.078125 11.03125  Q 45.3125 15.671875 45.3125 23.6875  L 45.3125 54.6875  L 54.296875 54.6875  L 54.296875 0  L 45.3125 0  L 45.3125 8.40625  Q 42.046875 3.421875 37.71875 1  Q 33.40625 -1.421875 27.6875 -1.421875  Q 18.265625 -1.421875 13.375 4.4375  Q 8.5 10.296875 8.5 21.578125  z M 31.109375 56  z "
               id="DejaVuSans-117" />
            <path
               d="M 54.890625 33.015625  L 54.890625 0  L 45.90625 0  L 45.90625 32.71875  Q 45.90625 40.484375 42.875 44.328125  Q 39.84375 48.1875 33.796875 48.1875  Q 26.515625 48.1875 22.3125 43.546875  Q 18.109375 38.921875 18.109375 30.90625  L 18.109375 0  L 9.078125 0  L 9.078125 54.6875  L 18.109375 54.6875  L 18.109375 46.1875  Q 21.34375 51.125 25.703125 53.5625  Q 30.078125 56 35.796875 56  Q 45.21875 56 50.046875 50.171875  Q 54.890625 44.34375 54.890625 33.015625  z "
               id="DejaVuSans-110" />
            <path
               d="M 48.78125 52.59375  L 48.78125 44.1875  Q 44.96875 46.296875 41.140625 47.34375  Q 37.3125 48.390625 33.40625 48.390625  Q 24.65625 48.390625 19.8125 42.84375  Q 14.984375 37.3125 14.984375 27.296875  Q 14.984375 17.28125 19.8125 11.734375  Q 24.65625 6.203125 33.40625 6.203125  Q 37.3125 6.203125 41.140625 7.25  Q 44.96875 8.296875 48.78125 10.40625  L 48.78125 2.09375  Q 45.015625 0.34375 40.984375 -0.53125  Q 36.96875 -1.421875 32.421875 -1.421875  Q 20.0625 -1.421875 12.78125 6.34375  Q 5.515625 14.109375 5.515625 27.296875  Q 5.515625 40.671875 12.859375 48.328125  Q 20.21875 56 33.015625 56  Q 37.15625 56 41.109375 55.140625  Q 45.0625 54.296875 48.78125 52.59375  z "
               id="DejaVuSans-99" />
            <path
               d="M 32.171875 -5.078125  Q 28.375 -14.84375 24.75 -17.8125  Q 21.140625 -20.796875 15.09375 -20.796875  L 7.90625 -20.796875  L 7.90625 -13.28125  L 13.1875 -13.28125  Q 16.890625 -13.28125 18.9375 -11.515625  Q 21 -9.765625 23.484375 -3.21875  L 25.09375 0.875  L 2.984375 54.6875  L 12.5 54.6875  L 29.59375 11.921875  L 46.6875 54.6875  L 56.203125 54.6875  z "
               id="DejaVuSans-121" />
            <path
               id="DejaVuSans-32" />
            <path
               d="M 31 75.875  Q 24.46875 64.65625 21.28125 53.65625  Q 18.109375 42.671875 18.109375 31.390625  Q 18.109375 20.125 21.3125 9.0625  Q 24.515625 -2 31 -13.1875  L 23.1875 -13.1875  Q 15.875 -1.703125 12.234375 9.375  Q 8.59375 20.453125 8.59375 31.390625  Q 8.59375 42.28125 12.203125 53.3125  Q 15.828125 64.359375 23.1875 75.875  z "
               id="DejaVuSans-40" />
            <path
               d="M 9.8125 72.90625  L 19.671875 72.90625  L 19.671875 43.015625  L 55.515625 43.015625  L 55.515625 72.90625  L 65.375 72.90625  L 65.375 0  L 55.515625 0  L 55.515625 34.71875  L 19.671875 34.71875  L 19.671875 0  L 9.8125 0  z "
               id="DejaVuSans-72" />
            <path
               d="M 5.515625 54.6875  L 48.1875 54.6875  L 48.1875 46.484375  L 14.40625 7.171875  L 48.1875 7.171875  L 48.1875 0  L 4.296875 0  L 4.296875 8.203125  L 38.09375 47.515625  L 5.515625 47.515625  z "
               id="DejaVuSans-122" />
            <path
               d="M 8.015625 75.875  L 15.828125 75.875  Q 23.140625 64.359375 26.78125 53.3125  Q 30.421875 42.28125 30.421875 31.390625  Q 30.421875 20.453125 26.78125 9.375  Q 23.140625 -1.703125 15.828125 -13.1875  L 8.015625 -13.1875  Q 14.5 -2 17.703125 9.0625  Q 20.90625 20.125 20.90625 31.390625  Q 20.90625 42.671875 17.703125 53.65625  Q 14.5 64.65625 8.015625 75.875  z "
               id="DejaVuSans-41" />
          </defs>
          <g
             transform="translate(198.455312 335.860562)scale(0.1 -0.1)"
             id="g56">
            <use
               xlink:href="#DejaVuSans-70"
               id="use43" />
            <use
               x="50.269531"
               xlink:href="#DejaVuSans-114"
               id="use44" />
            <use
               x="89.132812"
               xlink:href="#DejaVuSans-101"
               id="use45" />
            <use
               x="150.65625"
               xlink:href="#DejaVuSans-113"
               id="use46" />
            <use
               x="214.132812"
               xlink:href="#DejaVuSans-117"
               id="use47" />
            <use
               x="277.511719"
               xlink:href="#DejaVuSans-101"
               id="use48" />
            <use
               x="339.035156"
               xlink:href="#DejaVuSans-110"
               id="use49" />
            <use
               x="402.414062"
               xlink:href="#DejaVuSans-99"
               id="use50" />
            <use
               x="457.394531"
               xlink:href="#DejaVuSans-121"
               id="use51" />
            <use
               x="516.574219"
               xlink:href="#DejaVuSans-32"
               id="use52" />
            <use
               x="548.361328"
               xlink:href="#DejaVuSans-40"
               id="use53" />
            <use
               x="587.375"
               xlink:href="#DejaVuSans-72"
               id="use54" />
            <use
               x="662.570312"
               xlink:href="#DejaVuSans-122"
               id="use55" />
            <use
               x="715.060547"
               xlink:href="#DejaVuSans-41"
               id="use56" />
          </g>
        </g>
      </g>
      <g
         id="matplotlib.axis_2">
        <g
           id="ytick_1">
          <g
             id="line2d_32">
            <defs
               id="defs56">
              <path
                 d="M 0 0  L -3.5 0  "
                 id="m041bff086e"
                 style="stroke:#000000;stroke-width:0.8;" />
            </defs>
            <g
               id="g57">
              <use
                 style="stroke:#000000;stroke-width:0.8;"
                 x="57.6"
                 xlink:href="#m041bff086e"
                 y="274.176463"
                 id="use57" />
            </g>
          </g>
          <g
             id="text_5">
            <!-- −30 -->
            <defs
               id="defs57">
              <path
                 d="M 40.578125 39.3125  Q 47.65625 37.796875 51.625 33  Q 55.609375 28.21875 55.609375 21.1875  Q 55.609375 10.40625 48.1875 4.484375  Q 40.765625 -1.421875 27.09375 -1.421875  Q 22.515625 -1.421875 17.65625 -0.515625  Q 12.796875 0.390625 7.625 2.203125  L 7.625 11.71875  Q 11.71875 9.328125 16.59375 8.109375  Q 21.484375 6.890625 26.8125 6.890625  Q 36.078125 6.890625 40.9375 10.546875  Q 45.796875 14.203125 45.796875 21.1875  Q 45.796875 27.640625 41.28125 31.265625  Q 36.765625 34.90625 28.71875 34.90625  L 20.21875 34.90625  L 20.21875 43.015625  L 29.109375 43.015625  Q 36.375 43.015625 40.234375 45.921875  Q 44.09375 48.828125 44.09375 54.296875  Q 44.09375 59.90625 40.109375 62.90625  Q 36.140625 65.921875 28.71875 65.921875  Q 24.65625 65.921875 20.015625 65.03125  Q 15.375 64.15625 9.8125 62.3125  L 9.8125 71.09375  Q 15.4375 72.65625 20.34375 73.4375  Q 25.25 74.21875 29.59375 74.21875  Q 40.828125 74.21875 47.359375 69.109375  Q 53.90625 64.015625 53.90625 55.328125  Q 53.90625 49.265625 50.4375 45.09375  Q 46.96875 40.921875 40.578125 39.3125  z "
                 id="DejaVuSans-51" />
            </defs>
            <g
               transform="translate(29.495313 277.975681)scale(0.1 -0.1)"
               id="g60">
              <use
                 xlink:href="#DejaVuSans-8722"
                 id="use58" />
              <use
                 x="83.789062"
                 xlink:href="#DejaVuSans-51"
                 id="use59" />
              <use
                 x="147.412109"
                 xlink:href="#DejaVuSans-48"
                 id="use60" />
            </g>
          </g>
        </g>
        <g
           id="ytick_2">
          <g
             id="line2d_33">
            <g
               id="g61">
              <use
                 style="stroke:#000000;stroke-width:0.8;"
                 x="57.6"
                 xlink:href="#m041bff086e"
                 y="235.392385"
                 id="use61" />
            </g>
          </g>
          <g
             id="text_6">
            <!-- −25 -->
            <defs
               id="defs61">
              <path
                 d="M 19.1875 8.296875  L 53.609375 8.296875  L 53.609375 0  L 7.328125 0  L 7.328125 8.296875  Q 12.9375 14.109375 22.625 23.890625  Q 32.328125 33.6875 34.8125 36.53125  Q 39.546875 41.84375 41.421875 45.53125  Q 43.3125 49.21875 43.3125 52.78125  Q 43.3125 58.59375 39.234375 62.25  Q 35.15625 65.921875 28.609375 65.921875  Q 23.96875 65.921875 18.8125 64.3125  Q 13.671875 62.703125 7.8125 59.421875  L 7.8125 69.390625  Q 13.765625 71.78125 18.9375 73  Q 24.125 74.21875 28.421875 74.21875  Q 39.75 74.21875 46.484375 68.546875  Q 53.21875 62.890625 53.21875 53.421875  Q 53.21875 48.921875 51.53125 44.890625  Q 49.859375 40.875 45.40625 35.40625  Q 44.1875 33.984375 37.640625 27.21875  Q 31.109375 20.453125 19.1875 8.296875  z "
                 id="DejaVuSans-50" />
              <path
                 d="M 10.796875 72.90625  L 49.515625 72.90625  L 49.515625 64.59375  L 19.828125 64.59375  L 19.828125 46.734375  Q 21.96875 47.46875 24.109375 47.828125  Q 26.265625 48.1875 28.421875 48.1875  Q 40.625 48.1875 47.75 41.5  Q 54.890625 34.8125 54.890625 23.390625  Q 54.890625 11.625 47.5625 5.09375  Q 40.234375 -1.421875 26.90625 -1.421875  Q 22.3125 -1.421875 17.546875 -0.640625  Q 12.796875 0.140625 7.71875 1.703125  L 7.71875 11.625  Q 12.109375 9.234375 16.796875 8.0625  Q 21.484375 6.890625 26.703125 6.890625  Q 35.15625 6.890625 40.078125 11.328125  Q 45.015625 15.765625 45.015625 23.390625  Q 45.015625 31 40.078125 35.4375  Q 35.15625 39.890625 26.703125 39.890625  Q 22.75 39.890625 18.8125 39.015625  Q 14.890625 38.140625 10.796875 36.28125  z "
                 id="DejaVuSans-53" />
            </defs>
            <g
               transform="translate(29.495313 239.191604)scale(0.1 -0.1)"
               id="g64">
              <use
                 xlink:href="#DejaVuSans-8722"
                 id="use62" />
              <use
                 x="83.789062"
                 xlink:href="#DejaVuSans-50"
                 id="use63" />
              <use
                 x="147.412109"
                 xlink:href="#DejaVuSans-53"
                 id="use64" />
            </g>
          </g>
        </g>
        <g
           id="ytick_3">
          <g
             id="line2d_34">
            <g
               id="g65">
              <use
                 style="stroke:#000000;stroke-width:0.8;"
                 x="57.6"
                 xlink:href="#m041bff086e"
                 y="196.608308"
                 id="use65" />
            </g>
          </g>
          <g
             id="text_7">
            <!-- −20 -->
            <g
               transform="translate(29.495313 200.407527)scale(0.1 -0.1)"
               id="g68">
              <use
                 xlink:href="#DejaVuSans-8722"
                 id="use66" />
              <use
                 x="83.789062"
                 xlink:href="#DejaVuSans-50"
                 id="use67" />
              <use
                 x="147.412109"
                 xlink:href="#DejaVuSans-48"
                 id="use68" />
            </g>
          </g>
        </g>
        <g
           id="ytick_4">
          <g
             id="line2d_35">
            <g
               id="g69">
              <use
                 style="stroke:#000000;stroke-width:0.8;"
                 x="57.6"
                 xlink:href="#m041bff086e"
                 y="157.824231"
                 id="use69" />
            </g>
          </g>
          <g
             id="text_8">
            <!-- −15 -->
            <g
               transform="translate(29.495313 161.62345)scale(0.1 -0.1)"
               id="g72">
              <use
                 xlink:href="#DejaVuSans-8722"
                 id="use70" />
              <use
                 x="83.789062"
                 xlink:href="#DejaVuSans-49"
                 id="use71" />
              <use
                 x="147.412109"
                 xlink:href="#DejaVuSans-53"
                 id="use72" />
            </g>
          </g>
        </g>
        <g
           id="ytick_5">
          <g
             id="line2d_36">
            <g
               id="g73">
              <use
                 style="stroke:#000000;stroke-width:0.8;"
                 x="57.6"
                 xlink:href="#m041bff086e"
                 y="119.040154"
                 id="use73" />
            </g>
          </g>
          <g
             id="text_9">
            <!-- −10 -->
            <g
               transform="translate(29.495313 122.839373)scale(0.1 -0.1)"
               id="g76">
              <use
                 xlink:href="#DejaVuSans-8722"
                 id="use74" />
              <use
                 x="83.789062"
                 xlink:href="#DejaVuSans-49"
                 id="use75" />
              <use
                 x="147.412109"
                 xlink:href="#DejaVuSans-48"
                 id="use76" />
            </g>
          </g>
        </g>
        <g
           id="ytick_6">
          <g
             id="line2d_37">
            <g
               id="g77">
              <use
                 style="stroke:#000000;stroke-width:0.8;"
                 x="57.6"
                 xlink:href="#m041bff086e"
                 y="80.256077"
                 id="use77" />
            </g>
          </g>
          <g
             id="text_10">
            <!-- −5 -->
            <g
               transform="translate(35.857813 84.055296)scale(0.1 -0.1)"
               id="g79">
              <use
                 xlink:href="#DejaVuSans-8722"
                 id="use78" />
              <use
                 x="83.789062"
                 xlink:href="#DejaVuSans-53"
                 id="use79" />
            </g>
          </g>
        </g>
        <g
           id="ytick_7">
          <g
             id="line2d_38">
            <g
               id="g80">
              <use
                 style="stroke:#000000;stroke-width:0.8;"
                 x="57.6"
                 xlink:href="#m041bff086e"
                 y="41.472"
                 id="use80" />
            </g>
          </g>
          <g
             id="text_11">
            <!-- 0 -->
            <g
               transform="translate(44.2375 45.271219)scale(0.1 -0.1)"
               id="g81">
              <use
                 xlink:href="#DejaVuSans-48"
                 id="use81" />
            </g>
          </g>
        </g>
        <g
           id="text_12">
          <!-- Amplitude (dB) -->
          <defs
             id="defs81">
            <path
               d="M 34.1875 63.1875  L 20.796875 26.90625  L 47.609375 26.90625  z M 28.609375 72.90625  L 39.796875 72.90625  L 67.578125 0  L 57.328125 0  L 50.6875 18.703125  L 17.828125 18.703125  L 11.1875 0  L 0.78125 0  z "
               id="DejaVuSans-65" />
            <path
               d="M 52 44.1875  Q 55.375 50.25 60.0625 53.125  Q 64.75 56 71.09375 56  Q 79.640625 56 84.28125 50.015625  Q 88.921875 44.046875 88.921875 33.015625  L 88.921875 0  L 79.890625 0  L 79.890625 32.71875  Q 79.890625 40.578125 77.09375 44.375  Q 74.3125 48.1875 68.609375 48.1875  Q 61.625 48.1875 57.5625 43.546875  Q 53.515625 38.921875 53.515625 30.90625  L 53.515625 0  L 44.484375 0  L 44.484375 32.71875  Q 44.484375 40.625 41.703125 44.40625  Q 38.921875 48.1875 33.109375 48.1875  Q 26.21875 48.1875 22.15625 43.53125  Q 18.109375 38.875 18.109375 30.90625  L 18.109375 0  L 9.078125 0  L 9.078125 54.6875  L 18.109375 54.6875  L 18.109375 46.1875  Q 21.1875 51.21875 25.484375 53.609375  Q 29.78125 56 35.6875 56  Q 41.65625 56 45.828125 52.96875  Q 50 49.953125 52 44.1875  z "
               id="DejaVuSans-109" />
            <path
               d="M 18.109375 8.203125  L 18.109375 -20.796875  L 9.078125 -20.796875  L 9.078125 54.6875  L 18.109375 54.6875  L 18.109375 46.390625  Q 20.953125 51.265625 25.265625 53.625  Q 29.59375 56 35.59375 56  Q 45.5625 56 51.78125 48.09375  Q 58.015625 40.1875 58.015625 27.296875  Q 58.015625 14.40625 51.78125 6.484375  Q 45.5625 -1.421875 35.59375 -1.421875  Q 29.59375 -1.421875 25.265625 0.953125  Q 20.953125 3.328125 18.109375 8.203125  z M 48.6875 27.296875  Q 48.6875 37.203125 44.609375 42.84375  Q 40.53125 48.484375 33.40625 48.484375  Q 26.265625 48.484375 22.1875 42.84375  Q 18.109375 37.203125 18.109375 27.296875  Q 18.109375 17.390625 22.1875 11.75  Q 26.265625 6.109375 33.40625 6.109375  Q 40.53125 6.109375 44.609375 11.75  Q 48.6875 17.390625 48.6875 27.296875  z "
               id="DejaVuSans-112" />
            <path
               d="M 9.421875 75.984375  L 18.40625 75.984375  L 18.40625 0  L 9.421875 0  z "
               id="DejaVuSans-108" />
            <path
               d="M 9.421875 54.6875  L 18.40625 54.6875  L 18.40625 0  L 9.421875 0  z M 9.421875 75.984375  L 18.40625 75.984375  L 18.40625 64.59375  L 9.421875 64.59375  z "
               id="DejaVuSans-105" />
            <path
               d="M 18.3125 70.21875  L 18.3125 54.6875  L 36.8125 54.6875  L 36.8125 47.703125  L 18.3125 47.703125  L 18.3125 18.015625  Q 18.3125 11.328125 20.140625 9.421875  Q 21.96875 7.515625 27.59375 7.515625  L 36.8125 7.515625  L 36.8125 0  L 27.59375 0  Q 17.1875 0 13.234375 3.875  Q 9.28125 7.765625 9.28125 18.015625  L 9.28125 47.703125  L 2.6875 47.703125  L 2.6875 54.6875  L 9.28125 54.6875  L 9.28125 70.21875  z "
               id="DejaVuSans-116" />
            <path
               d="M 45.40625 46.390625  L 45.40625 75.984375  L 54.390625 75.984375  L 54.390625 0  L 45.40625 0  L 45.40625 8.203125  Q 42.578125 3.328125 38.25 0.953125  Q 33.9375 -1.421875 27.875 -1.421875  Q 17.96875 -1.421875 11.734375 6.484375  Q 5.515625 14.40625 5.515625 27.296875  Q 5.515625 40.1875 11.734375 48.09375  Q 17.96875 56 27.875 56  Q 33.9375 56 38.25 53.625  Q 42.578125 51.265625 45.40625 46.390625  z M 14.796875 27.296875  Q 14.796875 17.390625 18.875 11.75  Q 22.953125 6.109375 30.078125 6.109375  Q 37.203125 6.109375 41.296875 11.75  Q 45.40625 17.390625 45.40625 27.296875  Q 45.40625 37.203125 41.296875 42.84375  Q 37.203125 48.484375 30.078125 48.484375  Q 22.953125 48.484375 18.875 42.84375  Q 14.796875 37.203125 14.796875 27.296875  z "
               id="DejaVuSans-100" />
            <path
               d="M 19.671875 34.8125  L 19.671875 8.109375  L 35.5 8.109375  Q 43.453125 8.109375 47.28125 11.40625  Q 51.125 14.703125 51.125 21.484375  Q 51.125 28.328125 47.28125 31.5625  Q 43.453125 34.8125 35.5 34.8125  z M 19.671875 64.796875  L 19.671875 42.828125  L 34.28125 42.828125  Q 41.5 42.828125 45.03125 45.53125  Q 48.578125 48.25 48.578125 53.8125  Q 48.578125 59.328125 45.03125 62.0625  Q 41.5 64.796875 34.28125 64.796875  z M 9.8125 72.90625  L 35.015625 72.90625  Q 46.296875 72.90625 52.390625 68.21875  Q 58.5 63.53125 58.5 54.890625  Q 58.5 48.1875 55.375 44.234375  Q 52.25 40.28125 46.1875 39.3125  Q 53.46875 37.75 57.5 32.78125  Q 61.53125 27.828125 61.53125 20.40625  Q 61.53125 10.640625 54.890625 5.3125  Q 48.25 0 35.984375 0  L 9.8125 0  z "
               id="DejaVuSans-66" />
          </defs>
          <g
             transform="translate(23.415625 212.245969)rotate(-90)scale(0.1 -0.1)"
             id="g95">
            <use
               xlink:href="#DejaVuSans-65"
               id="use82" />
            <use
               x="68.408203"
               xlink:href="#DejaVuSans-109"
               id="use83" />
            <use
               x="165.820312"
               xlink:href="#DejaVuSans-112"
               id="use84" />
            <use
               x="229.296875"
               xlink:href="#DejaVuSans-108"
               id="use85" />
            <use
               x="257.080078"
               xlink:href="#DejaVuSans-105"
               id="use86" />
            <use
               x="284.863281"
               xlink:href="#DejaVuSans-116"
               id="use87" />
            <use
               x="324.072266"
               xlink:href="#DejaVuSans-117"
               id="use88" />
            <use
               x="387.451172"
               xlink:href="#DejaVuSans-100"
               id="use89" />
            <use
               x="450.927734"
               xlink:href="#DejaVuSans-101"
               id="use90" />
            <use
               x="512.451172"
               xlink:href="#DejaVuSans-32"
               id="use91" />
            <use
               x="544.238281"
               xlink:href="#DejaVuSans-40"
               id="use92" />
            <use
               x="583.251953"
               xlink:href="#DejaVuSans-100"
               id="use93" />
            <use
               x="646.728516"
               xlink:href="#DejaVuSans-66"
               id="use94" />
            <use
               x="715.332031"
               xlink:href="#DejaVuSans-41"
               id="use95" />
          </g>
        </g>
      </g>
      <g
         id="line2d_39">
        <path
           clip-path="url(#p3235fe8994)"
           d="M -1 68.257136  L 73.832727 68.247886  L 106.414365 76.385638  L 125.473401 72.151038  L 138.996003 108.379749  L 149.484948 90.263633  L 158.055039 104.489757  L 165.300949 120.177231  L 171.577641 114.67123  L 177.114076 133.57807  L 182.066585 161.469094  L 186.546675 114.375126  L 190.636677 160.735956  L 194.399114 129.275975  L 197.882586 132.526963  L 201.125622 152.335247  L 204.159279 182.298018  L 207.008961 137.287414  L 209.695713 200.29328  L 212.237163 122.003883  L 214.648223 144.2417  L 216.941623 171.627505  L 219.128313 162.112936  L 221.217785 140.816462  L 223.218315 133.303515  L 225.137168 153.683963  L 226.980752 164.517678  L 228.75475 183.026115  L 230.464224 168.962063  L 232.113705 170.257343  L 233.70726 177.037877  L 235.248557 156.197182  L 236.740916 156.657196  L 238.18735 161.024998  L 239.590599 162.636658  L 240.953169 152.699197  L 242.277351 159.374771  L 243.56525 214.851154  L 244.818801 164.234354  L 246.039788 205.774153  L 247.229861 144.277583  L 248.390546 271.935697  L 249.523261 164.411977  L 250.62932 188.139366  L 251.709951 147.792165  L 252.766296 139.750343  L 253.799423 187.993778  L 254.81033 165.546947  L 255.799953 151.073049  L 256.76917 157.414694  L 257.718806 142.346261  L 258.649635 188.075699  L 259.56239 160.836537  L 260.457757 154.265256  L 261.336388 184.80911  L 262.198896 177.574621  L 263.045862 177.511405  L 263.877837 151.014139  L 264.695343 144.579406  L 265.498873 162.493233  L 267.065863 144.491469  L 267.830195 163.897056  L 268.582297 152.848919  L 269.322554 176.362681  L 270.051334 153.424204  L 270.768987 160.102447  L 271.475848 189.0309  L 272.172237 197.686384  L 272.858459 179.143358  L 273.534807 164.820982  L 274.201561 167.277788  L 274.858989 199.861395  L 275.507349 175.437602  L 276.146888 226.445327  L 276.777842 175.416699  L 277.400439 176.009672  L 278.014897 204.403472  L 278.621426 189.446448  L 279.220229 183.969705  L 279.811499 203.854385  L 280.395424 185.876867  L 280.972184 204.194163  L 281.541953 191.113766  L 282.104898 188.849333  L 282.661182 198.352182  L 283.210958 269.400101  L 283.754379 182.375731  L 284.291589 223.839753  L 284.822729 196.401469  L 285.347934 185.247559  L 285.867335 178.404167  L 286.38106 224.500051  L 287.391967 182.437361  L 287.889383 181.884783  L 288.381591 172.903897  L 288.868697 168.801883  L 289.350808 188.78921  L 289.828024 193.3371  L 290.300443 224.47648  L 290.768162 232.44689  L 291.231273 225.10167  L 291.689866 168.139154  L 292.144028 212.544502  L 292.593843 198.09103  L 293.039395 224.444061  L 293.480763 175.966621  L 293.918026 182.913285  L 294.351258 213.358249  L 295.205924 215.843037  L 295.6275 177.816571  L 296.045328 178.460514  L 296.459475 176.364914  L 296.870005 160.767177  L 297.27698 166.343491  L 297.680462 186.384406  L 298.08051 182.828777  L 298.477183 216.400554  L 298.870535 163.863601  L 299.260624 166.124903  L 299.647501 167.486927  L 300.031221 231.184633  L 300.411833 172.540839  L 300.789388 188.863881  L 301.163935 218.048476  L 301.535521 213.050767  L 301.904192 206.192136  L 302.269995 206.42142  L 302.993168 167.574832  L 303.350625 210.343388  L 303.705384 170.159497  L 304.057486 201.140223  L 304.40697 190.017818  L 304.753875 210.037038  L 305.098238 215.931745  L 305.440097 187.624428  L 305.779487 200.840201  L 306.116445 229.321471  L 306.451004 191.819075  L 306.783199 202.889845  L 307.113062 171.913356  L 308.409844 208.829205  L 308.728526 189.990854  L 309.045062 181.16217  L 309.35948 184.801882  L 309.671809 223.733562  L 309.982077 171.707144  L 310.29031 240.207389  L 310.596535 199.305413  L 311.203064 187.883611  L 311.503419 203.48344  L 311.801866 176.678372  L 312.098431 168.879376  L 312.393137 168.569098  L 312.686006 242.125745  L 312.977062 250.461095  L 313.266327 211.782943  L 313.553822 203.283805  L 313.83957 182.682839  L 314.123591 170.398848  L 314.405906 237.474567  L 314.686536 189.674631  L 314.965501 178.425827  L 315.242819 188.31738  L 315.518511 188.608291  L 315.792596 209.31292  L 316.065092 198.115608  L 316.336017 211.587151  L 316.605389 203.158413  L 316.873227 179.214761  L 317.139547 177.490557  L 317.404366 187.971508  L 317.667703 189.387999  L 317.929572 205.663819  L 318.448973 178.920644  L 318.706538 189.14164  L 318.962698 184.8741  L 319.21747 185.348683  L 319.470869 251.946485  L 319.722909 175.430877  L 319.973605 199.585947  L 320.222971 205.445897  L 320.471021 220.603791  L 320.717769 199.286096  L 321.207413 184.723049  L 321.450335 184.484903  L 321.692008 207.037002  L 321.932446 206.37786  L 322.409662 170.246288  L 322.646465 181.797315  L 322.882081 175.537955  L 323.116523 184.681252  L 323.3498 177.126563  L 323.812911 214.997299  L 324.042767 204.513956  L 324.271504 235.125236  L 324.725665 178.508397  L 324.951111 190.89582  L 325.175481 215.846964  L 325.398785 170.214451  L 325.621033 208.323632  L 325.842235 180.230982  L 326.062401 182.159726  L 326.281541 175.534947  L 326.499663 209.618346  L 326.716779 170.588538  L 326.932896 172.512236  L 327.148024 210.262717  L 327.575348 183.589543  L 327.787562 210.318072  L 327.998823 163.639926  L 328.209138 204.451551  L 328.418516 199.635315  L 328.626966 213.726915  L 328.834496 196.761124  L 329.041113 196.986483  L 329.246826 179.222853  L 329.451643 204.558923  L 329.858618 174.384508  L 330.060792 218.788824  L 330.2621 180.024289  L 330.46255 188.555804  L 330.662148 156.164311  L 331.05882 234.87651  L 331.452173 178.80469  L 331.647622 180.034909  L 331.842261 186.082129  L 332.036098 207.579557  L 332.229139 180.356443  L 332.42139 197.121371  L 332.612858 227.933681  L 332.80355 182.932233  L 332.993471 169.161741  L 333.182627 206.113119  L 333.371026 211.87022  L 333.558672 193.206678  L 333.931733 197.287311  L 334.117159 235.195539  L 334.301856 195.83135  L 334.669087 199.996999  L 334.851632 180.506747  L 335.033472 202.933234  L 335.21461 202.220626  L 335.395053 214.650245  L 335.574806 185.212982  L 335.753874 174.476184  L 335.932263 206.947023  L 336.109977 186.098976  L 336.287022 190.417269  L 336.463403 201.37301  L 336.639124 188.136236  L 336.814191 211.078217  L 336.988608 210.09433  L 337.16238 231.127263  L 337.335513 172.328987  L 337.50801 188.083883  L 337.679876 193.588539  L 338.021735 233.331327  L 338.191736 194.182331  L 338.361125 194.07937  L 338.529906 227.109341  L 338.698082 189.450098  L 338.86566 197.727768  L 339.032642 190.745005  L 339.199032 226.626382  L 339.364836 205.487102  L 339.530058 234.32371  L 339.6947 176.160134  L 339.858768 180.55436  L 340.022265 191.716893  L 340.185195 192.68067  L 340.347563 189.894282  L 340.509371 194.252097  L 340.670625 210.662098  L 340.831327 209.919487  L 340.991482 249.399206  L 341.310164 216.401511  L 341.468698 230.456596  L 341.626699 195.250622  L 341.784171 202.880946  L 341.941118 180.020614  L 342.097542 231.460741  L 342.408837 177.167277  L 342.563714 220.17687  L 342.718084 199.663002  L 342.871947 244.586973  L 343.025309 209.337149  L 343.178172 223.541616  L 343.33054 186.54811  L 343.633802 215.484375  L 343.784702 189.613664  L 343.935119 196.022306  L 344.085057 193.252798  L 344.234517 169.968284  L 344.383504 235.220236  L 344.532021 178.247772  L 344.974775 222.341995  L 345.121437 207.673406  L 345.267644 179.570868  L 345.413397 213.426273  L 345.5587 197.514163  L 345.703555 217.43589  L 345.847964 192.991425  L 345.991932 217.991775  L 346.278551 178.677193  L 346.705229 253.376872  L 346.987544 179.743756  L 347.128069 185.594314  L 347.268174 199.726259  L 347.407863 182.524813  L 347.547139 222.520936  L 347.686002 174.257746  L 347.962505 195.146806  L 348.100149 167.320562  L 348.237391 168.359239  L 348.374234 170.322476  L 348.510679 164.051176  L 348.646729 207.70958  L 348.782387 181.98761  L 348.917655 193.518192  L 349.052534 178.529861  L 349.187027 218.963285  L 349.321137 191.54626  L 349.454865 203.454655  L 349.588213 183.754862  L 349.721185 182.324214  L 349.853781 238.998706  L 349.986004 244.629223  L 350.117857 181.140942  L 350.380457 202.440523  L 350.511209 194.2671  L 350.641599 220.091742  L 350.901298 198.5416  L 351.030611 185.766121  L 351.15957 235.680471  L 351.288175 185.050787  L 351.41643 187.516995  L 351.671895 217.129443  L 351.799108 199.214856  L 351.925978 210.258455  L 352.052507 203.351191  L 352.178696 260.027166  L 352.304547 179.512652  L 352.555243 196.713576  L 352.680091 194.451919  L 352.804609 200.97353  L 352.928798 180.993566  L 353.052659 214.414258  L 353.176195 193.216109  L 353.299407 233.271398  L 353.544866 180.675095  L 353.667117 176.619773  L 353.910669 208.927622  L 354.031973 176.315046  L 354.273646 187.478078  L 354.394019 269.38119  L 354.633842 174.437118  L 354.753297 170.599686  L 354.872449 179.34362  L 354.991299 176.062756  L 355.10985 215.440251  L 355.228103 167.808035  L 355.346059 199.155873  L 355.463719 166.808483  L 355.581086 172.586  L 355.69816 163.027472  L 355.814944 199.125383  L 355.931438 159.071381  L 356.163564 193.011212  L 356.279198 160.677994  L 356.394549 203.819896  L 356.509617 161.818716  L 356.624405 205.053077  L 356.738912 168.686823  L 356.853142 186.36981  L 356.967094 179.667532  L 357.080771 198.981089  L 357.194174 173.701194  L 357.307303 205.04667  L 357.420161 276.683315  L 357.532749 199.333641  L 357.645068 202.355854  L 357.757119 200.953333  L 357.868903 196.05528  L 358.091678 245.228852  L 358.202671 175.739513  L 358.313402 206.440999  L 358.423873 173.096282  L 358.534085 217.248623  L 358.972366 165.12501  L 359.081301 215.312417  L 359.189984 185.48956  L 359.298416 201.669705  L 359.406599 182.6369  L 359.62222 214.419248  L 359.729661 231.491901  L 359.836857 181.262692  L 360.050518 209.075879  L 360.156986 180.645964  L 360.263213 226.367954  L 360.3692 184.282652  L 360.474949 200.024425  L 360.58046 186.799425  L 360.685736 216.484496  L 360.790776 203.502966  L 361.000154 222.569264  L 361.208604 198.460346  L 361.312483 237.144767  L 361.519556 188.824301  L 361.622751 242.5279  L 361.72572 182.618714  L 361.930984 227.030035  L 362.135355 184.535571  L 362.237209 171.505648  L 362.338842 198.514592  L 362.440256 159.565941  L 362.541452 217.502937  L 362.64243 183.806937  L 362.743192 203.51858  L 362.843738 181.868076  L 362.94407 225.073935  L 363.144093 181.784477  L 363.243786 204.087893  L 363.343268 168.643032  L 363.442541 211.048772  L 363.541604 174.909876  L 363.640458 283.392  L 363.739105 172.173187  L 363.837546 172.483868  L 363.935781 168.977751  L 364.033811 186.108334  L 364.131637 178.326383  L 364.32668 225.666435  L 364.423899 193.58174  L 364.520918 248.158604  L 364.714356 208.08046  L 364.810777 211.743409  L 364.907001 212.396424  L 365.003028 181.26886  L 365.09886 195.568662  L 365.194496 172.572209  L 365.289939 223.072415  L 365.385188 174.188495  L 365.480244 199.198607  L 365.669782 175.846066  L 365.764265 196.806945  L 365.858559 185.33596  L 365.952664 191.959844  L 366.046581 209.829716  L 366.14031 168.644043  L 366.327211 195.773726  L 366.420383 176.246873  L 366.513371 190.676879  L 366.606175 170.043173  L 366.791236 205.831469  L 366.883494 152.536312  L 367.067468 204.295955  L 367.159186 201.765164  L 367.250725 164.906879  L 367.43327 205.785758  L 367.524278 170.449508  L 367.615109 188.80796  L 367.705766 161.811503  L 367.796248 228.878351  L 367.976691 152.999135  L 368.066653 159.394735  L 368.424791 124.92006  L 368.513901 133.991545  L 368.602842 124.174447  L 368.780221 136.000072  L 368.86866 131.062864  L 368.956933 149.809823  L 369.045041 135.368471  L 369.220762 178.619704  L 369.308377 167.18522  L 369.744018 199.625389  L 369.91715 203.407863  L 370.003478 176.761679  L 370.175659 226.54714  L 370.432754 203.610496  L 370.51814 198.946854  L 370.603372 222.289284  L 370.773374 175.001561  L 370.858145 237.642667  L 370.942763 186.595145  L 371.027229 206.767633  L 371.111543 259.993477  L 371.195707 186.666841  L 371.27972 188.034955  L 371.363584 175.712015  L 371.447298 263.56422  L 371.530863 180.110344  L 371.614279 205.835866  L 371.697548 206.458469  L 371.78067 201.625224  L 371.863645 184.427823  L 371.946474 222.651869  L 372.029157 202.752583  L 372.111695 224.552278  L 372.194089 183.299127  L 372.276338 193.058652  L 372.358443 206.109741  L 372.440406 193.665051  L 372.522225 200.281808  L 372.603903 197.733232  L 372.685438 184.053707  L 372.766833 253.097772  L 372.929201 176.496676  L 373.010175 196.577995  L 373.091009 213.204311  L 373.252263 177.743788  L 373.412965 206.903073  L 373.493111 188.210394  L 373.732731 234.836335  L 373.812333 214.458048  L 373.891802 214.561062  L 373.971135 217.941454  L 374.287139 175.959696  L 374.365809 192.476559  L 374.444348 175.692756  L 374.522756 187.273889  L 374.601033 170.358559  L 374.757197 199.870642  L 374.835085 157.165744  L 374.990474 197.455195  L 375.067977 161.516693  L 375.2226 207.807901  L 375.376716 172.401415  L 375.453585 237.242508  L 375.606947 167.532239  L 375.683441 194.10442  L 375.75981 182.286997  L 375.836056 187.449598  L 375.912178 202.121255  L 376.064053 167.484004  L 376.29095 197.851417  L 376.516757 163.526465  L 376.741484 198.657247  L 376.816155 189.340075  L 376.890708 165.533399  L 377.039459 205.6743  L 377.113658 192.884476  L 377.187741 197.441977  L 377.261707 209.154533  L 377.409291 174.711226  L 377.556412 195.222484  L 377.629801 190.664808  L 377.703075 197.002032  L 377.776235 175.276868  L 377.849282 182.345132  L 377.995035 212.79511  L 378.212821 188.262501  L 378.285192 183.155733  L 378.357453 189.662217  L 378.501641 170.129533  L 378.645389 203.14497  L 378.717098 191.251497  L 378.788698 184.912364  L 378.860189 164.068157  L 379.002846 234.955966  L 379.145071 195.378907  L 379.286867 185.944171  L 379.357605 160.872497  L 379.498762 218.350274  L 379.569182 182.012519  L 379.639497 187.779987  L 379.709706 174.986613  L 379.849812 204.700673  L 379.919708 159.651395  L 379.989501 209.725955  L 380.05919 197.518818  L 380.128776 195.712882  L 380.19826 168.565567  L 380.336919 212.350329  L 380.406095 189.77246  L 380.47517 204.724862  L 380.544143 176.419552  L 380.613016 183.093176  L 380.750458 195.475232  L 380.819029 173.982871  L 380.8875 210.788896  L 380.955872 171.549672  L 381.024144 187.678068  L 381.092317 223.275546  L 381.296245 175.039997  L 381.364025 189.190722  L 381.431707 175.578939  L 381.499292 209.087066  L 381.56678 187.639406  L 381.701466 218.007289  L 381.768665 203.506092  L 381.835767 207.216596  L 381.902774 213.65895  L 381.969686 184.002989  L 382.036502 214.632092  L 382.103224 177.732694  L 382.169851 227.070598  L 382.236384 165.000211  L 382.302823 190.233512  L 382.369167 198.431715  L 382.435419 171.535952  L 382.567642 213.411015  L 382.633615 202.070966  L 382.699495 225.503237  L 382.765282 181.261639  L 382.830978 200.121952  L 382.896582 227.560007  L 382.962095 174.709203  L 383.027517 183.640194  L 383.092847 190.260636  L 383.158087 180.492598  L 383.353265 241.700153  L 383.418145 241.984285  L 383.482936 161.531651  L 383.547637 170.88343  L 383.612249 201.333404  L 383.676772 195.839767  L 383.805554 175.412517  L 383.869813 227.208128  L 383.933984 216.542985  L 384.062064 173.353888  L 384.125974 191.626627  L 384.189796 180.275454  L 384.253533 162.843638  L 384.317182 164.386606  L 384.380746 185.984311  L 384.507616 155.242957  L 384.697282 203.643588  L 384.760334 161.230918  L 384.823302 173.087175  L 384.886185 165.028862  L 384.948984 183.504487  L 385.0117 180.189075  L 385.074332 177.304652  L 385.136881 211.520562  L 385.199347 201.380546  L 385.386247 170.507317  L 385.572407 199.350854  L 385.634297 171.591696  L 385.696105 199.295444  L 385.757833 143.687745  L 385.819479 168.023042  L 385.881045 146.12333  L 386.003935 177.95136  L 386.126504 162.621825  L 386.248755 201.8583  L 386.309761 177.299049  L 386.370688 192.481144  L 386.431537 184.141756  L 386.492307 153.105259  L 386.552998 161.509034  L 386.613611 165.936547  L 386.674146 234.496521  L 386.734603 158.698622  L 386.794982 176.610981  L 386.855284 207.811868  L 386.915509 156.088275  L 386.975656 234.866735  L 387.035727 195.609944  L 387.155639 225.255823  L 387.275246 171.212664  L 387.334935 181.658941  L 387.394549 176.368106  L 387.454087 146.923041  L 387.51355 226.093475  L 387.572937 168.243202  L 387.750652 185.151719  L 387.809741 163.404408  L 387.868756 221.946815  L 387.927696 178.538019  L 387.986564 180.758744  L 388.104077 155.314904  L 388.162724 158.650336  L 388.221297 151.785551  L 388.396582 219.230073  L 388.513076 157.669856  L 388.571215 172.019746  L 388.629282 164.130115  L 388.687278 200.761169  L 388.745202 197.99465  L 388.860836 158.748206  L 388.918547 160.959815  L 389.033756 180.065445  L 389.148684 174.379112  L 389.206042 234.22656  L 389.263331 183.531193  L 389.32055 184.500411  L 389.377699 148.161811  L 389.434779 154.932046  L 389.548732 197.049514  L 389.605605 153.098909  L 389.662409 174.760405  L 389.83241 186.596833  L 389.888941 148.75007  L 389.945404 193.965501  L 390.001799 160.411936  L 390.058127 179.525831  L 390.114387 170.62708  L 390.17058 163.758905  L 390.226706 165.493414  L 390.282764 182.645198  L 390.394682 156.52952  L 390.450541 180.661872  L 390.617721 150.404077  L 390.673316 194.541974  L 390.728845 139.262779  L 390.784308 171.072095  L 390.839707 218.606637  L 390.89504 161.31097  L 390.950308 173.913134  L 391.005511 223.89643  L 391.060649 148.853498  L 391.115723 208.734527  L 391.170732 232.20147  L 391.225677 147.881929  L 391.280557 174.190555  L 391.335374 216.754832  L 391.390127 186.254343  L 391.444816 172.548601  L 391.499442 186.755349  L 391.554004 155.744792  L 391.608503 192.945395  L 391.662939 165.937907  L 391.717312 159.857991  L 391.771622 179.055119  L 391.825869 145.022749  L 391.880054 148.71343  L 391.934177 170.410887  L 391.988237 168.613852  L 392.042235 147.273546  L 392.096171 171.01449  L 392.150046 145.877418  L 392.203858 151.032223  L 392.257609 179.91731  L 392.311299 162.771993  L 392.364928 167.514719  L 392.418495 240.208348  L 392.472001 176.093295  L 392.632156 158.228422  L 392.791767 175.360739  L 393.003742 132.788428  L 393.056587 181.686955  L 393.109372 139.190653  L 393.162098 159.732887  L 393.214765 157.788823  L 393.267374 155.798949  L 393.372413 140.019166  L 393.477219 183.203956  L 393.581792 182.863462  L 393.633991 187.928149  L 393.686132 185.020759  L 393.84221 143.401681  L 393.894121 206.604235  L 393.945975 166.402771  L 393.997771 143.892437  L 394.049511 165.971417  L 394.101193 190.446172  L 394.152819 170.090474  L 394.307358 140.939756  L 394.410102 168.814351  L 394.46139 133.786449  L 394.512622 148.327746  L 394.563798 215.914093  L 394.614918 148.994221  L 394.665983 201.568083  L 394.716993 146.481812  L 394.767947 151.719936  L 394.818847 193.995614  L 394.869691 170.102295  L 394.971214 146.358737  L 395.021894 183.791735  L 395.072519 129.247544  L 395.12309 182.951296  L 395.32483 130.200538  L 395.525708 179.171604  L 395.575793 139.249167  L 395.625826 163.577814  L 395.675805 184.605582  L 395.725731 131.642727  L 395.825424 140.272738  L 395.924906 181.169459  L 396.024178 122.758008  L 396.073736 166.325438  L 396.123241 106.647793  L 396.172695 117.919999  L 396.271446 220.592115  L 396.419184 123.491956  L 396.468327 123.482929  L 396.517419 143.835116  L 396.566459 118.91188  L 396.615449 106.437541  L 396.664387 150.460775  L 396.713275 143.999889  L 396.762111 127.079605  L 396.810898 161.635066  L 396.859633 159.364051  L 396.908318 113.36634  L 396.956953 150.017547  L 397.15099 120.757141  L 397.247708 156.707797  L 397.295993 155.537565  L 397.344229 104.323212  L 397.392415 178.292425  L 397.440551 136.799331  L 397.488639 133.914901  L 397.584666 100.652564  L 397.72834 132.30372  L 397.82388 95.357929  L 397.871576 109.458945  L 397.919225 123.534553  L 397.966825 86.955245  L 398.014378 90.269421  L 398.109338 131.69366  L 398.204107 66.157964  L 398.25142 67.312321  L 398.298685 130.845725  L 398.345903 57.204246  L 398.393074 73.178561  L 398.440197 41.472  L 398.487273 43.0054  "
           style="fill:none;stroke:#1f77b4;stroke-linecap:square;stroke-width:1.5;"
           id="path95" />
      </g>
      <g
         id="patch_3">
        <path
           d="M 57.6 307.584  L 57.6 41.472  "
           style="fill:none;stroke:#000000;stroke-linecap:square;stroke-linejoin:miter;stroke-width:0.8;"
           id="path96" />
      </g>
      <g
         id="patch_4">
        <path
           d="M 414.72 307.584  L 414.72 41.472  "
           style="fill:none;stroke:#000000;stroke-linecap:square;stroke-linejoin:miter;stroke-width:0.8;"
           id="path97" />
      </g>
      <g
         id="patch_5">
        <path
           d="M 57.6 307.584  L 414.72 307.584  "
           style="fill:none;stroke:#000000;stroke-linecap:square;stroke-linejoin:miter;stroke-width:0.8;"
           id="path98" />
      </g>
      <g
         id="patch_6">
        <path
           d="M 57.6 41.472  L 414.72 41.472  "
           style="fill:none;stroke:#000000;stroke-linecap:square;stroke-linejoin:miter;stroke-width:0.8;"
           id="path99" />
      </g>
    </g>
  </g>
  <text
     xml:space="preserve"
     style="font-size:9px;fill:#000000;fill-opacity:1;stroke:none;stroke-width:5;stroke-linecap:butt;stroke-linejoin:round"
     x="325.89355"
     y="23.486437"
     id="text100-7"><tspan
       sodipodi:role="line"
       id="tspan100-9"
       style="fill:#000000;stroke-width:5"
       x="325.89355"
       y="23.486437">5Hz - 50 Hz</tspan></text>
  <defs
     id="defs99">
    <clipPath
       id="p3235fe8994">
      <rect
         height="266.112"
         width="357.12"
         x="57.6"
         y="41.472"
         id="rect99" />
    </clipPath>
  </defs>
  <path
     style="opacity:1;fill:none;fill-opacity:1;stroke:#000000;stroke-width:1;stroke-dasharray:none"
     d="m 291.34422,37.561142 c 0,0 0,-4.306132 31.53915,-4.306132 31.53918,0 30.28244,-4.34858 30.28244,-4.34858 0,0 0,4.263685 31.53916,4.263685 31.53917,0 29.07516,4.306132 29.07516,4.306132"
     id="path101"
     sodipodi:nodetypes="cscsc" />
</svg>
