<?xml version="1.0" encoding="utf-8" standalone="no"?>
<!DOCTYPE svg PUBLIC "-//W3C//DTD SVG 1.1//EN"
  "http://www.w3.org/Graphics/SVG/1.1/DTD/svg11.dtd">
<svg xmlns:xlink="http://www.w3.org/1999/xlink" width="460.8pt" height="345.6pt" viewBox="0 0 460.8 345.6" xmlns="http://www.w3.org/2000/svg" version="1.1">
 <metadata>
  <rdf:RDF xmlns:dc="http://purl.org/dc/elements/1.1/" xmlns:cc="http://creativecommons.org/ns#" xmlns:rdf="http://www.w3.org/1999/02/22-rdf-syntax-ns#">
   <cc:Work>
    <dc:type rdf:resource="http://purl.org/dc/dcmitype/StillImage"/>
    <dc:date>2023-12-04T17:05:59.145054</dc:date>
    <dc:format>image/svg+xml</dc:format>
    <dc:creator>
     <cc:Agent>
      <dc:title>Matplotlib v3.7.1, https://matplotlib.org/</dc:title>
     </cc:Agent>
    </dc:creator>
   </cc:Work>
  </rdf:RDF>
 </metadata>
 <defs>
  <style type="text/css">*{stroke-linejoin: round; stroke-linecap: butt}</style>
 </defs>
 <g id="figure_1">
  <g id="patch_1">
   <path d="M 0 345.6 
L 460.8 345.6 
L 460.8 0 
L 0 0 
z
" style="fill: #fffafa"/>
  </g>
  <g id="axes_1">
   <g id="patch_2">
    <path d="M 57.6 307.584 
L 414.72 307.584 
L 414.72 41.472 
L 57.6 41.472 
z
" style="fill: #fffafa"/>
   </g>
   <g id="matplotlib.axis_1">
    <g id="xtick_1">
     <g id="line2d_1">
      <defs>
       <path id="ma2ae8f8ee7" d="M 0 0 
L 0 3.5 
" style="stroke: #000000; stroke-width: 0.8"/>
      </defs>
      <g>
       <use xlink:href="#ma2ae8f8ee7" x="73.832727" y="307.584" style="stroke: #000000; stroke-width: 0.8"/>
      </g>
     </g>
     <g id="text_1">
      <!-- 0 -->
      <g transform="translate(70.651477 322.182437) scale(0.1 -0.1)">
       <defs>
        <path id="DejaVuSans-30" d="M 2034 4250 
Q 1547 4250 1301 3770 
Q 1056 3291 1056 2328 
Q 1056 1369 1301 889 
Q 1547 409 2034 409 
Q 2525 409 2770 889 
Q 3016 1369 3016 2328 
Q 3016 3291 2770 3770 
Q 2525 4250 2034 4250 
z
M 2034 4750 
Q 2819 4750 3233 4129 
Q 3647 3509 3647 2328 
Q 3647 1150 3233 529 
Q 2819 -91 2034 -91 
Q 1250 -91 836 529 
Q 422 1150 422 2328 
Q 422 3509 836 4129 
Q 1250 4750 2034 4750 
z
" transform="scale(0.015625)"/>
       </defs>
       <use xlink:href="#DejaVuSans-30"/>
      </g>
     </g>
    </g>
    <g id="xtick_2">
     <g id="line2d_2">
      <g>
       <use xlink:href="#ma2ae8f8ee7" x="138.893758" y="307.584" style="stroke: #000000; stroke-width: 0.8"/>
      </g>
     </g>
     <g id="text_2">
      <!-- 100 -->
      <g transform="translate(129.350008 322.182437) scale(0.1 -0.1)">
       <defs>
        <path id="DejaVuSans-31" d="M 794 531 
L 1825 531 
L 1825 4091 
L 703 3866 
L 703 4441 
L 1819 4666 
L 2450 4666 
L 2450 531 
L 3481 531 
L 3481 0 
L 794 0 
L 794 531 
z
" transform="scale(0.015625)"/>
       </defs>
       <use xlink:href="#DejaVuSans-31"/>
       <use xlink:href="#DejaVuSans-30" x="63.623047"/>
       <use xlink:href="#DejaVuSans-30" x="127.246094"/>
      </g>
     </g>
    </g>
    <g id="xtick_3">
     <g id="line2d_3">
      <g>
       <use xlink:href="#ma2ae8f8ee7" x="203.95479" y="307.584" style="stroke: #000000; stroke-width: 0.8"/>
      </g>
     </g>
     <g id="text_3">
      <!-- 200 -->
      <g transform="translate(194.41104 322.182437) scale(0.1 -0.1)">
       <defs>
        <path id="DejaVuSans-32" d="M 1228 531 
L 3431 531 
L 3431 0 
L 469 0 
L 469 531 
Q 828 903 1448 1529 
Q 2069 2156 2228 2338 
Q 2531 2678 2651 2914 
Q 2772 3150 2772 3378 
Q 2772 3750 2511 3984 
Q 2250 4219 1831 4219 
Q 1534 4219 1204 4116 
Q 875 4013 500 3803 
L 500 4441 
Q 881 4594 1212 4672 
Q 1544 4750 1819 4750 
Q 2544 4750 2975 4387 
Q 3406 4025 3406 3419 
Q 3406 3131 3298 2873 
Q 3191 2616 2906 2266 
Q 2828 2175 2409 1742 
Q 1991 1309 1228 531 
z
" transform="scale(0.015625)"/>
       </defs>
       <use xlink:href="#DejaVuSans-32"/>
       <use xlink:href="#DejaVuSans-30" x="63.623047"/>
       <use xlink:href="#DejaVuSans-30" x="127.246094"/>
      </g>
     </g>
    </g>
    <g id="xtick_4">
     <g id="line2d_4">
      <g>
       <use xlink:href="#ma2ae8f8ee7" x="269.015821" y="307.584" style="stroke: #000000; stroke-width: 0.8"/>
      </g>
     </g>
     <g id="text_4">
      <!-- 300 -->
      <g transform="translate(259.472071 322.182437) scale(0.1 -0.1)">
       <defs>
        <path id="DejaVuSans-33" d="M 2597 2516 
Q 3050 2419 3304 2112 
Q 3559 1806 3559 1356 
Q 3559 666 3084 287 
Q 2609 -91 1734 -91 
Q 1441 -91 1130 -33 
Q 819 25 488 141 
L 488 750 
Q 750 597 1062 519 
Q 1375 441 1716 441 
Q 2309 441 2620 675 
Q 2931 909 2931 1356 
Q 2931 1769 2642 2001 
Q 2353 2234 1838 2234 
L 1294 2234 
L 1294 2753 
L 1863 2753 
Q 2328 2753 2575 2939 
Q 2822 3125 2822 3475 
Q 2822 3834 2567 4026 
Q 2313 4219 1838 4219 
Q 1578 4219 1281 4162 
Q 984 4106 628 3988 
L 628 4550 
Q 988 4650 1302 4700 
Q 1616 4750 1894 4750 
Q 2613 4750 3031 4423 
Q 3450 4097 3450 3541 
Q 3450 3153 3228 2886 
Q 3006 2619 2597 2516 
z
" transform="scale(0.015625)"/>
       </defs>
       <use xlink:href="#DejaVuSans-33"/>
       <use xlink:href="#DejaVuSans-30" x="63.623047"/>
       <use xlink:href="#DejaVuSans-30" x="127.246094"/>
      </g>
     </g>
    </g>
    <g id="xtick_5">
     <g id="line2d_5">
      <g>
       <use xlink:href="#ma2ae8f8ee7" x="334.076852" y="307.584" style="stroke: #000000; stroke-width: 0.8"/>
      </g>
     </g>
     <g id="text_5">
      <!-- 400 -->
      <g transform="translate(324.533102 322.182437) scale(0.1 -0.1)">
       <defs>
        <path id="DejaVuSans-34" d="M 2419 4116 
L 825 1625 
L 2419 1625 
L 2419 4116 
z
M 2253 4666 
L 3047 4666 
L 3047 1625 
L 3713 1625 
L 3713 1100 
L 3047 1100 
L 3047 0 
L 2419 0 
L 2419 1100 
L 313 1100 
L 313 1709 
L 2253 4666 
z
" transform="scale(0.015625)"/>
       </defs>
       <use xlink:href="#DejaVuSans-34"/>
       <use xlink:href="#DejaVuSans-30" x="63.623047"/>
       <use xlink:href="#DejaVuSans-30" x="127.246094"/>
      </g>
     </g>
    </g>
    <g id="xtick_6">
     <g id="line2d_6">
      <g>
       <use xlink:href="#ma2ae8f8ee7" x="399.137883" y="307.584" style="stroke: #000000; stroke-width: 0.8"/>
      </g>
     </g>
     <g id="text_6">
      <!-- 500 -->
      <g transform="translate(389.594133 322.182437) scale(0.1 -0.1)">
       <defs>
        <path id="DejaVuSans-35" d="M 691 4666 
L 3169 4666 
L 3169 4134 
L 1269 4134 
L 1269 2991 
Q 1406 3038 1543 3061 
Q 1681 3084 1819 3084 
Q 2600 3084 3056 2656 
Q 3513 2228 3513 1497 
Q 3513 744 3044 326 
Q 2575 -91 1722 -91 
Q 1428 -91 1123 -41 
Q 819 9 494 109 
L 494 744 
Q 775 591 1075 516 
Q 1375 441 1709 441 
Q 2250 441 2565 725 
Q 2881 1009 2881 1497 
Q 2881 1984 2565 2268 
Q 2250 2553 1709 2553 
Q 1456 2553 1204 2497 
Q 953 2441 691 2322 
L 691 4666 
z
" transform="scale(0.015625)"/>
       </defs>
       <use xlink:href="#DejaVuSans-35"/>
       <use xlink:href="#DejaVuSans-30" x="63.623047"/>
       <use xlink:href="#DejaVuSans-30" x="127.246094"/>
      </g>
     </g>
    </g>
   </g>
   <g id="matplotlib.axis_2">
    <g id="ytick_1">
     <g id="line2d_7">
      <defs>
       <path id="m4a75d37886" d="M 0 0 
L -3.5 0 
" style="stroke: #000000; stroke-width: 0.8"/>
      </defs>
      <g>
       <use xlink:href="#m4a75d37886" x="57.6" y="307.584" style="stroke: #000000; stroke-width: 0.8"/>
      </g>
     </g>
     <g id="text_7">
      <!-- 0.0 -->
      <g transform="translate(34.696875 311.383219) scale(0.1 -0.1)">
       <defs>
        <path id="DejaVuSans-2e" d="M 684 794 
L 1344 794 
L 1344 0 
L 684 0 
L 684 794 
z
" transform="scale(0.015625)"/>
       </defs>
       <use xlink:href="#DejaVuSans-30"/>
       <use xlink:href="#DejaVuSans-2e" x="63.623047"/>
       <use xlink:href="#DejaVuSans-30" x="95.410156"/>
      </g>
     </g>
    </g>
    <g id="ytick_2">
     <g id="line2d_8">
      <g>
       <use xlink:href="#m4a75d37886" x="57.6" y="272.1024" style="stroke: #000000; stroke-width: 0.8"/>
      </g>
     </g>
     <g id="text_8">
      <!-- 0.2 -->
      <g transform="translate(34.696875 275.901619) scale(0.1 -0.1)">
       <use xlink:href="#DejaVuSans-30"/>
       <use xlink:href="#DejaVuSans-2e" x="63.623047"/>
       <use xlink:href="#DejaVuSans-32" x="95.410156"/>
      </g>
     </g>
    </g>
    <g id="ytick_3">
     <g id="line2d_9">
      <g>
       <use xlink:href="#m4a75d37886" x="57.6" y="236.6208" style="stroke: #000000; stroke-width: 0.8"/>
      </g>
     </g>
     <g id="text_9">
      <!-- 0.4 -->
      <g transform="translate(34.696875 240.420019) scale(0.1 -0.1)">
       <use xlink:href="#DejaVuSans-30"/>
       <use xlink:href="#DejaVuSans-2e" x="63.623047"/>
       <use xlink:href="#DejaVuSans-34" x="95.410156"/>
      </g>
     </g>
    </g>
    <g id="ytick_4">
     <g id="line2d_10">
      <g>
       <use xlink:href="#m4a75d37886" x="57.6" y="201.1392" style="stroke: #000000; stroke-width: 0.8"/>
      </g>
     </g>
     <g id="text_10">
      <!-- 0.6 -->
      <g transform="translate(34.696875 204.938419) scale(0.1 -0.1)">
       <defs>
        <path id="DejaVuSans-36" d="M 2113 2584 
Q 1688 2584 1439 2293 
Q 1191 2003 1191 1497 
Q 1191 994 1439 701 
Q 1688 409 2113 409 
Q 2538 409 2786 701 
Q 3034 994 3034 1497 
Q 3034 2003 2786 2293 
Q 2538 2584 2113 2584 
z
M 3366 4563 
L 3366 3988 
Q 3128 4100 2886 4159 
Q 2644 4219 2406 4219 
Q 1781 4219 1451 3797 
Q 1122 3375 1075 2522 
Q 1259 2794 1537 2939 
Q 1816 3084 2150 3084 
Q 2853 3084 3261 2657 
Q 3669 2231 3669 1497 
Q 3669 778 3244 343 
Q 2819 -91 2113 -91 
Q 1303 -91 875 529 
Q 447 1150 447 2328 
Q 447 3434 972 4092 
Q 1497 4750 2381 4750 
Q 2619 4750 2861 4703 
Q 3103 4656 3366 4563 
z
" transform="scale(0.015625)"/>
       </defs>
       <use xlink:href="#DejaVuSans-30"/>
       <use xlink:href="#DejaVuSans-2e" x="63.623047"/>
       <use xlink:href="#DejaVuSans-36" x="95.410156"/>
      </g>
     </g>
    </g>
    <g id="ytick_5">
     <g id="line2d_11">
      <g>
       <use xlink:href="#m4a75d37886" x="57.6" y="165.6576" style="stroke: #000000; stroke-width: 0.8"/>
      </g>
     </g>
     <g id="text_11">
      <!-- 0.8 -->
      <g transform="translate(34.696875 169.456819) scale(0.1 -0.1)">
       <defs>
        <path id="DejaVuSans-38" d="M 2034 2216 
Q 1584 2216 1326 1975 
Q 1069 1734 1069 1313 
Q 1069 891 1326 650 
Q 1584 409 2034 409 
Q 2484 409 2743 651 
Q 3003 894 3003 1313 
Q 3003 1734 2745 1975 
Q 2488 2216 2034 2216 
z
M 1403 2484 
Q 997 2584 770 2862 
Q 544 3141 544 3541 
Q 544 4100 942 4425 
Q 1341 4750 2034 4750 
Q 2731 4750 3128 4425 
Q 3525 4100 3525 3541 
Q 3525 3141 3298 2862 
Q 3072 2584 2669 2484 
Q 3125 2378 3379 2068 
Q 3634 1759 3634 1313 
Q 3634 634 3220 271 
Q 2806 -91 2034 -91 
Q 1263 -91 848 271 
Q 434 634 434 1313 
Q 434 1759 690 2068 
Q 947 2378 1403 2484 
z
M 1172 3481 
Q 1172 3119 1398 2916 
Q 1625 2713 2034 2713 
Q 2441 2713 2670 2916 
Q 2900 3119 2900 3481 
Q 2900 3844 2670 4047 
Q 2441 4250 2034 4250 
Q 1625 4250 1398 4047 
Q 1172 3844 1172 3481 
z
" transform="scale(0.015625)"/>
       </defs>
       <use xlink:href="#DejaVuSans-30"/>
       <use xlink:href="#DejaVuSans-2e" x="63.623047"/>
       <use xlink:href="#DejaVuSans-38" x="95.410156"/>
      </g>
     </g>
    </g>
    <g id="ytick_6">
     <g id="line2d_12">
      <g>
       <use xlink:href="#m4a75d37886" x="57.6" y="130.176" style="stroke: #000000; stroke-width: 0.8"/>
      </g>
     </g>
     <g id="text_12">
      <!-- 1.0 -->
      <g transform="translate(34.696875 133.975219) scale(0.1 -0.1)">
       <use xlink:href="#DejaVuSans-31"/>
       <use xlink:href="#DejaVuSans-2e" x="63.623047"/>
       <use xlink:href="#DejaVuSans-30" x="95.410156"/>
      </g>
     </g>
    </g>
    <g id="ytick_7">
     <g id="line2d_13">
      <g>
       <use xlink:href="#m4a75d37886" x="57.6" y="94.6944" style="stroke: #000000; stroke-width: 0.8"/>
      </g>
     </g>
     <g id="text_13">
      <!-- 1.2 -->
      <g transform="translate(34.696875 98.493619) scale(0.1 -0.1)">
       <use xlink:href="#DejaVuSans-31"/>
       <use xlink:href="#DejaVuSans-2e" x="63.623047"/>
       <use xlink:href="#DejaVuSans-32" x="95.410156"/>
      </g>
     </g>
    </g>
    <g id="ytick_8">
     <g id="line2d_14">
      <g>
       <use xlink:href="#m4a75d37886" x="57.6" y="59.2128" style="stroke: #000000; stroke-width: 0.8"/>
      </g>
     </g>
     <g id="text_14">
      <!-- 1.4 -->
      <g transform="translate(34.696875 63.012019) scale(0.1 -0.1)">
       <use xlink:href="#DejaVuSans-31"/>
       <use xlink:href="#DejaVuSans-2e" x="63.623047"/>
       <use xlink:href="#DejaVuSans-34" x="95.410156"/>
      </g>
     </g>
    </g>
   </g>
   <g id="line2d_15">
    <path d="M 73.832727 218.88 
L 398.487273 218.88 
L 398.487273 218.88 
" clip-path="url(#pe31e9c19fb)" style="fill: none; stroke: #1f77b4; stroke-width: 1.5; stroke-linecap: square"/>
   </g>
   <g id="line2d_16">
    <path d="M 73.832727 183.3984 
L 398.487273 183.3984 
L 398.487273 183.3984 
" clip-path="url(#pe31e9c19fb)" style="fill: none; stroke: #ff7f0e; stroke-width: 1.5; stroke-linecap: square"/>
   </g>
   <g id="line2d_17">
    <path d="M 73.832727 279.322906 
L 74.483338 279.659981 
L 75.133948 279.322906 
L 75.784558 279.837389 
L 76.435169 279.145498 
L 77.085779 279.837389 
L 77.736389 279.145498 
L 78.386999 280.192205 
L 79.03761 279.482573 
L 79.68822 280.014797 
L 80.33883 279.322906 
L 80.989441 280.014797 
L 81.640051 279.322906 
L 82.290661 281.735654 
L 82.941272 280.192205 
L 83.591882 282.604954 
L 84.242492 278.96809 
L 84.893103 281.398579 
L 85.543713 279.837389 
L 86.194323 281.221171 
L 86.844934 279.482573 
L 87.495544 280.884096 
L 88.146154 279.659981 
L 88.796764 281.398579 
L 89.447375 279.322906 
L 90.097985 281.043763 
L 90.748595 279.837389 
L 91.399206 281.735654 
L 92.049816 280.884096 
L 92.700426 284.006477 
L 93.351037 279.322906 
L 94.001647 280.884096 
L 94.652257 280.192205 
L 95.302868 280.351872 
L 95.953478 278.790682 
L 96.604088 280.192205 
L 97.254698 278.96809 
L 97.905309 280.192205 
L 98.555919 279.145498 
L 99.206529 280.52928 
L 99.85714 279.145498 
L 100.50775 280.52928 
L 101.15836 279.322906 
L 101.808971 280.192205 
L 102.459581 276.892416 
L 103.110191 279.145498 
L 103.760802 277.761715 
L 104.411412 278.96809 
L 105.062022 277.584307 
L 105.712633 278.96809 
L 106.363243 277.761715 
L 107.013853 278.790682 
L 107.664463 277.406899 
L 108.315074 278.790682 
L 108.965684 277.229491 
L 109.616294 277.921382 
L 110.266905 276.5376 
L 110.917515 277.069824 
L 111.568125 275.668301 
L 112.218736 276.023117 
L 112.869346 274.639334 
L 113.519956 275.331226 
L 114.170567 273.947443 
L 114.821177 274.284518 
L 115.471787 273.947443 
L 116.122398 274.97641 
L 116.773008 273.947443 
L 117.423618 274.799002 
L 118.074228 273.592627 
L 119.375449 273.255552 
L 120.026059 273.592627 
L 120.67667 273.255552 
L 121.32728 274.461926 
L 121.97789 272.900736 
L 122.628501 273.947443 
L 123.279111 272.54592 
L 123.929721 273.592627 
L 124.580332 272.208845 
L 125.230942 273.078144 
L 125.881552 272.031437 
L 126.532163 272.900736 
L 127.182773 271.516954 
L 127.833383 272.386253 
L 128.483993 271.516954 
L 129.134604 272.031437 
L 129.785214 270.647654 
L 130.435824 271.854029 
L 131.086435 270.292838 
L 131.737045 270.98473 
L 132.387655 269.263872 
L 133.038266 270.825062 
L 133.688876 269.086464 
L 134.339486 270.470246 
L 134.990097 268.731648 
L 135.640707 270.133171 
L 136.291317 268.909056 
L 136.941927 269.955763 
L 137.592538 268.217165 
L 138.243148 269.600947 
L 138.893758 267.702682 
L 139.544369 269.263872 
L 140.194979 267.347866 
L 140.845589 268.571981 
L 141.4962 266.833382 
L 142.14681 267.525274 
L 142.79742 265.786675 
L 143.448031 266.655974 
L 144.098641 264.917376 
L 144.749251 265.786675 
L 145.399862 264.048077 
L 146.050472 264.225485 
L 146.701082 263.01911 
L 147.351692 263.356186 
L 149.303523 262.327219 
L 149.954134 262.327219 
L 150.604744 262.149811 
L 151.255354 262.149811 
L 151.905965 261.45792 
L 152.556575 262.149811 
L 153.207185 260.588621 
L 153.857796 262.664294 
L 154.508406 260.925696 
L 155.159016 262.841702 
L 155.809627 260.588621 
L 156.460237 263.01911 
L 157.110847 260.925696 
L 157.761457 262.841702 
L 158.412068 260.588621 
L 159.062678 262.327219 
L 159.713288 260.411213 
L 160.363899 262.327219 
L 161.014509 259.541914 
L 161.665119 262.327219 
L 162.31573 259.541914 
L 162.96634 261.45792 
L 163.61695 258.672614 
L 164.267561 261.103104 
L 164.918171 258.672614 
L 165.568781 260.411213 
L 166.219392 257.288832 
L 166.870002 259.719322 
L 167.520612 256.951757 
L 168.171222 258.672614 
L 168.821833 255.90505 
L 169.472443 258.335539 
L 170.123053 255.727642 
L 170.773664 257.643648 
L 171.424274 255.550234 
L 172.074884 255.390566 
L 172.725495 253.989043 
L 173.376105 254.166451 
L 174.026715 252.090778 
L 174.677326 255.550234 
L 175.327936 247.229798 
L 175.978546 251.735962 
L 176.629156 246.537907 
L 177.279767 251.735962 
L 177.930377 243.770342 
L 178.580987 249.48288 
L 179.231598 243.078451 
L 179.882208 247.229798 
L 180.532818 241.162445 
L 181.183429 245.331533 
L 181.834039 240.985037 
L 182.484649 246.200832 
L 183.13526 239.778662 
L 183.78587 244.976717 
L 184.43648 238.39488 
L 185.087091 244.107418 
L 185.737701 238.217472 
L 186.388311 242.723635 
L 187.038921 237.011098 
L 187.689532 241.676928 
L 188.340142 235.449907 
L 188.990752 241.854336 
L 189.641363 234.917683 
L 190.291973 240.647962 
L 190.942583 235.609574 
L 191.593194 240.985037 
L 192.243804 236.478874 
L 192.894414 240.82537 
L 193.545025 236.301466 
L 194.195635 240.470554 
L 194.846245 234.580608 
L 195.496856 241.162445 
L 196.147466 234.740275 
L 196.798076 241.162445 
L 197.448686 232.327526 
L 198.099297 237.702989 
L 198.749907 231.103411 
L 199.400517 238.554547 
L 200.051128 231.458227 
L 200.701738 237.702989 
L 201.352348 230.056704 
L 202.002959 238.39488 
L 202.653569 229.897037 
L 203.304179 236.301466 
L 203.95479 229.542221 
L 204.6054 234.580608 
L 205.25601 230.41152 
L 205.906621 234.580608 
L 206.557231 230.926003 
L 207.207841 235.96439 
L 207.858451 229.364813 
L 208.509062 236.301466 
L 209.159672 229.205146 
L 209.810282 235.609574 
L 210.460893 227.466547 
L 211.111503 235.272499 
L 211.762113 227.98103 
L 212.412724 234.740275 
L 213.063334 229.027738 
L 213.713944 234.580608 
L 214.364555 229.897037 
L 215.015165 235.272499 
L 215.665775 229.027738 
L 216.316385 235.609574 
L 216.966996 228.85033 
L 217.617606 236.301466 
L 218.268216 227.803622 
L 218.918827 234.4032 
L 219.569437 213.930317 
L 220.220047 220.529894 
L 220.870658 212.723942 
L 221.521268 222.268493 
L 222.171878 212.723942 
L 222.822489 219.660595 
L 223.473099 213.238426 
L 224.123709 221.399194 
L 224.77432 214.107725 
L 225.42493 219.660595 
L 226.07554 213.078758 
L 226.72615 220.015411 
L 227.376761 213.238426 
L 228.027371 221.576602 
L 228.677981 213.593242 
L 229.328592 221.221786 
L 229.979202 213.238426 
L 230.629812 221.576602 
L 231.280423 213.77065 
L 231.931033 221.576602 
L 232.581643 213.593242 
L 233.232254 234.048384 
L 233.882864 227.98103 
L 234.533474 237.011098 
L 235.184085 227.98103 
L 235.834695 237.011098 
L 236.485305 227.111731 
L 237.135915 237.170765 
L 237.786526 226.952064 
L 238.437136 237.011098 
L 239.087746 228.513254 
L 239.738357 236.83369 
L 240.388967 228.672922 
L 241.039577 235.609574 
L 241.690188 229.719629 
L 242.340798 237.702989 
L 242.991408 230.926003 
L 243.642019 237.862656 
L 244.292629 231.617894 
L 244.943239 240.82537 
L 245.59385 231.280819 
L 246.24446 241.854336 
L 246.89507 233.533901 
L 247.54568 242.723635 
L 248.196291 235.449907 
L 248.846901 242.901043 
L 249.497511 235.449907 
L 250.148122 242.546227 
L 250.798732 237.702989 
L 251.449342 244.639642 
L 252.099953 239.601254 
L 252.750563 245.846016 
L 253.401173 240.647962 
L 254.051784 247.05239 
L 254.702394 243.770342 
L 255.353004 248.968397 
L 256.003615 246.023424 
L 256.654225 251.576294 
L 257.304835 247.92169 
L 257.955445 253.137485 
L 258.606056 250.174771 
L 259.256666 257.111424 
L 259.907276 251.91337 
L 260.557887 258.512947 
L 261.208497 254.521267 
L 261.859107 261.103104 
L 262.509718 254.698675 
L 263.160328 261.103104 
L 263.810938 254.858342 
L 264.461549 261.45792 
L 265.112159 254.698675 
L 265.762769 261.45792 
L 266.413379 253.989043 
L 267.06399 260.411213 
L 267.7146 254.343859 
L 268.36521 261.794995 
L 269.015821 255.90505 
L 269.666431 261.794995 
L 270.317041 256.082458 
L 270.967652 260.766029 
L 271.618262 258.335539 
L 272.268872 262.841702 
L 272.919483 261.280512 
L 273.570093 263.196518 
L 274.220703 258.512947 
L 274.871314 261.794995 
L 275.521924 258.672614 
L 276.172534 262.149811 
L 276.823144 258.672614 
L 277.473755 262.149811 
L 278.124365 258.672614 
L 278.774975 262.149811 
L 279.425586 258.850022 
L 280.076196 261.280512 
L 280.726806 259.204838 
L 281.377417 261.635328 
L 282.028027 258.850022 
L 282.678637 261.45792 
L 283.329248 259.382246 
L 283.979858 261.972403 
L 284.630468 259.382246 
L 285.281079 261.794995 
L 285.931689 259.02743 
L 286.582299 261.635328 
L 287.232909 259.02743 
L 287.88352 261.794995 
L 288.53413 258.672614 
L 289.18474 262.149811 
L 289.835351 258.158131 
L 290.485961 263.533594 
L 291.136571 259.204838 
L 291.787182 261.972403 
L 292.437792 258.850022 
L 293.088402 261.972403 
L 293.739013 258.335539 
L 294.389623 262.149811 
L 295.040233 258.672614 
L 295.690844 261.794995 
L 296.341454 259.382246 
L 296.992064 262.664294 
L 297.642674 258.512947 
L 298.293285 262.327219 
L 298.943895 258.512947 
L 299.594505 263.356186 
L 300.245116 257.46624 
L 300.895726 263.711002 
L 301.546336 258.158131 
L 302.196947 262.327219 
L 302.847557 257.980723 
L 303.498167 263.196518 
L 304.148778 258.512947 
L 304.799388 262.327219 
L 305.449998 258.512947 
L 306.100608 262.327219 
L 306.751219 259.382246 
L 307.401829 263.01911 
L 308.052439 259.204838 
L 308.70305 262.327219 
L 309.35366 259.382246 
L 310.00427 264.757709 
L 310.654881 261.794995 
L 311.305491 261.103104 
L 311.956101 260.766029 
L 312.606712 263.711002 
L 313.257322 264.402893 
L 313.907932 266.478566 
L 314.558543 267.170458 
L 315.209153 266.318899 
L 315.859763 267.702682 
L 316.510373 263.88841 
L 317.160984 263.533594 
L 317.811594 261.103104 
L 318.462204 255.213158 
L 319.112815 261.635328 
L 319.763425 261.280512 
L 320.414035 261.635328 
L 321.064646 260.233805 
L 321.715256 261.972403 
L 322.365866 262.327219 
L 323.016477 265.964083 
L 323.667087 260.588621 
L 324.317697 261.972403 
L 324.968308 260.925696 
L 325.618918 268.394573 
L 326.269528 260.588621 
L 326.920138 267.347866 
L 327.570749 261.103104 
L 328.221359 260.233805 
L 328.871969 260.766029 
L 329.52258 261.103104 
L 330.17319 261.794995 
L 331.474411 261.45792 
L 332.125021 262.149811 
L 332.775631 256.259866 
L 333.426242 270.470246 
L 334.076852 232.84201 
L 334.727462 265.609267 
L 335.378073 275.331226 
L 336.679293 279.837389 
L 337.329903 278.96809 
L 337.980514 280.351872 
L 338.631124 279.659981 
L 339.281734 280.192205 
L 339.932345 277.406899 
L 340.582955 279.659981 
L 341.233565 277.584307 
L 341.884176 278.453606 
L 342.534786 272.900736 
L 343.185396 271.339546 
L 343.836007 277.584307 
L 344.486617 272.900736 
L 345.137227 270.825062 
L 345.787837 274.799002 
L 346.438448 276.023117 
L 347.089058 275.668301 
L 347.739668 279.322906 
L 348.390279 267.347866 
L 349.040889 273.255552 
L 349.691499 275.668301 
L 350.34211 273.592627 
L 350.99272 275.331226 
L 352.293941 274.97641 
L 352.944551 276.360192 
L 353.595161 276.023117 
L 354.245772 274.639334 
L 354.896382 273.592627 
L 355.546992 275.153818 
L 356.197602 275.153818 
L 356.848213 273.255552 
L 357.498823 274.639334 
L 358.149433 273.255552 
L 358.800044 274.284518 
L 359.450654 273.415219 
L 360.101264 274.97641 
L 360.751875 273.947443 
L 361.402485 274.799002 
L 362.053095 276.5376 
L 362.703706 276.023117 
L 363.354316 277.584307 
L 364.004926 276.5376 
L 364.655537 277.761715 
L 365.306147 276.5376 
L 365.956757 276.360192 
L 366.607367 278.09879 
L 367.257978 278.631014 
L 367.908588 277.229491 
L 368.559198 276.200525 
L 369.209809 277.584307 
L 369.860419 277.069824 
L 370.511029 278.790682 
L 371.81225 276.023117 
L 372.46286 277.406899 
L 373.113471 277.921382 
L 373.764081 277.069824 
L 374.414691 276.023117 
L 375.065302 278.09879 
L 375.715912 278.09879 
L 376.366522 275.153818 
L 377.017132 277.406899 
L 377.667743 275.668301 
L 378.318353 276.023117 
L 378.968963 275.845709 
L 379.619574 276.5376 
L 380.270184 276.360192 
L 380.920794 275.508634 
L 381.571405 277.584307 
L 382.222015 277.406899 
L 382.872625 278.631014 
L 383.523236 277.584307 
L 384.173846 278.790682 
L 384.824456 274.461926 
L 385.475066 273.415219 
L 386.125677 274.10711 
L 386.776287 266.478566 
L 387.426897 277.584307 
L 388.077508 275.845709 
L 388.728118 264.580301 
L 389.378728 267.01079 
L 390.029339 269.955763 
L 390.679949 271.516954 
L 391.330559 265.964083 
L 391.98117 262.486886 
L 392.63178 250.706995 
L 393.28239 258.335539 
L 393.933001 257.643648 
L 394.583611 259.541914 
L 395.234221 256.774349 
L 395.884831 260.074138 
L 396.535442 260.766029 
L 397.186052 259.89673 
L 397.836662 260.074138 
L 398.487273 259.719322 
L 398.487273 259.719322 
" clip-path="url(#pe31e9c19fb)" style="fill: none; stroke: #2ca02c; stroke-width: 1.5; stroke-linecap: square"/>
   </g>
   <g id="line2d_18">
    <path d="M 73.832727 279.789495 
L 75.784558 279.448228 
L 77.736389 279.336427 
L 80.33883 279.438249 
L 84.893103 279.827904 
L 90.097985 280.586242 
L 92.700426 280.551686 
L 94.652257 280.580261 
L 97.905309 280.795205 
L 99.206529 280.674031 
L 101.808971 280.111234 
L 109.616294 278.507352 
L 114.170567 277.562776 
L 115.471787 277.053615 
L 117.423618 276.018364 
L 120.026059 274.663585 
L 121.97789 273.978075 
L 123.929721 273.605644 
L 129.785214 272.943132 
L 132.387655 272.259445 
L 135.640707 271.117691 
L 138.893758 269.954173 
L 142.14681 269.095439 
L 144.749251 268.342976 
L 146.701082 267.474748 
L 148.652913 266.265436 
L 153.207185 263.097609 
L 154.508406 262.456206 
L 155.809627 261.997052 
L 157.110847 261.720314 
L 159.062678 261.596587 
L 163.61695 261.621489 
L 165.568781 261.311205 
L 167.520612 260.735318 
L 169.472443 259.924604 
L 172.074884 258.569644 
L 175.327936 256.675684 
L 176.629156 255.7489 
L 177.930377 254.595751 
L 179.231598 253.164791 
L 181.183429 250.581709 
L 185.087091 245.162826 
L 186.388311 243.771426 
L 187.689532 242.665788 
L 189.641363 241.367893 
L 193.545025 239.145527 
L 194.846245 238.611653 
L 196.147466 238.27187 
L 198.099297 238.028544 
L 200.051128 237.743603 
L 201.352348 237.279241 
L 202.653569 236.582502 
L 207.858451 233.40831 
L 209.159672 232.903843 
L 210.460893 232.617585 
L 213.713944 232.343851 
L 218.268216 231.931893 
L 220.220047 231.940807 
L 220.870658 231.80987 
L 221.521268 231.46623 
L 222.171878 230.830917 
L 222.822489 229.868431 
L 223.473099 228.589419 
L 224.77432 225.316901 
L 226.72615 220.073514 
L 228.027371 217.39259 
L 228.677981 216.448328 
L 229.328592 215.786795 
L 229.979202 215.397701 
L 230.629812 215.25323 
L 231.280423 215.312741 
L 232.581643 215.852816 
L 233.882864 216.683411 
L 234.533474 217.20484 
L 235.184085 217.869236 
L 235.834695 218.739126 
L 236.485305 219.849575 
L 237.786526 222.737966 
L 240.388967 229.306775 
L 241.690188 231.789803 
L 242.340798 232.670916 
L 242.991408 233.305862 
L 243.642019 233.718385 
L 244.292629 233.948055 
L 245.59385 234.057661 
L 247.54568 234.099444 
L 248.846901 234.472529 
L 250.148122 235.257178 
L 251.449342 236.363664 
L 255.353004 240.228778 
L 257.955445 243.019007 
L 259.907276 245.568599 
L 261.859107 248.626687 
L 265.762769 255.265189 
L 267.06399 256.937594 
L 267.7146 257.562738 
L 268.36521 258.032563 
L 269.015821 258.350391 
L 270.317041 258.608724 
L 272.268872 258.501124 
L 273.570093 258.448817 
L 274.871314 258.669177 
L 276.172534 259.193934 
L 278.774975 260.415256 
L 280.076196 260.774281 
L 281.377417 260.891661 
L 283.329248 260.724742 
L 286.582299 260.293171 
L 289.18474 260.288047 
L 297.642674 260.535185 
L 302.196947 260.502742 
L 311.956101 260.801683 
L 313.907932 261.21362 
L 315.209153 261.646352 
L 316.510373 262.357563 
L 319.763425 264.614858 
L 320.414035 264.722912 
L 321.064646 264.626683 
L 321.715256 264.344243 
L 323.016477 263.389914 
L 324.317697 262.317706 
L 325.618918 261.548684 
L 326.269528 261.340164 
L 326.920138 261.26464 
L 327.570749 261.323535 
L 328.871969 261.770898 
L 330.8238 262.60057 
L 332.125021 262.810866 
L 333.426242 262.668865 
L 334.727462 262.217712 
L 336.028683 261.376787 
L 336.679293 260.941054 
L 337.329903 260.706229 
L 337.980514 260.839603 
L 338.631124 261.457814 
L 339.281734 262.60606 
L 339.932345 264.255746 
L 341.233565 268.639812 
L 343.185396 275.61061 
L 343.836007 277.424567 
L 344.486617 278.78866 
L 345.137227 279.652935 
L 345.787837 280.014501 
L 346.438448 279.910297 
L 347.089058 279.416849 
L 348.390279 277.718063 
L 350.34211 274.972229 
L 351.64333 273.693006 
L 352.293941 273.30284 
L 352.944551 273.087456 
L 353.595161 273.039026 
L 354.245772 273.140681 
L 355.546992 273.676548 
L 358.149433 274.968577 
L 359.450654 275.245109 
L 360.751875 275.175728 
L 364.655537 274.378231 
L 365.956757 274.585962 
L 367.257978 275.122396 
L 371.16164 277.203366 
L 372.46286 277.585227 
L 373.764081 277.737016 
L 375.715912 277.630791 
L 380.270184 276.933686 
L 383.523236 276.398097 
L 384.824456 276.391758 
L 387.426897 276.688942 
L 388.077508 276.620173 
L 388.728118 276.435134 
L 389.378728 276.131882 
L 390.029339 275.701654 
L 391.330559 274.444031 
L 392.63178 272.780656 
L 393.933001 270.708804 
L 395.234221 268.009548 
L 398.487273 260.48978 
L 398.487273 260.48978 
" clip-path="url(#pe31e9c19fb)" style="fill: none; stroke: #d62728; stroke-width: 1.5; stroke-linecap: square"/>
   </g>
   <g id="patch_3">
    <path d="M 57.6 307.584 
L 57.6 41.472 
" style="fill: none; stroke: #000000; stroke-width: 0.8; stroke-linejoin: miter; stroke-linecap: square"/>
   </g>
   <g id="patch_4">
    <path d="M 414.72 307.584 
L 414.72 41.472 
" style="fill: none; stroke: #000000; stroke-width: 0.8; stroke-linejoin: miter; stroke-linecap: square"/>
   </g>
   <g id="patch_5">
    <path d="M 57.6 307.584 
L 414.72 307.584 
" style="fill: none; stroke: #000000; stroke-width: 0.8; stroke-linejoin: miter; stroke-linecap: square"/>
   </g>
   <g id="patch_6">
    <path d="M 57.6 41.472 
L 414.72 41.472 
" style="fill: none; stroke: #000000; stroke-width: 0.8; stroke-linejoin: miter; stroke-linecap: square"/>
   </g>
   <g id="text_15">
    <!-- indexPlot -->
    <g transform="translate(208.435313 35.472) scale(0.12 -0.12)">
     <defs>
      <path id="DejaVuSans-69" d="M 603 3500 
L 1178 3500 
L 1178 0 
L 603 0 
L 603 3500 
z
M 603 4863 
L 1178 4863 
L 1178 4134 
L 603 4134 
L 603 4863 
z
" transform="scale(0.015625)"/>
      <path id="DejaVuSans-6e" d="M 3513 2113 
L 3513 0 
L 2938 0 
L 2938 2094 
Q 2938 2591 2744 2837 
Q 2550 3084 2163 3084 
Q 1697 3084 1428 2787 
Q 1159 2491 1159 1978 
L 1159 0 
L 581 0 
L 581 3500 
L 1159 3500 
L 1159 2956 
Q 1366 3272 1645 3428 
Q 1925 3584 2291 3584 
Q 2894 3584 3203 3211 
Q 3513 2838 3513 2113 
z
" transform="scale(0.015625)"/>
      <path id="DejaVuSans-64" d="M 2906 2969 
L 2906 4863 
L 3481 4863 
L 3481 0 
L 2906 0 
L 2906 525 
Q 2725 213 2448 61 
Q 2172 -91 1784 -91 
Q 1150 -91 751 415 
Q 353 922 353 1747 
Q 353 2572 751 3078 
Q 1150 3584 1784 3584 
Q 2172 3584 2448 3432 
Q 2725 3281 2906 2969 
z
M 947 1747 
Q 947 1113 1208 752 
Q 1469 391 1925 391 
Q 2381 391 2643 752 
Q 2906 1113 2906 1747 
Q 2906 2381 2643 2742 
Q 2381 3103 1925 3103 
Q 1469 3103 1208 2742 
Q 947 2381 947 1747 
z
" transform="scale(0.015625)"/>
      <path id="DejaVuSans-65" d="M 3597 1894 
L 3597 1613 
L 953 1613 
Q 991 1019 1311 708 
Q 1631 397 2203 397 
Q 2534 397 2845 478 
Q 3156 559 3463 722 
L 3463 178 
Q 3153 47 2828 -22 
Q 2503 -91 2169 -91 
Q 1331 -91 842 396 
Q 353 884 353 1716 
Q 353 2575 817 3079 
Q 1281 3584 2069 3584 
Q 2775 3584 3186 3129 
Q 3597 2675 3597 1894 
z
M 3022 2063 
Q 3016 2534 2758 2815 
Q 2500 3097 2075 3097 
Q 1594 3097 1305 2825 
Q 1016 2553 972 2059 
L 3022 2063 
z
" transform="scale(0.015625)"/>
      <path id="DejaVuSans-78" d="M 3513 3500 
L 2247 1797 
L 3578 0 
L 2900 0 
L 1881 1375 
L 863 0 
L 184 0 
L 1544 1831 
L 300 3500 
L 978 3500 
L 1906 2253 
L 2834 3500 
L 3513 3500 
z
" transform="scale(0.015625)"/>
      <path id="DejaVuSans-50" d="M 1259 4147 
L 1259 2394 
L 2053 2394 
Q 2494 2394 2734 2622 
Q 2975 2850 2975 3272 
Q 2975 3691 2734 3919 
Q 2494 4147 2053 4147 
L 1259 4147 
z
M 628 4666 
L 2053 4666 
Q 2838 4666 3239 4311 
Q 3641 3956 3641 3272 
Q 3641 2581 3239 2228 
Q 2838 1875 2053 1875 
L 1259 1875 
L 1259 0 
L 628 0 
L 628 4666 
z
" transform="scale(0.015625)"/>
      <path id="DejaVuSans-6c" d="M 603 4863 
L 1178 4863 
L 1178 0 
L 603 0 
L 603 4863 
z
" transform="scale(0.015625)"/>
      <path id="DejaVuSans-6f" d="M 1959 3097 
Q 1497 3097 1228 2736 
Q 959 2375 959 1747 
Q 959 1119 1226 758 
Q 1494 397 1959 397 
Q 2419 397 2687 759 
Q 2956 1122 2956 1747 
Q 2956 2369 2687 2733 
Q 2419 3097 1959 3097 
z
M 1959 3584 
Q 2709 3584 3137 3096 
Q 3566 2609 3566 1747 
Q 3566 888 3137 398 
Q 2709 -91 1959 -91 
Q 1206 -91 779 398 
Q 353 888 353 1747 
Q 353 2609 779 3096 
Q 1206 3584 1959 3584 
z
" transform="scale(0.015625)"/>
      <path id="DejaVuSans-74" d="M 1172 4494 
L 1172 3500 
L 2356 3500 
L 2356 3053 
L 1172 3053 
L 1172 1153 
Q 1172 725 1289 603 
Q 1406 481 1766 481 
L 2356 481 
L 2356 0 
L 1766 0 
Q 1100 0 847 248 
Q 594 497 594 1153 
L 594 3053 
L 172 3053 
L 172 3500 
L 594 3500 
L 594 4494 
L 1172 4494 
z
" transform="scale(0.015625)"/>
     </defs>
     <use xlink:href="#DejaVuSans-69"/>
     <use xlink:href="#DejaVuSans-6e" x="27.783203"/>
     <use xlink:href="#DejaVuSans-64" x="91.162109"/>
     <use xlink:href="#DejaVuSans-65" x="154.638672"/>
     <use xlink:href="#DejaVuSans-78" x="214.412109"/>
     <use xlink:href="#DejaVuSans-50" x="273.591797"/>
     <use xlink:href="#DejaVuSans-6c" x="333.894531"/>
     <use xlink:href="#DejaVuSans-6f" x="361.677734"/>
     <use xlink:href="#DejaVuSans-74" x="422.859375"/>
    </g>
   </g>
   <g id="legend_1">
    <g id="patch_7">
     <path d="M 245.324687 119.382313 
L 407.72 119.382313 
Q 409.72 119.382313 409.72 117.382313 
L 409.72 48.472 
Q 409.72 46.472 407.72 46.472 
L 245.324687 46.472 
Q 243.324687 46.472 243.324687 48.472 
L 243.324687 117.382313 
Q 243.324687 119.382313 245.324687 119.382313 
z
" style="fill: #ffffff; opacity: 0.8; stroke: #cccccc; stroke-linejoin: miter"/>
    </g>
    <g id="line2d_19">
     <path d="M 247.324687 54.570438 
L 257.324687 54.570438 
L 267.324687 54.570438 
" style="fill: none; stroke: #1f77b4; stroke-width: 1.5; stroke-linecap: square"/>
    </g>
    <g id="text_16">
     <!-- On Threshold -->
     <g transform="translate(275.324687 58.070438) scale(0.1 -0.1)">
      <defs>
       <path id="DejaVuSans-4f" d="M 2522 4238 
Q 1834 4238 1429 3725 
Q 1025 3213 1025 2328 
Q 1025 1447 1429 934 
Q 1834 422 2522 422 
Q 3209 422 3611 934 
Q 4013 1447 4013 2328 
Q 4013 3213 3611 3725 
Q 3209 4238 2522 4238 
z
M 2522 4750 
Q 3503 4750 4090 4092 
Q 4678 3434 4678 2328 
Q 4678 1225 4090 567 
Q 3503 -91 2522 -91 
Q 1538 -91 948 565 
Q 359 1222 359 2328 
Q 359 3434 948 4092 
Q 1538 4750 2522 4750 
z
" transform="scale(0.015625)"/>
       <path id="DejaVuSans-20" transform="scale(0.015625)"/>
       <path id="DejaVuSans-54" d="M -19 4666 
L 3928 4666 
L 3928 4134 
L 2272 4134 
L 2272 0 
L 1638 0 
L 1638 4134 
L -19 4134 
L -19 4666 
z
" transform="scale(0.015625)"/>
       <path id="DejaVuSans-68" d="M 3513 2113 
L 3513 0 
L 2938 0 
L 2938 2094 
Q 2938 2591 2744 2837 
Q 2550 3084 2163 3084 
Q 1697 3084 1428 2787 
Q 1159 2491 1159 1978 
L 1159 0 
L 581 0 
L 581 4863 
L 1159 4863 
L 1159 2956 
Q 1366 3272 1645 3428 
Q 1925 3584 2291 3584 
Q 2894 3584 3203 3211 
Q 3513 2838 3513 2113 
z
" transform="scale(0.015625)"/>
       <path id="DejaVuSans-72" d="M 2631 2963 
Q 2534 3019 2420 3045 
Q 2306 3072 2169 3072 
Q 1681 3072 1420 2755 
Q 1159 2438 1159 1844 
L 1159 0 
L 581 0 
L 581 3500 
L 1159 3500 
L 1159 2956 
Q 1341 3275 1631 3429 
Q 1922 3584 2338 3584 
Q 2397 3584 2469 3576 
Q 2541 3569 2628 3553 
L 2631 2963 
z
" transform="scale(0.015625)"/>
       <path id="DejaVuSans-73" d="M 2834 3397 
L 2834 2853 
Q 2591 2978 2328 3040 
Q 2066 3103 1784 3103 
Q 1356 3103 1142 2972 
Q 928 2841 928 2578 
Q 928 2378 1081 2264 
Q 1234 2150 1697 2047 
L 1894 2003 
Q 2506 1872 2764 1633 
Q 3022 1394 3022 966 
Q 3022 478 2636 193 
Q 2250 -91 1575 -91 
Q 1294 -91 989 -36 
Q 684 19 347 128 
L 347 722 
Q 666 556 975 473 
Q 1284 391 1588 391 
Q 1994 391 2212 530 
Q 2431 669 2431 922 
Q 2431 1156 2273 1281 
Q 2116 1406 1581 1522 
L 1381 1569 
Q 847 1681 609 1914 
Q 372 2147 372 2553 
Q 372 3047 722 3315 
Q 1072 3584 1716 3584 
Q 2034 3584 2315 3537 
Q 2597 3491 2834 3397 
z
" transform="scale(0.015625)"/>
      </defs>
      <use xlink:href="#DejaVuSans-4f"/>
      <use xlink:href="#DejaVuSans-6e" x="78.710938"/>
      <use xlink:href="#DejaVuSans-20" x="142.089844"/>
      <use xlink:href="#DejaVuSans-54" x="173.876953"/>
      <use xlink:href="#DejaVuSans-68" x="234.960938"/>
      <use xlink:href="#DejaVuSans-72" x="298.339844"/>
      <use xlink:href="#DejaVuSans-65" x="337.203125"/>
      <use xlink:href="#DejaVuSans-73" x="398.726562"/>
      <use xlink:href="#DejaVuSans-68" x="450.826172"/>
      <use xlink:href="#DejaVuSans-6f" x="514.205078"/>
      <use xlink:href="#DejaVuSans-6c" x="575.386719"/>
      <use xlink:href="#DejaVuSans-64" x="603.169922"/>
     </g>
    </g>
    <g id="line2d_20">
     <path d="M 247.324687 69.248563 
L 257.324687 69.248563 
L 267.324687 69.248563 
" style="fill: none; stroke: #ff7f0e; stroke-width: 1.5; stroke-linecap: square"/>
    </g>
    <g id="text_17">
     <!-- Automation Threshold -->
     <g transform="translate(275.324687 72.748563) scale(0.1 -0.1)">
      <defs>
       <path id="DejaVuSans-41" d="M 2188 4044 
L 1331 1722 
L 3047 1722 
L 2188 4044 
z
M 1831 4666 
L 2547 4666 
L 4325 0 
L 3669 0 
L 3244 1197 
L 1141 1197 
L 716 0 
L 50 0 
L 1831 4666 
z
" transform="scale(0.015625)"/>
       <path id="DejaVuSans-75" d="M 544 1381 
L 544 3500 
L 1119 3500 
L 1119 1403 
Q 1119 906 1312 657 
Q 1506 409 1894 409 
Q 2359 409 2629 706 
Q 2900 1003 2900 1516 
L 2900 3500 
L 3475 3500 
L 3475 0 
L 2900 0 
L 2900 538 
Q 2691 219 2414 64 
Q 2138 -91 1772 -91 
Q 1169 -91 856 284 
Q 544 659 544 1381 
z
M 1991 3584 
L 1991 3584 
z
" transform="scale(0.015625)"/>
       <path id="DejaVuSans-6d" d="M 3328 2828 
Q 3544 3216 3844 3400 
Q 4144 3584 4550 3584 
Q 5097 3584 5394 3201 
Q 5691 2819 5691 2113 
L 5691 0 
L 5113 0 
L 5113 2094 
Q 5113 2597 4934 2840 
Q 4756 3084 4391 3084 
Q 3944 3084 3684 2787 
Q 3425 2491 3425 1978 
L 3425 0 
L 2847 0 
L 2847 2094 
Q 2847 2600 2669 2842 
Q 2491 3084 2119 3084 
Q 1678 3084 1418 2786 
Q 1159 2488 1159 1978 
L 1159 0 
L 581 0 
L 581 3500 
L 1159 3500 
L 1159 2956 
Q 1356 3278 1631 3431 
Q 1906 3584 2284 3584 
Q 2666 3584 2933 3390 
Q 3200 3197 3328 2828 
z
" transform="scale(0.015625)"/>
       <path id="DejaVuSans-61" d="M 2194 1759 
Q 1497 1759 1228 1600 
Q 959 1441 959 1056 
Q 959 750 1161 570 
Q 1363 391 1709 391 
Q 2188 391 2477 730 
Q 2766 1069 2766 1631 
L 2766 1759 
L 2194 1759 
z
M 3341 1997 
L 3341 0 
L 2766 0 
L 2766 531 
Q 2569 213 2275 61 
Q 1981 -91 1556 -91 
Q 1019 -91 701 211 
Q 384 513 384 1019 
Q 384 1609 779 1909 
Q 1175 2209 1959 2209 
L 2766 2209 
L 2766 2266 
Q 2766 2663 2505 2880 
Q 2244 3097 1772 3097 
Q 1472 3097 1187 3025 
Q 903 2953 641 2809 
L 641 3341 
Q 956 3463 1253 3523 
Q 1550 3584 1831 3584 
Q 2591 3584 2966 3190 
Q 3341 2797 3341 1997 
z
" transform="scale(0.015625)"/>
      </defs>
      <use xlink:href="#DejaVuSans-41"/>
      <use xlink:href="#DejaVuSans-75" x="68.408203"/>
      <use xlink:href="#DejaVuSans-74" x="131.787109"/>
      <use xlink:href="#DejaVuSans-6f" x="170.996094"/>
      <use xlink:href="#DejaVuSans-6d" x="232.177734"/>
      <use xlink:href="#DejaVuSans-61" x="329.589844"/>
      <use xlink:href="#DejaVuSans-74" x="390.869141"/>
      <use xlink:href="#DejaVuSans-69" x="430.078125"/>
      <use xlink:href="#DejaVuSans-6f" x="457.861328"/>
      <use xlink:href="#DejaVuSans-6e" x="519.042969"/>
      <use xlink:href="#DejaVuSans-20" x="582.421875"/>
      <use xlink:href="#DejaVuSans-54" x="614.208984"/>
      <use xlink:href="#DejaVuSans-68" x="675.292969"/>
      <use xlink:href="#DejaVuSans-72" x="738.671875"/>
      <use xlink:href="#DejaVuSans-65" x="777.535156"/>
      <use xlink:href="#DejaVuSans-73" x="839.058594"/>
      <use xlink:href="#DejaVuSans-68" x="891.158203"/>
      <use xlink:href="#DejaVuSans-6f" x="954.537109"/>
      <use xlink:href="#DejaVuSans-6c" x="1015.71875"/>
      <use xlink:href="#DejaVuSans-64" x="1043.501953"/>
     </g>
    </g>
    <g id="line2d_21">
     <path d="M 247.324687 83.926688 
L 257.324687 83.926688 
L 267.324687 83.926688 
" style="fill: none; stroke: #2ca02c; stroke-width: 1.5; stroke-linecap: square"/>
    </g>
    <g id="text_18">
     <!-- Noisy Signal -->
     <g transform="translate(275.324687 87.426688) scale(0.1 -0.1)">
      <defs>
       <path id="DejaVuSans-4e" d="M 628 4666 
L 1478 4666 
L 3547 763 
L 3547 4666 
L 4159 4666 
L 4159 0 
L 3309 0 
L 1241 3903 
L 1241 0 
L 628 0 
L 628 4666 
z
" transform="scale(0.015625)"/>
       <path id="DejaVuSans-79" d="M 2059 -325 
Q 1816 -950 1584 -1140 
Q 1353 -1331 966 -1331 
L 506 -1331 
L 506 -850 
L 844 -850 
Q 1081 -850 1212 -737 
Q 1344 -625 1503 -206 
L 1606 56 
L 191 3500 
L 800 3500 
L 1894 763 
L 2988 3500 
L 3597 3500 
L 2059 -325 
z
" transform="scale(0.015625)"/>
       <path id="DejaVuSans-53" d="M 3425 4513 
L 3425 3897 
Q 3066 4069 2747 4153 
Q 2428 4238 2131 4238 
Q 1616 4238 1336 4038 
Q 1056 3838 1056 3469 
Q 1056 3159 1242 3001 
Q 1428 2844 1947 2747 
L 2328 2669 
Q 3034 2534 3370 2195 
Q 3706 1856 3706 1288 
Q 3706 609 3251 259 
Q 2797 -91 1919 -91 
Q 1588 -91 1214 -16 
Q 841 59 441 206 
L 441 856 
Q 825 641 1194 531 
Q 1563 422 1919 422 
Q 2459 422 2753 634 
Q 3047 847 3047 1241 
Q 3047 1584 2836 1778 
Q 2625 1972 2144 2069 
L 1759 2144 
Q 1053 2284 737 2584 
Q 422 2884 422 3419 
Q 422 4038 858 4394 
Q 1294 4750 2059 4750 
Q 2388 4750 2728 4690 
Q 3069 4631 3425 4513 
z
" transform="scale(0.015625)"/>
       <path id="DejaVuSans-67" d="M 2906 1791 
Q 2906 2416 2648 2759 
Q 2391 3103 1925 3103 
Q 1463 3103 1205 2759 
Q 947 2416 947 1791 
Q 947 1169 1205 825 
Q 1463 481 1925 481 
Q 2391 481 2648 825 
Q 2906 1169 2906 1791 
z
M 3481 434 
Q 3481 -459 3084 -895 
Q 2688 -1331 1869 -1331 
Q 1566 -1331 1297 -1286 
Q 1028 -1241 775 -1147 
L 775 -588 
Q 1028 -725 1275 -790 
Q 1522 -856 1778 -856 
Q 2344 -856 2625 -561 
Q 2906 -266 2906 331 
L 2906 616 
Q 2728 306 2450 153 
Q 2172 0 1784 0 
Q 1141 0 747 490 
Q 353 981 353 1791 
Q 353 2603 747 3093 
Q 1141 3584 1784 3584 
Q 2172 3584 2450 3431 
Q 2728 3278 2906 2969 
L 2906 3500 
L 3481 3500 
L 3481 434 
z
" transform="scale(0.015625)"/>
      </defs>
      <use xlink:href="#DejaVuSans-4e"/>
      <use xlink:href="#DejaVuSans-6f" x="74.804688"/>
      <use xlink:href="#DejaVuSans-69" x="135.986328"/>
      <use xlink:href="#DejaVuSans-73" x="163.769531"/>
      <use xlink:href="#DejaVuSans-79" x="215.869141"/>
      <use xlink:href="#DejaVuSans-20" x="275.048828"/>
      <use xlink:href="#DejaVuSans-53" x="306.835938"/>
      <use xlink:href="#DejaVuSans-69" x="370.3125"/>
      <use xlink:href="#DejaVuSans-67" x="398.095703"/>
      <use xlink:href="#DejaVuSans-6e" x="461.572266"/>
      <use xlink:href="#DejaVuSans-61" x="524.951172"/>
      <use xlink:href="#DejaVuSans-6c" x="586.230469"/>
     </g>
    </g>
    <g id="line2d_22">
     <path d="M 247.324687 105.243563 
L 257.324687 105.243563 
L 267.324687 105.243563 
" style="fill: none; stroke: #d62728; stroke-width: 1.5; stroke-linecap: square"/>
    </g>
    <g id="text_19">
     <!-- CleanSignal -->
     <g transform="translate(275.324687 102.104813) scale(0.1 -0.1)">
      <defs>
       <path id="DejaVuSans-43" d="M 4122 4306 
L 4122 3641 
Q 3803 3938 3442 4084 
Q 3081 4231 2675 4231 
Q 1875 4231 1450 3742 
Q 1025 3253 1025 2328 
Q 1025 1406 1450 917 
Q 1875 428 2675 428 
Q 3081 428 3442 575 
Q 3803 722 4122 1019 
L 4122 359 
Q 3791 134 3420 21 
Q 3050 -91 2638 -91 
Q 1578 -91 968 557 
Q 359 1206 359 2328 
Q 359 3453 968 4101 
Q 1578 4750 2638 4750 
Q 3056 4750 3426 4639 
Q 3797 4528 4122 4306 
z
" transform="scale(0.015625)"/>
      </defs>
      <use xlink:href="#DejaVuSans-43"/>
      <use xlink:href="#DejaVuSans-6c" x="69.824219"/>
      <use xlink:href="#DejaVuSans-65" x="97.607422"/>
      <use xlink:href="#DejaVuSans-61" x="159.130859"/>
      <use xlink:href="#DejaVuSans-6e" x="220.410156"/>
      <use xlink:href="#DejaVuSans-53" x="283.789062"/>
      <use xlink:href="#DejaVuSans-69" x="347.265625"/>
      <use xlink:href="#DejaVuSans-67" x="375.048828"/>
      <use xlink:href="#DejaVuSans-6e" x="438.525391"/>
      <use xlink:href="#DejaVuSans-61" x="501.904297"/>
      <use xlink:href="#DejaVuSans-6c" x="563.183594"/>
     </g>
     <!-- Sampling Rate: 74.918 Hz -->
     <g transform="translate(275.324687 113.302625) scale(0.1 -0.1)">
      <defs>
       <path id="DejaVuSans-70" d="M 1159 525 
L 1159 -1331 
L 581 -1331 
L 581 3500 
L 1159 3500 
L 1159 2969 
Q 1341 3281 1617 3432 
Q 1894 3584 2278 3584 
Q 2916 3584 3314 3078 
Q 3713 2572 3713 1747 
Q 3713 922 3314 415 
Q 2916 -91 2278 -91 
Q 1894 -91 1617 61 
Q 1341 213 1159 525 
z
M 3116 1747 
Q 3116 2381 2855 2742 
Q 2594 3103 2138 3103 
Q 1681 3103 1420 2742 
Q 1159 2381 1159 1747 
Q 1159 1113 1420 752 
Q 1681 391 2138 391 
Q 2594 391 2855 752 
Q 3116 1113 3116 1747 
z
" transform="scale(0.015625)"/>
       <path id="DejaVuSans-52" d="M 2841 2188 
Q 3044 2119 3236 1894 
Q 3428 1669 3622 1275 
L 4263 0 
L 3584 0 
L 2988 1197 
Q 2756 1666 2539 1819 
Q 2322 1972 1947 1972 
L 1259 1972 
L 1259 0 
L 628 0 
L 628 4666 
L 2053 4666 
Q 2853 4666 3247 4331 
Q 3641 3997 3641 3322 
Q 3641 2881 3436 2590 
Q 3231 2300 2841 2188 
z
M 1259 4147 
L 1259 2491 
L 2053 2491 
Q 2509 2491 2742 2702 
Q 2975 2913 2975 3322 
Q 2975 3731 2742 3939 
Q 2509 4147 2053 4147 
L 1259 4147 
z
" transform="scale(0.015625)"/>
       <path id="DejaVuSans-3a" d="M 750 794 
L 1409 794 
L 1409 0 
L 750 0 
L 750 794 
z
M 750 3309 
L 1409 3309 
L 1409 2516 
L 750 2516 
L 750 3309 
z
" transform="scale(0.015625)"/>
       <path id="DejaVuSans-37" d="M 525 4666 
L 3525 4666 
L 3525 4397 
L 1831 0 
L 1172 0 
L 2766 4134 
L 525 4134 
L 525 4666 
z
" transform="scale(0.015625)"/>
       <path id="DejaVuSans-39" d="M 703 97 
L 703 672 
Q 941 559 1184 500 
Q 1428 441 1663 441 
Q 2288 441 2617 861 
Q 2947 1281 2994 2138 
Q 2813 1869 2534 1725 
Q 2256 1581 1919 1581 
Q 1219 1581 811 2004 
Q 403 2428 403 3163 
Q 403 3881 828 4315 
Q 1253 4750 1959 4750 
Q 2769 4750 3195 4129 
Q 3622 3509 3622 2328 
Q 3622 1225 3098 567 
Q 2575 -91 1691 -91 
Q 1453 -91 1209 -44 
Q 966 3 703 97 
z
M 1959 2075 
Q 2384 2075 2632 2365 
Q 2881 2656 2881 3163 
Q 2881 3666 2632 3958 
Q 2384 4250 1959 4250 
Q 1534 4250 1286 3958 
Q 1038 3666 1038 3163 
Q 1038 2656 1286 2365 
Q 1534 2075 1959 2075 
z
" transform="scale(0.015625)"/>
       <path id="DejaVuSans-48" d="M 628 4666 
L 1259 4666 
L 1259 2753 
L 3553 2753 
L 3553 4666 
L 4184 4666 
L 4184 0 
L 3553 0 
L 3553 2222 
L 1259 2222 
L 1259 0 
L 628 0 
L 628 4666 
z
" transform="scale(0.015625)"/>
       <path id="DejaVuSans-7a" d="M 353 3500 
L 3084 3500 
L 3084 2975 
L 922 459 
L 3084 459 
L 3084 0 
L 275 0 
L 275 525 
L 2438 3041 
L 353 3041 
L 353 3500 
z
" transform="scale(0.015625)"/>
      </defs>
      <use xlink:href="#DejaVuSans-53"/>
      <use xlink:href="#DejaVuSans-61" x="63.476562"/>
      <use xlink:href="#DejaVuSans-6d" x="124.755859"/>
      <use xlink:href="#DejaVuSans-70" x="222.167969"/>
      <use xlink:href="#DejaVuSans-6c" x="285.644531"/>
      <use xlink:href="#DejaVuSans-69" x="313.427734"/>
      <use xlink:href="#DejaVuSans-6e" x="341.210938"/>
      <use xlink:href="#DejaVuSans-67" x="404.589844"/>
      <use xlink:href="#DejaVuSans-20" x="468.066406"/>
      <use xlink:href="#DejaVuSans-52" x="499.853516"/>
      <use xlink:href="#DejaVuSans-61" x="567.085938"/>
      <use xlink:href="#DejaVuSans-74" x="628.365234"/>
      <use xlink:href="#DejaVuSans-65" x="667.574219"/>
      <use xlink:href="#DejaVuSans-3a" x="729.097656"/>
      <use xlink:href="#DejaVuSans-20" x="762.789062"/>
      <use xlink:href="#DejaVuSans-37" x="794.576172"/>
      <use xlink:href="#DejaVuSans-34" x="858.199219"/>
      <use xlink:href="#DejaVuSans-2e" x="921.822266"/>
      <use xlink:href="#DejaVuSans-39" x="953.609375"/>
      <use xlink:href="#DejaVuSans-31" x="1017.232422"/>
      <use xlink:href="#DejaVuSans-38" x="1080.855469"/>
      <use xlink:href="#DejaVuSans-20" x="1144.478516"/>
      <use xlink:href="#DejaVuSans-48" x="1176.265625"/>
      <use xlink:href="#DejaVuSans-7a" x="1251.460938"/>
     </g>
    </g>
   </g>
  </g>
 </g>
 <defs>
  <clipPath id="pe31e9c19fb">
   <rect x="57.6" y="41.472" width="357.12" height="266.112"/>
  </clipPath>
 </defs>
</svg>
