<?xml version="1.0" encoding="utf-8" standalone="no"?>
<!DOCTYPE svg PUBLIC "-//W3C//DTD SVG 1.1//EN"
  "http://www.w3.org/Graphics/SVG/1.1/DTD/svg11.dtd">
<svg xmlns:xlink="http://www.w3.org/1999/xlink" width="655.2pt" height="328.32pt" viewBox="0 0 655.2 328.32" xmlns="http://www.w3.org/2000/svg" version="1.1">
 <metadata>
  <rdf:RDF xmlns:dc="http://purl.org/dc/elements/1.1/" xmlns:cc="http://creativecommons.org/ns#" xmlns:rdf="http://www.w3.org/1999/02/22-rdf-syntax-ns#">
   <cc:Work>
    <dc:type rdf:resource="http://purl.org/dc/dcmitype/StillImage"/>
    <dc:date>2023-12-04T16:15:36.710859</dc:date>
    <dc:format>image/svg+xml</dc:format>
    <dc:creator>
     <cc:Agent>
      <dc:title>Matplotlib v3.7.1, https://matplotlib.org/</dc:title>
     </cc:Agent>
    </dc:creator>
   </cc:Work>
  </rdf:RDF>
 </metadata>
 <defs>
  <style type="text/css">*{stroke-linejoin: round; stroke-linecap: butt}</style>
 </defs>
 <g id="figure_1">
  <g id="patch_1">
   <path d="M 0 328.32 
L 655.2 328.32 
L 655.2 0 
L 0 0 
z
" style="fill: #fffafa"/>
  </g>
  <g id="axes_1">
   <g id="patch_2">
    <path d="M 81.9 292.2048 
L 589.68 292.2048 
L 589.68 39.3984 
L 81.9 39.3984 
z
" style="fill: #fffafa"/>
   </g>
   <g id="matplotlib.axis_1">
    <g id="xtick_1">
     <g id="line2d_1">
      <defs>
       <path id="m5443bc895c" d="M 0 0 
L 0 3.5 
" style="stroke: #000000; stroke-width: 0.8"/>
      </defs>
      <g>
       <use xlink:href="#m5443bc895c" x="104.980909" y="292.2048" style="stroke: #000000; stroke-width: 0.8"/>
      </g>
     </g>
     <g id="text_1">
      <!-- 0 -->
      <g transform="translate(101.799659 306.803238) scale(0.1 -0.1)">
       <defs>
        <path id="DejaVuSans-30" d="M 2034 4250 
Q 1547 4250 1301 3770 
Q 1056 3291 1056 2328 
Q 1056 1369 1301 889 
Q 1547 409 2034 409 
Q 2525 409 2770 889 
Q 3016 1369 3016 2328 
Q 3016 3291 2770 3770 
Q 2525 4250 2034 4250 
z
M 2034 4750 
Q 2819 4750 3233 4129 
Q 3647 3509 3647 2328 
Q 3647 1150 3233 529 
Q 2819 -91 2034 -91 
Q 1250 -91 836 529 
Q 422 1150 422 2328 
Q 422 3509 836 4129 
Q 1250 4750 2034 4750 
z
" transform="scale(0.015625)"/>
       </defs>
       <use xlink:href="#DejaVuSans-30"/>
      </g>
     </g>
    </g>
    <g id="xtick_2">
     <g id="line2d_2">
      <g>
       <use xlink:href="#m5443bc895c" x="197.489563" y="292.2048" style="stroke: #000000; stroke-width: 0.8"/>
      </g>
     </g>
     <g id="text_2">
      <!-- 100 -->
      <g transform="translate(187.945813 306.803238) scale(0.1 -0.1)">
       <defs>
        <path id="DejaVuSans-31" d="M 794 531 
L 1825 531 
L 1825 4091 
L 703 3866 
L 703 4441 
L 1819 4666 
L 2450 4666 
L 2450 531 
L 3481 531 
L 3481 0 
L 794 0 
L 794 531 
z
" transform="scale(0.015625)"/>
       </defs>
       <use xlink:href="#DejaVuSans-31"/>
       <use xlink:href="#DejaVuSans-30" x="63.623047"/>
       <use xlink:href="#DejaVuSans-30" x="127.246094"/>
      </g>
     </g>
    </g>
    <g id="xtick_3">
     <g id="line2d_3">
      <g>
       <use xlink:href="#m5443bc895c" x="289.998216" y="292.2048" style="stroke: #000000; stroke-width: 0.8"/>
      </g>
     </g>
     <g id="text_3">
      <!-- 200 -->
      <g transform="translate(280.454466 306.803238) scale(0.1 -0.1)">
       <defs>
        <path id="DejaVuSans-32" d="M 1228 531 
L 3431 531 
L 3431 0 
L 469 0 
L 469 531 
Q 828 903 1448 1529 
Q 2069 2156 2228 2338 
Q 2531 2678 2651 2914 
Q 2772 3150 2772 3378 
Q 2772 3750 2511 3984 
Q 2250 4219 1831 4219 
Q 1534 4219 1204 4116 
Q 875 4013 500 3803 
L 500 4441 
Q 881 4594 1212 4672 
Q 1544 4750 1819 4750 
Q 2544 4750 2975 4387 
Q 3406 4025 3406 3419 
Q 3406 3131 3298 2873 
Q 3191 2616 2906 2266 
Q 2828 2175 2409 1742 
Q 1991 1309 1228 531 
z
" transform="scale(0.015625)"/>
       </defs>
       <use xlink:href="#DejaVuSans-32"/>
       <use xlink:href="#DejaVuSans-30" x="63.623047"/>
       <use xlink:href="#DejaVuSans-30" x="127.246094"/>
      </g>
     </g>
    </g>
    <g id="xtick_4">
     <g id="line2d_4">
      <g>
       <use xlink:href="#m5443bc895c" x="382.50687" y="292.2048" style="stroke: #000000; stroke-width: 0.8"/>
      </g>
     </g>
     <g id="text_4">
      <!-- 300 -->
      <g transform="translate(372.96312 306.803238) scale(0.1 -0.1)">
       <defs>
        <path id="DejaVuSans-33" d="M 2597 2516 
Q 3050 2419 3304 2112 
Q 3559 1806 3559 1356 
Q 3559 666 3084 287 
Q 2609 -91 1734 -91 
Q 1441 -91 1130 -33 
Q 819 25 488 141 
L 488 750 
Q 750 597 1062 519 
Q 1375 441 1716 441 
Q 2309 441 2620 675 
Q 2931 909 2931 1356 
Q 2931 1769 2642 2001 
Q 2353 2234 1838 2234 
L 1294 2234 
L 1294 2753 
L 1863 2753 
Q 2328 2753 2575 2939 
Q 2822 3125 2822 3475 
Q 2822 3834 2567 4026 
Q 2313 4219 1838 4219 
Q 1578 4219 1281 4162 
Q 984 4106 628 3988 
L 628 4550 
Q 988 4650 1302 4700 
Q 1616 4750 1894 4750 
Q 2613 4750 3031 4423 
Q 3450 4097 3450 3541 
Q 3450 3153 3228 2886 
Q 3006 2619 2597 2516 
z
" transform="scale(0.015625)"/>
       </defs>
       <use xlink:href="#DejaVuSans-33"/>
       <use xlink:href="#DejaVuSans-30" x="63.623047"/>
       <use xlink:href="#DejaVuSans-30" x="127.246094"/>
      </g>
     </g>
    </g>
    <g id="xtick_5">
     <g id="line2d_5">
      <g>
       <use xlink:href="#m5443bc895c" x="475.015524" y="292.2048" style="stroke: #000000; stroke-width: 0.8"/>
      </g>
     </g>
     <g id="text_5">
      <!-- 400 -->
      <g transform="translate(465.471774 306.803238) scale(0.1 -0.1)">
       <defs>
        <path id="DejaVuSans-34" d="M 2419 4116 
L 825 1625 
L 2419 1625 
L 2419 4116 
z
M 2253 4666 
L 3047 4666 
L 3047 1625 
L 3713 1625 
L 3713 1100 
L 3047 1100 
L 3047 0 
L 2419 0 
L 2419 1100 
L 313 1100 
L 313 1709 
L 2253 4666 
z
" transform="scale(0.015625)"/>
       </defs>
       <use xlink:href="#DejaVuSans-34"/>
       <use xlink:href="#DejaVuSans-30" x="63.623047"/>
       <use xlink:href="#DejaVuSans-30" x="127.246094"/>
      </g>
     </g>
    </g>
    <g id="xtick_6">
     <g id="line2d_6">
      <g>
       <use xlink:href="#m5443bc895c" x="567.524177" y="292.2048" style="stroke: #000000; stroke-width: 0.8"/>
      </g>
     </g>
     <g id="text_6">
      <!-- 500 -->
      <g transform="translate(557.980427 306.803238) scale(0.1 -0.1)">
       <defs>
        <path id="DejaVuSans-35" d="M 691 4666 
L 3169 4666 
L 3169 4134 
L 1269 4134 
L 1269 2991 
Q 1406 3038 1543 3061 
Q 1681 3084 1819 3084 
Q 2600 3084 3056 2656 
Q 3513 2228 3513 1497 
Q 3513 744 3044 326 
Q 2575 -91 1722 -91 
Q 1428 -91 1123 -41 
Q 819 9 494 109 
L 494 744 
Q 775 591 1075 516 
Q 1375 441 1709 441 
Q 2250 441 2565 725 
Q 2881 1009 2881 1497 
Q 2881 1984 2565 2268 
Q 2250 2553 1709 2553 
Q 1456 2553 1204 2497 
Q 953 2441 691 2322 
L 691 4666 
z
" transform="scale(0.015625)"/>
       </defs>
       <use xlink:href="#DejaVuSans-35"/>
       <use xlink:href="#DejaVuSans-30" x="63.623047"/>
       <use xlink:href="#DejaVuSans-30" x="127.246094"/>
      </g>
     </g>
    </g>
   </g>
   <g id="matplotlib.axis_2">
    <g id="ytick_1">
     <g id="line2d_7">
      <defs>
       <path id="mcdd873d272" d="M 0 0 
L -3.5 0 
" style="stroke: #000000; stroke-width: 0.8"/>
      </defs>
      <g>
       <use xlink:href="#mcdd873d272" x="81.9" y="292.2048" style="stroke: #000000; stroke-width: 0.8"/>
      </g>
     </g>
     <g id="text_7">
      <!-- 0.0 -->
      <g transform="translate(58.996875 296.004019) scale(0.1 -0.1)">
       <defs>
        <path id="DejaVuSans-2e" d="M 684 794 
L 1344 794 
L 1344 0 
L 684 0 
L 684 794 
z
" transform="scale(0.015625)"/>
       </defs>
       <use xlink:href="#DejaVuSans-30"/>
       <use xlink:href="#DejaVuSans-2e" x="63.623047"/>
       <use xlink:href="#DejaVuSans-30" x="95.410156"/>
      </g>
     </g>
    </g>
    <g id="ytick_2">
     <g id="line2d_8">
      <g>
       <use xlink:href="#mcdd873d272" x="81.9" y="258.49728" style="stroke: #000000; stroke-width: 0.8"/>
      </g>
     </g>
     <g id="text_8">
      <!-- 0.2 -->
      <g transform="translate(58.996875 262.296499) scale(0.1 -0.1)">
       <use xlink:href="#DejaVuSans-30"/>
       <use xlink:href="#DejaVuSans-2e" x="63.623047"/>
       <use xlink:href="#DejaVuSans-32" x="95.410156"/>
      </g>
     </g>
    </g>
    <g id="ytick_3">
     <g id="line2d_9">
      <g>
       <use xlink:href="#mcdd873d272" x="81.9" y="224.78976" style="stroke: #000000; stroke-width: 0.8"/>
      </g>
     </g>
     <g id="text_9">
      <!-- 0.4 -->
      <g transform="translate(58.996875 228.588979) scale(0.1 -0.1)">
       <use xlink:href="#DejaVuSans-30"/>
       <use xlink:href="#DejaVuSans-2e" x="63.623047"/>
       <use xlink:href="#DejaVuSans-34" x="95.410156"/>
      </g>
     </g>
    </g>
    <g id="ytick_4">
     <g id="line2d_10">
      <g>
       <use xlink:href="#mcdd873d272" x="81.9" y="191.08224" style="stroke: #000000; stroke-width: 0.8"/>
      </g>
     </g>
     <g id="text_10">
      <!-- 0.6 -->
      <g transform="translate(58.996875 194.881459) scale(0.1 -0.1)">
       <defs>
        <path id="DejaVuSans-36" d="M 2113 2584 
Q 1688 2584 1439 2293 
Q 1191 2003 1191 1497 
Q 1191 994 1439 701 
Q 1688 409 2113 409 
Q 2538 409 2786 701 
Q 3034 994 3034 1497 
Q 3034 2003 2786 2293 
Q 2538 2584 2113 2584 
z
M 3366 4563 
L 3366 3988 
Q 3128 4100 2886 4159 
Q 2644 4219 2406 4219 
Q 1781 4219 1451 3797 
Q 1122 3375 1075 2522 
Q 1259 2794 1537 2939 
Q 1816 3084 2150 3084 
Q 2853 3084 3261 2657 
Q 3669 2231 3669 1497 
Q 3669 778 3244 343 
Q 2819 -91 2113 -91 
Q 1303 -91 875 529 
Q 447 1150 447 2328 
Q 447 3434 972 4092 
Q 1497 4750 2381 4750 
Q 2619 4750 2861 4703 
Q 3103 4656 3366 4563 
z
" transform="scale(0.015625)"/>
       </defs>
       <use xlink:href="#DejaVuSans-30"/>
       <use xlink:href="#DejaVuSans-2e" x="63.623047"/>
       <use xlink:href="#DejaVuSans-36" x="95.410156"/>
      </g>
     </g>
    </g>
    <g id="ytick_5">
     <g id="line2d_11">
      <g>
       <use xlink:href="#mcdd873d272" x="81.9" y="157.37472" style="stroke: #000000; stroke-width: 0.8"/>
      </g>
     </g>
     <g id="text_11">
      <!-- 0.8 -->
      <g transform="translate(58.996875 161.173939) scale(0.1 -0.1)">
       <defs>
        <path id="DejaVuSans-38" d="M 2034 2216 
Q 1584 2216 1326 1975 
Q 1069 1734 1069 1313 
Q 1069 891 1326 650 
Q 1584 409 2034 409 
Q 2484 409 2743 651 
Q 3003 894 3003 1313 
Q 3003 1734 2745 1975 
Q 2488 2216 2034 2216 
z
M 1403 2484 
Q 997 2584 770 2862 
Q 544 3141 544 3541 
Q 544 4100 942 4425 
Q 1341 4750 2034 4750 
Q 2731 4750 3128 4425 
Q 3525 4100 3525 3541 
Q 3525 3141 3298 2862 
Q 3072 2584 2669 2484 
Q 3125 2378 3379 2068 
Q 3634 1759 3634 1313 
Q 3634 634 3220 271 
Q 2806 -91 2034 -91 
Q 1263 -91 848 271 
Q 434 634 434 1313 
Q 434 1759 690 2068 
Q 947 2378 1403 2484 
z
M 1172 3481 
Q 1172 3119 1398 2916 
Q 1625 2713 2034 2713 
Q 2441 2713 2670 2916 
Q 2900 3119 2900 3481 
Q 2900 3844 2670 4047 
Q 2441 4250 2034 4250 
Q 1625 4250 1398 4047 
Q 1172 3844 1172 3481 
z
" transform="scale(0.015625)"/>
       </defs>
       <use xlink:href="#DejaVuSans-30"/>
       <use xlink:href="#DejaVuSans-2e" x="63.623047"/>
       <use xlink:href="#DejaVuSans-38" x="95.410156"/>
      </g>
     </g>
    </g>
    <g id="ytick_6">
     <g id="line2d_12">
      <g>
       <use xlink:href="#mcdd873d272" x="81.9" y="123.6672" style="stroke: #000000; stroke-width: 0.8"/>
      </g>
     </g>
     <g id="text_12">
      <!-- 1.0 -->
      <g transform="translate(58.996875 127.466419) scale(0.1 -0.1)">
       <use xlink:href="#DejaVuSans-31"/>
       <use xlink:href="#DejaVuSans-2e" x="63.623047"/>
       <use xlink:href="#DejaVuSans-30" x="95.410156"/>
      </g>
     </g>
    </g>
    <g id="ytick_7">
     <g id="line2d_13">
      <g>
       <use xlink:href="#mcdd873d272" x="81.9" y="89.95968" style="stroke: #000000; stroke-width: 0.8"/>
      </g>
     </g>
     <g id="text_13">
      <!-- 1.2 -->
      <g transform="translate(58.996875 93.758899) scale(0.1 -0.1)">
       <use xlink:href="#DejaVuSans-31"/>
       <use xlink:href="#DejaVuSans-2e" x="63.623047"/>
       <use xlink:href="#DejaVuSans-32" x="95.410156"/>
      </g>
     </g>
    </g>
    <g id="ytick_8">
     <g id="line2d_14">
      <g>
       <use xlink:href="#mcdd873d272" x="81.9" y="56.25216" style="stroke: #000000; stroke-width: 0.8"/>
      </g>
     </g>
     <g id="text_14">
      <!-- 1.4 -->
      <g transform="translate(58.996875 60.051379) scale(0.1 -0.1)">
       <use xlink:href="#DejaVuSans-31"/>
       <use xlink:href="#DejaVuSans-2e" x="63.623047"/>
       <use xlink:href="#DejaVuSans-34" x="95.410156"/>
      </g>
     </g>
    </g>
   </g>
   <g id="line2d_15">
    <path d="M 104.980909 207.936 
L 566.599091 207.936 
L 566.599091 207.936 
" clip-path="url(#p8b1e74eefc)" style="fill: none; stroke: #1f77b4; stroke-width: 1.5; stroke-linecap: square"/>
   </g>
   <g id="line2d_16">
    <path d="M 104.980909 174.22848 
L 566.599091 174.22848 
L 566.599091 174.22848 
" clip-path="url(#p8b1e74eefc)" style="fill: none; stroke: #ff7f0e; stroke-width: 1.5; stroke-linecap: square"/>
   </g>
   <g id="line2d_17">
    <path d="M 104.980909 220.205537 
L 105.905996 219.228019 
L 106.831082 219.059482 
L 107.756169 219.228019 
L 108.681255 219.548241 
L 109.606342 219.059482 
L 110.531428 219.228019 
L 111.456515 218.553869 
L 112.381601 218.402185 
L 113.306688 218.553869 
L 114.231774 218.402185 
L 115.156861 219.548241 
L 116.081948 223.171799 
L 117.007034 225.649302 
L 118.857207 219.379703 
L 119.782294 220.037 
L 120.70738 221.688668 
L 121.632467 223.997633 
L 122.557553 219.885316 
L 123.48264 223.677412 
L 124.407726 222.514502 
L 125.332813 218.722406 
L 126.257899 218.233647 
L 127.182986 218.402185 
L 128.108073 218.402185 
L 129.033159 217.087592 
L 129.958246 216.919054 
L 130.883332 216.413441 
L 131.808419 216.750516 
L 132.733505 216.750516 
L 133.658592 218.06511 
L 134.583678 221.368447 
L 135.508765 218.402185 
L 136.433851 217.896572 
L 137.358938 217.239276 
L 138.284024 214.12133 
L 139.209111 220.542612 
L 140.134197 218.402185 
L 141.059284 215.924682 
L 141.984371 218.06511 
L 142.909457 215.756145 
L 143.834544 212.789883 
L 144.75963 213.44718 
L 145.684717 214.778627 
L 146.609803 213.295496 
L 147.53489 214.12133 
L 148.459976 212.301124 
L 149.385063 211.964049 
L 150.310149 211.155068 
L 151.235236 212.789883 
L 152.160322 212.132586 
L 153.085409 211.964049 
L 154.010496 219.885316 
L 154.935582 219.548241 
L 155.860669 223.997633 
L 156.785755 219.548241 
L 157.710842 216.09322 
L 158.635928 212.132586 
L 159.561015 226.963895 
L 160.486101 222.514502 
L 161.411188 209.334862 
L 162.336274 218.722406 
L 163.261361 217.239276 
L 164.186447 205.222545 
L 165.111534 204.565248 
L 166.036621 204.716932 
L 166.961707 205.374228 
L 167.886794 205.222545 
L 168.81188 205.879841 
L 169.736967 205.542766 
L 170.662053 205.374228 
L 171.58714 205.374228 
L 172.512226 205.054007 
L 173.437313 204.885469 
L 174.362399 204.565248 
L 175.287486 205.374228 
L 176.212572 204.716932 
L 177.137659 205.542766 
L 178.062745 205.054007 
L 178.987832 206.3686 
L 179.912919 205.374228 
L 180.838005 207.194435 
L 181.763092 205.374228 
L 182.688178 205.542766 
L 183.613265 205.542766 
L 184.538351 205.054007 
L 185.463438 205.054007 
L 186.388524 205.222545 
L 187.313611 204.885469 
L 188.238697 205.054007 
L 189.163784 204.228173 
L 190.08887 204.059635 
L 191.013957 204.565248 
L 191.939044 204.39671 
L 192.86413 203.402339 
L 193.789217 203.570876 
L 194.714303 204.059635 
L 195.63939 203.233801 
L 196.564476 203.402339 
L 197.489563 202.256283 
L 198.414649 202.087745 
L 199.339736 201.430449 
L 200.264822 201.430449 
L 201.189909 202.087745 
L 202.114995 201.430449 
L 203.040082 201.919208 
L 203.965169 201.598986 
L 204.890255 201.430449 
L 205.815342 200.604614 
L 206.740428 200.773152 
L 207.665515 200.773152 
L 209.515688 199.77878 
L 210.440774 200.115855 
L 211.365861 200.267539 
L 212.290947 199.947318 
L 213.216034 200.115855 
L 214.14112 199.610243 
L 215.991293 200.267539 
L 216.91638 199.947318 
L 217.841467 199.77878 
L 218.766553 200.115855 
L 219.69164 200.267539 
L 220.616726 199.77878 
L 221.541813 199.77878 
L 222.466899 200.115855 
L 223.391986 199.947318 
L 224.317072 199.610243 
L 225.242159 198.784408 
L 226.167245 199.121484 
L 227.092332 197.975428 
L 228.017418 197.469815 
L 228.942505 197.975428 
L 229.867592 197.469815 
L 230.792678 197.638353 
L 231.717765 197.149594 
L 232.642851 196.981056 
L 233.567938 195.835 
L 234.493024 195.986684 
L 235.418111 196.492297 
L 236.343197 195.666463 
L 237.268284 195.986684 
L 238.19337 196.492297 
L 239.118457 196.643981 
L 240.96863 195.986684 
L 241.893717 196.643981 
L 242.818803 196.155222 
L 243.74389 196.812518 
L 244.668976 195.986684 
L 245.594063 196.155222 
L 246.519149 195.986684 
L 247.444236 196.323759 
L 248.369322 195.666463 
L 249.294409 195.497925 
L 250.219495 196.155222 
L 251.144582 195.666463 
L 252.069668 196.155222 
L 252.994755 195.986684 
L 253.919842 196.155222 
L 254.844928 195.835 
L 255.770015 195.986684 
L 256.695101 195.666463 
L 258.545274 196.323759 
L 259.470361 195.666463 
L 260.395447 196.155222 
L 261.320534 195.835 
L 262.24562 195.835 
L 264.095793 198.952946 
L 265.02088 199.610243 
L 265.945966 202.91358 
L 266.871053 203.570876 
L 267.79614 200.604614 
L 268.721226 202.42482 
L 269.646313 203.570876 
L 270.571399 201.919208 
L 271.496486 205.542766 
L 272.421572 206.3686 
L 273.346659 207.025897 
L 274.271745 208.509028 
L 275.196832 208.020269 
L 276.121918 208.509028 
L 277.047005 205.711304 
L 278.897178 210.649455 
L 279.822265 207.53151 
L 280.747351 209.014641 
L 281.672438 209.5034 
L 282.597524 208.846103 
L 283.522611 209.5034 
L 284.447697 209.334862 
L 285.372784 209.823621 
L 286.29787 210.497772 
L 287.222957 209.823621 
L 288.148043 211.155068 
L 289.07313 210.649455 
L 289.998216 211.306752 
L 290.923303 212.95842 
L 291.84839 213.784255 
L 292.773476 213.295496 
L 293.698563 214.12133 
L 294.623649 216.09322 
L 295.548736 216.261757 
L 296.473822 217.239276 
L 297.398909 219.059482 
L 298.323995 218.06511 
L 299.249082 219.379703 
L 300.174168 220.374075 
L 301.099255 218.402185 
L 302.024341 219.379703 
L 302.949428 220.037 
L 303.874514 221.199909 
L 304.799601 221.520131 
L 305.724688 222.68304 
L 306.649774 222.194281 
L 307.574861 223.171799 
L 308.499947 224.823468 
L 309.425034 225.160543 
L 310.35012 225.312227 
L 311.275207 225.969523 
L 312.200293 225.817839 
L 313.12538 225.817839 
L 314.050466 227.30097 
L 314.975553 226.795357 
L 315.900639 227.132433 
L 316.825726 231.750363 
L 317.750813 234.868308 
L 318.675899 233.722253 
L 319.600986 233.385178 
L 320.526072 235.373921 
L 321.451159 239.149164 
L 322.376245 238.171645 
L 323.301332 240.143535 
L 325.151505 244.930003 
L 326.076591 244.761466 
L 327.001678 247.390652 
L 327.926764 246.733356 
L 328.851851 246.733356 
L 329.776938 243.767094 
L 330.702024 242.94126 
L 332.552197 242.621038 
L 333.477284 241.795204 
L 334.40237 239.486239 
L 337.17763 238.99748 
L 338.102716 238.99748 
L 339.027803 238.828942 
L 339.952889 239.654776 
L 340.877976 241.626666 
L 341.803062 242.283963 
L 342.728149 241.626666 
L 343.653236 239.654776 
L 344.578322 239.317701 
L 345.503409 239.974998 
L 346.428495 239.486239 
L 347.353582 241.795204 
L 348.278668 240.143535 
L 349.203755 237.83457 
L 350.128841 250.356914 
L 351.053928 248.705245 
L 351.979014 249.362542 
L 352.904101 251.182748 
L 353.829187 250.693989 
L 354.754274 251.840045 
L 355.679361 251.182748 
L 356.604447 251.351286 
L 357.529534 254.14901 
L 358.45462 253.980472 
L 359.379707 254.14901 
L 360.304793 253.660251 
L 361.22988 254.806307 
L 362.154966 253.980472 
L 363.080053 251.519823 
L 364.005139 251.182748 
L 364.930226 251.182748 
L 365.855312 251.519823 
L 366.780399 251.182748 
L 367.705486 251.014211 
L 368.630572 251.519823 
L 369.555659 251.671507 
L 370.480745 251.351286 
L 371.405832 251.182748 
L 372.330918 251.351286 
L 373.256005 251.351286 
L 374.181091 252.17712 
L 375.106178 252.497341 
L 376.956351 252.834417 
L 379.73161 252.328804 
L 380.656697 252.834417 
L 382.50687 257.941106 
L 383.431957 256.626513 
L 384.357043 257.435493 
L 385.28213 257.772568 
L 386.207216 258.598403 
L 387.132303 258.76694 
L 388.057389 261.059052 
L 388.982476 264.025313 
L 389.907562 262.71072 
L 391.757735 262.390499 
L 392.682822 263.705092 
L 393.607909 265.845519 
L 394.532995 266.502816 
L 395.458082 265.508444 
L 396.383168 262.71072 
L 397.308255 267.817409 
L 398.233341 264.851148 
L 399.158428 267.160113 
L 400.083514 266.014057 
L 401.008601 266.671354 
L 401.933687 266.182595 
L 402.858774 265.35676 
L 403.78386 267.160113 
L 404.708947 266.334278 
L 405.634034 265.188223 
L 406.55912 266.502816 
L 407.484207 264.362388 
L 408.409293 264.699464 
L 409.33438 268.323022 
L 411.184553 265.508444 
L 412.109639 266.502816 
L 413.034726 266.182595 
L 413.959812 266.014057 
L 414.884899 263.368017 
L 415.809985 266.334278 
L 416.735072 266.502816 
L 417.660158 266.182595 
L 418.585245 265.508444 
L 419.510332 265.845519 
L 420.435418 267.497188 
L 421.360505 267.497188 
L 422.285591 267.32865 
L 423.210678 268.980319 
L 424.135764 270.294912 
L 425.060851 266.839891 
L 425.985937 269.806153 
L 426.911024 266.014057 
L 427.83611 264.699464 
L 428.761197 268.811781 
L 429.686283 266.839891 
L 430.61137 266.991575 
L 431.536457 266.991575 
L 432.461543 265.845519 
L 433.38663 265.188223 
L 434.311716 265.019685 
L 435.236803 264.362388 
L 436.161889 261.733202 
L 437.086976 262.221961 
L 438.012062 263.216333 
L 439.862235 264.530926 
L 440.787322 259.424237 
L 441.712408 259.424237 
L 442.637495 257.772568 
L 443.562582 254.14901 
L 444.487668 255.463603 
L 445.412755 257.283809 
L 446.337841 256.1209 
L 447.262928 256.778196 
L 448.188014 256.778196 
L 449.113101 256.946734 
L 450.038187 259.424237 
L 450.963274 258.109644 
L 451.88836 255.800678 
L 452.813447 257.283809 
L 453.738533 250.525452 
L 454.66362 249.868155 
L 456.513793 240.96937 
L 457.43888 242.283963 
L 458.363966 240.312073 
L 459.289053 241.289591 
L 460.214139 240.480611 
L 461.139226 240.96937 
L 462.064312 241.289591 
L 462.989399 242.4525 
L 463.914485 241.963741 
L 464.839572 241.137907 
L 465.764658 241.458129 
L 466.689745 241.963741 
L 467.614831 242.283963 
L 468.539918 242.283963 
L 469.465005 241.963741 
L 470.390091 241.795204 
L 471.315178 241.795204 
L 472.240264 240.800832 
L 473.165351 241.795204 
L 474.090437 241.795204 
L 475.015524 244.930003 
L 475.94061 240.143535 
L 476.865697 241.458129 
L 477.790783 240.800832 
L 478.71587 239.317701 
L 479.640956 241.458129 
L 480.566043 239.149164 
L 481.49113 236.031218 
L 482.416216 236.031218 
L 483.341303 239.149164 
L 484.266389 239.486239 
L 485.191476 240.143535 
L 486.116562 239.149164 
L 487.041649 238.660404 
L 487.966735 238.340183 
L 488.891822 239.317701 
L 489.816908 240.632294 
L 490.741995 239.974998 
L 491.667081 239.149164 
L 492.592168 238.660404 
L 493.517255 238.828942 
L 494.442341 239.486239 
L 495.367428 239.486239 
L 496.292514 238.660404 
L 497.217601 238.491867 
L 498.142687 241.458129 
L 499.067774 241.795204 
L 499.99286 239.149164 
L 500.917947 239.149164 
L 501.843033 239.974998 
L 502.76812 241.963741 
L 503.693206 241.626666 
L 504.618293 241.963741 
L 505.543379 242.115425 
L 506.468466 241.289591 
L 507.393553 239.974998 
L 508.318639 238.171645 
L 509.243726 236.857052 
L 510.168812 236.182902 
L 511.093899 238.171645 
L 512.018985 237.514349 
L 512.944072 237.008736 
L 513.869158 237.008736 
L 514.794245 236.182902 
L 515.719331 237.83457 
L 516.644418 238.660404 
L 517.569504 238.340183 
L 518.494591 236.351439 
L 519.419678 236.182902 
L 520.344764 232.070584 
L 521.269851 232.070584 
L 522.194937 233.21664 
L 523.120024 235.205384 
L 524.04511 234.548087 
L 524.970197 234.548087 
L 525.895283 232.896419 
L 526.82037 235.525605 
L 527.745456 232.559343 
L 528.670543 233.722253 
L 529.595629 232.727881 
L 530.520716 232.727881 
L 531.445803 233.553715 
L 532.370889 235.694143 
L 533.295976 234.379549 
L 534.221062 234.699771 
L 535.146149 236.688515 
L 536.071235 235.86268 
L 536.996322 236.688515 
L 537.921408 236.351439 
L 538.846495 236.519977 
L 539.771581 238.171645 
L 540.696668 237.008736 
L 541.621754 237.177274 
L 542.546841 237.83457 
L 543.471927 238.171645 
L 544.397014 237.666033 
L 545.322101 237.666033 
L 546.247187 237.514349 
L 547.172274 238.003108 
L 548.09736 237.666033 
L 549.022447 237.514349 
L 549.947533 237.83457 
L 550.87262 237.345811 
L 551.797706 237.83457 
L 552.722793 237.666033 
L 553.647879 238.003108 
L 554.572966 237.83457 
L 555.498052 238.340183 
L 556.423139 238.660404 
L 557.348226 238.491867 
L 558.273312 238.99748 
L 559.198399 238.828942 
L 560.123485 238.99748 
L 561.048572 238.828942 
L 561.973658 239.149164 
L 562.898745 239.149164 
L 563.823831 238.828942 
L 564.748918 238.828942 
L 566.599091 239.149164 
L 566.599091 239.149164 
" clip-path="url(#p8b1e74eefc)" style="fill: none; stroke: #2ca02c; stroke-width: 1.5; stroke-linecap: square"/>
   </g>
   <g id="line2d_18">
    <path d="M 104.980909 220.558424 
L 108.681255 220.727297 
L 110.531428 220.614302 
L 113.306688 220.141412 
L 117.932121 219.123889 
L 118.857207 219.080456 
L 119.782294 219.159091 
L 121.632467 219.632191 
L 127.182986 221.665171 
L 128.108073 221.83321 
L 129.033159 221.879145 
L 129.958246 221.787838 
L 130.883332 221.555722 
L 132.733505 220.708769 
L 137.358938 217.884806 
L 139.209111 217.317627 
L 141.059284 217.153154 
L 142.909457 217.254269 
L 145.684717 217.460622 
L 147.53489 217.256388 
L 149.385063 216.646632 
L 151.235236 215.708367 
L 154.935582 213.503388 
L 155.860669 213.097777 
L 156.785755 212.874265 
L 157.710842 212.89246 
L 158.635928 213.171557 
L 159.561015 213.680069 
L 161.411188 215.16328 
L 164.186447 217.634127 
L 165.111534 218.21299 
L 166.036621 218.524783 
L 166.961707 218.482939 
L 167.886794 218.032706 
L 168.81188 217.168749 
L 169.736967 215.935958 
L 171.58714 212.727437 
L 173.437313 209.277193 
L 175.287486 206.373281 
L 176.212572 205.279267 
L 177.137659 204.456207 
L 178.062745 203.901244 
L 178.987832 203.594641 
L 179.912919 203.50496 
L 180.838005 203.594039 
L 182.688178 204.144563 
L 186.388524 205.602594 
L 188.238697 206.006557 
L 190.08887 206.069169 
L 191.939044 205.837527 
L 194.714303 205.167833 
L 199.339736 203.988224 
L 205.815342 202.444656 
L 210.440774 201.470803 
L 216.91638 200.346546 
L 219.69164 200.03166 
L 222.466899 199.897324 
L 229.867592 199.752668 
L 231.717765 199.440063 
L 234.493024 198.685007 
L 241.893717 196.384291 
L 243.74389 196.117119 
L 245.594063 196.030722 
L 249.294409 196.167797 
L 252.994755 196.229811 
L 265.02088 195.928188 
L 266.871053 196.120704 
L 267.79614 196.342471 
L 268.721226 196.682052 
L 270.571399 197.723653 
L 272.421572 199.129512 
L 276.121918 202.390953 
L 279.822265 205.64634 
L 281.672438 206.948565 
L 283.522611 207.932973 
L 285.372784 208.605007 
L 287.222957 209.025068 
L 293.698563 210.064764 
L 295.548736 210.689018 
L 297.398909 211.597535 
L 299.249082 212.809321 
L 301.099255 214.283329 
L 304.799601 217.419883 
L 306.649774 218.73467 
L 308.499947 219.825174 
L 316.825726 224.297077 
L 319.600986 225.979747 
L 321.451159 227.4139 
L 323.301332 229.239729 
L 325.151505 231.47326 
L 327.001678 234.075728 
L 329.776938 238.49562 
L 331.627111 241.440446 
L 332.552197 242.739078 
L 333.477284 243.834041 
L 334.40237 244.674956 
L 335.327457 245.228298 
L 336.252543 245.477368 
L 337.17763 245.424311 
L 338.102716 245.092131 
L 339.027803 244.523215 
L 340.877976 242.914517 
L 342.728149 241.160441 
L 343.653236 240.414721 
L 344.578322 239.829281 
L 345.503409 239.424323 
L 346.428495 239.193674 
L 347.353582 239.114376 
L 349.203755 239.290053 
L 351.053928 239.723968 
L 352.904101 240.424994 
L 353.829187 240.963742 
L 354.754274 241.667987 
L 355.679361 242.544432 
L 357.529534 244.731003 
L 362.154966 250.755931 
L 364.005139 252.591898 
L 364.930226 253.27151 
L 365.855312 253.761167 
L 366.780399 254.049419 
L 367.705486 254.139796 
L 368.630572 254.050288 
L 370.480745 253.46073 
L 375.106178 251.444392 
L 376.956351 251.035317 
L 378.806524 251.00325 
L 380.656697 251.29539 
L 383.431957 252.056449 
L 385.28213 252.750795 
L 387.132303 253.677745 
L 388.982476 254.837264 
L 390.832649 256.216962 
L 393.607909 258.666537 
L 397.308255 262.013556 
L 399.158428 263.455364 
L 401.008601 264.604348 
L 402.858774 265.444027 
L 404.708947 265.99295 
L 406.55912 266.290526 
L 408.409293 266.385839 
L 411.184553 266.231866 
L 414.884899 265.992586 
L 423.210678 265.912403 
L 425.060851 266.092154 
L 426.911024 266.495699 
L 430.61137 267.553499 
L 432.461543 267.821726 
L 434.311716 267.81237 
L 436.161889 267.517978 
L 438.012062 266.930025 
L 439.862235 266.05336 
L 444.487668 263.395177 
L 446.337841 262.086511 
L 449.113101 259.693428 
L 450.963274 258.150161 
L 452.813447 257.017105 
L 453.738533 256.658994 
L 455.588707 256.253819 
L 457.43888 255.799344 
L 458.363966 255.325576 
L 459.289053 254.586746 
L 460.214139 253.55181 
L 461.139226 252.232741 
L 462.989399 248.974457 
L 464.839572 245.503409 
L 466.689745 242.581946 
L 467.614831 241.490128 
L 468.539918 240.682752 
L 469.465005 240.160895 
L 470.390091 239.905666 
L 471.315178 239.881124 
L 472.240264 240.038786 
L 474.090437 240.677273 
L 476.865697 241.740025 
L 478.71587 242.212991 
L 480.566043 242.356421 
L 482.416216 242.125106 
L 484.266389 241.494089 
L 487.041649 240.037897 
L 488.891822 239.153109 
L 490.741995 238.579954 
L 492.592168 238.3921 
L 494.442341 238.537925 
L 500.917947 239.466657 
L 507.393553 240.160527 
L 511.093899 240.771627 
L 512.018985 240.761291 
L 512.944072 240.634943 
L 514.794245 240.051612 
L 517.569504 238.671838 
L 519.419678 237.797688 
L 521.269851 237.179299 
L 524.970197 236.12896 
L 530.520716 234.276479 
L 533.295976 233.690513 
L 535.146149 233.496487 
L 536.996322 233.543191 
L 538.846495 233.877147 
L 540.696668 234.468473 
L 548.09736 237.34775 
L 549.947533 237.731816 
L 551.797706 237.916318 
L 554.572966 237.910228 
L 559.198399 237.765254 
L 561.973658 237.961113 
L 566.599091 238.669116 
L 566.599091 238.669116 
" clip-path="url(#p8b1e74eefc)" style="fill: none; stroke: #d62728; stroke-width: 1.5; stroke-linecap: square"/>
   </g>
   <g id="patch_3">
    <path d="M 81.9 292.2048 
L 81.9 39.3984 
" style="fill: none; stroke: #000000; stroke-width: 0.8; stroke-linejoin: miter; stroke-linecap: square"/>
   </g>
   <g id="patch_4">
    <path d="M 589.68 292.2048 
L 589.68 39.3984 
" style="fill: none; stroke: #000000; stroke-width: 0.8; stroke-linejoin: miter; stroke-linecap: square"/>
   </g>
   <g id="patch_5">
    <path d="M 81.9 292.2048 
L 589.68 292.2048 
" style="fill: none; stroke: #000000; stroke-width: 0.8; stroke-linejoin: miter; stroke-linecap: square"/>
   </g>
   <g id="patch_6">
    <path d="M 81.9 39.3984 
L 589.68 39.3984 
" style="fill: none; stroke: #000000; stroke-width: 0.8; stroke-linejoin: miter; stroke-linecap: square"/>
   </g>
   <g id="text_15">
    <!-- indexPlot -->
    <g transform="translate(308.065312 33.3984) scale(0.12 -0.12)">
     <defs>
      <path id="DejaVuSans-69" d="M 603 3500 
L 1178 3500 
L 1178 0 
L 603 0 
L 603 3500 
z
M 603 4863 
L 1178 4863 
L 1178 4134 
L 603 4134 
L 603 4863 
z
" transform="scale(0.015625)"/>
      <path id="DejaVuSans-6e" d="M 3513 2113 
L 3513 0 
L 2938 0 
L 2938 2094 
Q 2938 2591 2744 2837 
Q 2550 3084 2163 3084 
Q 1697 3084 1428 2787 
Q 1159 2491 1159 1978 
L 1159 0 
L 581 0 
L 581 3500 
L 1159 3500 
L 1159 2956 
Q 1366 3272 1645 3428 
Q 1925 3584 2291 3584 
Q 2894 3584 3203 3211 
Q 3513 2838 3513 2113 
z
" transform="scale(0.015625)"/>
      <path id="DejaVuSans-64" d="M 2906 2969 
L 2906 4863 
L 3481 4863 
L 3481 0 
L 2906 0 
L 2906 525 
Q 2725 213 2448 61 
Q 2172 -91 1784 -91 
Q 1150 -91 751 415 
Q 353 922 353 1747 
Q 353 2572 751 3078 
Q 1150 3584 1784 3584 
Q 2172 3584 2448 3432 
Q 2725 3281 2906 2969 
z
M 947 1747 
Q 947 1113 1208 752 
Q 1469 391 1925 391 
Q 2381 391 2643 752 
Q 2906 1113 2906 1747 
Q 2906 2381 2643 2742 
Q 2381 3103 1925 3103 
Q 1469 3103 1208 2742 
Q 947 2381 947 1747 
z
" transform="scale(0.015625)"/>
      <path id="DejaVuSans-65" d="M 3597 1894 
L 3597 1613 
L 953 1613 
Q 991 1019 1311 708 
Q 1631 397 2203 397 
Q 2534 397 2845 478 
Q 3156 559 3463 722 
L 3463 178 
Q 3153 47 2828 -22 
Q 2503 -91 2169 -91 
Q 1331 -91 842 396 
Q 353 884 353 1716 
Q 353 2575 817 3079 
Q 1281 3584 2069 3584 
Q 2775 3584 3186 3129 
Q 3597 2675 3597 1894 
z
M 3022 2063 
Q 3016 2534 2758 2815 
Q 2500 3097 2075 3097 
Q 1594 3097 1305 2825 
Q 1016 2553 972 2059 
L 3022 2063 
z
" transform="scale(0.015625)"/>
      <path id="DejaVuSans-78" d="M 3513 3500 
L 2247 1797 
L 3578 0 
L 2900 0 
L 1881 1375 
L 863 0 
L 184 0 
L 1544 1831 
L 300 3500 
L 978 3500 
L 1906 2253 
L 2834 3500 
L 3513 3500 
z
" transform="scale(0.015625)"/>
      <path id="DejaVuSans-50" d="M 1259 4147 
L 1259 2394 
L 2053 2394 
Q 2494 2394 2734 2622 
Q 2975 2850 2975 3272 
Q 2975 3691 2734 3919 
Q 2494 4147 2053 4147 
L 1259 4147 
z
M 628 4666 
L 2053 4666 
Q 2838 4666 3239 4311 
Q 3641 3956 3641 3272 
Q 3641 2581 3239 2228 
Q 2838 1875 2053 1875 
L 1259 1875 
L 1259 0 
L 628 0 
L 628 4666 
z
" transform="scale(0.015625)"/>
      <path id="DejaVuSans-6c" d="M 603 4863 
L 1178 4863 
L 1178 0 
L 603 0 
L 603 4863 
z
" transform="scale(0.015625)"/>
      <path id="DejaVuSans-6f" d="M 1959 3097 
Q 1497 3097 1228 2736 
Q 959 2375 959 1747 
Q 959 1119 1226 758 
Q 1494 397 1959 397 
Q 2419 397 2687 759 
Q 2956 1122 2956 1747 
Q 2956 2369 2687 2733 
Q 2419 3097 1959 3097 
z
M 1959 3584 
Q 2709 3584 3137 3096 
Q 3566 2609 3566 1747 
Q 3566 888 3137 398 
Q 2709 -91 1959 -91 
Q 1206 -91 779 398 
Q 353 888 353 1747 
Q 353 2609 779 3096 
Q 1206 3584 1959 3584 
z
" transform="scale(0.015625)"/>
      <path id="DejaVuSans-74" d="M 1172 4494 
L 1172 3500 
L 2356 3500 
L 2356 3053 
L 1172 3053 
L 1172 1153 
Q 1172 725 1289 603 
Q 1406 481 1766 481 
L 2356 481 
L 2356 0 
L 1766 0 
Q 1100 0 847 248 
Q 594 497 594 1153 
L 594 3053 
L 172 3053 
L 172 3500 
L 594 3500 
L 594 4494 
L 1172 4494 
z
" transform="scale(0.015625)"/>
     </defs>
     <use xlink:href="#DejaVuSans-69"/>
     <use xlink:href="#DejaVuSans-6e" x="27.783203"/>
     <use xlink:href="#DejaVuSans-64" x="91.162109"/>
     <use xlink:href="#DejaVuSans-65" x="154.638672"/>
     <use xlink:href="#DejaVuSans-78" x="214.412109"/>
     <use xlink:href="#DejaVuSans-50" x="273.591797"/>
     <use xlink:href="#DejaVuSans-6c" x="333.894531"/>
     <use xlink:href="#DejaVuSans-6f" x="361.677734"/>
     <use xlink:href="#DejaVuSans-74" x="422.859375"/>
    </g>
   </g>
   <g id="legend_1">
    <g id="patch_7">
     <path d="M 420.284687 117.308712 
L 582.68 117.308712 
Q 584.68 117.308712 584.68 115.308712 
L 584.68 46.3984 
Q 584.68 44.3984 582.68 44.3984 
L 420.284687 44.3984 
Q 418.284687 44.3984 418.284687 46.3984 
L 418.284687 115.308712 
Q 418.284687 117.308712 420.284687 117.308712 
z
" style="fill: #ffffff; opacity: 0.8; stroke: #cccccc; stroke-linejoin: miter"/>
    </g>
    <g id="line2d_19">
     <path d="M 422.284687 52.496837 
L 432.284687 52.496837 
L 442.284687 52.496837 
" style="fill: none; stroke: #1f77b4; stroke-width: 1.5; stroke-linecap: square"/>
    </g>
    <g id="text_16">
     <!-- On Threshold -->
     <g transform="translate(450.284687 55.996837) scale(0.1 -0.1)">
      <defs>
       <path id="DejaVuSans-4f" d="M 2522 4238 
Q 1834 4238 1429 3725 
Q 1025 3213 1025 2328 
Q 1025 1447 1429 934 
Q 1834 422 2522 422 
Q 3209 422 3611 934 
Q 4013 1447 4013 2328 
Q 4013 3213 3611 3725 
Q 3209 4238 2522 4238 
z
M 2522 4750 
Q 3503 4750 4090 4092 
Q 4678 3434 4678 2328 
Q 4678 1225 4090 567 
Q 3503 -91 2522 -91 
Q 1538 -91 948 565 
Q 359 1222 359 2328 
Q 359 3434 948 4092 
Q 1538 4750 2522 4750 
z
" transform="scale(0.015625)"/>
       <path id="DejaVuSans-20" transform="scale(0.015625)"/>
       <path id="DejaVuSans-54" d="M -19 4666 
L 3928 4666 
L 3928 4134 
L 2272 4134 
L 2272 0 
L 1638 0 
L 1638 4134 
L -19 4134 
L -19 4666 
z
" transform="scale(0.015625)"/>
       <path id="DejaVuSans-68" d="M 3513 2113 
L 3513 0 
L 2938 0 
L 2938 2094 
Q 2938 2591 2744 2837 
Q 2550 3084 2163 3084 
Q 1697 3084 1428 2787 
Q 1159 2491 1159 1978 
L 1159 0 
L 581 0 
L 581 4863 
L 1159 4863 
L 1159 2956 
Q 1366 3272 1645 3428 
Q 1925 3584 2291 3584 
Q 2894 3584 3203 3211 
Q 3513 2838 3513 2113 
z
" transform="scale(0.015625)"/>
       <path id="DejaVuSans-72" d="M 2631 2963 
Q 2534 3019 2420 3045 
Q 2306 3072 2169 3072 
Q 1681 3072 1420 2755 
Q 1159 2438 1159 1844 
L 1159 0 
L 581 0 
L 581 3500 
L 1159 3500 
L 1159 2956 
Q 1341 3275 1631 3429 
Q 1922 3584 2338 3584 
Q 2397 3584 2469 3576 
Q 2541 3569 2628 3553 
L 2631 2963 
z
" transform="scale(0.015625)"/>
       <path id="DejaVuSans-73" d="M 2834 3397 
L 2834 2853 
Q 2591 2978 2328 3040 
Q 2066 3103 1784 3103 
Q 1356 3103 1142 2972 
Q 928 2841 928 2578 
Q 928 2378 1081 2264 
Q 1234 2150 1697 2047 
L 1894 2003 
Q 2506 1872 2764 1633 
Q 3022 1394 3022 966 
Q 3022 478 2636 193 
Q 2250 -91 1575 -91 
Q 1294 -91 989 -36 
Q 684 19 347 128 
L 347 722 
Q 666 556 975 473 
Q 1284 391 1588 391 
Q 1994 391 2212 530 
Q 2431 669 2431 922 
Q 2431 1156 2273 1281 
Q 2116 1406 1581 1522 
L 1381 1569 
Q 847 1681 609 1914 
Q 372 2147 372 2553 
Q 372 3047 722 3315 
Q 1072 3584 1716 3584 
Q 2034 3584 2315 3537 
Q 2597 3491 2834 3397 
z
" transform="scale(0.015625)"/>
      </defs>
      <use xlink:href="#DejaVuSans-4f"/>
      <use xlink:href="#DejaVuSans-6e" x="78.710938"/>
      <use xlink:href="#DejaVuSans-20" x="142.089844"/>
      <use xlink:href="#DejaVuSans-54" x="173.876953"/>
      <use xlink:href="#DejaVuSans-68" x="234.960938"/>
      <use xlink:href="#DejaVuSans-72" x="298.339844"/>
      <use xlink:href="#DejaVuSans-65" x="337.203125"/>
      <use xlink:href="#DejaVuSans-73" x="398.726562"/>
      <use xlink:href="#DejaVuSans-68" x="450.826172"/>
      <use xlink:href="#DejaVuSans-6f" x="514.205078"/>
      <use xlink:href="#DejaVuSans-6c" x="575.386719"/>
      <use xlink:href="#DejaVuSans-64" x="603.169922"/>
     </g>
    </g>
    <g id="line2d_20">
     <path d="M 422.284687 67.174962 
L 432.284687 67.174962 
L 442.284687 67.174962 
" style="fill: none; stroke: #ff7f0e; stroke-width: 1.5; stroke-linecap: square"/>
    </g>
    <g id="text_17">
     <!-- Automation Threshold -->
     <g transform="translate(450.284687 70.674962) scale(0.1 -0.1)">
      <defs>
       <path id="DejaVuSans-41" d="M 2188 4044 
L 1331 1722 
L 3047 1722 
L 2188 4044 
z
M 1831 4666 
L 2547 4666 
L 4325 0 
L 3669 0 
L 3244 1197 
L 1141 1197 
L 716 0 
L 50 0 
L 1831 4666 
z
" transform="scale(0.015625)"/>
       <path id="DejaVuSans-75" d="M 544 1381 
L 544 3500 
L 1119 3500 
L 1119 1403 
Q 1119 906 1312 657 
Q 1506 409 1894 409 
Q 2359 409 2629 706 
Q 2900 1003 2900 1516 
L 2900 3500 
L 3475 3500 
L 3475 0 
L 2900 0 
L 2900 538 
Q 2691 219 2414 64 
Q 2138 -91 1772 -91 
Q 1169 -91 856 284 
Q 544 659 544 1381 
z
M 1991 3584 
L 1991 3584 
z
" transform="scale(0.015625)"/>
       <path id="DejaVuSans-6d" d="M 3328 2828 
Q 3544 3216 3844 3400 
Q 4144 3584 4550 3584 
Q 5097 3584 5394 3201 
Q 5691 2819 5691 2113 
L 5691 0 
L 5113 0 
L 5113 2094 
Q 5113 2597 4934 2840 
Q 4756 3084 4391 3084 
Q 3944 3084 3684 2787 
Q 3425 2491 3425 1978 
L 3425 0 
L 2847 0 
L 2847 2094 
Q 2847 2600 2669 2842 
Q 2491 3084 2119 3084 
Q 1678 3084 1418 2786 
Q 1159 2488 1159 1978 
L 1159 0 
L 581 0 
L 581 3500 
L 1159 3500 
L 1159 2956 
Q 1356 3278 1631 3431 
Q 1906 3584 2284 3584 
Q 2666 3584 2933 3390 
Q 3200 3197 3328 2828 
z
" transform="scale(0.015625)"/>
       <path id="DejaVuSans-61" d="M 2194 1759 
Q 1497 1759 1228 1600 
Q 959 1441 959 1056 
Q 959 750 1161 570 
Q 1363 391 1709 391 
Q 2188 391 2477 730 
Q 2766 1069 2766 1631 
L 2766 1759 
L 2194 1759 
z
M 3341 1997 
L 3341 0 
L 2766 0 
L 2766 531 
Q 2569 213 2275 61 
Q 1981 -91 1556 -91 
Q 1019 -91 701 211 
Q 384 513 384 1019 
Q 384 1609 779 1909 
Q 1175 2209 1959 2209 
L 2766 2209 
L 2766 2266 
Q 2766 2663 2505 2880 
Q 2244 3097 1772 3097 
Q 1472 3097 1187 3025 
Q 903 2953 641 2809 
L 641 3341 
Q 956 3463 1253 3523 
Q 1550 3584 1831 3584 
Q 2591 3584 2966 3190 
Q 3341 2797 3341 1997 
z
" transform="scale(0.015625)"/>
      </defs>
      <use xlink:href="#DejaVuSans-41"/>
      <use xlink:href="#DejaVuSans-75" x="68.408203"/>
      <use xlink:href="#DejaVuSans-74" x="131.787109"/>
      <use xlink:href="#DejaVuSans-6f" x="170.996094"/>
      <use xlink:href="#DejaVuSans-6d" x="232.177734"/>
      <use xlink:href="#DejaVuSans-61" x="329.589844"/>
      <use xlink:href="#DejaVuSans-74" x="390.869141"/>
      <use xlink:href="#DejaVuSans-69" x="430.078125"/>
      <use xlink:href="#DejaVuSans-6f" x="457.861328"/>
      <use xlink:href="#DejaVuSans-6e" x="519.042969"/>
      <use xlink:href="#DejaVuSans-20" x="582.421875"/>
      <use xlink:href="#DejaVuSans-54" x="614.208984"/>
      <use xlink:href="#DejaVuSans-68" x="675.292969"/>
      <use xlink:href="#DejaVuSans-72" x="738.671875"/>
      <use xlink:href="#DejaVuSans-65" x="777.535156"/>
      <use xlink:href="#DejaVuSans-73" x="839.058594"/>
      <use xlink:href="#DejaVuSans-68" x="891.158203"/>
      <use xlink:href="#DejaVuSans-6f" x="954.537109"/>
      <use xlink:href="#DejaVuSans-6c" x="1015.71875"/>
      <use xlink:href="#DejaVuSans-64" x="1043.501953"/>
     </g>
    </g>
    <g id="line2d_21">
     <path d="M 422.284687 81.853087 
L 432.284687 81.853087 
L 442.284687 81.853087 
" style="fill: none; stroke: #2ca02c; stroke-width: 1.5; stroke-linecap: square"/>
    </g>
    <g id="text_18">
     <!-- Noisy Signal -->
     <g transform="translate(450.284687 85.353087) scale(0.1 -0.1)">
      <defs>
       <path id="DejaVuSans-4e" d="M 628 4666 
L 1478 4666 
L 3547 763 
L 3547 4666 
L 4159 4666 
L 4159 0 
L 3309 0 
L 1241 3903 
L 1241 0 
L 628 0 
L 628 4666 
z
" transform="scale(0.015625)"/>
       <path id="DejaVuSans-79" d="M 2059 -325 
Q 1816 -950 1584 -1140 
Q 1353 -1331 966 -1331 
L 506 -1331 
L 506 -850 
L 844 -850 
Q 1081 -850 1212 -737 
Q 1344 -625 1503 -206 
L 1606 56 
L 191 3500 
L 800 3500 
L 1894 763 
L 2988 3500 
L 3597 3500 
L 2059 -325 
z
" transform="scale(0.015625)"/>
       <path id="DejaVuSans-53" d="M 3425 4513 
L 3425 3897 
Q 3066 4069 2747 4153 
Q 2428 4238 2131 4238 
Q 1616 4238 1336 4038 
Q 1056 3838 1056 3469 
Q 1056 3159 1242 3001 
Q 1428 2844 1947 2747 
L 2328 2669 
Q 3034 2534 3370 2195 
Q 3706 1856 3706 1288 
Q 3706 609 3251 259 
Q 2797 -91 1919 -91 
Q 1588 -91 1214 -16 
Q 841 59 441 206 
L 441 856 
Q 825 641 1194 531 
Q 1563 422 1919 422 
Q 2459 422 2753 634 
Q 3047 847 3047 1241 
Q 3047 1584 2836 1778 
Q 2625 1972 2144 2069 
L 1759 2144 
Q 1053 2284 737 2584 
Q 422 2884 422 3419 
Q 422 4038 858 4394 
Q 1294 4750 2059 4750 
Q 2388 4750 2728 4690 
Q 3069 4631 3425 4513 
z
" transform="scale(0.015625)"/>
       <path id="DejaVuSans-67" d="M 2906 1791 
Q 2906 2416 2648 2759 
Q 2391 3103 1925 3103 
Q 1463 3103 1205 2759 
Q 947 2416 947 1791 
Q 947 1169 1205 825 
Q 1463 481 1925 481 
Q 2391 481 2648 825 
Q 2906 1169 2906 1791 
z
M 3481 434 
Q 3481 -459 3084 -895 
Q 2688 -1331 1869 -1331 
Q 1566 -1331 1297 -1286 
Q 1028 -1241 775 -1147 
L 775 -588 
Q 1028 -725 1275 -790 
Q 1522 -856 1778 -856 
Q 2344 -856 2625 -561 
Q 2906 -266 2906 331 
L 2906 616 
Q 2728 306 2450 153 
Q 2172 0 1784 0 
Q 1141 0 747 490 
Q 353 981 353 1791 
Q 353 2603 747 3093 
Q 1141 3584 1784 3584 
Q 2172 3584 2450 3431 
Q 2728 3278 2906 2969 
L 2906 3500 
L 3481 3500 
L 3481 434 
z
" transform="scale(0.015625)"/>
      </defs>
      <use xlink:href="#DejaVuSans-4e"/>
      <use xlink:href="#DejaVuSans-6f" x="74.804688"/>
      <use xlink:href="#DejaVuSans-69" x="135.986328"/>
      <use xlink:href="#DejaVuSans-73" x="163.769531"/>
      <use xlink:href="#DejaVuSans-79" x="215.869141"/>
      <use xlink:href="#DejaVuSans-20" x="275.048828"/>
      <use xlink:href="#DejaVuSans-53" x="306.835938"/>
      <use xlink:href="#DejaVuSans-69" x="370.3125"/>
      <use xlink:href="#DejaVuSans-67" x="398.095703"/>
      <use xlink:href="#DejaVuSans-6e" x="461.572266"/>
      <use xlink:href="#DejaVuSans-61" x="524.951172"/>
      <use xlink:href="#DejaVuSans-6c" x="586.230469"/>
     </g>
    </g>
    <g id="line2d_22">
     <path d="M 422.284687 103.169962 
L 432.284687 103.169962 
L 442.284687 103.169962 
" style="fill: none; stroke: #d62728; stroke-width: 1.5; stroke-linecap: square"/>
    </g>
    <g id="text_19">
     <!-- CleanSignal -->
     <g transform="translate(450.284687 100.031212) scale(0.1 -0.1)">
      <defs>
       <path id="DejaVuSans-43" d="M 4122 4306 
L 4122 3641 
Q 3803 3938 3442 4084 
Q 3081 4231 2675 4231 
Q 1875 4231 1450 3742 
Q 1025 3253 1025 2328 
Q 1025 1406 1450 917 
Q 1875 428 2675 428 
Q 3081 428 3442 575 
Q 3803 722 4122 1019 
L 4122 359 
Q 3791 134 3420 21 
Q 3050 -91 2638 -91 
Q 1578 -91 968 557 
Q 359 1206 359 2328 
Q 359 3453 968 4101 
Q 1578 4750 2638 4750 
Q 3056 4750 3426 4639 
Q 3797 4528 4122 4306 
z
" transform="scale(0.015625)"/>
      </defs>
      <use xlink:href="#DejaVuSans-43"/>
      <use xlink:href="#DejaVuSans-6c" x="69.824219"/>
      <use xlink:href="#DejaVuSans-65" x="97.607422"/>
      <use xlink:href="#DejaVuSans-61" x="159.130859"/>
      <use xlink:href="#DejaVuSans-6e" x="220.410156"/>
      <use xlink:href="#DejaVuSans-53" x="283.789062"/>
      <use xlink:href="#DejaVuSans-69" x="347.265625"/>
      <use xlink:href="#DejaVuSans-67" x="375.048828"/>
      <use xlink:href="#DejaVuSans-6e" x="438.525391"/>
      <use xlink:href="#DejaVuSans-61" x="501.904297"/>
      <use xlink:href="#DejaVuSans-6c" x="563.183594"/>
     </g>
     <!-- Sampling Rate: 107.53 Hz -->
     <g transform="translate(450.284687 111.229025) scale(0.1 -0.1)">
      <defs>
       <path id="DejaVuSans-70" d="M 1159 525 
L 1159 -1331 
L 581 -1331 
L 581 3500 
L 1159 3500 
L 1159 2969 
Q 1341 3281 1617 3432 
Q 1894 3584 2278 3584 
Q 2916 3584 3314 3078 
Q 3713 2572 3713 1747 
Q 3713 922 3314 415 
Q 2916 -91 2278 -91 
Q 1894 -91 1617 61 
Q 1341 213 1159 525 
z
M 3116 1747 
Q 3116 2381 2855 2742 
Q 2594 3103 2138 3103 
Q 1681 3103 1420 2742 
Q 1159 2381 1159 1747 
Q 1159 1113 1420 752 
Q 1681 391 2138 391 
Q 2594 391 2855 752 
Q 3116 1113 3116 1747 
z
" transform="scale(0.015625)"/>
       <path id="DejaVuSans-52" d="M 2841 2188 
Q 3044 2119 3236 1894 
Q 3428 1669 3622 1275 
L 4263 0 
L 3584 0 
L 2988 1197 
Q 2756 1666 2539 1819 
Q 2322 1972 1947 1972 
L 1259 1972 
L 1259 0 
L 628 0 
L 628 4666 
L 2053 4666 
Q 2853 4666 3247 4331 
Q 3641 3997 3641 3322 
Q 3641 2881 3436 2590 
Q 3231 2300 2841 2188 
z
M 1259 4147 
L 1259 2491 
L 2053 2491 
Q 2509 2491 2742 2702 
Q 2975 2913 2975 3322 
Q 2975 3731 2742 3939 
Q 2509 4147 2053 4147 
L 1259 4147 
z
" transform="scale(0.015625)"/>
       <path id="DejaVuSans-3a" d="M 750 794 
L 1409 794 
L 1409 0 
L 750 0 
L 750 794 
z
M 750 3309 
L 1409 3309 
L 1409 2516 
L 750 2516 
L 750 3309 
z
" transform="scale(0.015625)"/>
       <path id="DejaVuSans-37" d="M 525 4666 
L 3525 4666 
L 3525 4397 
L 1831 0 
L 1172 0 
L 2766 4134 
L 525 4134 
L 525 4666 
z
" transform="scale(0.015625)"/>
       <path id="DejaVuSans-48" d="M 628 4666 
L 1259 4666 
L 1259 2753 
L 3553 2753 
L 3553 4666 
L 4184 4666 
L 4184 0 
L 3553 0 
L 3553 2222 
L 1259 2222 
L 1259 0 
L 628 0 
L 628 4666 
z
" transform="scale(0.015625)"/>
       <path id="DejaVuSans-7a" d="M 353 3500 
L 3084 3500 
L 3084 2975 
L 922 459 
L 3084 459 
L 3084 0 
L 275 0 
L 275 525 
L 2438 3041 
L 353 3041 
L 353 3500 
z
" transform="scale(0.015625)"/>
      </defs>
      <use xlink:href="#DejaVuSans-53"/>
      <use xlink:href="#DejaVuSans-61" x="63.476562"/>
      <use xlink:href="#DejaVuSans-6d" x="124.755859"/>
      <use xlink:href="#DejaVuSans-70" x="222.167969"/>
      <use xlink:href="#DejaVuSans-6c" x="285.644531"/>
      <use xlink:href="#DejaVuSans-69" x="313.427734"/>
      <use xlink:href="#DejaVuSans-6e" x="341.210938"/>
      <use xlink:href="#DejaVuSans-67" x="404.589844"/>
      <use xlink:href="#DejaVuSans-20" x="468.066406"/>
      <use xlink:href="#DejaVuSans-52" x="499.853516"/>
      <use xlink:href="#DejaVuSans-61" x="567.085938"/>
      <use xlink:href="#DejaVuSans-74" x="628.365234"/>
      <use xlink:href="#DejaVuSans-65" x="667.574219"/>
      <use xlink:href="#DejaVuSans-3a" x="729.097656"/>
      <use xlink:href="#DejaVuSans-20" x="762.789062"/>
      <use xlink:href="#DejaVuSans-31" x="794.576172"/>
      <use xlink:href="#DejaVuSans-30" x="858.199219"/>
      <use xlink:href="#DejaVuSans-37" x="921.822266"/>
      <use xlink:href="#DejaVuSans-2e" x="985.445312"/>
      <use xlink:href="#DejaVuSans-35" x="1017.232422"/>
      <use xlink:href="#DejaVuSans-33" x="1080.855469"/>
      <use xlink:href="#DejaVuSans-20" x="1144.478516"/>
      <use xlink:href="#DejaVuSans-48" x="1176.265625"/>
      <use xlink:href="#DejaVuSans-7a" x="1251.460938"/>
     </g>
    </g>
   </g>
  </g>
 </g>
 <defs>
  <clipPath id="p8b1e74eefc">
   <rect x="81.9" y="39.3984" width="507.78" height="252.8064"/>
  </clipPath>
 </defs>
</svg>
