<?xml version="1.0" encoding="utf-8" standalone="no"?>
<!DOCTYPE svg PUBLIC "-//W3C//DTD SVG 1.1//EN"
  "http://www.w3.org/Graphics/SVG/1.1/DTD/svg11.dtd">
<svg xmlns:xlink="http://www.w3.org/1999/xlink" width="460.8pt" height="345.6pt" viewBox="0 0 460.8 345.6" xmlns="http://www.w3.org/2000/svg" version="1.1">
 <metadata>
  <rdf:RDF xmlns:dc="http://purl.org/dc/elements/1.1/" xmlns:cc="http://creativecommons.org/ns#" xmlns:rdf="http://www.w3.org/1999/02/22-rdf-syntax-ns#">
   <cc:Work>
    <dc:type rdf:resource="http://purl.org/dc/dcmitype/StillImage"/>
    <dc:date>2023-12-04T17:05:59.083228</dc:date>
    <dc:format>image/svg+xml</dc:format>
    <dc:creator>
     <cc:Agent>
      <dc:title>Matplotlib v3.7.1, https://matplotlib.org/</dc:title>
     </cc:Agent>
    </dc:creator>
   </cc:Work>
  </rdf:RDF>
 </metadata>
 <defs>
  <style type="text/css">*{stroke-linejoin: round; stroke-linecap: butt}</style>
 </defs>
 <g id="figure_1">
  <g id="patch_1">
   <path d="M 0 345.6 
L 460.8 345.6 
L 460.8 0 
L 0 0 
z
" style="fill: #fffafa"/>
  </g>
  <g id="axes_1">
   <g id="patch_2">
    <path d="M 57.6 307.584 
L 414.72 307.584 
L 414.72 41.472 
L 57.6 41.472 
z
" style="fill: #fffafa"/>
   </g>
   <g id="matplotlib.axis_1">
    <g id="xtick_1">
     <g id="line2d_1">
      <defs>
       <path id="mcba7ed48c1" d="M 0 0 
L 0 3.5 
" style="stroke: #000000; stroke-width: 0.8"/>
      </defs>
      <g>
       <use xlink:href="#mcba7ed48c1" x="73.832727" y="307.584" style="stroke: #000000; stroke-width: 0.8"/>
      </g>
     </g>
     <g id="text_1">
      <!-- 0 -->
      <g transform="translate(70.651477 322.182437) scale(0.1 -0.1)">
       <defs>
        <path id="DejaVuSans-30" d="M 2034 4250 
Q 1547 4250 1301 3770 
Q 1056 3291 1056 2328 
Q 1056 1369 1301 889 
Q 1547 409 2034 409 
Q 2525 409 2770 889 
Q 3016 1369 3016 2328 
Q 3016 3291 2770 3770 
Q 2525 4250 2034 4250 
z
M 2034 4750 
Q 2819 4750 3233 4129 
Q 3647 3509 3647 2328 
Q 3647 1150 3233 529 
Q 2819 -91 2034 -91 
Q 1250 -91 836 529 
Q 422 1150 422 2328 
Q 422 3509 836 4129 
Q 1250 4750 2034 4750 
z
" transform="scale(0.015625)"/>
       </defs>
       <use xlink:href="#DejaVuSans-30"/>
      </g>
     </g>
    </g>
    <g id="xtick_2">
     <g id="line2d_2">
      <g>
       <use xlink:href="#mcba7ed48c1" x="138.893758" y="307.584" style="stroke: #000000; stroke-width: 0.8"/>
      </g>
     </g>
     <g id="text_2">
      <!-- 100 -->
      <g transform="translate(129.350008 322.182437) scale(0.1 -0.1)">
       <defs>
        <path id="DejaVuSans-31" d="M 794 531 
L 1825 531 
L 1825 4091 
L 703 3866 
L 703 4441 
L 1819 4666 
L 2450 4666 
L 2450 531 
L 3481 531 
L 3481 0 
L 794 0 
L 794 531 
z
" transform="scale(0.015625)"/>
       </defs>
       <use xlink:href="#DejaVuSans-31"/>
       <use xlink:href="#DejaVuSans-30" x="63.623047"/>
       <use xlink:href="#DejaVuSans-30" x="127.246094"/>
      </g>
     </g>
    </g>
    <g id="xtick_3">
     <g id="line2d_3">
      <g>
       <use xlink:href="#mcba7ed48c1" x="203.95479" y="307.584" style="stroke: #000000; stroke-width: 0.8"/>
      </g>
     </g>
     <g id="text_3">
      <!-- 200 -->
      <g transform="translate(194.41104 322.182437) scale(0.1 -0.1)">
       <defs>
        <path id="DejaVuSans-32" d="M 1228 531 
L 3431 531 
L 3431 0 
L 469 0 
L 469 531 
Q 828 903 1448 1529 
Q 2069 2156 2228 2338 
Q 2531 2678 2651 2914 
Q 2772 3150 2772 3378 
Q 2772 3750 2511 3984 
Q 2250 4219 1831 4219 
Q 1534 4219 1204 4116 
Q 875 4013 500 3803 
L 500 4441 
Q 881 4594 1212 4672 
Q 1544 4750 1819 4750 
Q 2544 4750 2975 4387 
Q 3406 4025 3406 3419 
Q 3406 3131 3298 2873 
Q 3191 2616 2906 2266 
Q 2828 2175 2409 1742 
Q 1991 1309 1228 531 
z
" transform="scale(0.015625)"/>
       </defs>
       <use xlink:href="#DejaVuSans-32"/>
       <use xlink:href="#DejaVuSans-30" x="63.623047"/>
       <use xlink:href="#DejaVuSans-30" x="127.246094"/>
      </g>
     </g>
    </g>
    <g id="xtick_4">
     <g id="line2d_4">
      <g>
       <use xlink:href="#mcba7ed48c1" x="269.015821" y="307.584" style="stroke: #000000; stroke-width: 0.8"/>
      </g>
     </g>
     <g id="text_4">
      <!-- 300 -->
      <g transform="translate(259.472071 322.182437) scale(0.1 -0.1)">
       <defs>
        <path id="DejaVuSans-33" d="M 2597 2516 
Q 3050 2419 3304 2112 
Q 3559 1806 3559 1356 
Q 3559 666 3084 287 
Q 2609 -91 1734 -91 
Q 1441 -91 1130 -33 
Q 819 25 488 141 
L 488 750 
Q 750 597 1062 519 
Q 1375 441 1716 441 
Q 2309 441 2620 675 
Q 2931 909 2931 1356 
Q 2931 1769 2642 2001 
Q 2353 2234 1838 2234 
L 1294 2234 
L 1294 2753 
L 1863 2753 
Q 2328 2753 2575 2939 
Q 2822 3125 2822 3475 
Q 2822 3834 2567 4026 
Q 2313 4219 1838 4219 
Q 1578 4219 1281 4162 
Q 984 4106 628 3988 
L 628 4550 
Q 988 4650 1302 4700 
Q 1616 4750 1894 4750 
Q 2613 4750 3031 4423 
Q 3450 4097 3450 3541 
Q 3450 3153 3228 2886 
Q 3006 2619 2597 2516 
z
" transform="scale(0.015625)"/>
       </defs>
       <use xlink:href="#DejaVuSans-33"/>
       <use xlink:href="#DejaVuSans-30" x="63.623047"/>
       <use xlink:href="#DejaVuSans-30" x="127.246094"/>
      </g>
     </g>
    </g>
    <g id="xtick_5">
     <g id="line2d_5">
      <g>
       <use xlink:href="#mcba7ed48c1" x="334.076852" y="307.584" style="stroke: #000000; stroke-width: 0.8"/>
      </g>
     </g>
     <g id="text_5">
      <!-- 400 -->
      <g transform="translate(324.533102 322.182437) scale(0.1 -0.1)">
       <defs>
        <path id="DejaVuSans-34" d="M 2419 4116 
L 825 1625 
L 2419 1625 
L 2419 4116 
z
M 2253 4666 
L 3047 4666 
L 3047 1625 
L 3713 1625 
L 3713 1100 
L 3047 1100 
L 3047 0 
L 2419 0 
L 2419 1100 
L 313 1100 
L 313 1709 
L 2253 4666 
z
" transform="scale(0.015625)"/>
       </defs>
       <use xlink:href="#DejaVuSans-34"/>
       <use xlink:href="#DejaVuSans-30" x="63.623047"/>
       <use xlink:href="#DejaVuSans-30" x="127.246094"/>
      </g>
     </g>
    </g>
    <g id="xtick_6">
     <g id="line2d_6">
      <g>
       <use xlink:href="#mcba7ed48c1" x="399.137883" y="307.584" style="stroke: #000000; stroke-width: 0.8"/>
      </g>
     </g>
     <g id="text_6">
      <!-- 500 -->
      <g transform="translate(389.594133 322.182437) scale(0.1 -0.1)">
       <defs>
        <path id="DejaVuSans-35" d="M 691 4666 
L 3169 4666 
L 3169 4134 
L 1269 4134 
L 1269 2991 
Q 1406 3038 1543 3061 
Q 1681 3084 1819 3084 
Q 2600 3084 3056 2656 
Q 3513 2228 3513 1497 
Q 3513 744 3044 326 
Q 2575 -91 1722 -91 
Q 1428 -91 1123 -41 
Q 819 9 494 109 
L 494 744 
Q 775 591 1075 516 
Q 1375 441 1709 441 
Q 2250 441 2565 725 
Q 2881 1009 2881 1497 
Q 2881 1984 2565 2268 
Q 2250 2553 1709 2553 
Q 1456 2553 1204 2497 
Q 953 2441 691 2322 
L 691 4666 
z
" transform="scale(0.015625)"/>
       </defs>
       <use xlink:href="#DejaVuSans-35"/>
       <use xlink:href="#DejaVuSans-30" x="63.623047"/>
       <use xlink:href="#DejaVuSans-30" x="127.246094"/>
      </g>
     </g>
    </g>
   </g>
   <g id="matplotlib.axis_2">
    <g id="ytick_1">
     <g id="line2d_7">
      <defs>
       <path id="mb399a87246" d="M 0 0 
L -3.5 0 
" style="stroke: #000000; stroke-width: 0.8"/>
      </defs>
      <g>
       <use xlink:href="#mb399a87246" x="57.6" y="307.584" style="stroke: #000000; stroke-width: 0.8"/>
      </g>
     </g>
     <g id="text_7">
      <!-- 0.0 -->
      <g transform="translate(34.696875 311.383219) scale(0.1 -0.1)">
       <defs>
        <path id="DejaVuSans-2e" d="M 684 794 
L 1344 794 
L 1344 0 
L 684 0 
L 684 794 
z
" transform="scale(0.015625)"/>
       </defs>
       <use xlink:href="#DejaVuSans-30"/>
       <use xlink:href="#DejaVuSans-2e" x="63.623047"/>
       <use xlink:href="#DejaVuSans-30" x="95.410156"/>
      </g>
     </g>
    </g>
    <g id="ytick_2">
     <g id="line2d_8">
      <g>
       <use xlink:href="#mb399a87246" x="57.6" y="272.1024" style="stroke: #000000; stroke-width: 0.8"/>
      </g>
     </g>
     <g id="text_8">
      <!-- 0.2 -->
      <g transform="translate(34.696875 275.901619) scale(0.1 -0.1)">
       <use xlink:href="#DejaVuSans-30"/>
       <use xlink:href="#DejaVuSans-2e" x="63.623047"/>
       <use xlink:href="#DejaVuSans-32" x="95.410156"/>
      </g>
     </g>
    </g>
    <g id="ytick_3">
     <g id="line2d_9">
      <g>
       <use xlink:href="#mb399a87246" x="57.6" y="236.6208" style="stroke: #000000; stroke-width: 0.8"/>
      </g>
     </g>
     <g id="text_9">
      <!-- 0.4 -->
      <g transform="translate(34.696875 240.420019) scale(0.1 -0.1)">
       <use xlink:href="#DejaVuSans-30"/>
       <use xlink:href="#DejaVuSans-2e" x="63.623047"/>
       <use xlink:href="#DejaVuSans-34" x="95.410156"/>
      </g>
     </g>
    </g>
    <g id="ytick_4">
     <g id="line2d_10">
      <g>
       <use xlink:href="#mb399a87246" x="57.6" y="201.1392" style="stroke: #000000; stroke-width: 0.8"/>
      </g>
     </g>
     <g id="text_10">
      <!-- 0.6 -->
      <g transform="translate(34.696875 204.938419) scale(0.1 -0.1)">
       <defs>
        <path id="DejaVuSans-36" d="M 2113 2584 
Q 1688 2584 1439 2293 
Q 1191 2003 1191 1497 
Q 1191 994 1439 701 
Q 1688 409 2113 409 
Q 2538 409 2786 701 
Q 3034 994 3034 1497 
Q 3034 2003 2786 2293 
Q 2538 2584 2113 2584 
z
M 3366 4563 
L 3366 3988 
Q 3128 4100 2886 4159 
Q 2644 4219 2406 4219 
Q 1781 4219 1451 3797 
Q 1122 3375 1075 2522 
Q 1259 2794 1537 2939 
Q 1816 3084 2150 3084 
Q 2853 3084 3261 2657 
Q 3669 2231 3669 1497 
Q 3669 778 3244 343 
Q 2819 -91 2113 -91 
Q 1303 -91 875 529 
Q 447 1150 447 2328 
Q 447 3434 972 4092 
Q 1497 4750 2381 4750 
Q 2619 4750 2861 4703 
Q 3103 4656 3366 4563 
z
" transform="scale(0.015625)"/>
       </defs>
       <use xlink:href="#DejaVuSans-30"/>
       <use xlink:href="#DejaVuSans-2e" x="63.623047"/>
       <use xlink:href="#DejaVuSans-36" x="95.410156"/>
      </g>
     </g>
    </g>
    <g id="ytick_5">
     <g id="line2d_11">
      <g>
       <use xlink:href="#mb399a87246" x="57.6" y="165.6576" style="stroke: #000000; stroke-width: 0.8"/>
      </g>
     </g>
     <g id="text_11">
      <!-- 0.8 -->
      <g transform="translate(34.696875 169.456819) scale(0.1 -0.1)">
       <defs>
        <path id="DejaVuSans-38" d="M 2034 2216 
Q 1584 2216 1326 1975 
Q 1069 1734 1069 1313 
Q 1069 891 1326 650 
Q 1584 409 2034 409 
Q 2484 409 2743 651 
Q 3003 894 3003 1313 
Q 3003 1734 2745 1975 
Q 2488 2216 2034 2216 
z
M 1403 2484 
Q 997 2584 770 2862 
Q 544 3141 544 3541 
Q 544 4100 942 4425 
Q 1341 4750 2034 4750 
Q 2731 4750 3128 4425 
Q 3525 4100 3525 3541 
Q 3525 3141 3298 2862 
Q 3072 2584 2669 2484 
Q 3125 2378 3379 2068 
Q 3634 1759 3634 1313 
Q 3634 634 3220 271 
Q 2806 -91 2034 -91 
Q 1263 -91 848 271 
Q 434 634 434 1313 
Q 434 1759 690 2068 
Q 947 2378 1403 2484 
z
M 1172 3481 
Q 1172 3119 1398 2916 
Q 1625 2713 2034 2713 
Q 2441 2713 2670 2916 
Q 2900 3119 2900 3481 
Q 2900 3844 2670 4047 
Q 2441 4250 2034 4250 
Q 1625 4250 1398 4047 
Q 1172 3844 1172 3481 
z
" transform="scale(0.015625)"/>
       </defs>
       <use xlink:href="#DejaVuSans-30"/>
       <use xlink:href="#DejaVuSans-2e" x="63.623047"/>
       <use xlink:href="#DejaVuSans-38" x="95.410156"/>
      </g>
     </g>
    </g>
    <g id="ytick_6">
     <g id="line2d_12">
      <g>
       <use xlink:href="#mb399a87246" x="57.6" y="130.176" style="stroke: #000000; stroke-width: 0.8"/>
      </g>
     </g>
     <g id="text_12">
      <!-- 1.0 -->
      <g transform="translate(34.696875 133.975219) scale(0.1 -0.1)">
       <use xlink:href="#DejaVuSans-31"/>
       <use xlink:href="#DejaVuSans-2e" x="63.623047"/>
       <use xlink:href="#DejaVuSans-30" x="95.410156"/>
      </g>
     </g>
    </g>
    <g id="ytick_7">
     <g id="line2d_13">
      <g>
       <use xlink:href="#mb399a87246" x="57.6" y="94.6944" style="stroke: #000000; stroke-width: 0.8"/>
      </g>
     </g>
     <g id="text_13">
      <!-- 1.2 -->
      <g transform="translate(34.696875 98.493619) scale(0.1 -0.1)">
       <use xlink:href="#DejaVuSans-31"/>
       <use xlink:href="#DejaVuSans-2e" x="63.623047"/>
       <use xlink:href="#DejaVuSans-32" x="95.410156"/>
      </g>
     </g>
    </g>
    <g id="ytick_8">
     <g id="line2d_14">
      <g>
       <use xlink:href="#mb399a87246" x="57.6" y="59.2128" style="stroke: #000000; stroke-width: 0.8"/>
      </g>
     </g>
     <g id="text_14">
      <!-- 1.4 -->
      <g transform="translate(34.696875 63.012019) scale(0.1 -0.1)">
       <use xlink:href="#DejaVuSans-31"/>
       <use xlink:href="#DejaVuSans-2e" x="63.623047"/>
       <use xlink:href="#DejaVuSans-34" x="95.410156"/>
      </g>
     </g>
    </g>
   </g>
   <g id="line2d_15">
    <path d="M 73.832727 218.88 
L 398.487273 218.88 
L 398.487273 218.88 
" clip-path="url(#p42ccc8b585)" style="fill: none; stroke: #1f77b4; stroke-width: 1.5; stroke-linecap: square"/>
   </g>
   <g id="line2d_16">
    <path d="M 73.832727 183.3984 
L 398.487273 183.3984 
L 398.487273 183.3984 
" clip-path="url(#p42ccc8b585)" style="fill: none; stroke: #ff7f0e; stroke-width: 1.5; stroke-linecap: square"/>
   </g>
   <g id="line2d_17">
    <path d="M 73.832727 287.465933 
L 74.483338 268.731648 
L 75.133948 285.212851 
L 75.784558 267.862349 
L 76.435169 286.95145 
L 77.085779 268.909056 
L 77.736389 285.390259 
L 78.386999 270.133171 
L 79.03761 286.774042 
L 79.68822 268.571981 
L 80.33883 285.567667 
L 80.989441 270.133171 
L 81.640051 286.596634 
L 82.290661 267.347866 
L 82.941272 286.596634 
L 83.591882 272.723328 
L 84.242492 288.51264 
L 84.893103 270.825062 
L 85.543713 287.820749 
L 86.194323 272.386253 
L 86.844934 288.849715 
L 87.495544 270.647654 
L 88.146154 287.643341 
L 88.796764 272.900736 
L 89.447375 286.259558 
L 90.097985 271.516954 
L 90.748595 286.419226 
L 91.399206 272.208845 
L 92.049816 285.567667 
L 92.700426 272.723328 
L 93.351037 287.465933 
L 94.001647 274.799002 
L 94.652257 284.52096 
L 95.302868 273.592627 
L 95.953478 284.698368 
L 96.604088 273.770035 
L 97.254698 283.296845 
L 97.905309 273.255552 
L 98.555919 284.52096 
L 99.206529 274.461926 
L 99.85714 284.52096 
L 100.50775 275.845709 
L 101.15836 284.343552 
L 101.808971 273.770035 
L 102.459581 282.09047 
L 103.110191 273.770035 
L 103.760802 282.445286 
L 104.411412 272.54592 
L 105.062022 281.398579 
L 105.712633 273.415219 
L 106.363243 281.913062 
L 107.013853 271.854029 
L 107.664463 280.706688 
L 108.315074 272.900736 
L 108.965684 281.575987 
L 109.616294 271.854029 
L 110.266905 280.52928 
L 110.917515 272.54592 
L 111.568125 279.837389 
L 112.218736 271.694362 
L 112.869346 280.192205 
L 113.519956 271.854029 
L 114.170567 278.453606 
L 114.821177 270.470246 
L 115.471787 279.322906 
L 116.122398 271.162138 
L 116.773008 278.790682 
L 117.423618 270.98473 
L 118.074228 279.145498 
L 118.724839 270.647654 
L 119.375449 277.921382 
L 120.026059 271.516954 
L 120.67667 278.453606 
L 121.32728 270.470246 
L 121.97789 277.406899 
L 122.628501 271.162138 
L 123.279111 277.921382 
L 123.929721 269.600947 
L 124.580332 276.892416 
L 125.230942 270.292838 
L 125.881552 277.229491 
L 126.532163 269.263872 
L 127.182773 276.892416 
L 127.833383 270.825062 
L 128.483993 278.276198 
L 129.134604 269.778355 
L 129.785214 277.229491 
L 130.435824 270.292838 
L 131.086435 274.97641 
L 131.737045 268.731648 
L 132.387655 275.845709 
L 133.038266 269.086464 
L 133.688876 274.10711 
L 134.339486 267.862349 
L 134.990097 275.153818 
L 135.640707 267.702682 
L 136.291317 272.900736 
L 136.941927 266.478566 
L 137.592538 273.770035 
L 138.243148 266.833382 
L 138.893758 272.386253 
L 139.544369 266.318899 
L 140.194979 274.284518 
L 140.845589 267.170458 
L 141.4962 273.078144 
L 142.14681 268.909056 
L 142.79742 273.947443 
L 143.448031 267.01079 
L 144.098641 273.078144 
L 144.749251 268.394573 
L 145.399862 273.255552 
L 146.050472 265.272192 
L 146.701082 272.208845 
L 147.351692 267.525274 
L 148.002303 273.770035 
L 148.652913 264.917376 
L 149.303523 271.854029 
L 149.954134 266.141491 
L 150.604744 272.723328 
L 151.255354 263.88841 
L 151.905965 271.516954 
L 152.556575 265.4496 
L 153.207185 267.347866 
L 153.857796 262.327219 
L 154.508406 269.263872 
L 155.159016 263.533594 
L 155.809627 266.478566 
L 156.460237 261.972403 
L 157.110847 269.263872 
L 157.761457 263.711002 
L 158.412068 266.833382 
L 159.062678 261.972403 
L 159.713288 269.086464 
L 160.363899 263.196518 
L 161.014509 266.141491 
L 161.665119 264.580301 
L 162.31573 266.833382 
L 162.96634 261.103104 
L 163.61695 264.402893 
L 164.267561 263.196518 
L 164.918171 266.141491 
L 165.568781 260.588621 
L 166.219392 263.88841 
L 166.870002 262.327219 
L 167.520612 265.272192 
L 168.171222 259.719322 
L 168.821833 263.356186 
L 169.472443 262.327219 
L 170.123053 265.094784 
L 170.773664 259.382246 
L 171.424274 267.702682 
L 172.074884 265.4496 
L 172.725495 265.094784 
L 173.376105 265.609267 
L 174.026715 266.478566 
L 175.327936 256.082458 
L 175.978546 254.166451 
L 176.629156 255.550234 
L 177.279767 253.829376 
L 177.930377 250.884403 
L 178.580987 250.706995 
L 179.231598 252.782669 
L 180.532818 248.790989 
L 181.183429 247.584614 
L 181.834039 250.529587 
L 183.13526 247.584614 
L 183.78587 251.04407 
L 184.43648 248.453914 
L 185.737701 246.537907 
L 186.388311 249.837696 
L 187.038921 247.92169 
L 188.340142 245.331533 
L 188.990752 249.145805 
L 189.641363 246.200832 
L 190.291973 244.639642 
L 190.942583 243.94775 
L 191.593194 247.229798 
L 192.243804 245.154125 
L 192.894414 243.770342 
L 193.545025 243.770342 
L 194.195635 246.200832 
L 194.846245 239.423846 
L 195.496856 244.462234 
L 196.147466 243.238118 
L 196.798076 247.05239 
L 197.448686 239.423846 
L 198.099297 243.94775 
L 198.749907 243.415526 
L 199.400517 248.276506 
L 200.051128 242.031744 
L 200.701738 246.892723 
L 201.352348 245.4912 
L 202.002959 249.323213 
L 202.653569 241.339853 
L 203.304179 250.884403 
L 203.95479 242.031744 
L 204.6054 246.200832 
L 205.25601 239.264179 
L 205.906621 248.613581 
L 206.557231 240.82537 
L 207.207841 244.639642 
L 207.858451 237.525581 
L 208.509062 248.276506 
L 209.159672 240.115738 
L 209.810282 243.94775 
L 210.460893 237.011098 
L 211.111503 247.92169 
L 211.762113 240.115738 
L 212.412724 244.799309 
L 213.063334 237.702989 
L 213.713944 249.323213 
L 214.364555 236.656282 
L 215.015165 248.276506 
L 215.665775 240.293146 
L 216.316385 250.884403 
L 216.966996 237.011098 
L 217.617606 248.276506 
L 218.268216 238.554547 
L 218.918827 248.276506 
L 219.569437 230.056704 
L 220.220047 238.909363 
L 220.870658 229.027738 
L 221.521268 238.731955 
L 222.171878 224.166758 
L 222.822489 234.917683 
L 223.473099 226.597248 
L 224.123709 237.011098 
L 224.77432 223.829683 
L 225.42493 240.115738 
L 226.07554 225.390874 
L 226.72615 236.478874 
L 227.376761 223.120051 
L 228.027371 240.115738 
L 228.677981 225.036058 
L 229.328592 237.011098 
L 229.979202 223.98935 
L 230.629812 240.293146 
L 231.280423 225.390874 
L 231.931033 236.83369 
L 232.581643 223.829683 
L 233.232254 244.799309 
L 233.882864 232.150118 
L 234.533474 245.331533 
L 235.184085 232.327526 
L 235.834695 249.145805 
L 236.485305 229.364813 
L 237.135915 247.92169 
L 237.786526 233.179085 
L 238.437136 250.015104 
L 239.087746 231.458227 
L 239.738357 248.613581 
L 240.388967 235.272499 
L 241.039577 251.04407 
L 241.690188 233.888717 
L 242.340798 250.884403 
L 242.991408 238.554547 
L 243.642019 253.137485 
L 244.292629 236.478874 
L 244.943239 256.774349 
L 245.59385 236.83369 
L 246.24446 252.960077 
L 246.89507 235.609574 
L 247.54568 255.390566 
L 248.196291 237.862656 
L 248.846901 252.427853 
L 249.497511 235.609574 
L 250.148122 255.390566 
L 250.798732 238.217472 
L 251.449342 253.137485 
L 252.099953 238.39488 
L 252.750563 257.643648 
L 253.401173 241.517261 
L 254.051784 256.259866 
L 254.702394 241.339853 
L 255.353004 263.196518 
L 256.003615 243.592934 
L 256.654225 266.833382 
L 257.304835 251.91337 
L 257.955445 277.584307 
L 258.606056 254.166451 
L 259.256666 276.360192 
L 259.907276 255.390566 
L 260.557887 276.023117 
L 261.208497 248.790989 
L 261.859107 270.470246 
L 262.509718 249.660288 
L 263.160328 270.98473 
L 263.810938 245.668608 
L 264.461549 269.600947 
L 265.112159 250.884403 
L 265.762769 274.639334 
L 266.413379 249.837696 
L 267.06399 278.96809 
L 267.7146 253.137485 
L 268.36521 276.892416 
L 269.015821 251.576294 
L 269.666431 278.453606 
L 270.317041 253.297152 
L 270.967652 273.415219 
L 271.618262 251.398886 
L 272.268872 264.225485 
L 272.919483 249.48288 
L 273.570093 264.225485 
L 274.220703 250.174771 
L 274.871314 266.478566 
L 275.521924 251.91337 
L 276.172534 264.580301 
L 276.823144 250.174771 
L 277.473755 265.609267 
L 278.124365 249.837696 
L 278.774975 265.4496 
L 279.425586 251.91337 
L 280.076196 264.917376 
L 280.726806 251.398886 
L 281.377417 264.917376 
L 282.028027 253.829376 
L 282.678637 266.141491 
L 283.329248 254.166451 
L 283.979858 266.655974 
L 284.630468 256.259866 
L 285.281079 267.347866 
L 285.931689 255.727642 
L 286.582299 268.039757 
L 287.232909 256.082458 
L 287.88352 266.141491 
L 288.53413 255.213158 
L 289.18474 266.833382 
L 289.835351 255.390566 
L 290.485961 266.141491 
L 291.136571 256.082458 
L 291.787182 267.525274 
L 292.437792 257.111424 
L 293.088402 266.655974 
L 293.739013 256.419533 
L 294.389623 267.347866 
L 295.040233 257.111424 
L 295.690844 266.318899 
L 296.341454 257.288832 
L 296.992064 268.039757 
L 297.642674 256.596941 
L 298.293285 267.525274 
L 298.943895 257.821056 
L 299.594505 269.263872 
L 300.245116 257.111424 
L 300.895726 268.731648 
L 301.546336 258.512947 
L 302.196947 268.731648 
L 302.847557 256.951757 
L 303.498167 268.217165 
L 304.148778 258.335539 
L 304.799388 268.731648 
L 305.449998 257.111424 
L 306.100608 268.394573 
L 306.751219 258.850022 
L 307.401829 269.955763 
L 308.052439 258.512947 
L 308.70305 271.339546 
L 309.35366 259.89673 
L 310.00427 271.694362 
L 310.654881 261.45792 
L 311.305491 272.900736 
L 311.956101 262.149811 
L 312.606712 274.461926 
L 313.257322 266.141491 
L 313.907932 279.322906 
L 314.558543 269.600947 
L 315.209153 280.706688 
L 315.859763 272.386253 
L 316.510373 281.735654 
L 317.160984 268.731648 
L 317.811594 273.592627 
L 318.462204 256.082458 
L 319.112815 271.694362 
L 319.763425 259.89673 
L 320.414035 272.386253 
L 321.064646 260.766029 
L 321.715256 275.331226 
L 322.365866 263.196518 
L 323.016477 277.761715 
L 323.667087 265.272192 
L 324.317697 275.845709 
L 324.968308 260.233805 
L 325.618918 274.284518 
L 326.269528 260.411213 
L 326.920138 273.770035 
L 327.570749 262.327219 
L 328.221359 274.799002 
L 328.871969 263.01911 
L 329.52258 274.97641 
L 330.17319 263.711002 
L 330.8238 276.200525 
L 331.474411 264.048077 
L 332.125021 275.668301 
L 332.775631 257.46624 
L 333.426242 274.799002 
L 334.076852 244.284826 
L 334.727462 267.170458 
L 335.378073 264.225485 
L 336.028683 280.884096 
L 336.679293 272.031437 
L 337.329903 285.212851 
L 337.980514 274.284518 
L 338.631124 287.643341 
L 339.281734 274.97641 
L 339.932345 285.727334 
L 340.582955 275.153818 
L 341.233565 287.128858 
L 341.884176 274.461926 
L 342.534786 284.006477 
L 343.185396 271.162138 
L 343.836007 284.343552 
L 344.486617 270.825062 
L 345.137227 281.575987 
L 345.787837 271.694362 
L 346.438448 284.166144 
L 347.089058 273.078144 
L 347.739668 285.727334 
L 348.390279 271.339546 
L 349.040889 283.651661 
L 349.691499 271.854029 
L 350.34211 285.035443 
L 350.99272 272.723328 
L 351.64333 285.212851 
L 352.293941 273.255552 
L 352.944551 286.259558 
L 353.595161 273.078144 
L 354.245772 285.035443 
L 354.896382 272.208845 
L 355.546992 285.212851 
L 356.197602 272.54592 
L 356.848213 284.698368 
L 357.498823 272.386253 
L 358.149433 285.212851 
L 358.800044 273.078144 
L 359.450654 284.858035 
L 360.101264 272.54592 
L 360.751875 285.035443 
L 361.402485 273.078144 
L 362.053095 286.259558 
L 362.703706 274.10711 
L 363.354316 287.128858 
L 364.004926 274.10711 
L 364.655537 286.774042 
L 365.306147 274.284518 
L 365.956757 287.288525 
L 366.607367 274.461926 
L 367.257978 287.465933 
L 367.908588 274.97641 
L 368.559198 287.980416 
L 369.209809 274.639334 
L 369.860419 288.157824 
L 370.511029 275.153818 
L 371.16164 288.335232 
L 371.81225 275.153818 
L 372.46286 288.157824 
L 373.113471 275.153818 
L 373.764081 287.980416 
L 374.414691 275.331226 
L 375.065302 288.335232 
L 375.715912 275.331226 
L 376.366522 287.128858 
L 377.017132 273.947443 
L 377.667743 286.774042 
L 378.318353 273.770035 
L 378.968963 286.419226 
L 379.619574 273.415219 
L 380.270184 286.596634 
L 380.920794 273.592627 
L 381.571405 287.128858 
L 382.222015 275.153818 
L 382.872625 288.51264 
L 383.523236 274.97641 
L 384.173846 288.335232 
L 384.824456 273.592627 
L 385.475066 285.727334 
L 386.125677 270.98473 
L 386.776287 280.884096 
L 387.426897 271.162138 
L 388.077508 286.259558 
L 388.728118 269.423539 
L 389.378728 282.267878 
L 390.029339 271.162138 
L 390.679949 282.782362 
L 391.330559 268.394573 
L 391.98117 275.153818 
L 392.63178 253.651968 
L 393.28239 271.162138 
L 393.933001 254.521267 
L 394.583611 270.98473 
L 395.234221 253.829376 
L 395.884831 271.854029 
L 396.535442 259.719322 
L 397.186052 274.461926 
L 397.836662 260.588621 
L 398.487273 274.97641 
L 398.487273 274.97641 
" clip-path="url(#p42ccc8b585)" style="fill: none; stroke: #2ca02c; stroke-width: 1.5; stroke-linecap: square"/>
   </g>
   <g id="line2d_18">
    <path d="M 73.832727 277.754231 
L 77.085779 277.487371 
L 80.33883 277.39193 
L 83.591882 277.56761 
L 85.543713 277.760456 
L 86.844934 278.05281 
L 88.796764 278.761823 
L 90.748595 279.502765 
L 92.049816 279.807469 
L 93.351037 279.883563 
L 96.604088 279.593447 
L 103.760802 279.16721 
L 105.712633 279.061151 
L 107.013853 278.801835 
L 108.965684 278.158772 
L 112.218736 276.997727 
L 114.821177 276.397992 
L 118.724839 275.576113 
L 121.97789 274.933858 
L 131.737045 273.633768 
L 134.339486 273.388155 
L 136.291317 272.903025 
L 138.243148 272.133679 
L 142.14681 270.367005 
L 143.448031 270.035167 
L 144.749251 269.952906 
L 146.701082 270.162417 
L 148.652913 270.36697 
L 149.954134 270.339795 
L 151.905965 270.011826 
L 153.857796 269.41283 
L 155.159016 268.854371 
L 157.110847 267.72776 
L 159.713288 266.098889 
L 161.014509 265.511564 
L 162.31573 265.163116 
L 164.267561 265.004437 
L 166.219392 264.878969 
L 168.171222 264.477371 
L 170.773664 263.569456 
L 172.725495 262.966796 
L 174.026715 262.888052 
L 175.327936 263.179191 
L 176.629156 263.582355 
L 177.279767 263.631054 
L 177.930377 263.472677 
L 178.580987 263.056285 
L 179.231598 262.35817 
L 179.882208 261.386159 
L 181.183429 258.796862 
L 184.43648 251.546883 
L 185.737701 249.550067 
L 186.388311 248.858804 
L 187.038921 248.357172 
L 187.689532 248.023122 
L 188.990752 247.733812 
L 192.894414 247.45549 
L 194.195635 246.997612 
L 196.147466 245.950055 
L 199.400517 243.996582 
L 200.701738 243.510446 
L 202.002959 243.371225 
L 203.304179 243.628936 
L 204.6054 244.214811 
L 206.557231 245.196334 
L 207.858451 245.503433 
L 208.509062 245.490404 
L 209.810282 245.123238 
L 211.111503 244.428083 
L 213.713944 242.835694 
L 215.015165 242.317298 
L 216.316385 242.105941 
L 217.617606 242.230132 
L 219.569437 242.868223 
L 220.870658 243.212099 
L 221.521268 243.18085 
L 222.171878 242.929099 
L 222.822489 242.417008 
L 223.473099 241.628194 
L 224.123709 240.575618 
L 225.42493 237.888252 
L 227.376761 233.634956 
L 228.677981 231.521934 
L 229.328592 230.798654 
L 229.979202 230.307709 
L 230.629812 230.03282 
L 231.280423 229.945958 
L 231.931033 230.015094 
L 233.232254 230.468694 
L 234.533474 231.138673 
L 235.834695 232.064735 
L 237.135915 233.400262 
L 239.087746 236.018276 
L 241.039577 238.659567 
L 242.340798 240.08289 
L 243.642019 241.180428 
L 246.24446 242.884154 
L 249.497511 244.888379 
L 250.798732 245.411383 
L 252.099953 245.689221 
L 255.353004 246.088252 
L 256.654225 246.652904 
L 257.304835 247.120985 
L 257.955445 247.754465 
L 258.606056 248.59643 
L 259.256666 249.689259 
L 260.557887 252.67375 
L 263.810938 261.673044 
L 264.461549 262.850177 
L 265.112159 263.625008 
L 265.762769 263.989444 
L 266.413379 263.986305 
L 267.06399 263.698791 
L 269.666431 261.867837 
L 270.317041 261.677466 
L 270.967652 261.67362 
L 271.618262 261.844563 
L 274.220703 263.032818 
L 274.871314 263.050044 
L 275.521924 262.856779 
L 276.172534 262.464791 
L 277.473755 261.248367 
L 280.076196 258.497152 
L 281.377417 257.616922 
L 282.028027 257.371086 
L 282.678637 257.253939 
L 283.329248 257.259223 
L 284.630468 257.596332 
L 285.931689 258.278063 
L 288.53413 260.137133 
L 289.835351 260.965454 
L 291.136571 261.504811 
L 292.437792 261.714014 
L 294.389623 261.642302 
L 296.992064 261.517817 
L 298.943895 261.647036 
L 301.546336 262.098512 
L 306.100608 263.126563 
L 308.052439 263.286494 
L 310.00427 263.409751 
L 311.305491 263.655659 
L 312.606712 264.134675 
L 313.907932 264.884884 
L 315.209153 265.975565 
L 316.510373 267.531846 
L 317.811594 269.564589 
L 319.112815 271.701095 
L 319.763425 272.545132 
L 320.414035 273.091861 
L 321.064646 273.279682 
L 321.715256 273.100056 
L 322.365866 272.594453 
L 323.667087 270.960239 
L 324.968308 269.234678 
L 325.618918 268.564267 
L 326.269528 268.072627 
L 326.920138 267.754773 
L 327.570749 267.585818 
L 328.871969 267.566832 
L 330.8238 267.960906 
L 334.727462 268.955963 
L 335.378073 268.842993 
L 336.028683 268.525426 
L 337.980514 267.075463 
L 338.631124 266.886991 
L 339.281734 267.057106 
L 339.932345 267.646367 
L 340.582955 268.655575 
L 341.233565 270.030857 
L 342.534786 273.48529 
L 343.836007 277.058727 
L 344.486617 278.582507 
L 345.137227 279.804495 
L 345.787837 280.669259 
L 346.438448 281.157001 
L 347.089058 281.286265 
L 347.739668 281.111081 
L 348.390279 280.71 
L 351.64333 277.977935 
L 352.293941 277.646668 
L 352.944551 277.447584 
L 353.595161 277.382728 
L 354.896382 277.610305 
L 356.848213 278.434326 
L 358.149433 278.94249 
L 359.450654 279.235815 
L 360.751875 279.302442 
L 363.354316 279.06547 
L 364.655537 279.013849 
L 365.956757 279.150164 
L 367.908588 279.678837 
L 372.46286 281.160787 
L 374.414691 281.525454 
L 376.366522 281.694727 
L 378.318353 281.69869 
L 380.270184 281.445358 
L 382.872625 280.741502 
L 384.173846 280.451937 
L 385.475066 280.374594 
L 388.077508 280.496168 
L 389.378728 280.189892 
L 390.679949 279.533643 
L 392.63178 278.138136 
L 393.933001 276.851908 
L 394.583611 275.952427 
L 395.884831 273.490706 
L 398.487273 267.244649 
L 398.487273 267.244649 
" clip-path="url(#p42ccc8b585)" style="fill: none; stroke: #d62728; stroke-width: 1.5; stroke-linecap: square"/>
   </g>
   <g id="patch_3">
    <path d="M 57.6 307.584 
L 57.6 41.472 
" style="fill: none; stroke: #000000; stroke-width: 0.8; stroke-linejoin: miter; stroke-linecap: square"/>
   </g>
   <g id="patch_4">
    <path d="M 414.72 307.584 
L 414.72 41.472 
" style="fill: none; stroke: #000000; stroke-width: 0.8; stroke-linejoin: miter; stroke-linecap: square"/>
   </g>
   <g id="patch_5">
    <path d="M 57.6 307.584 
L 414.72 307.584 
" style="fill: none; stroke: #000000; stroke-width: 0.8; stroke-linejoin: miter; stroke-linecap: square"/>
   </g>
   <g id="patch_6">
    <path d="M 57.6 41.472 
L 414.72 41.472 
" style="fill: none; stroke: #000000; stroke-width: 0.8; stroke-linejoin: miter; stroke-linecap: square"/>
   </g>
   <g id="text_15">
    <!-- middlePlot -->
    <g transform="translate(204.36375 35.472) scale(0.12 -0.12)">
     <defs>
      <path id="DejaVuSans-6d" d="M 3328 2828 
Q 3544 3216 3844 3400 
Q 4144 3584 4550 3584 
Q 5097 3584 5394 3201 
Q 5691 2819 5691 2113 
L 5691 0 
L 5113 0 
L 5113 2094 
Q 5113 2597 4934 2840 
Q 4756 3084 4391 3084 
Q 3944 3084 3684 2787 
Q 3425 2491 3425 1978 
L 3425 0 
L 2847 0 
L 2847 2094 
Q 2847 2600 2669 2842 
Q 2491 3084 2119 3084 
Q 1678 3084 1418 2786 
Q 1159 2488 1159 1978 
L 1159 0 
L 581 0 
L 581 3500 
L 1159 3500 
L 1159 2956 
Q 1356 3278 1631 3431 
Q 1906 3584 2284 3584 
Q 2666 3584 2933 3390 
Q 3200 3197 3328 2828 
z
" transform="scale(0.015625)"/>
      <path id="DejaVuSans-69" d="M 603 3500 
L 1178 3500 
L 1178 0 
L 603 0 
L 603 3500 
z
M 603 4863 
L 1178 4863 
L 1178 4134 
L 603 4134 
L 603 4863 
z
" transform="scale(0.015625)"/>
      <path id="DejaVuSans-64" d="M 2906 2969 
L 2906 4863 
L 3481 4863 
L 3481 0 
L 2906 0 
L 2906 525 
Q 2725 213 2448 61 
Q 2172 -91 1784 -91 
Q 1150 -91 751 415 
Q 353 922 353 1747 
Q 353 2572 751 3078 
Q 1150 3584 1784 3584 
Q 2172 3584 2448 3432 
Q 2725 3281 2906 2969 
z
M 947 1747 
Q 947 1113 1208 752 
Q 1469 391 1925 391 
Q 2381 391 2643 752 
Q 2906 1113 2906 1747 
Q 2906 2381 2643 2742 
Q 2381 3103 1925 3103 
Q 1469 3103 1208 2742 
Q 947 2381 947 1747 
z
" transform="scale(0.015625)"/>
      <path id="DejaVuSans-6c" d="M 603 4863 
L 1178 4863 
L 1178 0 
L 603 0 
L 603 4863 
z
" transform="scale(0.015625)"/>
      <path id="DejaVuSans-65" d="M 3597 1894 
L 3597 1613 
L 953 1613 
Q 991 1019 1311 708 
Q 1631 397 2203 397 
Q 2534 397 2845 478 
Q 3156 559 3463 722 
L 3463 178 
Q 3153 47 2828 -22 
Q 2503 -91 2169 -91 
Q 1331 -91 842 396 
Q 353 884 353 1716 
Q 353 2575 817 3079 
Q 1281 3584 2069 3584 
Q 2775 3584 3186 3129 
Q 3597 2675 3597 1894 
z
M 3022 2063 
Q 3016 2534 2758 2815 
Q 2500 3097 2075 3097 
Q 1594 3097 1305 2825 
Q 1016 2553 972 2059 
L 3022 2063 
z
" transform="scale(0.015625)"/>
      <path id="DejaVuSans-50" d="M 1259 4147 
L 1259 2394 
L 2053 2394 
Q 2494 2394 2734 2622 
Q 2975 2850 2975 3272 
Q 2975 3691 2734 3919 
Q 2494 4147 2053 4147 
L 1259 4147 
z
M 628 4666 
L 2053 4666 
Q 2838 4666 3239 4311 
Q 3641 3956 3641 3272 
Q 3641 2581 3239 2228 
Q 2838 1875 2053 1875 
L 1259 1875 
L 1259 0 
L 628 0 
L 628 4666 
z
" transform="scale(0.015625)"/>
      <path id="DejaVuSans-6f" d="M 1959 3097 
Q 1497 3097 1228 2736 
Q 959 2375 959 1747 
Q 959 1119 1226 758 
Q 1494 397 1959 397 
Q 2419 397 2687 759 
Q 2956 1122 2956 1747 
Q 2956 2369 2687 2733 
Q 2419 3097 1959 3097 
z
M 1959 3584 
Q 2709 3584 3137 3096 
Q 3566 2609 3566 1747 
Q 3566 888 3137 398 
Q 2709 -91 1959 -91 
Q 1206 -91 779 398 
Q 353 888 353 1747 
Q 353 2609 779 3096 
Q 1206 3584 1959 3584 
z
" transform="scale(0.015625)"/>
      <path id="DejaVuSans-74" d="M 1172 4494 
L 1172 3500 
L 2356 3500 
L 2356 3053 
L 1172 3053 
L 1172 1153 
Q 1172 725 1289 603 
Q 1406 481 1766 481 
L 2356 481 
L 2356 0 
L 1766 0 
Q 1100 0 847 248 
Q 594 497 594 1153 
L 594 3053 
L 172 3053 
L 172 3500 
L 594 3500 
L 594 4494 
L 1172 4494 
z
" transform="scale(0.015625)"/>
     </defs>
     <use xlink:href="#DejaVuSans-6d"/>
     <use xlink:href="#DejaVuSans-69" x="97.412109"/>
     <use xlink:href="#DejaVuSans-64" x="125.195312"/>
     <use xlink:href="#DejaVuSans-64" x="188.671875"/>
     <use xlink:href="#DejaVuSans-6c" x="252.148438"/>
     <use xlink:href="#DejaVuSans-65" x="279.931641"/>
     <use xlink:href="#DejaVuSans-50" x="341.455078"/>
     <use xlink:href="#DejaVuSans-6c" x="401.757812"/>
     <use xlink:href="#DejaVuSans-6f" x="429.541016"/>
     <use xlink:href="#DejaVuSans-74" x="490.722656"/>
    </g>
   </g>
   <g id="legend_1">
    <g id="patch_7">
     <path d="M 245.324687 119.382313 
L 407.72 119.382313 
Q 409.72 119.382313 409.72 117.382313 
L 409.72 48.472 
Q 409.72 46.472 407.72 46.472 
L 245.324687 46.472 
Q 243.324687 46.472 243.324687 48.472 
L 243.324687 117.382313 
Q 243.324687 119.382313 245.324687 119.382313 
z
" style="fill: #ffffff; opacity: 0.8; stroke: #cccccc; stroke-linejoin: miter"/>
    </g>
    <g id="line2d_19">
     <path d="M 247.324687 54.570438 
L 257.324687 54.570438 
L 267.324687 54.570438 
" style="fill: none; stroke: #1f77b4; stroke-width: 1.5; stroke-linecap: square"/>
    </g>
    <g id="text_16">
     <!-- On Threshold -->
     <g transform="translate(275.324687 58.070438) scale(0.1 -0.1)">
      <defs>
       <path id="DejaVuSans-4f" d="M 2522 4238 
Q 1834 4238 1429 3725 
Q 1025 3213 1025 2328 
Q 1025 1447 1429 934 
Q 1834 422 2522 422 
Q 3209 422 3611 934 
Q 4013 1447 4013 2328 
Q 4013 3213 3611 3725 
Q 3209 4238 2522 4238 
z
M 2522 4750 
Q 3503 4750 4090 4092 
Q 4678 3434 4678 2328 
Q 4678 1225 4090 567 
Q 3503 -91 2522 -91 
Q 1538 -91 948 565 
Q 359 1222 359 2328 
Q 359 3434 948 4092 
Q 1538 4750 2522 4750 
z
" transform="scale(0.015625)"/>
       <path id="DejaVuSans-6e" d="M 3513 2113 
L 3513 0 
L 2938 0 
L 2938 2094 
Q 2938 2591 2744 2837 
Q 2550 3084 2163 3084 
Q 1697 3084 1428 2787 
Q 1159 2491 1159 1978 
L 1159 0 
L 581 0 
L 581 3500 
L 1159 3500 
L 1159 2956 
Q 1366 3272 1645 3428 
Q 1925 3584 2291 3584 
Q 2894 3584 3203 3211 
Q 3513 2838 3513 2113 
z
" transform="scale(0.015625)"/>
       <path id="DejaVuSans-20" transform="scale(0.015625)"/>
       <path id="DejaVuSans-54" d="M -19 4666 
L 3928 4666 
L 3928 4134 
L 2272 4134 
L 2272 0 
L 1638 0 
L 1638 4134 
L -19 4134 
L -19 4666 
z
" transform="scale(0.015625)"/>
       <path id="DejaVuSans-68" d="M 3513 2113 
L 3513 0 
L 2938 0 
L 2938 2094 
Q 2938 2591 2744 2837 
Q 2550 3084 2163 3084 
Q 1697 3084 1428 2787 
Q 1159 2491 1159 1978 
L 1159 0 
L 581 0 
L 581 4863 
L 1159 4863 
L 1159 2956 
Q 1366 3272 1645 3428 
Q 1925 3584 2291 3584 
Q 2894 3584 3203 3211 
Q 3513 2838 3513 2113 
z
" transform="scale(0.015625)"/>
       <path id="DejaVuSans-72" d="M 2631 2963 
Q 2534 3019 2420 3045 
Q 2306 3072 2169 3072 
Q 1681 3072 1420 2755 
Q 1159 2438 1159 1844 
L 1159 0 
L 581 0 
L 581 3500 
L 1159 3500 
L 1159 2956 
Q 1341 3275 1631 3429 
Q 1922 3584 2338 3584 
Q 2397 3584 2469 3576 
Q 2541 3569 2628 3553 
L 2631 2963 
z
" transform="scale(0.015625)"/>
       <path id="DejaVuSans-73" d="M 2834 3397 
L 2834 2853 
Q 2591 2978 2328 3040 
Q 2066 3103 1784 3103 
Q 1356 3103 1142 2972 
Q 928 2841 928 2578 
Q 928 2378 1081 2264 
Q 1234 2150 1697 2047 
L 1894 2003 
Q 2506 1872 2764 1633 
Q 3022 1394 3022 966 
Q 3022 478 2636 193 
Q 2250 -91 1575 -91 
Q 1294 -91 989 -36 
Q 684 19 347 128 
L 347 722 
Q 666 556 975 473 
Q 1284 391 1588 391 
Q 1994 391 2212 530 
Q 2431 669 2431 922 
Q 2431 1156 2273 1281 
Q 2116 1406 1581 1522 
L 1381 1569 
Q 847 1681 609 1914 
Q 372 2147 372 2553 
Q 372 3047 722 3315 
Q 1072 3584 1716 3584 
Q 2034 3584 2315 3537 
Q 2597 3491 2834 3397 
z
" transform="scale(0.015625)"/>
      </defs>
      <use xlink:href="#DejaVuSans-4f"/>
      <use xlink:href="#DejaVuSans-6e" x="78.710938"/>
      <use xlink:href="#DejaVuSans-20" x="142.089844"/>
      <use xlink:href="#DejaVuSans-54" x="173.876953"/>
      <use xlink:href="#DejaVuSans-68" x="234.960938"/>
      <use xlink:href="#DejaVuSans-72" x="298.339844"/>
      <use xlink:href="#DejaVuSans-65" x="337.203125"/>
      <use xlink:href="#DejaVuSans-73" x="398.726562"/>
      <use xlink:href="#DejaVuSans-68" x="450.826172"/>
      <use xlink:href="#DejaVuSans-6f" x="514.205078"/>
      <use xlink:href="#DejaVuSans-6c" x="575.386719"/>
      <use xlink:href="#DejaVuSans-64" x="603.169922"/>
     </g>
    </g>
    <g id="line2d_20">
     <path d="M 247.324687 69.248563 
L 257.324687 69.248563 
L 267.324687 69.248563 
" style="fill: none; stroke: #ff7f0e; stroke-width: 1.5; stroke-linecap: square"/>
    </g>
    <g id="text_17">
     <!-- Automation Threshold -->
     <g transform="translate(275.324687 72.748563) scale(0.1 -0.1)">
      <defs>
       <path id="DejaVuSans-41" d="M 2188 4044 
L 1331 1722 
L 3047 1722 
L 2188 4044 
z
M 1831 4666 
L 2547 4666 
L 4325 0 
L 3669 0 
L 3244 1197 
L 1141 1197 
L 716 0 
L 50 0 
L 1831 4666 
z
" transform="scale(0.015625)"/>
       <path id="DejaVuSans-75" d="M 544 1381 
L 544 3500 
L 1119 3500 
L 1119 1403 
Q 1119 906 1312 657 
Q 1506 409 1894 409 
Q 2359 409 2629 706 
Q 2900 1003 2900 1516 
L 2900 3500 
L 3475 3500 
L 3475 0 
L 2900 0 
L 2900 538 
Q 2691 219 2414 64 
Q 2138 -91 1772 -91 
Q 1169 -91 856 284 
Q 544 659 544 1381 
z
M 1991 3584 
L 1991 3584 
z
" transform="scale(0.015625)"/>
       <path id="DejaVuSans-61" d="M 2194 1759 
Q 1497 1759 1228 1600 
Q 959 1441 959 1056 
Q 959 750 1161 570 
Q 1363 391 1709 391 
Q 2188 391 2477 730 
Q 2766 1069 2766 1631 
L 2766 1759 
L 2194 1759 
z
M 3341 1997 
L 3341 0 
L 2766 0 
L 2766 531 
Q 2569 213 2275 61 
Q 1981 -91 1556 -91 
Q 1019 -91 701 211 
Q 384 513 384 1019 
Q 384 1609 779 1909 
Q 1175 2209 1959 2209 
L 2766 2209 
L 2766 2266 
Q 2766 2663 2505 2880 
Q 2244 3097 1772 3097 
Q 1472 3097 1187 3025 
Q 903 2953 641 2809 
L 641 3341 
Q 956 3463 1253 3523 
Q 1550 3584 1831 3584 
Q 2591 3584 2966 3190 
Q 3341 2797 3341 1997 
z
" transform="scale(0.015625)"/>
      </defs>
      <use xlink:href="#DejaVuSans-41"/>
      <use xlink:href="#DejaVuSans-75" x="68.408203"/>
      <use xlink:href="#DejaVuSans-74" x="131.787109"/>
      <use xlink:href="#DejaVuSans-6f" x="170.996094"/>
      <use xlink:href="#DejaVuSans-6d" x="232.177734"/>
      <use xlink:href="#DejaVuSans-61" x="329.589844"/>
      <use xlink:href="#DejaVuSans-74" x="390.869141"/>
      <use xlink:href="#DejaVuSans-69" x="430.078125"/>
      <use xlink:href="#DejaVuSans-6f" x="457.861328"/>
      <use xlink:href="#DejaVuSans-6e" x="519.042969"/>
      <use xlink:href="#DejaVuSans-20" x="582.421875"/>
      <use xlink:href="#DejaVuSans-54" x="614.208984"/>
      <use xlink:href="#DejaVuSans-68" x="675.292969"/>
      <use xlink:href="#DejaVuSans-72" x="738.671875"/>
      <use xlink:href="#DejaVuSans-65" x="777.535156"/>
      <use xlink:href="#DejaVuSans-73" x="839.058594"/>
      <use xlink:href="#DejaVuSans-68" x="891.158203"/>
      <use xlink:href="#DejaVuSans-6f" x="954.537109"/>
      <use xlink:href="#DejaVuSans-6c" x="1015.71875"/>
      <use xlink:href="#DejaVuSans-64" x="1043.501953"/>
     </g>
    </g>
    <g id="line2d_21">
     <path d="M 247.324687 83.926688 
L 257.324687 83.926688 
L 267.324687 83.926688 
" style="fill: none; stroke: #2ca02c; stroke-width: 1.5; stroke-linecap: square"/>
    </g>
    <g id="text_18">
     <!-- Noisy Signal -->
     <g transform="translate(275.324687 87.426688) scale(0.1 -0.1)">
      <defs>
       <path id="DejaVuSans-4e" d="M 628 4666 
L 1478 4666 
L 3547 763 
L 3547 4666 
L 4159 4666 
L 4159 0 
L 3309 0 
L 1241 3903 
L 1241 0 
L 628 0 
L 628 4666 
z
" transform="scale(0.015625)"/>
       <path id="DejaVuSans-79" d="M 2059 -325 
Q 1816 -950 1584 -1140 
Q 1353 -1331 966 -1331 
L 506 -1331 
L 506 -850 
L 844 -850 
Q 1081 -850 1212 -737 
Q 1344 -625 1503 -206 
L 1606 56 
L 191 3500 
L 800 3500 
L 1894 763 
L 2988 3500 
L 3597 3500 
L 2059 -325 
z
" transform="scale(0.015625)"/>
       <path id="DejaVuSans-53" d="M 3425 4513 
L 3425 3897 
Q 3066 4069 2747 4153 
Q 2428 4238 2131 4238 
Q 1616 4238 1336 4038 
Q 1056 3838 1056 3469 
Q 1056 3159 1242 3001 
Q 1428 2844 1947 2747 
L 2328 2669 
Q 3034 2534 3370 2195 
Q 3706 1856 3706 1288 
Q 3706 609 3251 259 
Q 2797 -91 1919 -91 
Q 1588 -91 1214 -16 
Q 841 59 441 206 
L 441 856 
Q 825 641 1194 531 
Q 1563 422 1919 422 
Q 2459 422 2753 634 
Q 3047 847 3047 1241 
Q 3047 1584 2836 1778 
Q 2625 1972 2144 2069 
L 1759 2144 
Q 1053 2284 737 2584 
Q 422 2884 422 3419 
Q 422 4038 858 4394 
Q 1294 4750 2059 4750 
Q 2388 4750 2728 4690 
Q 3069 4631 3425 4513 
z
" transform="scale(0.015625)"/>
       <path id="DejaVuSans-67" d="M 2906 1791 
Q 2906 2416 2648 2759 
Q 2391 3103 1925 3103 
Q 1463 3103 1205 2759 
Q 947 2416 947 1791 
Q 947 1169 1205 825 
Q 1463 481 1925 481 
Q 2391 481 2648 825 
Q 2906 1169 2906 1791 
z
M 3481 434 
Q 3481 -459 3084 -895 
Q 2688 -1331 1869 -1331 
Q 1566 -1331 1297 -1286 
Q 1028 -1241 775 -1147 
L 775 -588 
Q 1028 -725 1275 -790 
Q 1522 -856 1778 -856 
Q 2344 -856 2625 -561 
Q 2906 -266 2906 331 
L 2906 616 
Q 2728 306 2450 153 
Q 2172 0 1784 0 
Q 1141 0 747 490 
Q 353 981 353 1791 
Q 353 2603 747 3093 
Q 1141 3584 1784 3584 
Q 2172 3584 2450 3431 
Q 2728 3278 2906 2969 
L 2906 3500 
L 3481 3500 
L 3481 434 
z
" transform="scale(0.015625)"/>
      </defs>
      <use xlink:href="#DejaVuSans-4e"/>
      <use xlink:href="#DejaVuSans-6f" x="74.804688"/>
      <use xlink:href="#DejaVuSans-69" x="135.986328"/>
      <use xlink:href="#DejaVuSans-73" x="163.769531"/>
      <use xlink:href="#DejaVuSans-79" x="215.869141"/>
      <use xlink:href="#DejaVuSans-20" x="275.048828"/>
      <use xlink:href="#DejaVuSans-53" x="306.835938"/>
      <use xlink:href="#DejaVuSans-69" x="370.3125"/>
      <use xlink:href="#DejaVuSans-67" x="398.095703"/>
      <use xlink:href="#DejaVuSans-6e" x="461.572266"/>
      <use xlink:href="#DejaVuSans-61" x="524.951172"/>
      <use xlink:href="#DejaVuSans-6c" x="586.230469"/>
     </g>
    </g>
    <g id="line2d_22">
     <path d="M 247.324687 105.243563 
L 257.324687 105.243563 
L 267.324687 105.243563 
" style="fill: none; stroke: #d62728; stroke-width: 1.5; stroke-linecap: square"/>
    </g>
    <g id="text_19">
     <!-- CleanSignal -->
     <g transform="translate(275.324687 102.104813) scale(0.1 -0.1)">
      <defs>
       <path id="DejaVuSans-43" d="M 4122 4306 
L 4122 3641 
Q 3803 3938 3442 4084 
Q 3081 4231 2675 4231 
Q 1875 4231 1450 3742 
Q 1025 3253 1025 2328 
Q 1025 1406 1450 917 
Q 1875 428 2675 428 
Q 3081 428 3442 575 
Q 3803 722 4122 1019 
L 4122 359 
Q 3791 134 3420 21 
Q 3050 -91 2638 -91 
Q 1578 -91 968 557 
Q 359 1206 359 2328 
Q 359 3453 968 4101 
Q 1578 4750 2638 4750 
Q 3056 4750 3426 4639 
Q 3797 4528 4122 4306 
z
" transform="scale(0.015625)"/>
      </defs>
      <use xlink:href="#DejaVuSans-43"/>
      <use xlink:href="#DejaVuSans-6c" x="69.824219"/>
      <use xlink:href="#DejaVuSans-65" x="97.607422"/>
      <use xlink:href="#DejaVuSans-61" x="159.130859"/>
      <use xlink:href="#DejaVuSans-6e" x="220.410156"/>
      <use xlink:href="#DejaVuSans-53" x="283.789062"/>
      <use xlink:href="#DejaVuSans-69" x="347.265625"/>
      <use xlink:href="#DejaVuSans-67" x="375.048828"/>
      <use xlink:href="#DejaVuSans-6e" x="438.525391"/>
      <use xlink:href="#DejaVuSans-61" x="501.904297"/>
      <use xlink:href="#DejaVuSans-6c" x="563.183594"/>
     </g>
     <!-- Sampling Rate: 80.201 Hz -->
     <g transform="translate(275.324687 113.302625) scale(0.1 -0.1)">
      <defs>
       <path id="DejaVuSans-70" d="M 1159 525 
L 1159 -1331 
L 581 -1331 
L 581 3500 
L 1159 3500 
L 1159 2969 
Q 1341 3281 1617 3432 
Q 1894 3584 2278 3584 
Q 2916 3584 3314 3078 
Q 3713 2572 3713 1747 
Q 3713 922 3314 415 
Q 2916 -91 2278 -91 
Q 1894 -91 1617 61 
Q 1341 213 1159 525 
z
M 3116 1747 
Q 3116 2381 2855 2742 
Q 2594 3103 2138 3103 
Q 1681 3103 1420 2742 
Q 1159 2381 1159 1747 
Q 1159 1113 1420 752 
Q 1681 391 2138 391 
Q 2594 391 2855 752 
Q 3116 1113 3116 1747 
z
" transform="scale(0.015625)"/>
       <path id="DejaVuSans-52" d="M 2841 2188 
Q 3044 2119 3236 1894 
Q 3428 1669 3622 1275 
L 4263 0 
L 3584 0 
L 2988 1197 
Q 2756 1666 2539 1819 
Q 2322 1972 1947 1972 
L 1259 1972 
L 1259 0 
L 628 0 
L 628 4666 
L 2053 4666 
Q 2853 4666 3247 4331 
Q 3641 3997 3641 3322 
Q 3641 2881 3436 2590 
Q 3231 2300 2841 2188 
z
M 1259 4147 
L 1259 2491 
L 2053 2491 
Q 2509 2491 2742 2702 
Q 2975 2913 2975 3322 
Q 2975 3731 2742 3939 
Q 2509 4147 2053 4147 
L 1259 4147 
z
" transform="scale(0.015625)"/>
       <path id="DejaVuSans-3a" d="M 750 794 
L 1409 794 
L 1409 0 
L 750 0 
L 750 794 
z
M 750 3309 
L 1409 3309 
L 1409 2516 
L 750 2516 
L 750 3309 
z
" transform="scale(0.015625)"/>
       <path id="DejaVuSans-48" d="M 628 4666 
L 1259 4666 
L 1259 2753 
L 3553 2753 
L 3553 4666 
L 4184 4666 
L 4184 0 
L 3553 0 
L 3553 2222 
L 1259 2222 
L 1259 0 
L 628 0 
L 628 4666 
z
" transform="scale(0.015625)"/>
       <path id="DejaVuSans-7a" d="M 353 3500 
L 3084 3500 
L 3084 2975 
L 922 459 
L 3084 459 
L 3084 0 
L 275 0 
L 275 525 
L 2438 3041 
L 353 3041 
L 353 3500 
z
" transform="scale(0.015625)"/>
      </defs>
      <use xlink:href="#DejaVuSans-53"/>
      <use xlink:href="#DejaVuSans-61" x="63.476562"/>
      <use xlink:href="#DejaVuSans-6d" x="124.755859"/>
      <use xlink:href="#DejaVuSans-70" x="222.167969"/>
      <use xlink:href="#DejaVuSans-6c" x="285.644531"/>
      <use xlink:href="#DejaVuSans-69" x="313.427734"/>
      <use xlink:href="#DejaVuSans-6e" x="341.210938"/>
      <use xlink:href="#DejaVuSans-67" x="404.589844"/>
      <use xlink:href="#DejaVuSans-20" x="468.066406"/>
      <use xlink:href="#DejaVuSans-52" x="499.853516"/>
      <use xlink:href="#DejaVuSans-61" x="567.085938"/>
      <use xlink:href="#DejaVuSans-74" x="628.365234"/>
      <use xlink:href="#DejaVuSans-65" x="667.574219"/>
      <use xlink:href="#DejaVuSans-3a" x="729.097656"/>
      <use xlink:href="#DejaVuSans-20" x="762.789062"/>
      <use xlink:href="#DejaVuSans-38" x="794.576172"/>
      <use xlink:href="#DejaVuSans-30" x="858.199219"/>
      <use xlink:href="#DejaVuSans-2e" x="921.822266"/>
      <use xlink:href="#DejaVuSans-32" x="953.609375"/>
      <use xlink:href="#DejaVuSans-30" x="1017.232422"/>
      <use xlink:href="#DejaVuSans-31" x="1080.855469"/>
      <use xlink:href="#DejaVuSans-20" x="1144.478516"/>
      <use xlink:href="#DejaVuSans-48" x="1176.265625"/>
      <use xlink:href="#DejaVuSans-7a" x="1251.460938"/>
     </g>
    </g>
   </g>
  </g>
 </g>
 <defs>
  <clipPath id="p42ccc8b585">
   <rect x="57.6" y="41.472" width="357.12" height="266.112"/>
  </clipPath>
 </defs>
</svg>
