<?xml version="1.0" encoding="utf-8" standalone="no"?>
<!DOCTYPE svg PUBLIC "-//W3C//DTD SVG 1.1//EN"
  "http://www.w3.org/Graphics/SVG/1.1/DTD/svg11.dtd">
<svg xmlns:xlink="http://www.w3.org/1999/xlink" width="655.2pt" height="328.32pt" viewBox="0 0 655.2 328.32" xmlns="http://www.w3.org/2000/svg" version="1.1">
 <metadata>
  <rdf:RDF xmlns:dc="http://purl.org/dc/elements/1.1/" xmlns:cc="http://creativecommons.org/ns#" xmlns:rdf="http://www.w3.org/1999/02/22-rdf-syntax-ns#">
   <cc:Work>
    <dc:type rdf:resource="http://purl.org/dc/dcmitype/StillImage"/>
    <dc:date>2023-12-04T16:15:36.646923</dc:date>
    <dc:format>image/svg+xml</dc:format>
    <dc:creator>
     <cc:Agent>
      <dc:title>Matplotlib v3.7.1, https://matplotlib.org/</dc:title>
     </cc:Agent>
    </dc:creator>
   </cc:Work>
  </rdf:RDF>
 </metadata>
 <defs>
  <style type="text/css">*{stroke-linejoin: round; stroke-linecap: butt}</style>
 </defs>
 <g id="figure_1">
  <g id="patch_1">
   <path d="M 0 328.32 
L 655.2 328.32 
L 655.2 0 
L 0 0 
z
" style="fill: #b2ff66"/>
  </g>
  <g id="axes_1">
   <g id="patch_2">
    <path d="M 81.9 292.2048 
L 589.68 292.2048 
L 589.68 39.3984 
L 81.9 39.3984 
z
" style="fill: #b2ff66"/>
   </g>
   <g id="matplotlib.axis_1">
    <g id="xtick_1">
     <g id="line2d_1">
      <defs>
       <path id="m479f72caa6" d="M 0 0 
L 0 3.5 
" style="stroke: #000000; stroke-width: 0.8"/>
      </defs>
      <g>
       <use xlink:href="#m479f72caa6" x="104.980909" y="292.2048" style="stroke: #000000; stroke-width: 0.8"/>
      </g>
     </g>
     <g id="text_1">
      <!-- 0 -->
      <g transform="translate(101.799659 306.803238) scale(0.1 -0.1)">
       <defs>
        <path id="DejaVuSans-30" d="M 2034 4250 
Q 1547 4250 1301 3770 
Q 1056 3291 1056 2328 
Q 1056 1369 1301 889 
Q 1547 409 2034 409 
Q 2525 409 2770 889 
Q 3016 1369 3016 2328 
Q 3016 3291 2770 3770 
Q 2525 4250 2034 4250 
z
M 2034 4750 
Q 2819 4750 3233 4129 
Q 3647 3509 3647 2328 
Q 3647 1150 3233 529 
Q 2819 -91 2034 -91 
Q 1250 -91 836 529 
Q 422 1150 422 2328 
Q 422 3509 836 4129 
Q 1250 4750 2034 4750 
z
" transform="scale(0.015625)"/>
       </defs>
       <use xlink:href="#DejaVuSans-30"/>
      </g>
     </g>
    </g>
    <g id="xtick_2">
     <g id="line2d_2">
      <g>
       <use xlink:href="#m479f72caa6" x="197.489563" y="292.2048" style="stroke: #000000; stroke-width: 0.8"/>
      </g>
     </g>
     <g id="text_2">
      <!-- 100 -->
      <g transform="translate(187.945813 306.803238) scale(0.1 -0.1)">
       <defs>
        <path id="DejaVuSans-31" d="M 794 531 
L 1825 531 
L 1825 4091 
L 703 3866 
L 703 4441 
L 1819 4666 
L 2450 4666 
L 2450 531 
L 3481 531 
L 3481 0 
L 794 0 
L 794 531 
z
" transform="scale(0.015625)"/>
       </defs>
       <use xlink:href="#DejaVuSans-31"/>
       <use xlink:href="#DejaVuSans-30" x="63.623047"/>
       <use xlink:href="#DejaVuSans-30" x="127.246094"/>
      </g>
     </g>
    </g>
    <g id="xtick_3">
     <g id="line2d_3">
      <g>
       <use xlink:href="#m479f72caa6" x="289.998216" y="292.2048" style="stroke: #000000; stroke-width: 0.8"/>
      </g>
     </g>
     <g id="text_3">
      <!-- 200 -->
      <g transform="translate(280.454466 306.803238) scale(0.1 -0.1)">
       <defs>
        <path id="DejaVuSans-32" d="M 1228 531 
L 3431 531 
L 3431 0 
L 469 0 
L 469 531 
Q 828 903 1448 1529 
Q 2069 2156 2228 2338 
Q 2531 2678 2651 2914 
Q 2772 3150 2772 3378 
Q 2772 3750 2511 3984 
Q 2250 4219 1831 4219 
Q 1534 4219 1204 4116 
Q 875 4013 500 3803 
L 500 4441 
Q 881 4594 1212 4672 
Q 1544 4750 1819 4750 
Q 2544 4750 2975 4387 
Q 3406 4025 3406 3419 
Q 3406 3131 3298 2873 
Q 3191 2616 2906 2266 
Q 2828 2175 2409 1742 
Q 1991 1309 1228 531 
z
" transform="scale(0.015625)"/>
       </defs>
       <use xlink:href="#DejaVuSans-32"/>
       <use xlink:href="#DejaVuSans-30" x="63.623047"/>
       <use xlink:href="#DejaVuSans-30" x="127.246094"/>
      </g>
     </g>
    </g>
    <g id="xtick_4">
     <g id="line2d_4">
      <g>
       <use xlink:href="#m479f72caa6" x="382.50687" y="292.2048" style="stroke: #000000; stroke-width: 0.8"/>
      </g>
     </g>
     <g id="text_4">
      <!-- 300 -->
      <g transform="translate(372.96312 306.803238) scale(0.1 -0.1)">
       <defs>
        <path id="DejaVuSans-33" d="M 2597 2516 
Q 3050 2419 3304 2112 
Q 3559 1806 3559 1356 
Q 3559 666 3084 287 
Q 2609 -91 1734 -91 
Q 1441 -91 1130 -33 
Q 819 25 488 141 
L 488 750 
Q 750 597 1062 519 
Q 1375 441 1716 441 
Q 2309 441 2620 675 
Q 2931 909 2931 1356 
Q 2931 1769 2642 2001 
Q 2353 2234 1838 2234 
L 1294 2234 
L 1294 2753 
L 1863 2753 
Q 2328 2753 2575 2939 
Q 2822 3125 2822 3475 
Q 2822 3834 2567 4026 
Q 2313 4219 1838 4219 
Q 1578 4219 1281 4162 
Q 984 4106 628 3988 
L 628 4550 
Q 988 4650 1302 4700 
Q 1616 4750 1894 4750 
Q 2613 4750 3031 4423 
Q 3450 4097 3450 3541 
Q 3450 3153 3228 2886 
Q 3006 2619 2597 2516 
z
" transform="scale(0.015625)"/>
       </defs>
       <use xlink:href="#DejaVuSans-33"/>
       <use xlink:href="#DejaVuSans-30" x="63.623047"/>
       <use xlink:href="#DejaVuSans-30" x="127.246094"/>
      </g>
     </g>
    </g>
    <g id="xtick_5">
     <g id="line2d_5">
      <g>
       <use xlink:href="#m479f72caa6" x="475.015524" y="292.2048" style="stroke: #000000; stroke-width: 0.8"/>
      </g>
     </g>
     <g id="text_5">
      <!-- 400 -->
      <g transform="translate(465.471774 306.803238) scale(0.1 -0.1)">
       <defs>
        <path id="DejaVuSans-34" d="M 2419 4116 
L 825 1625 
L 2419 1625 
L 2419 4116 
z
M 2253 4666 
L 3047 4666 
L 3047 1625 
L 3713 1625 
L 3713 1100 
L 3047 1100 
L 3047 0 
L 2419 0 
L 2419 1100 
L 313 1100 
L 313 1709 
L 2253 4666 
z
" transform="scale(0.015625)"/>
       </defs>
       <use xlink:href="#DejaVuSans-34"/>
       <use xlink:href="#DejaVuSans-30" x="63.623047"/>
       <use xlink:href="#DejaVuSans-30" x="127.246094"/>
      </g>
     </g>
    </g>
    <g id="xtick_6">
     <g id="line2d_6">
      <g>
       <use xlink:href="#m479f72caa6" x="567.524177" y="292.2048" style="stroke: #000000; stroke-width: 0.8"/>
      </g>
     </g>
     <g id="text_6">
      <!-- 500 -->
      <g transform="translate(557.980427 306.803238) scale(0.1 -0.1)">
       <defs>
        <path id="DejaVuSans-35" d="M 691 4666 
L 3169 4666 
L 3169 4134 
L 1269 4134 
L 1269 2991 
Q 1406 3038 1543 3061 
Q 1681 3084 1819 3084 
Q 2600 3084 3056 2656 
Q 3513 2228 3513 1497 
Q 3513 744 3044 326 
Q 2575 -91 1722 -91 
Q 1428 -91 1123 -41 
Q 819 9 494 109 
L 494 744 
Q 775 591 1075 516 
Q 1375 441 1709 441 
Q 2250 441 2565 725 
Q 2881 1009 2881 1497 
Q 2881 1984 2565 2268 
Q 2250 2553 1709 2553 
Q 1456 2553 1204 2497 
Q 953 2441 691 2322 
L 691 4666 
z
" transform="scale(0.015625)"/>
       </defs>
       <use xlink:href="#DejaVuSans-35"/>
       <use xlink:href="#DejaVuSans-30" x="63.623047"/>
       <use xlink:href="#DejaVuSans-30" x="127.246094"/>
      </g>
     </g>
    </g>
   </g>
   <g id="matplotlib.axis_2">
    <g id="ytick_1">
     <g id="line2d_7">
      <defs>
       <path id="m68ee69e891" d="M 0 0 
L -3.5 0 
" style="stroke: #000000; stroke-width: 0.8"/>
      </defs>
      <g>
       <use xlink:href="#m68ee69e891" x="81.9" y="292.2048" style="stroke: #000000; stroke-width: 0.8"/>
      </g>
     </g>
     <g id="text_7">
      <!-- 0.0 -->
      <g transform="translate(58.996875 296.004019) scale(0.1 -0.1)">
       <defs>
        <path id="DejaVuSans-2e" d="M 684 794 
L 1344 794 
L 1344 0 
L 684 0 
L 684 794 
z
" transform="scale(0.015625)"/>
       </defs>
       <use xlink:href="#DejaVuSans-30"/>
       <use xlink:href="#DejaVuSans-2e" x="63.623047"/>
       <use xlink:href="#DejaVuSans-30" x="95.410156"/>
      </g>
     </g>
    </g>
    <g id="ytick_2">
     <g id="line2d_8">
      <g>
       <use xlink:href="#m68ee69e891" x="81.9" y="258.49728" style="stroke: #000000; stroke-width: 0.8"/>
      </g>
     </g>
     <g id="text_8">
      <!-- 0.2 -->
      <g transform="translate(58.996875 262.296499) scale(0.1 -0.1)">
       <use xlink:href="#DejaVuSans-30"/>
       <use xlink:href="#DejaVuSans-2e" x="63.623047"/>
       <use xlink:href="#DejaVuSans-32" x="95.410156"/>
      </g>
     </g>
    </g>
    <g id="ytick_3">
     <g id="line2d_9">
      <g>
       <use xlink:href="#m68ee69e891" x="81.9" y="224.78976" style="stroke: #000000; stroke-width: 0.8"/>
      </g>
     </g>
     <g id="text_9">
      <!-- 0.4 -->
      <g transform="translate(58.996875 228.588979) scale(0.1 -0.1)">
       <use xlink:href="#DejaVuSans-30"/>
       <use xlink:href="#DejaVuSans-2e" x="63.623047"/>
       <use xlink:href="#DejaVuSans-34" x="95.410156"/>
      </g>
     </g>
    </g>
    <g id="ytick_4">
     <g id="line2d_10">
      <g>
       <use xlink:href="#m68ee69e891" x="81.9" y="191.08224" style="stroke: #000000; stroke-width: 0.8"/>
      </g>
     </g>
     <g id="text_10">
      <!-- 0.6 -->
      <g transform="translate(58.996875 194.881459) scale(0.1 -0.1)">
       <defs>
        <path id="DejaVuSans-36" d="M 2113 2584 
Q 1688 2584 1439 2293 
Q 1191 2003 1191 1497 
Q 1191 994 1439 701 
Q 1688 409 2113 409 
Q 2538 409 2786 701 
Q 3034 994 3034 1497 
Q 3034 2003 2786 2293 
Q 2538 2584 2113 2584 
z
M 3366 4563 
L 3366 3988 
Q 3128 4100 2886 4159 
Q 2644 4219 2406 4219 
Q 1781 4219 1451 3797 
Q 1122 3375 1075 2522 
Q 1259 2794 1537 2939 
Q 1816 3084 2150 3084 
Q 2853 3084 3261 2657 
Q 3669 2231 3669 1497 
Q 3669 778 3244 343 
Q 2819 -91 2113 -91 
Q 1303 -91 875 529 
Q 447 1150 447 2328 
Q 447 3434 972 4092 
Q 1497 4750 2381 4750 
Q 2619 4750 2861 4703 
Q 3103 4656 3366 4563 
z
" transform="scale(0.015625)"/>
       </defs>
       <use xlink:href="#DejaVuSans-30"/>
       <use xlink:href="#DejaVuSans-2e" x="63.623047"/>
       <use xlink:href="#DejaVuSans-36" x="95.410156"/>
      </g>
     </g>
    </g>
    <g id="ytick_5">
     <g id="line2d_11">
      <g>
       <use xlink:href="#m68ee69e891" x="81.9" y="157.37472" style="stroke: #000000; stroke-width: 0.8"/>
      </g>
     </g>
     <g id="text_11">
      <!-- 0.8 -->
      <g transform="translate(58.996875 161.173939) scale(0.1 -0.1)">
       <defs>
        <path id="DejaVuSans-38" d="M 2034 2216 
Q 1584 2216 1326 1975 
Q 1069 1734 1069 1313 
Q 1069 891 1326 650 
Q 1584 409 2034 409 
Q 2484 409 2743 651 
Q 3003 894 3003 1313 
Q 3003 1734 2745 1975 
Q 2488 2216 2034 2216 
z
M 1403 2484 
Q 997 2584 770 2862 
Q 544 3141 544 3541 
Q 544 4100 942 4425 
Q 1341 4750 2034 4750 
Q 2731 4750 3128 4425 
Q 3525 4100 3525 3541 
Q 3525 3141 3298 2862 
Q 3072 2584 2669 2484 
Q 3125 2378 3379 2068 
Q 3634 1759 3634 1313 
Q 3634 634 3220 271 
Q 2806 -91 2034 -91 
Q 1263 -91 848 271 
Q 434 634 434 1313 
Q 434 1759 690 2068 
Q 947 2378 1403 2484 
z
M 1172 3481 
Q 1172 3119 1398 2916 
Q 1625 2713 2034 2713 
Q 2441 2713 2670 2916 
Q 2900 3119 2900 3481 
Q 2900 3844 2670 4047 
Q 2441 4250 2034 4250 
Q 1625 4250 1398 4047 
Q 1172 3844 1172 3481 
z
" transform="scale(0.015625)"/>
       </defs>
       <use xlink:href="#DejaVuSans-30"/>
       <use xlink:href="#DejaVuSans-2e" x="63.623047"/>
       <use xlink:href="#DejaVuSans-38" x="95.410156"/>
      </g>
     </g>
    </g>
    <g id="ytick_6">
     <g id="line2d_12">
      <g>
       <use xlink:href="#m68ee69e891" x="81.9" y="123.6672" style="stroke: #000000; stroke-width: 0.8"/>
      </g>
     </g>
     <g id="text_12">
      <!-- 1.0 -->
      <g transform="translate(58.996875 127.466419) scale(0.1 -0.1)">
       <use xlink:href="#DejaVuSans-31"/>
       <use xlink:href="#DejaVuSans-2e" x="63.623047"/>
       <use xlink:href="#DejaVuSans-30" x="95.410156"/>
      </g>
     </g>
    </g>
    <g id="ytick_7">
     <g id="line2d_13">
      <g>
       <use xlink:href="#m68ee69e891" x="81.9" y="89.95968" style="stroke: #000000; stroke-width: 0.8"/>
      </g>
     </g>
     <g id="text_13">
      <!-- 1.2 -->
      <g transform="translate(58.996875 93.758899) scale(0.1 -0.1)">
       <use xlink:href="#DejaVuSans-31"/>
       <use xlink:href="#DejaVuSans-2e" x="63.623047"/>
       <use xlink:href="#DejaVuSans-32" x="95.410156"/>
      </g>
     </g>
    </g>
    <g id="ytick_8">
     <g id="line2d_14">
      <g>
       <use xlink:href="#m68ee69e891" x="81.9" y="56.25216" style="stroke: #000000; stroke-width: 0.8"/>
      </g>
     </g>
     <g id="text_14">
      <!-- 1.4 -->
      <g transform="translate(58.996875 60.051379) scale(0.1 -0.1)">
       <use xlink:href="#DejaVuSans-31"/>
       <use xlink:href="#DejaVuSans-2e" x="63.623047"/>
       <use xlink:href="#DejaVuSans-34" x="95.410156"/>
      </g>
     </g>
    </g>
   </g>
   <g id="line2d_15">
    <path d="M 104.980909 207.936 
L 566.599091 207.936 
L 566.599091 207.936 
" clip-path="url(#pc01eac669a)" style="fill: none; stroke: #1f77b4; stroke-width: 1.5; stroke-linecap: square"/>
   </g>
   <g id="line2d_16">
    <path d="M 104.980909 174.22848 
L 566.599091 174.22848 
L 566.599091 174.22848 
" clip-path="url(#pc01eac669a)" style="fill: none; stroke: #ff7f0e; stroke-width: 1.5; stroke-linecap: square"/>
   </g>
   <g id="line2d_17">
    <path d="M 104.980909 198.295649 
L 105.905996 196.981056 
L 106.831082 196.812518 
L 107.756169 196.323759 
L 108.681255 197.149594 
L 109.606342 195.835 
L 110.531428 197.149594 
L 111.456515 193.357498 
L 112.381601 194.503553 
L 113.306688 194.183332 
L 114.231774 191.537292 
L 115.156861 191.537292 
L 116.081948 191.874367 
L 117.007034 195.666463 
L 117.932121 197.638353 
L 118.857207 196.323759 
L 119.782294 197.149594 
L 120.70738 197.149594 
L 121.632467 197.80689 
L 122.557553 196.323759 
L 123.48264 197.638353 
L 124.407726 196.981056 
L 125.332813 196.643981 
L 126.257899 195.986684 
L 127.182986 196.643981 
L 128.108073 196.155222 
L 129.033159 196.812518 
L 129.958246 193.020422 
L 130.883332 200.115855 
L 131.808419 194.672091 
L 132.733505 200.267539 
L 133.658592 200.773152 
L 134.583678 207.194435 
L 135.508765 205.054007 
L 136.433851 210.329234 
L 137.358938 209.334862 
L 138.284024 194.672091 
L 139.209111 194.503553 
L 140.134197 185.284547 
L 141.059284 187.593512 
L 141.984371 189.565402 
L 142.909457 190.054161 
L 143.834544 192.700201 
L 144.75963 190.559773 
L 145.684717 194.014794 
L 146.609803 191.705829 
L 147.53489 188.250808 
L 148.459976 186.59914 
L 149.385063 186.767677 
L 150.310149 187.762049 
L 151.235236 183.801416 
L 152.160322 184.795788 
L 153.085409 182.807044 
L 154.935582 175.071168 
L 155.860669 175.559927 
L 156.785755 172.762203 
L 157.710842 175.239706 
L 158.635928 172.593665 
L 159.561015 170.790313 
L 160.486101 175.071168 
L 161.411188 169.458866 
L 162.336274 171.936369 
L 163.261361 171.279072 
L 164.186447 170.133016 
L 165.111534 166.829679 
L 166.036621 167.992589 
L 166.961707 168.144273 
L 167.886794 161.234231 
L 168.81188 161.234231 
L 169.736967 160.728618 
L 170.662053 167.166755 
L 171.58714 162.869046 
L 172.512226 165.346548 
L 173.437313 154.644411 
L 174.362399 161.554452 
L 175.287486 164.857789 
L 176.212572 168.649885 
L 177.137659 168.801569 
L 178.062745 164.031955 
L 178.987832 171.110534 
L 179.912919 168.31281 
L 180.838005 162.211749 
L 181.763092 157.10506 
L 182.688178 165.515086 
L 183.613265 160.071322 
L 184.538351 142.442289 
L 185.463438 155.301708 
L 186.388524 151.998371 
L 187.313611 142.947901 
L 188.238697 151.172536 
L 189.163784 160.408397 
L 190.08887 161.554452 
L 191.013957 150.363556 
L 191.939044 165.346548 
L 192.86413 160.576934 
L 193.789217 155.13317 
L 194.714303 153.650039 
L 195.63939 149.200646 
L 196.564476 141.784992 
L 197.489563 142.779364 
L 198.414649 144.751254 
L 199.339736 138.987268 
L 200.264822 123.6672 
L 217.841467 123.6672 
L 218.766553 138.161434 
L 219.69164 134.537875 
L 220.616726 137.015378 
L 221.541813 123.6672 
L 224.317072 123.6672 
L 225.242159 123.835738 
L 226.167245 123.6672 
L 230.792678 123.6672 
L 231.717765 140.638936 
L 232.642851 140.470399 
L 233.567938 139.155805 
L 234.493024 140.150177 
L 235.418111 151.172536 
L 236.343197 140.807474 
L 237.268284 146.891681 
L 238.19337 149.200646 
L 239.118457 143.92542 
L 240.043543 141.95353 
L 240.96863 140.638936 
L 241.893717 140.150177 
L 242.818803 140.150177 
L 243.74389 139.98164 
L 245.594063 139.98164 
L 246.519149 140.470399 
L 247.444236 139.476027 
L 248.369322 143.268123 
L 249.294409 143.605198 
L 250.219495 141.127695 
L 251.144582 139.98164 
L 252.069668 141.127695 
L 252.994755 139.476027 
L 253.919842 138.667046 
L 256.695101 138.667046 
L 257.620188 138.498509 
L 258.545274 138.667046 
L 259.470361 141.464771 
L 260.395447 144.751254 
L 261.320534 146.065847 
L 262.24562 149.857943 
L 263.170707 147.886053 
L 264.095793 148.711887 
L 265.02088 146.065847 
L 265.945966 140.807474 
L 266.871053 159.245487 
L 267.79614 148.054591 
L 268.721226 159.093804 
L 269.646313 164.200493 
L 270.571399 156.616301 
L 271.496486 155.301708 
L 272.421572 164.857789 
L 273.346659 161.065693 
L 274.271745 153.481501 
L 275.196832 159.7511 
L 276.121918 160.408397 
L 277.047005 160.576934 
L 277.972091 161.891528 
L 278.897178 160.576934 
L 279.822265 166.003845 
L 280.747351 167.992589 
L 281.672438 169.307182 
L 282.597524 171.767831 
L 283.522611 168.801569 
L 284.447697 172.104906 
L 285.372784 169.458866 
L 286.29787 170.621775 
L 287.222957 170.133016 
L 288.148043 173.250962 
L 289.07313 170.941997 
L 289.998216 174.582409 
L 290.923303 172.593665 
L 291.84839 175.559927 
L 292.773476 172.762203 
L 293.698563 175.559927 
L 294.623649 173.099278 
L 295.548736 174.734093 
L 296.473822 172.93074 
L 297.398909 189.076643 
L 298.323995 176.722836 
L 299.249082 185.941843 
L 301.099255 173.588037 
L 302.024341 177.868892 
L 302.949428 178.205967 
L 303.874514 167.318438 
L 304.799601 166.829679 
L 305.724688 165.683624 
L 306.649774 162.548824 
L 307.574861 172.762203 
L 308.499947 174.582409 
L 309.425034 173.756575 
L 310.35012 167.486976 
L 311.275207 175.239706 
L 312.200293 175.559927 
L 313.12538 170.2847 
L 314.050466 166.003845 
L 314.975553 174.245334 
L 315.900639 179.520561 
L 316.825726 181.323913 
L 317.750813 179.352023 
L 318.675899 185.604768 
L 319.600986 179.689098 
L 320.526072 184.458712 
L 321.451159 176.722836 
L 322.376245 181.829526 
L 323.301332 183.144119 
L 324.226418 172.93074 
L 325.151505 182.318285 
L 326.076591 187.424974 
L 327.001678 181.172229 
L 327.926764 186.278918 
L 328.851851 176.722836 
L 330.702024 182.65536 
L 332.552197 195.009166 
L 333.477284 195.329388 
L 334.40237 196.323759 
L 335.327457 195.329388 
L 336.252543 192.700201 
L 337.17763 196.981056 
L 338.102716 198.784408 
L 339.027803 198.632724 
L 339.952889 195.666463 
L 340.877976 198.784408 
L 341.803062 190.222698 
L 342.728149 195.497925 
L 343.653236 202.256283 
L 344.578322 200.267539 
L 345.503409 200.94169 
L 347.353582 205.879841 
L 348.278668 205.879841 
L 349.203755 202.42482 
L 350.128841 207.194435 
L 351.053928 209.671937 
L 351.979014 210.329234 
L 353.829187 219.059482 
L 354.754274 224.65493 
L 355.679361 220.71115 
L 356.604447 215.756145 
L 358.45462 218.06511 
L 359.379707 221.368447 
L 360.304793 219.716778 
L 361.22988 211.964049 
L 362.154966 213.615717 
L 363.080053 218.890944 
L 364.005139 219.548241 
L 364.930226 215.604461 
L 365.855312 208.34049 
L 366.780399 210.817993 
L 367.705486 214.273014 
L 368.630572 209.823621 
L 369.555659 207.025897 
L 371.405832 212.469661 
L 372.330918 211.643827 
L 373.256005 211.964049 
L 374.181091 209.823621 
L 375.106178 214.93031 
L 376.031264 213.952792 
L 377.881437 216.919054 
L 378.806524 217.896572 
L 379.73161 221.031372 
L 380.656697 218.233647 
L 381.581784 222.194281 
L 382.50687 228.784101 
L 383.431957 228.278488 
L 385.28213 232.070584 
L 386.207216 225.160543 
L 387.132303 225.817839 
L 388.057389 233.722253 
L 388.982476 231.24475 
L 389.907562 229.104323 
L 390.832649 225.480764 
L 391.757735 231.076212 
L 392.682822 227.789729 
L 393.607909 236.519977 
L 394.532995 233.89079 
L 395.458082 231.750363 
L 396.383168 228.447026 
L 397.308255 226.62682 
L 398.233341 225.160543 
L 399.158428 220.374075 
L 400.083514 220.037 
L 401.008601 220.037 
L 401.933687 220.374075 
L 402.858774 220.205537 
L 403.78386 220.862834 
L 404.708947 221.199909 
L 405.634034 220.862834 
L 406.55912 220.374075 
L 407.484207 220.205537 
L 408.409293 217.744888 
L 409.33438 217.896572 
L 410.259466 218.553869 
L 411.184553 216.413441 
L 412.109639 216.09322 
L 413.034726 227.789729 
L 413.959812 218.233647 
L 414.884899 214.778627 
L 415.809985 213.615717 
L 416.735072 212.789883 
L 417.660158 213.126958 
L 418.585245 211.643827 
L 419.510332 211.964049 
L 420.435418 213.126958 
L 422.285591 213.784255 
L 423.210678 209.671937 
L 424.135764 211.47529 
L 425.060851 209.5034 
L 425.985937 208.509028 
L 426.911024 208.509028 
L 427.83611 215.267386 
L 428.761197 211.964049 
L 429.686283 211.964049 
L 430.61137 207.194435 
L 431.536457 207.683194 
L 432.461543 208.020269 
L 433.38663 205.374228 
L 434.311716 209.5034 
L 435.236803 207.362972 
L 436.161889 208.34049 
L 437.086976 206.705676 
L 438.012062 204.059635 
L 439.862235 208.677565 
L 440.787322 203.233801 
L 441.712408 202.087745 
L 442.637495 206.857359 
L 444.487668 201.75067 
L 445.412755 202.745042 
L 446.337841 209.992159 
L 447.262928 207.025897 
L 448.188014 207.362972 
L 449.113101 207.194435 
L 450.038187 210.497772 
L 450.963274 208.677565 
L 451.88836 201.919208 
L 452.813447 200.604614 
L 453.738533 201.093373 
L 454.66362 202.91358 
L 455.588707 199.610243 
L 456.513793 200.267539 
L 457.43888 201.75067 
L 458.363966 204.716932 
L 459.289053 206.200063 
L 460.214139 208.509028 
L 461.139226 207.683194 
L 462.064312 198.952946 
L 462.989399 207.362972 
L 463.914485 209.334862 
L 464.839572 208.846103 
L 465.764658 209.334862 
L 466.689745 201.261911 
L 467.614831 206.705676 
L 468.539918 209.166324 
L 469.465005 207.851731 
L 470.390091 208.34049 
L 471.315178 205.054007 
L 472.240264 203.907951 
L 473.165351 201.598986 
L 474.090437 200.94169 
L 475.015524 203.233801 
L 475.94061 197.638353 
L 476.865697 200.94169 
L 477.790783 198.632724 
L 478.71587 203.082117 
L 479.640956 199.610243 
L 480.566043 203.402339 
L 481.49113 199.610243 
L 482.416216 198.784408 
L 483.341303 200.267539 
L 484.266389 199.610243 
L 485.191476 200.436077 
L 486.116562 201.093373 
L 487.041649 199.458559 
L 487.966735 199.458559 
L 489.816908 202.42482 
L 490.741995 201.093373 
L 491.667081 194.351869 
L 492.592168 199.77878 
L 493.517255 199.290021 
L 494.442341 202.256283 
L 495.367428 200.773152 
L 496.292514 199.610243 
L 497.217601 199.610243 
L 498.142687 198.464187 
L 499.067774 199.458559 
L 499.99286 190.391236 
L 500.917947 193.846257 
L 501.843033 194.672091 
L 502.76812 185.453084 
L 503.693206 199.121484 
L 504.618293 200.94169 
L 505.543379 196.323759 
L 506.468466 199.121484 
L 507.393553 200.773152 
L 508.318639 192.363126 
L 509.243726 192.363126 
L 510.168812 194.014794 
L 511.093899 193.357498 
L 512.018985 194.840628 
L 512.944072 192.042904 
L 513.869158 191.048532 
L 514.794245 187.913733 
L 515.719331 192.363126 
L 516.644418 193.020422 
L 517.569504 193.357498 
L 518.494591 188.908105 
L 519.419678 192.042904 
L 520.344764 191.705829 
L 521.269851 189.733939 
L 522.194937 188.57103 
L 523.120024 188.250808 
L 524.04511 186.936215 
L 524.970197 186.59914 
L 525.895283 186.59914 
L 526.82037 187.087899 
L 527.745456 186.59914 
L 528.670543 186.936215 
L 529.595629 186.936215 
L 530.520716 188.082271 
L 531.445803 188.082271 
L 532.370889 188.908105 
L 533.295976 188.419346 
L 534.221062 186.110381 
L 536.071235 186.110381 
L 536.996322 186.278918 
L 537.921408 185.604768 
L 538.846495 185.284547 
L 540.696668 184.947471 
L 541.621754 184.947471 
L 542.546841 184.795788 
L 544.397014 184.795788 
L 545.322101 186.767677 
L 546.247187 190.222698 
L 547.172274 186.278918 
L 548.09736 188.57103 
L 549.022447 185.284547 
L 549.947533 186.767677 
L 550.87262 186.59914 
L 551.797706 185.941843 
L 552.722793 185.773306 
L 553.647879 185.941843 
L 554.572966 186.278918 
L 555.498052 185.941843 
L 558.273312 186.430602 
L 559.198399 185.941843 
L 560.123485 185.773306 
L 561.048572 186.278918 
L 561.973658 186.110381 
L 562.898745 186.110381 
L 563.823831 185.453084 
L 564.748918 185.604768 
L 565.674004 185.284547 
L 566.599091 185.604768 
L 566.599091 185.604768 
" clip-path="url(#pc01eac669a)" style="fill: none; stroke: #2ca02c; stroke-width: 1.5; stroke-linecap: square"/>
   </g>
   <g id="line2d_18">
    <path d="M 104.980909 200.179381 
L 107.756169 197.359905 
L 108.681255 196.628303 
L 109.606342 196.069724 
L 110.531428 195.692697 
L 111.456515 195.486887 
L 113.306688 195.463092 
L 116.081948 195.684268 
L 117.932121 195.495893 
L 122.557553 194.463122 
L 123.48264 194.482018 
L 125.332813 194.857278 
L 128.108073 195.919758 
L 129.958246 196.580701 
L 131.808419 196.967859 
L 133.658592 197.052971 
L 135.508765 197.056293 
L 136.433851 197.172037 
L 137.358938 197.456391 
L 138.284024 197.95944 
L 140.134197 199.537425 
L 141.059284 200.383425 
L 141.984371 201.037857 
L 142.909457 201.34287 
L 143.834544 201.203899 
L 144.75963 200.604645 
L 145.684717 199.59877 
L 147.53489 196.807797 
L 150.310149 192.419455 
L 152.160322 190.116976 
L 154.010496 188.394155 
L 157.710842 185.421921 
L 159.561015 183.307147 
L 161.411188 180.63535 
L 165.111534 174.968494 
L 166.961707 172.682392 
L 168.81188 170.88655 
L 177.137659 163.937071 
L 178.062745 163.347058 
L 178.987832 162.931003 
L 179.912919 162.730213 
L 180.838005 162.763605 
L 181.763092 163.015435 
L 185.463438 164.625691 
L 186.388524 164.656823 
L 187.313611 164.334846 
L 188.238697 163.610429 
L 189.163784 162.481986 
L 191.013957 159.352468 
L 192.86413 156.11602 
L 193.789217 154.850861 
L 194.714303 153.964186 
L 195.63939 153.480337 
L 196.564476 153.345864 
L 199.339736 153.670329 
L 200.264822 153.506935 
L 201.189909 152.989165 
L 202.114995 151.998827 
L 203.040082 150.445275 
L 203.965169 148.299488 
L 204.890255 145.608255 
L 206.740428 139.096932 
L 208.590601 132.261103 
L 209.515688 129.166548 
L 210.440774 126.473361 
L 211.365861 124.268875 
L 212.290947 122.594848 
L 213.216034 121.450125 
L 214.14112 120.797035 
L 215.066207 120.570133 
L 215.991293 120.685981 
L 216.91638 121.052831 
L 218.766553 122.187537 
L 220.616726 123.532376 
L 222.466899 125.186572 
L 224.317072 127.024816 
L 225.242159 127.805494 
L 226.167245 128.378814 
L 227.092332 128.691944 
L 228.017418 128.72611 
L 228.942505 128.494313 
L 229.867592 128.03517 
L 231.717765 126.674943 
L 232.642851 125.947907 
L 233.567938 125.36465 
L 234.493024 125.077665 
L 235.418111 125.210928 
L 236.343197 125.84387 
L 237.268284 127.005865 
L 238.19337 128.66906 
L 239.118457 130.755039 
L 243.74389 142.523063 
L 244.668976 144.046919 
L 245.594063 145.060546 
L 246.519149 145.560633 
L 247.444236 145.589047 
L 248.369322 145.222712 
L 249.294409 144.564639 
L 252.994755 141.280232 
L 253.919842 140.694634 
L 254.844928 140.261453 
L 256.695101 139.779227 
L 259.470361 139.556207 
L 262.24562 139.524797 
L 263.170707 139.653647 
L 264.095793 139.933407 
L 265.02088 140.398491 
L 265.945966 141.050765 
L 267.79614 142.771028 
L 269.646313 144.821468 
L 271.496486 147.219065 
L 273.346659 150.051657 
L 277.047005 156.031531 
L 278.897178 158.308773 
L 279.822265 159.167076 
L 281.672438 160.421099 
L 284.447697 162.037177 
L 286.29787 163.579339 
L 288.148043 165.545588 
L 290.923303 168.642273 
L 292.773476 170.422143 
L 294.623649 171.851628 
L 296.473822 172.924133 
L 301.099255 174.999854 
L 305.724688 178.025063 
L 306.649774 178.182589 
L 307.574861 177.98775 
L 308.499947 177.412866 
L 309.425034 176.503076 
L 311.275207 174.126424 
L 313.12538 171.822978 
L 314.050466 170.948026 
L 314.975553 170.321061 
L 315.900639 169.939689 
L 316.825726 169.796577 
L 317.750813 169.900475 
L 318.675899 170.26883 
L 319.600986 170.912362 
L 320.526072 171.824305 
L 322.376245 174.293301 
L 325.151505 178.424942 
L 326.076591 179.569242 
L 327.001678 180.499049 
L 327.926764 181.214341 
L 328.851851 181.741285 
L 329.776938 182.1076 
L 330.702024 182.329582 
L 332.552197 182.422439 
L 334.40237 182.486547 
L 335.327457 182.765783 
L 336.252543 183.324319 
L 337.17763 184.190888 
L 338.102716 185.346068 
L 339.952889 188.309778 
L 342.728149 193.255649 
L 343.653236 194.677989 
L 344.578322 195.863111 
L 345.503409 196.797005 
L 346.428495 197.506274 
L 348.278668 198.473612 
L 351.053928 199.786399 
L 352.904101 201.06683 
L 353.829187 201.902726 
L 354.754274 202.905583 
L 355.679361 204.112381 
L 356.604447 205.552825 
L 358.45462 209.056359 
L 361.22988 214.643702 
L 362.154966 216.236074 
L 363.080053 217.557608 
L 364.005139 218.54893 
L 364.930226 219.193362 
L 365.855312 219.510305 
L 366.780399 219.527117 
L 367.705486 219.264604 
L 368.630572 218.748078 
L 369.555659 218.016573 
L 371.405832 216.086904 
L 374.181091 212.834984 
L 375.106178 211.912476 
L 376.031264 211.158682 
L 376.956351 210.610248 
L 377.881437 210.294015 
L 378.806524 210.225063 
L 379.73161 210.407478 
L 380.656697 210.835929 
L 381.581784 211.494364 
L 382.50687 212.357764 
L 383.431957 213.403911 
L 385.28213 216.009092 
L 387.132303 219.221142 
L 389.907562 224.311249 
L 391.757735 227.177936 
L 392.682822 228.309886 
L 393.607909 229.201108 
L 394.532995 229.858486 
L 395.458082 230.321874 
L 397.308255 230.870945 
L 399.158428 231.058414 
L 400.083514 230.973848 
L 401.008601 230.713975 
L 401.933687 230.238756 
L 402.858774 229.530015 
L 403.78386 228.599545 
L 405.634034 226.259265 
L 408.409293 222.607687 
L 410.259466 220.759705 
L 411.184553 220.072339 
L 413.034726 219.103088 
L 414.884899 218.584927 
L 416.735072 218.457653 
L 418.585245 218.370036 
L 419.510332 218.197424 
L 420.435418 217.888643 
L 421.360505 217.434744 
L 423.210678 216.17912 
L 427.83611 212.647236 
L 429.686283 211.506051 
L 431.536457 210.757004 
L 433.38663 210.373769 
L 436.161889 209.898453 
L 438.937149 209.112334 
L 441.712408 208.031417 
L 449.113101 204.927985 
L 450.038187 204.764426 
L 450.963274 204.735189 
L 451.88836 204.848665 
L 453.738533 205.398142 
L 455.588707 205.926125 
L 456.513793 206.008724 
L 457.43888 205.91532 
L 458.363966 205.637159 
L 460.214139 204.658729 
L 462.064312 203.607331 
L 462.989399 203.242832 
L 463.914485 203.032916 
L 464.839572 202.987011 
L 465.764658 203.112121 
L 466.689745 203.406685 
L 468.539918 204.379162 
L 472.240264 206.552556 
L 473.165351 206.953203 
L 474.090437 207.231526 
L 475.015524 207.350064 
L 475.94061 207.281107 
L 476.865697 207.012081 
L 477.790783 206.545154 
L 478.71587 205.899085 
L 480.566043 204.241116 
L 482.416216 202.499344 
L 484.266389 201.083997 
L 486.116562 200.152059 
L 487.966735 199.698401 
L 489.816908 199.622041 
L 491.667081 199.788548 
L 494.442341 200.137886 
L 497.217601 200.163052 
L 500.917947 199.928567 
L 502.76812 199.504217 
L 503.693206 199.101209 
L 505.543379 197.887131 
L 507.393553 196.518198 
L 508.318639 195.970645 
L 509.243726 195.584053 
L 510.168812 195.360319 
L 512.018985 195.248347 
L 514.794245 195.238154 
L 516.644418 194.909007 
L 518.494591 194.177135 
L 524.04511 191.494894 
L 528.670543 189.582711 
L 532.370889 187.840967 
L 534.221062 187.245179 
L 536.071235 186.997772 
L 542.546841 186.807869 
L 544.397014 186.420839 
L 548.09736 185.496887 
L 549.947533 185.396405 
L 551.797706 185.644055 
L 556.423139 186.591805 
L 558.273312 186.694646 
L 561.048572 186.535045 
L 566.599091 186.003214 
L 566.599091 186.003214 
" clip-path="url(#pc01eac669a)" style="fill: none; stroke: #d62728; stroke-width: 1.5; stroke-linecap: square"/>
   </g>
   <g id="patch_3">
    <path d="M 81.9 292.2048 
L 81.9 39.3984 
" style="fill: none; stroke: #000000; stroke-width: 0.8; stroke-linejoin: miter; stroke-linecap: square"/>
   </g>
   <g id="patch_4">
    <path d="M 589.68 292.2048 
L 589.68 39.3984 
" style="fill: none; stroke: #000000; stroke-width: 0.8; stroke-linejoin: miter; stroke-linecap: square"/>
   </g>
   <g id="patch_5">
    <path d="M 81.9 292.2048 
L 589.68 292.2048 
" style="fill: none; stroke: #000000; stroke-width: 0.8; stroke-linejoin: miter; stroke-linecap: square"/>
   </g>
   <g id="patch_6">
    <path d="M 81.9 39.3984 
L 589.68 39.3984 
" style="fill: none; stroke: #000000; stroke-width: 0.8; stroke-linejoin: miter; stroke-linecap: square"/>
   </g>
   <g id="text_15">
    <!-- middlePlot -->
    <g transform="translate(303.99375 33.3984) scale(0.12 -0.12)">
     <defs>
      <path id="DejaVuSans-6d" d="M 3328 2828 
Q 3544 3216 3844 3400 
Q 4144 3584 4550 3584 
Q 5097 3584 5394 3201 
Q 5691 2819 5691 2113 
L 5691 0 
L 5113 0 
L 5113 2094 
Q 5113 2597 4934 2840 
Q 4756 3084 4391 3084 
Q 3944 3084 3684 2787 
Q 3425 2491 3425 1978 
L 3425 0 
L 2847 0 
L 2847 2094 
Q 2847 2600 2669 2842 
Q 2491 3084 2119 3084 
Q 1678 3084 1418 2786 
Q 1159 2488 1159 1978 
L 1159 0 
L 581 0 
L 581 3500 
L 1159 3500 
L 1159 2956 
Q 1356 3278 1631 3431 
Q 1906 3584 2284 3584 
Q 2666 3584 2933 3390 
Q 3200 3197 3328 2828 
z
" transform="scale(0.015625)"/>
      <path id="DejaVuSans-69" d="M 603 3500 
L 1178 3500 
L 1178 0 
L 603 0 
L 603 3500 
z
M 603 4863 
L 1178 4863 
L 1178 4134 
L 603 4134 
L 603 4863 
z
" transform="scale(0.015625)"/>
      <path id="DejaVuSans-64" d="M 2906 2969 
L 2906 4863 
L 3481 4863 
L 3481 0 
L 2906 0 
L 2906 525 
Q 2725 213 2448 61 
Q 2172 -91 1784 -91 
Q 1150 -91 751 415 
Q 353 922 353 1747 
Q 353 2572 751 3078 
Q 1150 3584 1784 3584 
Q 2172 3584 2448 3432 
Q 2725 3281 2906 2969 
z
M 947 1747 
Q 947 1113 1208 752 
Q 1469 391 1925 391 
Q 2381 391 2643 752 
Q 2906 1113 2906 1747 
Q 2906 2381 2643 2742 
Q 2381 3103 1925 3103 
Q 1469 3103 1208 2742 
Q 947 2381 947 1747 
z
" transform="scale(0.015625)"/>
      <path id="DejaVuSans-6c" d="M 603 4863 
L 1178 4863 
L 1178 0 
L 603 0 
L 603 4863 
z
" transform="scale(0.015625)"/>
      <path id="DejaVuSans-65" d="M 3597 1894 
L 3597 1613 
L 953 1613 
Q 991 1019 1311 708 
Q 1631 397 2203 397 
Q 2534 397 2845 478 
Q 3156 559 3463 722 
L 3463 178 
Q 3153 47 2828 -22 
Q 2503 -91 2169 -91 
Q 1331 -91 842 396 
Q 353 884 353 1716 
Q 353 2575 817 3079 
Q 1281 3584 2069 3584 
Q 2775 3584 3186 3129 
Q 3597 2675 3597 1894 
z
M 3022 2063 
Q 3016 2534 2758 2815 
Q 2500 3097 2075 3097 
Q 1594 3097 1305 2825 
Q 1016 2553 972 2059 
L 3022 2063 
z
" transform="scale(0.015625)"/>
      <path id="DejaVuSans-50" d="M 1259 4147 
L 1259 2394 
L 2053 2394 
Q 2494 2394 2734 2622 
Q 2975 2850 2975 3272 
Q 2975 3691 2734 3919 
Q 2494 4147 2053 4147 
L 1259 4147 
z
M 628 4666 
L 2053 4666 
Q 2838 4666 3239 4311 
Q 3641 3956 3641 3272 
Q 3641 2581 3239 2228 
Q 2838 1875 2053 1875 
L 1259 1875 
L 1259 0 
L 628 0 
L 628 4666 
z
" transform="scale(0.015625)"/>
      <path id="DejaVuSans-6f" d="M 1959 3097 
Q 1497 3097 1228 2736 
Q 959 2375 959 1747 
Q 959 1119 1226 758 
Q 1494 397 1959 397 
Q 2419 397 2687 759 
Q 2956 1122 2956 1747 
Q 2956 2369 2687 2733 
Q 2419 3097 1959 3097 
z
M 1959 3584 
Q 2709 3584 3137 3096 
Q 3566 2609 3566 1747 
Q 3566 888 3137 398 
Q 2709 -91 1959 -91 
Q 1206 -91 779 398 
Q 353 888 353 1747 
Q 353 2609 779 3096 
Q 1206 3584 1959 3584 
z
" transform="scale(0.015625)"/>
      <path id="DejaVuSans-74" d="M 1172 4494 
L 1172 3500 
L 2356 3500 
L 2356 3053 
L 1172 3053 
L 1172 1153 
Q 1172 725 1289 603 
Q 1406 481 1766 481 
L 2356 481 
L 2356 0 
L 1766 0 
Q 1100 0 847 248 
Q 594 497 594 1153 
L 594 3053 
L 172 3053 
L 172 3500 
L 594 3500 
L 594 4494 
L 1172 4494 
z
" transform="scale(0.015625)"/>
     </defs>
     <use xlink:href="#DejaVuSans-6d"/>
     <use xlink:href="#DejaVuSans-69" x="97.412109"/>
     <use xlink:href="#DejaVuSans-64" x="125.195312"/>
     <use xlink:href="#DejaVuSans-64" x="188.671875"/>
     <use xlink:href="#DejaVuSans-6c" x="252.148438"/>
     <use xlink:href="#DejaVuSans-65" x="279.931641"/>
     <use xlink:href="#DejaVuSans-50" x="341.455078"/>
     <use xlink:href="#DejaVuSans-6c" x="401.757812"/>
     <use xlink:href="#DejaVuSans-6f" x="429.541016"/>
     <use xlink:href="#DejaVuSans-74" x="490.722656"/>
    </g>
   </g>
   <g id="legend_1">
    <g id="patch_7">
     <path d="M 420.284687 117.308712 
L 582.68 117.308712 
Q 584.68 117.308712 584.68 115.308712 
L 584.68 46.3984 
Q 584.68 44.3984 582.68 44.3984 
L 420.284687 44.3984 
Q 418.284687 44.3984 418.284687 46.3984 
L 418.284687 115.308712 
Q 418.284687 117.308712 420.284687 117.308712 
z
" style="fill: #ffffff; opacity: 0.8; stroke: #cccccc; stroke-linejoin: miter"/>
    </g>
    <g id="line2d_19">
     <path d="M 422.284687 52.496837 
L 432.284687 52.496837 
L 442.284687 52.496837 
" style="fill: none; stroke: #1f77b4; stroke-width: 1.5; stroke-linecap: square"/>
    </g>
    <g id="text_16">
     <!-- On Threshold -->
     <g transform="translate(450.284687 55.996837) scale(0.1 -0.1)">
      <defs>
       <path id="DejaVuSans-4f" d="M 2522 4238 
Q 1834 4238 1429 3725 
Q 1025 3213 1025 2328 
Q 1025 1447 1429 934 
Q 1834 422 2522 422 
Q 3209 422 3611 934 
Q 4013 1447 4013 2328 
Q 4013 3213 3611 3725 
Q 3209 4238 2522 4238 
z
M 2522 4750 
Q 3503 4750 4090 4092 
Q 4678 3434 4678 2328 
Q 4678 1225 4090 567 
Q 3503 -91 2522 -91 
Q 1538 -91 948 565 
Q 359 1222 359 2328 
Q 359 3434 948 4092 
Q 1538 4750 2522 4750 
z
" transform="scale(0.015625)"/>
       <path id="DejaVuSans-6e" d="M 3513 2113 
L 3513 0 
L 2938 0 
L 2938 2094 
Q 2938 2591 2744 2837 
Q 2550 3084 2163 3084 
Q 1697 3084 1428 2787 
Q 1159 2491 1159 1978 
L 1159 0 
L 581 0 
L 581 3500 
L 1159 3500 
L 1159 2956 
Q 1366 3272 1645 3428 
Q 1925 3584 2291 3584 
Q 2894 3584 3203 3211 
Q 3513 2838 3513 2113 
z
" transform="scale(0.015625)"/>
       <path id="DejaVuSans-20" transform="scale(0.015625)"/>
       <path id="DejaVuSans-54" d="M -19 4666 
L 3928 4666 
L 3928 4134 
L 2272 4134 
L 2272 0 
L 1638 0 
L 1638 4134 
L -19 4134 
L -19 4666 
z
" transform="scale(0.015625)"/>
       <path id="DejaVuSans-68" d="M 3513 2113 
L 3513 0 
L 2938 0 
L 2938 2094 
Q 2938 2591 2744 2837 
Q 2550 3084 2163 3084 
Q 1697 3084 1428 2787 
Q 1159 2491 1159 1978 
L 1159 0 
L 581 0 
L 581 4863 
L 1159 4863 
L 1159 2956 
Q 1366 3272 1645 3428 
Q 1925 3584 2291 3584 
Q 2894 3584 3203 3211 
Q 3513 2838 3513 2113 
z
" transform="scale(0.015625)"/>
       <path id="DejaVuSans-72" d="M 2631 2963 
Q 2534 3019 2420 3045 
Q 2306 3072 2169 3072 
Q 1681 3072 1420 2755 
Q 1159 2438 1159 1844 
L 1159 0 
L 581 0 
L 581 3500 
L 1159 3500 
L 1159 2956 
Q 1341 3275 1631 3429 
Q 1922 3584 2338 3584 
Q 2397 3584 2469 3576 
Q 2541 3569 2628 3553 
L 2631 2963 
z
" transform="scale(0.015625)"/>
       <path id="DejaVuSans-73" d="M 2834 3397 
L 2834 2853 
Q 2591 2978 2328 3040 
Q 2066 3103 1784 3103 
Q 1356 3103 1142 2972 
Q 928 2841 928 2578 
Q 928 2378 1081 2264 
Q 1234 2150 1697 2047 
L 1894 2003 
Q 2506 1872 2764 1633 
Q 3022 1394 3022 966 
Q 3022 478 2636 193 
Q 2250 -91 1575 -91 
Q 1294 -91 989 -36 
Q 684 19 347 128 
L 347 722 
Q 666 556 975 473 
Q 1284 391 1588 391 
Q 1994 391 2212 530 
Q 2431 669 2431 922 
Q 2431 1156 2273 1281 
Q 2116 1406 1581 1522 
L 1381 1569 
Q 847 1681 609 1914 
Q 372 2147 372 2553 
Q 372 3047 722 3315 
Q 1072 3584 1716 3584 
Q 2034 3584 2315 3537 
Q 2597 3491 2834 3397 
z
" transform="scale(0.015625)"/>
      </defs>
      <use xlink:href="#DejaVuSans-4f"/>
      <use xlink:href="#DejaVuSans-6e" x="78.710938"/>
      <use xlink:href="#DejaVuSans-20" x="142.089844"/>
      <use xlink:href="#DejaVuSans-54" x="173.876953"/>
      <use xlink:href="#DejaVuSans-68" x="234.960938"/>
      <use xlink:href="#DejaVuSans-72" x="298.339844"/>
      <use xlink:href="#DejaVuSans-65" x="337.203125"/>
      <use xlink:href="#DejaVuSans-73" x="398.726562"/>
      <use xlink:href="#DejaVuSans-68" x="450.826172"/>
      <use xlink:href="#DejaVuSans-6f" x="514.205078"/>
      <use xlink:href="#DejaVuSans-6c" x="575.386719"/>
      <use xlink:href="#DejaVuSans-64" x="603.169922"/>
     </g>
    </g>
    <g id="line2d_20">
     <path d="M 422.284687 67.174962 
L 432.284687 67.174962 
L 442.284687 67.174962 
" style="fill: none; stroke: #ff7f0e; stroke-width: 1.5; stroke-linecap: square"/>
    </g>
    <g id="text_17">
     <!-- Automation Threshold -->
     <g transform="translate(450.284687 70.674962) scale(0.1 -0.1)">
      <defs>
       <path id="DejaVuSans-41" d="M 2188 4044 
L 1331 1722 
L 3047 1722 
L 2188 4044 
z
M 1831 4666 
L 2547 4666 
L 4325 0 
L 3669 0 
L 3244 1197 
L 1141 1197 
L 716 0 
L 50 0 
L 1831 4666 
z
" transform="scale(0.015625)"/>
       <path id="DejaVuSans-75" d="M 544 1381 
L 544 3500 
L 1119 3500 
L 1119 1403 
Q 1119 906 1312 657 
Q 1506 409 1894 409 
Q 2359 409 2629 706 
Q 2900 1003 2900 1516 
L 2900 3500 
L 3475 3500 
L 3475 0 
L 2900 0 
L 2900 538 
Q 2691 219 2414 64 
Q 2138 -91 1772 -91 
Q 1169 -91 856 284 
Q 544 659 544 1381 
z
M 1991 3584 
L 1991 3584 
z
" transform="scale(0.015625)"/>
       <path id="DejaVuSans-61" d="M 2194 1759 
Q 1497 1759 1228 1600 
Q 959 1441 959 1056 
Q 959 750 1161 570 
Q 1363 391 1709 391 
Q 2188 391 2477 730 
Q 2766 1069 2766 1631 
L 2766 1759 
L 2194 1759 
z
M 3341 1997 
L 3341 0 
L 2766 0 
L 2766 531 
Q 2569 213 2275 61 
Q 1981 -91 1556 -91 
Q 1019 -91 701 211 
Q 384 513 384 1019 
Q 384 1609 779 1909 
Q 1175 2209 1959 2209 
L 2766 2209 
L 2766 2266 
Q 2766 2663 2505 2880 
Q 2244 3097 1772 3097 
Q 1472 3097 1187 3025 
Q 903 2953 641 2809 
L 641 3341 
Q 956 3463 1253 3523 
Q 1550 3584 1831 3584 
Q 2591 3584 2966 3190 
Q 3341 2797 3341 1997 
z
" transform="scale(0.015625)"/>
      </defs>
      <use xlink:href="#DejaVuSans-41"/>
      <use xlink:href="#DejaVuSans-75" x="68.408203"/>
      <use xlink:href="#DejaVuSans-74" x="131.787109"/>
      <use xlink:href="#DejaVuSans-6f" x="170.996094"/>
      <use xlink:href="#DejaVuSans-6d" x="232.177734"/>
      <use xlink:href="#DejaVuSans-61" x="329.589844"/>
      <use xlink:href="#DejaVuSans-74" x="390.869141"/>
      <use xlink:href="#DejaVuSans-69" x="430.078125"/>
      <use xlink:href="#DejaVuSans-6f" x="457.861328"/>
      <use xlink:href="#DejaVuSans-6e" x="519.042969"/>
      <use xlink:href="#DejaVuSans-20" x="582.421875"/>
      <use xlink:href="#DejaVuSans-54" x="614.208984"/>
      <use xlink:href="#DejaVuSans-68" x="675.292969"/>
      <use xlink:href="#DejaVuSans-72" x="738.671875"/>
      <use xlink:href="#DejaVuSans-65" x="777.535156"/>
      <use xlink:href="#DejaVuSans-73" x="839.058594"/>
      <use xlink:href="#DejaVuSans-68" x="891.158203"/>
      <use xlink:href="#DejaVuSans-6f" x="954.537109"/>
      <use xlink:href="#DejaVuSans-6c" x="1015.71875"/>
      <use xlink:href="#DejaVuSans-64" x="1043.501953"/>
     </g>
    </g>
    <g id="line2d_21">
     <path d="M 422.284687 81.853087 
L 432.284687 81.853087 
L 442.284687 81.853087 
" style="fill: none; stroke: #2ca02c; stroke-width: 1.5; stroke-linecap: square"/>
    </g>
    <g id="text_18">
     <!-- Noisy Signal -->
     <g transform="translate(450.284687 85.353087) scale(0.1 -0.1)">
      <defs>
       <path id="DejaVuSans-4e" d="M 628 4666 
L 1478 4666 
L 3547 763 
L 3547 4666 
L 4159 4666 
L 4159 0 
L 3309 0 
L 1241 3903 
L 1241 0 
L 628 0 
L 628 4666 
z
" transform="scale(0.015625)"/>
       <path id="DejaVuSans-79" d="M 2059 -325 
Q 1816 -950 1584 -1140 
Q 1353 -1331 966 -1331 
L 506 -1331 
L 506 -850 
L 844 -850 
Q 1081 -850 1212 -737 
Q 1344 -625 1503 -206 
L 1606 56 
L 191 3500 
L 800 3500 
L 1894 763 
L 2988 3500 
L 3597 3500 
L 2059 -325 
z
" transform="scale(0.015625)"/>
       <path id="DejaVuSans-53" d="M 3425 4513 
L 3425 3897 
Q 3066 4069 2747 4153 
Q 2428 4238 2131 4238 
Q 1616 4238 1336 4038 
Q 1056 3838 1056 3469 
Q 1056 3159 1242 3001 
Q 1428 2844 1947 2747 
L 2328 2669 
Q 3034 2534 3370 2195 
Q 3706 1856 3706 1288 
Q 3706 609 3251 259 
Q 2797 -91 1919 -91 
Q 1588 -91 1214 -16 
Q 841 59 441 206 
L 441 856 
Q 825 641 1194 531 
Q 1563 422 1919 422 
Q 2459 422 2753 634 
Q 3047 847 3047 1241 
Q 3047 1584 2836 1778 
Q 2625 1972 2144 2069 
L 1759 2144 
Q 1053 2284 737 2584 
Q 422 2884 422 3419 
Q 422 4038 858 4394 
Q 1294 4750 2059 4750 
Q 2388 4750 2728 4690 
Q 3069 4631 3425 4513 
z
" transform="scale(0.015625)"/>
       <path id="DejaVuSans-67" d="M 2906 1791 
Q 2906 2416 2648 2759 
Q 2391 3103 1925 3103 
Q 1463 3103 1205 2759 
Q 947 2416 947 1791 
Q 947 1169 1205 825 
Q 1463 481 1925 481 
Q 2391 481 2648 825 
Q 2906 1169 2906 1791 
z
M 3481 434 
Q 3481 -459 3084 -895 
Q 2688 -1331 1869 -1331 
Q 1566 -1331 1297 -1286 
Q 1028 -1241 775 -1147 
L 775 -588 
Q 1028 -725 1275 -790 
Q 1522 -856 1778 -856 
Q 2344 -856 2625 -561 
Q 2906 -266 2906 331 
L 2906 616 
Q 2728 306 2450 153 
Q 2172 0 1784 0 
Q 1141 0 747 490 
Q 353 981 353 1791 
Q 353 2603 747 3093 
Q 1141 3584 1784 3584 
Q 2172 3584 2450 3431 
Q 2728 3278 2906 2969 
L 2906 3500 
L 3481 3500 
L 3481 434 
z
" transform="scale(0.015625)"/>
      </defs>
      <use xlink:href="#DejaVuSans-4e"/>
      <use xlink:href="#DejaVuSans-6f" x="74.804688"/>
      <use xlink:href="#DejaVuSans-69" x="135.986328"/>
      <use xlink:href="#DejaVuSans-73" x="163.769531"/>
      <use xlink:href="#DejaVuSans-79" x="215.869141"/>
      <use xlink:href="#DejaVuSans-20" x="275.048828"/>
      <use xlink:href="#DejaVuSans-53" x="306.835938"/>
      <use xlink:href="#DejaVuSans-69" x="370.3125"/>
      <use xlink:href="#DejaVuSans-67" x="398.095703"/>
      <use xlink:href="#DejaVuSans-6e" x="461.572266"/>
      <use xlink:href="#DejaVuSans-61" x="524.951172"/>
      <use xlink:href="#DejaVuSans-6c" x="586.230469"/>
     </g>
    </g>
    <g id="line2d_22">
     <path d="M 422.284687 103.169962 
L 432.284687 103.169962 
L 442.284687 103.169962 
" style="fill: none; stroke: #d62728; stroke-width: 1.5; stroke-linecap: square"/>
    </g>
    <g id="text_19">
     <!-- CleanSignal -->
     <g transform="translate(450.284687 100.031212) scale(0.1 -0.1)">
      <defs>
       <path id="DejaVuSans-43" d="M 4122 4306 
L 4122 3641 
Q 3803 3938 3442 4084 
Q 3081 4231 2675 4231 
Q 1875 4231 1450 3742 
Q 1025 3253 1025 2328 
Q 1025 1406 1450 917 
Q 1875 428 2675 428 
Q 3081 428 3442 575 
Q 3803 722 4122 1019 
L 4122 359 
Q 3791 134 3420 21 
Q 3050 -91 2638 -91 
Q 1578 -91 968 557 
Q 359 1206 359 2328 
Q 359 3453 968 4101 
Q 1578 4750 2638 4750 
Q 3056 4750 3426 4639 
Q 3797 4528 4122 4306 
z
" transform="scale(0.015625)"/>
      </defs>
      <use xlink:href="#DejaVuSans-43"/>
      <use xlink:href="#DejaVuSans-6c" x="69.824219"/>
      <use xlink:href="#DejaVuSans-65" x="97.607422"/>
      <use xlink:href="#DejaVuSans-61" x="159.130859"/>
      <use xlink:href="#DejaVuSans-6e" x="220.410156"/>
      <use xlink:href="#DejaVuSans-53" x="283.789062"/>
      <use xlink:href="#DejaVuSans-69" x="347.265625"/>
      <use xlink:href="#DejaVuSans-67" x="375.048828"/>
      <use xlink:href="#DejaVuSans-6e" x="438.525391"/>
      <use xlink:href="#DejaVuSans-61" x="501.904297"/>
      <use xlink:href="#DejaVuSans-6c" x="563.183594"/>
     </g>
     <!-- Sampling Rate: 87.616 Hz -->
     <g transform="translate(450.284687 111.229025) scale(0.1 -0.1)">
      <defs>
       <path id="DejaVuSans-70" d="M 1159 525 
L 1159 -1331 
L 581 -1331 
L 581 3500 
L 1159 3500 
L 1159 2969 
Q 1341 3281 1617 3432 
Q 1894 3584 2278 3584 
Q 2916 3584 3314 3078 
Q 3713 2572 3713 1747 
Q 3713 922 3314 415 
Q 2916 -91 2278 -91 
Q 1894 -91 1617 61 
Q 1341 213 1159 525 
z
M 3116 1747 
Q 3116 2381 2855 2742 
Q 2594 3103 2138 3103 
Q 1681 3103 1420 2742 
Q 1159 2381 1159 1747 
Q 1159 1113 1420 752 
Q 1681 391 2138 391 
Q 2594 391 2855 752 
Q 3116 1113 3116 1747 
z
" transform="scale(0.015625)"/>
       <path id="DejaVuSans-52" d="M 2841 2188 
Q 3044 2119 3236 1894 
Q 3428 1669 3622 1275 
L 4263 0 
L 3584 0 
L 2988 1197 
Q 2756 1666 2539 1819 
Q 2322 1972 1947 1972 
L 1259 1972 
L 1259 0 
L 628 0 
L 628 4666 
L 2053 4666 
Q 2853 4666 3247 4331 
Q 3641 3997 3641 3322 
Q 3641 2881 3436 2590 
Q 3231 2300 2841 2188 
z
M 1259 4147 
L 1259 2491 
L 2053 2491 
Q 2509 2491 2742 2702 
Q 2975 2913 2975 3322 
Q 2975 3731 2742 3939 
Q 2509 4147 2053 4147 
L 1259 4147 
z
" transform="scale(0.015625)"/>
       <path id="DejaVuSans-3a" d="M 750 794 
L 1409 794 
L 1409 0 
L 750 0 
L 750 794 
z
M 750 3309 
L 1409 3309 
L 1409 2516 
L 750 2516 
L 750 3309 
z
" transform="scale(0.015625)"/>
       <path id="DejaVuSans-37" d="M 525 4666 
L 3525 4666 
L 3525 4397 
L 1831 0 
L 1172 0 
L 2766 4134 
L 525 4134 
L 525 4666 
z
" transform="scale(0.015625)"/>
       <path id="DejaVuSans-48" d="M 628 4666 
L 1259 4666 
L 1259 2753 
L 3553 2753 
L 3553 4666 
L 4184 4666 
L 4184 0 
L 3553 0 
L 3553 2222 
L 1259 2222 
L 1259 0 
L 628 0 
L 628 4666 
z
" transform="scale(0.015625)"/>
       <path id="DejaVuSans-7a" d="M 353 3500 
L 3084 3500 
L 3084 2975 
L 922 459 
L 3084 459 
L 3084 0 
L 275 0 
L 275 525 
L 2438 3041 
L 353 3041 
L 353 3500 
z
" transform="scale(0.015625)"/>
      </defs>
      <use xlink:href="#DejaVuSans-53"/>
      <use xlink:href="#DejaVuSans-61" x="63.476562"/>
      <use xlink:href="#DejaVuSans-6d" x="124.755859"/>
      <use xlink:href="#DejaVuSans-70" x="222.167969"/>
      <use xlink:href="#DejaVuSans-6c" x="285.644531"/>
      <use xlink:href="#DejaVuSans-69" x="313.427734"/>
      <use xlink:href="#DejaVuSans-6e" x="341.210938"/>
      <use xlink:href="#DejaVuSans-67" x="404.589844"/>
      <use xlink:href="#DejaVuSans-20" x="468.066406"/>
      <use xlink:href="#DejaVuSans-52" x="499.853516"/>
      <use xlink:href="#DejaVuSans-61" x="567.085938"/>
      <use xlink:href="#DejaVuSans-74" x="628.365234"/>
      <use xlink:href="#DejaVuSans-65" x="667.574219"/>
      <use xlink:href="#DejaVuSans-3a" x="729.097656"/>
      <use xlink:href="#DejaVuSans-20" x="762.789062"/>
      <use xlink:href="#DejaVuSans-38" x="794.576172"/>
      <use xlink:href="#DejaVuSans-37" x="858.199219"/>
      <use xlink:href="#DejaVuSans-2e" x="921.822266"/>
      <use xlink:href="#DejaVuSans-36" x="953.609375"/>
      <use xlink:href="#DejaVuSans-31" x="1017.232422"/>
      <use xlink:href="#DejaVuSans-36" x="1080.855469"/>
      <use xlink:href="#DejaVuSans-20" x="1144.478516"/>
      <use xlink:href="#DejaVuSans-48" x="1176.265625"/>
      <use xlink:href="#DejaVuSans-7a" x="1251.460938"/>
     </g>
    </g>
   </g>
  </g>
 </g>
 <defs>
  <clipPath id="pc01eac669a">
   <rect x="81.9" y="39.3984" width="507.78" height="252.8064"/>
  </clipPath>
 </defs>
</svg>
