<?xml version="1.0" encoding="utf-8" standalone="no"?>
<!DOCTYPE svg PUBLIC "-//W3C//DTD SVG 1.1//EN"
  "http://www.w3.org/Graphics/SVG/1.1/DTD/svg11.dtd">
<svg xmlns:xlink="http://www.w3.org/1999/xlink" width="460.8pt" height="345.6pt" viewBox="0 0 460.8 345.6" xmlns="http://www.w3.org/2000/svg" version="1.1">
 <metadata>
  <rdf:RDF xmlns:dc="http://purl.org/dc/elements/1.1/" xmlns:cc="http://creativecommons.org/ns#" xmlns:rdf="http://www.w3.org/1999/02/22-rdf-syntax-ns#">
   <cc:Work>
    <dc:type rdf:resource="http://purl.org/dc/dcmitype/StillImage"/>
    <dc:date>2023-12-04T17:05:58.968235</dc:date>
    <dc:format>image/svg+xml</dc:format>
    <dc:creator>
     <cc:Agent>
      <dc:title>Matplotlib v3.7.1, https://matplotlib.org/</dc:title>
     </cc:Agent>
    </dc:creator>
   </cc:Work>
  </rdf:RDF>
 </metadata>
 <defs>
  <style type="text/css">*{stroke-linejoin: round; stroke-linecap: butt}</style>
 </defs>
 <g id="figure_1">
  <g id="patch_1">
   <path d="M 0 345.6 
L 460.8 345.6 
L 460.8 0 
L 0 0 
z
" style="fill: #fffafa"/>
  </g>
  <g id="axes_1">
   <g id="patch_2">
    <path d="M 57.6 307.584 
L 414.72 307.584 
L 414.72 41.472 
L 57.6 41.472 
z
" style="fill: #fffafa"/>
   </g>
   <g id="matplotlib.axis_1">
    <g id="xtick_1">
     <g id="line2d_1">
      <defs>
       <path id="mbb52674f68" d="M 0 0 
L 0 3.5 
" style="stroke: #000000; stroke-width: 0.8"/>
      </defs>
      <g>
       <use xlink:href="#mbb52674f68" x="73.832727" y="307.584" style="stroke: #000000; stroke-width: 0.8"/>
      </g>
     </g>
     <g id="text_1">
      <!-- 0 -->
      <g transform="translate(70.651477 322.182437) scale(0.1 -0.1)">
       <defs>
        <path id="DejaVuSans-30" d="M 2034 4250 
Q 1547 4250 1301 3770 
Q 1056 3291 1056 2328 
Q 1056 1369 1301 889 
Q 1547 409 2034 409 
Q 2525 409 2770 889 
Q 3016 1369 3016 2328 
Q 3016 3291 2770 3770 
Q 2525 4250 2034 4250 
z
M 2034 4750 
Q 2819 4750 3233 4129 
Q 3647 3509 3647 2328 
Q 3647 1150 3233 529 
Q 2819 -91 2034 -91 
Q 1250 -91 836 529 
Q 422 1150 422 2328 
Q 422 3509 836 4129 
Q 1250 4750 2034 4750 
z
" transform="scale(0.015625)"/>
       </defs>
       <use xlink:href="#DejaVuSans-30"/>
      </g>
     </g>
    </g>
    <g id="xtick_2">
     <g id="line2d_2">
      <g>
       <use xlink:href="#mbb52674f68" x="138.893758" y="307.584" style="stroke: #000000; stroke-width: 0.8"/>
      </g>
     </g>
     <g id="text_2">
      <!-- 100 -->
      <g transform="translate(129.350008 322.182437) scale(0.1 -0.1)">
       <defs>
        <path id="DejaVuSans-31" d="M 794 531 
L 1825 531 
L 1825 4091 
L 703 3866 
L 703 4441 
L 1819 4666 
L 2450 4666 
L 2450 531 
L 3481 531 
L 3481 0 
L 794 0 
L 794 531 
z
" transform="scale(0.015625)"/>
       </defs>
       <use xlink:href="#DejaVuSans-31"/>
       <use xlink:href="#DejaVuSans-30" x="63.623047"/>
       <use xlink:href="#DejaVuSans-30" x="127.246094"/>
      </g>
     </g>
    </g>
    <g id="xtick_3">
     <g id="line2d_3">
      <g>
       <use xlink:href="#mbb52674f68" x="203.95479" y="307.584" style="stroke: #000000; stroke-width: 0.8"/>
      </g>
     </g>
     <g id="text_3">
      <!-- 200 -->
      <g transform="translate(194.41104 322.182437) scale(0.1 -0.1)">
       <defs>
        <path id="DejaVuSans-32" d="M 1228 531 
L 3431 531 
L 3431 0 
L 469 0 
L 469 531 
Q 828 903 1448 1529 
Q 2069 2156 2228 2338 
Q 2531 2678 2651 2914 
Q 2772 3150 2772 3378 
Q 2772 3750 2511 3984 
Q 2250 4219 1831 4219 
Q 1534 4219 1204 4116 
Q 875 4013 500 3803 
L 500 4441 
Q 881 4594 1212 4672 
Q 1544 4750 1819 4750 
Q 2544 4750 2975 4387 
Q 3406 4025 3406 3419 
Q 3406 3131 3298 2873 
Q 3191 2616 2906 2266 
Q 2828 2175 2409 1742 
Q 1991 1309 1228 531 
z
" transform="scale(0.015625)"/>
       </defs>
       <use xlink:href="#DejaVuSans-32"/>
       <use xlink:href="#DejaVuSans-30" x="63.623047"/>
       <use xlink:href="#DejaVuSans-30" x="127.246094"/>
      </g>
     </g>
    </g>
    <g id="xtick_4">
     <g id="line2d_4">
      <g>
       <use xlink:href="#mbb52674f68" x="269.015821" y="307.584" style="stroke: #000000; stroke-width: 0.8"/>
      </g>
     </g>
     <g id="text_4">
      <!-- 300 -->
      <g transform="translate(259.472071 322.182437) scale(0.1 -0.1)">
       <defs>
        <path id="DejaVuSans-33" d="M 2597 2516 
Q 3050 2419 3304 2112 
Q 3559 1806 3559 1356 
Q 3559 666 3084 287 
Q 2609 -91 1734 -91 
Q 1441 -91 1130 -33 
Q 819 25 488 141 
L 488 750 
Q 750 597 1062 519 
Q 1375 441 1716 441 
Q 2309 441 2620 675 
Q 2931 909 2931 1356 
Q 2931 1769 2642 2001 
Q 2353 2234 1838 2234 
L 1294 2234 
L 1294 2753 
L 1863 2753 
Q 2328 2753 2575 2939 
Q 2822 3125 2822 3475 
Q 2822 3834 2567 4026 
Q 2313 4219 1838 4219 
Q 1578 4219 1281 4162 
Q 984 4106 628 3988 
L 628 4550 
Q 988 4650 1302 4700 
Q 1616 4750 1894 4750 
Q 2613 4750 3031 4423 
Q 3450 4097 3450 3541 
Q 3450 3153 3228 2886 
Q 3006 2619 2597 2516 
z
" transform="scale(0.015625)"/>
       </defs>
       <use xlink:href="#DejaVuSans-33"/>
       <use xlink:href="#DejaVuSans-30" x="63.623047"/>
       <use xlink:href="#DejaVuSans-30" x="127.246094"/>
      </g>
     </g>
    </g>
    <g id="xtick_5">
     <g id="line2d_5">
      <g>
       <use xlink:href="#mbb52674f68" x="334.076852" y="307.584" style="stroke: #000000; stroke-width: 0.8"/>
      </g>
     </g>
     <g id="text_5">
      <!-- 400 -->
      <g transform="translate(324.533102 322.182437) scale(0.1 -0.1)">
       <defs>
        <path id="DejaVuSans-34" d="M 2419 4116 
L 825 1625 
L 2419 1625 
L 2419 4116 
z
M 2253 4666 
L 3047 4666 
L 3047 1625 
L 3713 1625 
L 3713 1100 
L 3047 1100 
L 3047 0 
L 2419 0 
L 2419 1100 
L 313 1100 
L 313 1709 
L 2253 4666 
z
" transform="scale(0.015625)"/>
       </defs>
       <use xlink:href="#DejaVuSans-34"/>
       <use xlink:href="#DejaVuSans-30" x="63.623047"/>
       <use xlink:href="#DejaVuSans-30" x="127.246094"/>
      </g>
     </g>
    </g>
    <g id="xtick_6">
     <g id="line2d_6">
      <g>
       <use xlink:href="#mbb52674f68" x="399.137883" y="307.584" style="stroke: #000000; stroke-width: 0.8"/>
      </g>
     </g>
     <g id="text_6">
      <!-- 500 -->
      <g transform="translate(389.594133 322.182437) scale(0.1 -0.1)">
       <defs>
        <path id="DejaVuSans-35" d="M 691 4666 
L 3169 4666 
L 3169 4134 
L 1269 4134 
L 1269 2991 
Q 1406 3038 1543 3061 
Q 1681 3084 1819 3084 
Q 2600 3084 3056 2656 
Q 3513 2228 3513 1497 
Q 3513 744 3044 326 
Q 2575 -91 1722 -91 
Q 1428 -91 1123 -41 
Q 819 9 494 109 
L 494 744 
Q 775 591 1075 516 
Q 1375 441 1709 441 
Q 2250 441 2565 725 
Q 2881 1009 2881 1497 
Q 2881 1984 2565 2268 
Q 2250 2553 1709 2553 
Q 1456 2553 1204 2497 
Q 953 2441 691 2322 
L 691 4666 
z
" transform="scale(0.015625)"/>
       </defs>
       <use xlink:href="#DejaVuSans-35"/>
       <use xlink:href="#DejaVuSans-30" x="63.623047"/>
       <use xlink:href="#DejaVuSans-30" x="127.246094"/>
      </g>
     </g>
    </g>
   </g>
   <g id="matplotlib.axis_2">
    <g id="ytick_1">
     <g id="line2d_7">
      <defs>
       <path id="me2c3791d4c" d="M 0 0 
L -3.5 0 
" style="stroke: #000000; stroke-width: 0.8"/>
      </defs>
      <g>
       <use xlink:href="#me2c3791d4c" x="57.6" y="307.584" style="stroke: #000000; stroke-width: 0.8"/>
      </g>
     </g>
     <g id="text_7">
      <!-- 0.0 -->
      <g transform="translate(34.696875 311.383219) scale(0.1 -0.1)">
       <defs>
        <path id="DejaVuSans-2e" d="M 684 794 
L 1344 794 
L 1344 0 
L 684 0 
L 684 794 
z
" transform="scale(0.015625)"/>
       </defs>
       <use xlink:href="#DejaVuSans-30"/>
       <use xlink:href="#DejaVuSans-2e" x="63.623047"/>
       <use xlink:href="#DejaVuSans-30" x="95.410156"/>
      </g>
     </g>
    </g>
    <g id="ytick_2">
     <g id="line2d_8">
      <g>
       <use xlink:href="#me2c3791d4c" x="57.6" y="272.1024" style="stroke: #000000; stroke-width: 0.8"/>
      </g>
     </g>
     <g id="text_8">
      <!-- 0.2 -->
      <g transform="translate(34.696875 275.901619) scale(0.1 -0.1)">
       <use xlink:href="#DejaVuSans-30"/>
       <use xlink:href="#DejaVuSans-2e" x="63.623047"/>
       <use xlink:href="#DejaVuSans-32" x="95.410156"/>
      </g>
     </g>
    </g>
    <g id="ytick_3">
     <g id="line2d_9">
      <g>
       <use xlink:href="#me2c3791d4c" x="57.6" y="236.6208" style="stroke: #000000; stroke-width: 0.8"/>
      </g>
     </g>
     <g id="text_9">
      <!-- 0.4 -->
      <g transform="translate(34.696875 240.420019) scale(0.1 -0.1)">
       <use xlink:href="#DejaVuSans-30"/>
       <use xlink:href="#DejaVuSans-2e" x="63.623047"/>
       <use xlink:href="#DejaVuSans-34" x="95.410156"/>
      </g>
     </g>
    </g>
    <g id="ytick_4">
     <g id="line2d_10">
      <g>
       <use xlink:href="#me2c3791d4c" x="57.6" y="201.1392" style="stroke: #000000; stroke-width: 0.8"/>
      </g>
     </g>
     <g id="text_10">
      <!-- 0.6 -->
      <g transform="translate(34.696875 204.938419) scale(0.1 -0.1)">
       <defs>
        <path id="DejaVuSans-36" d="M 2113 2584 
Q 1688 2584 1439 2293 
Q 1191 2003 1191 1497 
Q 1191 994 1439 701 
Q 1688 409 2113 409 
Q 2538 409 2786 701 
Q 3034 994 3034 1497 
Q 3034 2003 2786 2293 
Q 2538 2584 2113 2584 
z
M 3366 4563 
L 3366 3988 
Q 3128 4100 2886 4159 
Q 2644 4219 2406 4219 
Q 1781 4219 1451 3797 
Q 1122 3375 1075 2522 
Q 1259 2794 1537 2939 
Q 1816 3084 2150 3084 
Q 2853 3084 3261 2657 
Q 3669 2231 3669 1497 
Q 3669 778 3244 343 
Q 2819 -91 2113 -91 
Q 1303 -91 875 529 
Q 447 1150 447 2328 
Q 447 3434 972 4092 
Q 1497 4750 2381 4750 
Q 2619 4750 2861 4703 
Q 3103 4656 3366 4563 
z
" transform="scale(0.015625)"/>
       </defs>
       <use xlink:href="#DejaVuSans-30"/>
       <use xlink:href="#DejaVuSans-2e" x="63.623047"/>
       <use xlink:href="#DejaVuSans-36" x="95.410156"/>
      </g>
     </g>
    </g>
    <g id="ytick_5">
     <g id="line2d_11">
      <g>
       <use xlink:href="#me2c3791d4c" x="57.6" y="165.6576" style="stroke: #000000; stroke-width: 0.8"/>
      </g>
     </g>
     <g id="text_11">
      <!-- 0.8 -->
      <g transform="translate(34.696875 169.456819) scale(0.1 -0.1)">
       <defs>
        <path id="DejaVuSans-38" d="M 2034 2216 
Q 1584 2216 1326 1975 
Q 1069 1734 1069 1313 
Q 1069 891 1326 650 
Q 1584 409 2034 409 
Q 2484 409 2743 651 
Q 3003 894 3003 1313 
Q 3003 1734 2745 1975 
Q 2488 2216 2034 2216 
z
M 1403 2484 
Q 997 2584 770 2862 
Q 544 3141 544 3541 
Q 544 4100 942 4425 
Q 1341 4750 2034 4750 
Q 2731 4750 3128 4425 
Q 3525 4100 3525 3541 
Q 3525 3141 3298 2862 
Q 3072 2584 2669 2484 
Q 3125 2378 3379 2068 
Q 3634 1759 3634 1313 
Q 3634 634 3220 271 
Q 2806 -91 2034 -91 
Q 1263 -91 848 271 
Q 434 634 434 1313 
Q 434 1759 690 2068 
Q 947 2378 1403 2484 
z
M 1172 3481 
Q 1172 3119 1398 2916 
Q 1625 2713 2034 2713 
Q 2441 2713 2670 2916 
Q 2900 3119 2900 3481 
Q 2900 3844 2670 4047 
Q 2441 4250 2034 4250 
Q 1625 4250 1398 4047 
Q 1172 3844 1172 3481 
z
" transform="scale(0.015625)"/>
       </defs>
       <use xlink:href="#DejaVuSans-30"/>
       <use xlink:href="#DejaVuSans-2e" x="63.623047"/>
       <use xlink:href="#DejaVuSans-38" x="95.410156"/>
      </g>
     </g>
    </g>
    <g id="ytick_6">
     <g id="line2d_12">
      <g>
       <use xlink:href="#me2c3791d4c" x="57.6" y="130.176" style="stroke: #000000; stroke-width: 0.8"/>
      </g>
     </g>
     <g id="text_12">
      <!-- 1.0 -->
      <g transform="translate(34.696875 133.975219) scale(0.1 -0.1)">
       <use xlink:href="#DejaVuSans-31"/>
       <use xlink:href="#DejaVuSans-2e" x="63.623047"/>
       <use xlink:href="#DejaVuSans-30" x="95.410156"/>
      </g>
     </g>
    </g>
    <g id="ytick_7">
     <g id="line2d_13">
      <g>
       <use xlink:href="#me2c3791d4c" x="57.6" y="94.6944" style="stroke: #000000; stroke-width: 0.8"/>
      </g>
     </g>
     <g id="text_13">
      <!-- 1.2 -->
      <g transform="translate(34.696875 98.493619) scale(0.1 -0.1)">
       <use xlink:href="#DejaVuSans-31"/>
       <use xlink:href="#DejaVuSans-2e" x="63.623047"/>
       <use xlink:href="#DejaVuSans-32" x="95.410156"/>
      </g>
     </g>
    </g>
    <g id="ytick_8">
     <g id="line2d_14">
      <g>
       <use xlink:href="#me2c3791d4c" x="57.6" y="59.2128" style="stroke: #000000; stroke-width: 0.8"/>
      </g>
     </g>
     <g id="text_14">
      <!-- 1.4 -->
      <g transform="translate(34.696875 63.012019) scale(0.1 -0.1)">
       <use xlink:href="#DejaVuSans-31"/>
       <use xlink:href="#DejaVuSans-2e" x="63.623047"/>
       <use xlink:href="#DejaVuSans-34" x="95.410156"/>
      </g>
     </g>
    </g>
   </g>
   <g id="line2d_15">
    <path d="M 73.832727 218.88 
L 398.487273 218.88 
L 398.487273 218.88 
" clip-path="url(#p6da97dfc07)" style="fill: none; stroke: #1f77b4; stroke-width: 1.5; stroke-linecap: square"/>
   </g>
   <g id="line2d_16">
    <path d="M 73.832727 183.3984 
L 398.487273 183.3984 
L 398.487273 183.3984 
" clip-path="url(#p6da97dfc07)" style="fill: none; stroke: #ff7f0e; stroke-width: 1.5; stroke-linecap: square"/>
   </g>
   <g id="line2d_17">
    <path d="M 73.832727 278.453606 
L 74.483338 278.96809 
L 75.133948 278.790682 
L 75.784558 278.790682 
L 76.435169 278.276198 
L 77.085779 278.631014 
L 78.386999 278.631014 
L 79.03761 278.453606 
L 80.33883 278.790682 
L 80.989441 278.453606 
L 81.640051 278.631014 
L 82.290661 278.09879 
L 82.941272 277.921382 
L 83.591882 274.97641 
L 84.242492 276.5376 
L 85.543713 281.398579 
L 86.194323 287.820749 
L 87.495544 287.820749 
L 88.146154 287.643341 
L 88.796764 287.820749 
L 89.447375 287.465933 
L 90.097985 279.659981 
L 90.748595 280.52928 
L 92.049816 280.884096 
L 92.700426 279.837389 
L 93.351037 286.419226 
L 94.001647 287.465933 
L 94.652257 280.52928 
L 95.302868 284.698368 
L 95.953478 285.035443 
L 96.604088 285.212851 
L 97.254698 285.212851 
L 98.555919 285.567667 
L 99.206529 286.259558 
L 99.85714 285.390259 
L 100.50775 285.390259 
L 101.808971 285.035443 
L 102.459581 285.567667 
L 103.110191 284.698368 
L 103.760802 284.343552 
L 104.411412 284.52096 
L 105.062022 284.52096 
L 105.712633 284.166144 
L 106.363243 284.006477 
L 107.013853 284.166144 
L 107.664463 283.829069 
L 109.616294 281.913062 
L 110.266905 280.351872 
L 110.917515 279.145498 
L 111.568125 278.453606 
L 112.218736 276.200525 
L 112.869346 276.200525 
L 114.170567 274.284518 
L 114.821177 273.947443 
L 115.471787 273.078144 
L 116.122398 272.54592 
L 116.773008 272.386253 
L 117.423618 272.386253 
L 118.074228 271.854029 
L 118.724839 271.854029 
L 119.375449 271.694362 
L 120.026059 271.854029 
L 120.67667 270.825062 
L 121.32728 270.825062 
L 121.97789 269.778355 
L 122.628501 269.600947 
L 123.929721 268.909056 
L 124.580332 268.731648 
L 125.230942 268.039757 
L 125.881552 267.702682 
L 126.532163 267.01079 
L 127.182773 266.833382 
L 127.833383 266.141491 
L 128.483993 266.141491 
L 129.134604 265.4496 
L 129.785214 264.580301 
L 130.435824 264.757709 
L 132.387655 261.45792 
L 133.038266 261.280512 
L 133.688876 260.588621 
L 134.339486 260.411213 
L 135.640707 258.512947 
L 136.291317 259.89673 
L 136.941927 258.512947 
L 137.592538 257.980723 
L 138.243148 257.643648 
L 138.893758 257.643648 
L 140.194979 255.550234 
L 140.845589 254.858342 
L 143.448031 250.706995 
L 144.098641 249.145805 
L 144.749251 248.099098 
L 145.399862 247.407206 
L 146.050472 244.976717 
L 146.701082 244.976717 
L 147.351692 244.107418 
L 148.002303 243.592934 
L 149.303523 242.209152 
L 149.954134 241.339853 
L 150.604744 241.339853 
L 152.556575 240.82537 
L 154.508406 240.82537 
L 155.159016 240.985037 
L 155.809627 240.647962 
L 156.460237 240.985037 
L 157.110847 240.82537 
L 158.412068 240.115738 
L 160.363899 239.601254 
L 161.014509 238.909363 
L 161.665119 238.554547 
L 162.31573 237.862656 
L 162.96634 237.525581 
L 163.61695 237.011098 
L 164.918171 235.609574 
L 165.568781 235.095091 
L 166.219392 233.533901 
L 166.870002 233.019418 
L 168.171222 231.458227 
L 168.821833 229.719629 
L 169.472443 229.205146 
L 170.123053 227.98103 
L 170.773664 226.41984 
L 172.725495 220.707302 
L 173.376105 218.276813 
L 174.026715 217.407514 
L 174.677326 219.838003 
L 175.327936 215.154432 
L 175.978546 215.33184 
L 176.629156 213.77065 
L 177.279767 211.677235 
L 177.930377 207.525888 
L 178.580987 205.78729 
L 179.231598 203.711616 
L 179.882208 203.179392 
L 180.532818 198.158746 
L 181.183429 197.80393 
L 182.484649 199.205453 
L 183.13526 195.37344 
L 183.78587 193.989658 
L 184.43648 194.167066 
L 185.087091 194.521882 
L 185.737701 193.81225 
L 186.388311 189.83831 
L 187.038921 190.70761 
L 187.689532 188.969011 
L 188.340142 187.585229 
L 188.990752 188.27712 
L 189.641363 186.024038 
L 190.291973 192.428467 
L 190.942583 196.242739 
L 191.593194 192.960691 
L 192.243804 196.774963 
L 192.894414 191.222093 
L 193.545025 188.436787 
L 194.195635 188.791603 
L 194.846245 192.960691 
L 195.496856 192.605875 
L 196.147466 191.222093 
L 196.798076 183.593549 
L 197.448686 179.424461 
L 198.749907 175.610189 
L 199.400517 175.787597 
L 200.051128 175.432781 
L 200.701738 176.993971 
L 201.352348 173.87159 
L 202.653569 172.487808 
L 203.304179 172.3104 
L 203.95479 171.618509 
L 204.6054 171.281434 
L 205.25601 171.618509 
L 205.906621 171.441101 
L 206.557231 170.926618 
L 207.207841 170.74921 
L 207.858451 170.057318 
L 208.509062 170.234726 
L 209.159672 169.365427 
L 209.810282 167.467162 
L 210.460893 169.188019 
L 211.111503 167.981645 
L 211.762113 167.804237 
L 212.412724 169.365427 
L 213.063334 171.441101 
L 213.713944 171.281434 
L 214.364555 170.589542 
L 215.015165 170.589542 
L 215.665775 170.412134 
L 217.617606 169.365427 
L 218.268216 168.496128 
L 218.918827 167.981645 
L 219.569437 130.176 
L 232.581643 130.176 
L 233.232254 161.914291 
L 233.882864 168.336461 
L 234.533474 168.496128 
L 235.834695 168.496128 
L 236.485305 168.850944 
L 237.135915 168.336461 
L 238.437136 169.028352 
L 239.087746 169.188019 
L 239.738357 169.897651 
L 240.388967 170.234726 
L 241.039577 171.104026 
L 242.991408 172.665216 
L 244.292629 174.74089 
L 244.943239 176.479488 
L 245.59385 177.685862 
L 246.24446 179.779277 
L 246.89507 180.648576 
L 248.196291 184.977331 
L 248.846901 185.84663 
L 249.497511 186.361114 
L 250.148122 188.099712 
L 250.798732 190.530202 
L 251.449342 191.736576 
L 252.099953 194.344474 
L 252.750563 194.681549 
L 253.401173 200.057011 
L 254.702394 204.580915 
L 256.003615 209.956378 
L 256.654225 212.723942 
L 257.304835 214.977024 
L 257.955445 216.715622 
L 258.606056 218.968704 
L 259.256666 224.166758 
L 259.907276 227.643955 
L 261.208497 231.103411 
L 261.859107 232.150118 
L 263.810938 236.141798 
L 264.461549 234.580608 
L 265.112159 231.795302 
L 265.762769 232.327526 
L 266.413379 232.664602 
L 267.06399 233.356493 
L 267.7146 234.580608 
L 268.36521 234.740275 
L 269.015821 235.786982 
L 269.666431 236.301466 
L 270.967652 237.862656 
L 271.618262 239.264179 
L 272.268872 240.985037 
L 272.919483 252.782669 
L 273.570093 241.162445 
L 274.220703 240.82537 
L 274.871314 240.82537 
L 275.521924 240.647962 
L 280.076196 240.647962 
L 280.726806 240.82537 
L 284.630468 240.82537 
L 285.281079 240.985037 
L 285.931689 240.82537 
L 289.835351 240.82537 
L 290.485961 240.647962 
L 291.136571 240.82537 
L 295.690844 240.82537 
L 296.341454 240.647962 
L 296.992064 240.82537 
L 309.35366 240.82537 
L 310.00427 240.647962 
L 310.654881 240.82537 
L 311.956101 240.82537 
L 312.606712 240.647962 
L 313.257322 240.82537 
L 314.558543 240.82537 
L 315.209153 240.647962 
L 315.859763 240.647962 
L 316.510373 240.82537 
L 317.160984 240.647962 
L 317.811594 240.647962 
L 318.462204 240.82537 
L 319.112815 240.647962 
L 324.968308 240.647962 
L 325.618918 240.470554 
L 326.269528 240.647962 
L 327.570749 240.647962 
L 328.221359 240.82537 
L 328.871969 240.647962 
L 334.076852 240.647962 
L 334.727462 240.470554 
L 335.378073 240.647962 
L 343.185396 240.647962 
L 343.836007 240.470554 
L 344.486617 240.470554 
L 345.137227 240.647962 
L 346.438448 240.647962 
L 347.089058 240.82537 
L 347.739668 240.82537 
L 349.040889 240.470554 
L 349.691499 240.647962 
L 353.595161 240.647962 
L 354.245772 240.470554 
L 354.896382 240.470554 
L 355.546992 240.647962 
L 360.751875 240.647962 
L 361.402485 240.470554 
L 362.053095 240.647962 
L 362.703706 240.470554 
L 363.354316 240.470554 
L 364.004926 240.647962 
L 364.655537 240.647962 
L 365.306147 240.470554 
L 365.956757 240.470554 
L 366.607367 240.647962 
L 367.257978 240.647962 
L 367.908588 240.470554 
L 368.559198 240.470554 
L 369.209809 240.647962 
L 369.860419 240.470554 
L 370.511029 240.470554 
L 371.16164 240.647962 
L 371.81225 240.647962 
L 372.46286 240.470554 
L 373.113471 240.647962 
L 373.764081 240.470554 
L 374.414691 240.647962 
L 377.017132 240.647962 
L 377.667743 240.470554 
L 378.318353 240.470554 
L 378.968963 240.647962 
L 379.619574 240.647962 
L 380.270184 240.470554 
L 380.920794 240.647962 
L 381.571405 240.647962 
L 382.222015 240.470554 
L 382.872625 240.470554 
L 383.523236 240.647962 
L 386.776287 240.647962 
L 387.426897 240.470554 
L 388.077508 240.647962 
L 388.728118 240.647962 
L 389.378728 240.470554 
L 390.029339 240.647962 
L 390.679949 240.647962 
L 391.330559 240.82537 
L 391.98117 240.647962 
L 396.535442 240.647962 
L 397.186052 240.82537 
L 397.836662 240.647962 
L 398.487273 240.647962 
L 398.487273 240.647962 
" clip-path="url(#p6da97dfc07)" style="fill: none; stroke: #2ca02c; stroke-width: 1.5; stroke-linecap: square"/>
   </g>
   <g id="line2d_18">
    <path d="M 73.832727 278.131942 
L 75.784558 278.537422 
L 77.736389 278.752742 
L 80.33883 278.770505 
L 84.893103 278.495808 
L 87.495544 278.206033 
L 88.146154 278.378771 
L 88.796764 278.768951 
L 89.447375 279.396225 
L 90.748595 281.248188 
L 92.049816 283.320436 
L 92.700426 284.163547 
L 93.351037 284.766564 
L 94.001647 285.099131 
L 94.652257 285.181495 
L 95.302868 285.066842 
L 96.604088 284.491257 
L 97.905309 283.84518 
L 99.206529 283.488842 
L 100.50775 283.569114 
L 101.808971 284.024437 
L 104.411412 285.21006 
L 105.712633 285.53979 
L 107.013853 285.568653 
L 108.315074 285.331518 
L 110.266905 284.664128 
L 112.218736 283.701757 
L 113.519956 282.764591 
L 114.821177 281.469278 
L 116.122398 279.817998 
L 120.026059 274.292481 
L 121.32728 272.922913 
L 122.628501 271.964164 
L 123.929721 271.33286 
L 128.483993 269.558593 
L 130.435824 268.386897 
L 133.038266 266.490408 
L 134.990097 264.855772 
L 138.243148 261.733398 
L 140.194979 259.965304 
L 145.399862 255.623418 
L 146.701082 254.0466 
L 148.002303 252.140425 
L 150.604744 247.73295 
L 152.556575 244.618718 
L 153.857796 242.947224 
L 155.159016 241.715631 
L 156.460237 240.941025 
L 157.761457 240.568209 
L 159.062678 240.484792 
L 162.31573 240.546082 
L 163.61695 240.343451 
L 164.918171 239.901058 
L 166.219392 239.20728 
L 167.520612 238.273878 
L 168.821833 237.110855 
L 170.773664 234.961966 
L 172.725495 232.333819 
L 174.026715 230.24049 
L 175.327936 227.779049 
L 177.279767 223.544858 
L 180.532818 216.015722 
L 182.484649 210.894764 
L 186.388311 200.084039 
L 187.689532 197.20305 
L 188.990752 194.843485 
L 190.291973 192.871171 
L 191.593194 191.217749 
L 192.243804 190.580103 
L 192.894414 190.132767 
L 193.545025 189.905233 
L 194.195635 189.889985 
L 195.496856 190.302044 
L 197.448686 191.226951 
L 198.099297 191.402822 
L 198.749907 191.377773 
L 199.400517 191.063029 
L 200.051128 190.3953 
L 200.701738 189.353539 
L 201.352348 187.964481 
L 202.653569 184.431051 
L 205.25601 176.840919 
L 206.557231 173.928528 
L 207.207841 172.82547 
L 207.858451 171.963147 
L 208.509062 171.325431 
L 209.159672 170.883623 
L 210.460893 170.429277 
L 216.966996 169.464681 
L 218.918827 169.715423 
L 219.569437 169.795819 
L 220.220047 169.745308 
L 220.870658 169.361698 
L 221.521268 168.396965 
L 222.171878 166.652018 
L 222.822489 164.03889 
L 223.473099 160.595507 
L 224.77432 151.890741 
L 226.72615 138.098765 
L 227.376761 134.282504 
L 228.027371 131.132912 
L 228.677981 128.720402 
L 229.328592 127.05275 
L 229.979202 126.083827 
L 230.629812 125.72592 
L 231.280423 125.863729 
L 231.931033 126.368356 
L 233.232254 127.981476 
L 234.533474 130.104646 
L 235.184085 131.615993 
L 235.834695 133.658241 
L 236.485305 136.333365 
L 237.786526 143.493828 
L 241.039577 164.037323 
L 241.690188 167.076373 
L 242.340798 169.500155 
L 242.991408 171.304635 
L 243.642019 172.532171 
L 244.292629 173.261126 
L 244.943239 173.595131 
L 245.59385 173.652678 
L 247.54568 173.368222 
L 248.196291 173.466089 
L 248.846901 173.78392 
L 249.497511 174.360546 
L 250.148122 175.208287 
L 250.798732 176.314182 
L 252.099953 179.166626 
L 254.051784 184.42943 
L 256.654225 192.269315 
L 258.606056 198.871551 
L 260.557887 206.17528 
L 263.160328 216.833961 
L 265.112159 224.792699 
L 266.413379 229.332695 
L 267.06399 231.176026 
L 267.7146 232.668968 
L 268.36521 233.796533 
L 269.015821 234.574864 
L 269.666431 235.04685 
L 270.317041 235.274612 
L 271.618262 235.291903 
L 272.919483 235.218225 
L 273.570093 235.331379 
L 274.220703 235.639003 
L 274.871314 236.172532 
L 276.172534 237.792805 
L 278.124365 240.516474 
L 278.774975 241.221636 
L 279.425586 241.753962 
L 280.076196 242.100929 
L 280.726806 242.268234 
L 281.377417 242.276265 
L 282.678637 241.94326 
L 285.931689 240.66712 
L 287.232909 240.437988 
L 288.53413 240.416367 
L 291.136571 240.694821 
L 293.739013 240.91423 
L 296.992064 240.884412 
L 302.847557 240.775031 
L 314.558543 240.800847 
L 343.185396 240.630445 
L 364.004926 240.617613 
L 398.487273 240.660807 
L 398.487273 240.660807 
" clip-path="url(#p6da97dfc07)" style="fill: none; stroke: #d62728; stroke-width: 1.5; stroke-linecap: square"/>
   </g>
   <g id="patch_3">
    <path d="M 57.6 307.584 
L 57.6 41.472 
" style="fill: none; stroke: #000000; stroke-width: 0.8; stroke-linejoin: miter; stroke-linecap: square"/>
   </g>
   <g id="patch_4">
    <path d="M 414.72 307.584 
L 414.72 41.472 
" style="fill: none; stroke: #000000; stroke-width: 0.8; stroke-linejoin: miter; stroke-linecap: square"/>
   </g>
   <g id="patch_5">
    <path d="M 57.6 307.584 
L 414.72 307.584 
" style="fill: none; stroke: #000000; stroke-width: 0.8; stroke-linejoin: miter; stroke-linecap: square"/>
   </g>
   <g id="patch_6">
    <path d="M 57.6 41.472 
L 414.72 41.472 
" style="fill: none; stroke: #000000; stroke-width: 0.8; stroke-linejoin: miter; stroke-linecap: square"/>
   </g>
   <g id="text_15">
    <!-- pinkyPlot -->
    <g transform="translate(208.765312 35.472) scale(0.12 -0.12)">
     <defs>
      <path id="DejaVuSans-70" d="M 1159 525 
L 1159 -1331 
L 581 -1331 
L 581 3500 
L 1159 3500 
L 1159 2969 
Q 1341 3281 1617 3432 
Q 1894 3584 2278 3584 
Q 2916 3584 3314 3078 
Q 3713 2572 3713 1747 
Q 3713 922 3314 415 
Q 2916 -91 2278 -91 
Q 1894 -91 1617 61 
Q 1341 213 1159 525 
z
M 3116 1747 
Q 3116 2381 2855 2742 
Q 2594 3103 2138 3103 
Q 1681 3103 1420 2742 
Q 1159 2381 1159 1747 
Q 1159 1113 1420 752 
Q 1681 391 2138 391 
Q 2594 391 2855 752 
Q 3116 1113 3116 1747 
z
" transform="scale(0.015625)"/>
      <path id="DejaVuSans-69" d="M 603 3500 
L 1178 3500 
L 1178 0 
L 603 0 
L 603 3500 
z
M 603 4863 
L 1178 4863 
L 1178 4134 
L 603 4134 
L 603 4863 
z
" transform="scale(0.015625)"/>
      <path id="DejaVuSans-6e" d="M 3513 2113 
L 3513 0 
L 2938 0 
L 2938 2094 
Q 2938 2591 2744 2837 
Q 2550 3084 2163 3084 
Q 1697 3084 1428 2787 
Q 1159 2491 1159 1978 
L 1159 0 
L 581 0 
L 581 3500 
L 1159 3500 
L 1159 2956 
Q 1366 3272 1645 3428 
Q 1925 3584 2291 3584 
Q 2894 3584 3203 3211 
Q 3513 2838 3513 2113 
z
" transform="scale(0.015625)"/>
      <path id="DejaVuSans-6b" d="M 581 4863 
L 1159 4863 
L 1159 1991 
L 2875 3500 
L 3609 3500 
L 1753 1863 
L 3688 0 
L 2938 0 
L 1159 1709 
L 1159 0 
L 581 0 
L 581 4863 
z
" transform="scale(0.015625)"/>
      <path id="DejaVuSans-79" d="M 2059 -325 
Q 1816 -950 1584 -1140 
Q 1353 -1331 966 -1331 
L 506 -1331 
L 506 -850 
L 844 -850 
Q 1081 -850 1212 -737 
Q 1344 -625 1503 -206 
L 1606 56 
L 191 3500 
L 800 3500 
L 1894 763 
L 2988 3500 
L 3597 3500 
L 2059 -325 
z
" transform="scale(0.015625)"/>
      <path id="DejaVuSans-50" d="M 1259 4147 
L 1259 2394 
L 2053 2394 
Q 2494 2394 2734 2622 
Q 2975 2850 2975 3272 
Q 2975 3691 2734 3919 
Q 2494 4147 2053 4147 
L 1259 4147 
z
M 628 4666 
L 2053 4666 
Q 2838 4666 3239 4311 
Q 3641 3956 3641 3272 
Q 3641 2581 3239 2228 
Q 2838 1875 2053 1875 
L 1259 1875 
L 1259 0 
L 628 0 
L 628 4666 
z
" transform="scale(0.015625)"/>
      <path id="DejaVuSans-6c" d="M 603 4863 
L 1178 4863 
L 1178 0 
L 603 0 
L 603 4863 
z
" transform="scale(0.015625)"/>
      <path id="DejaVuSans-6f" d="M 1959 3097 
Q 1497 3097 1228 2736 
Q 959 2375 959 1747 
Q 959 1119 1226 758 
Q 1494 397 1959 397 
Q 2419 397 2687 759 
Q 2956 1122 2956 1747 
Q 2956 2369 2687 2733 
Q 2419 3097 1959 3097 
z
M 1959 3584 
Q 2709 3584 3137 3096 
Q 3566 2609 3566 1747 
Q 3566 888 3137 398 
Q 2709 -91 1959 -91 
Q 1206 -91 779 398 
Q 353 888 353 1747 
Q 353 2609 779 3096 
Q 1206 3584 1959 3584 
z
" transform="scale(0.015625)"/>
      <path id="DejaVuSans-74" d="M 1172 4494 
L 1172 3500 
L 2356 3500 
L 2356 3053 
L 1172 3053 
L 1172 1153 
Q 1172 725 1289 603 
Q 1406 481 1766 481 
L 2356 481 
L 2356 0 
L 1766 0 
Q 1100 0 847 248 
Q 594 497 594 1153 
L 594 3053 
L 172 3053 
L 172 3500 
L 594 3500 
L 594 4494 
L 1172 4494 
z
" transform="scale(0.015625)"/>
     </defs>
     <use xlink:href="#DejaVuSans-70"/>
     <use xlink:href="#DejaVuSans-69" x="63.476562"/>
     <use xlink:href="#DejaVuSans-6e" x="91.259766"/>
     <use xlink:href="#DejaVuSans-6b" x="154.638672"/>
     <use xlink:href="#DejaVuSans-79" x="208.923828"/>
     <use xlink:href="#DejaVuSans-50" x="268.103516"/>
     <use xlink:href="#DejaVuSans-6c" x="328.40625"/>
     <use xlink:href="#DejaVuSans-6f" x="356.189453"/>
     <use xlink:href="#DejaVuSans-74" x="417.371094"/>
    </g>
   </g>
   <g id="legend_1">
    <g id="patch_7">
     <path d="M 245.324687 119.382313 
L 407.72 119.382313 
Q 409.72 119.382313 409.72 117.382313 
L 409.72 48.472 
Q 409.72 46.472 407.72 46.472 
L 245.324687 46.472 
Q 243.324687 46.472 243.324687 48.472 
L 243.324687 117.382313 
Q 243.324687 119.382313 245.324687 119.382313 
z
" style="fill: #ffffff; opacity: 0.8; stroke: #cccccc; stroke-linejoin: miter"/>
    </g>
    <g id="line2d_19">
     <path d="M 247.324687 54.570438 
L 257.324687 54.570438 
L 267.324687 54.570438 
" style="fill: none; stroke: #1f77b4; stroke-width: 1.5; stroke-linecap: square"/>
    </g>
    <g id="text_16">
     <!-- On Threshold -->
     <g transform="translate(275.324687 58.070438) scale(0.1 -0.1)">
      <defs>
       <path id="DejaVuSans-4f" d="M 2522 4238 
Q 1834 4238 1429 3725 
Q 1025 3213 1025 2328 
Q 1025 1447 1429 934 
Q 1834 422 2522 422 
Q 3209 422 3611 934 
Q 4013 1447 4013 2328 
Q 4013 3213 3611 3725 
Q 3209 4238 2522 4238 
z
M 2522 4750 
Q 3503 4750 4090 4092 
Q 4678 3434 4678 2328 
Q 4678 1225 4090 567 
Q 3503 -91 2522 -91 
Q 1538 -91 948 565 
Q 359 1222 359 2328 
Q 359 3434 948 4092 
Q 1538 4750 2522 4750 
z
" transform="scale(0.015625)"/>
       <path id="DejaVuSans-20" transform="scale(0.015625)"/>
       <path id="DejaVuSans-54" d="M -19 4666 
L 3928 4666 
L 3928 4134 
L 2272 4134 
L 2272 0 
L 1638 0 
L 1638 4134 
L -19 4134 
L -19 4666 
z
" transform="scale(0.015625)"/>
       <path id="DejaVuSans-68" d="M 3513 2113 
L 3513 0 
L 2938 0 
L 2938 2094 
Q 2938 2591 2744 2837 
Q 2550 3084 2163 3084 
Q 1697 3084 1428 2787 
Q 1159 2491 1159 1978 
L 1159 0 
L 581 0 
L 581 4863 
L 1159 4863 
L 1159 2956 
Q 1366 3272 1645 3428 
Q 1925 3584 2291 3584 
Q 2894 3584 3203 3211 
Q 3513 2838 3513 2113 
z
" transform="scale(0.015625)"/>
       <path id="DejaVuSans-72" d="M 2631 2963 
Q 2534 3019 2420 3045 
Q 2306 3072 2169 3072 
Q 1681 3072 1420 2755 
Q 1159 2438 1159 1844 
L 1159 0 
L 581 0 
L 581 3500 
L 1159 3500 
L 1159 2956 
Q 1341 3275 1631 3429 
Q 1922 3584 2338 3584 
Q 2397 3584 2469 3576 
Q 2541 3569 2628 3553 
L 2631 2963 
z
" transform="scale(0.015625)"/>
       <path id="DejaVuSans-65" d="M 3597 1894 
L 3597 1613 
L 953 1613 
Q 991 1019 1311 708 
Q 1631 397 2203 397 
Q 2534 397 2845 478 
Q 3156 559 3463 722 
L 3463 178 
Q 3153 47 2828 -22 
Q 2503 -91 2169 -91 
Q 1331 -91 842 396 
Q 353 884 353 1716 
Q 353 2575 817 3079 
Q 1281 3584 2069 3584 
Q 2775 3584 3186 3129 
Q 3597 2675 3597 1894 
z
M 3022 2063 
Q 3016 2534 2758 2815 
Q 2500 3097 2075 3097 
Q 1594 3097 1305 2825 
Q 1016 2553 972 2059 
L 3022 2063 
z
" transform="scale(0.015625)"/>
       <path id="DejaVuSans-73" d="M 2834 3397 
L 2834 2853 
Q 2591 2978 2328 3040 
Q 2066 3103 1784 3103 
Q 1356 3103 1142 2972 
Q 928 2841 928 2578 
Q 928 2378 1081 2264 
Q 1234 2150 1697 2047 
L 1894 2003 
Q 2506 1872 2764 1633 
Q 3022 1394 3022 966 
Q 3022 478 2636 193 
Q 2250 -91 1575 -91 
Q 1294 -91 989 -36 
Q 684 19 347 128 
L 347 722 
Q 666 556 975 473 
Q 1284 391 1588 391 
Q 1994 391 2212 530 
Q 2431 669 2431 922 
Q 2431 1156 2273 1281 
Q 2116 1406 1581 1522 
L 1381 1569 
Q 847 1681 609 1914 
Q 372 2147 372 2553 
Q 372 3047 722 3315 
Q 1072 3584 1716 3584 
Q 2034 3584 2315 3537 
Q 2597 3491 2834 3397 
z
" transform="scale(0.015625)"/>
       <path id="DejaVuSans-64" d="M 2906 2969 
L 2906 4863 
L 3481 4863 
L 3481 0 
L 2906 0 
L 2906 525 
Q 2725 213 2448 61 
Q 2172 -91 1784 -91 
Q 1150 -91 751 415 
Q 353 922 353 1747 
Q 353 2572 751 3078 
Q 1150 3584 1784 3584 
Q 2172 3584 2448 3432 
Q 2725 3281 2906 2969 
z
M 947 1747 
Q 947 1113 1208 752 
Q 1469 391 1925 391 
Q 2381 391 2643 752 
Q 2906 1113 2906 1747 
Q 2906 2381 2643 2742 
Q 2381 3103 1925 3103 
Q 1469 3103 1208 2742 
Q 947 2381 947 1747 
z
" transform="scale(0.015625)"/>
      </defs>
      <use xlink:href="#DejaVuSans-4f"/>
      <use xlink:href="#DejaVuSans-6e" x="78.710938"/>
      <use xlink:href="#DejaVuSans-20" x="142.089844"/>
      <use xlink:href="#DejaVuSans-54" x="173.876953"/>
      <use xlink:href="#DejaVuSans-68" x="234.960938"/>
      <use xlink:href="#DejaVuSans-72" x="298.339844"/>
      <use xlink:href="#DejaVuSans-65" x="337.203125"/>
      <use xlink:href="#DejaVuSans-73" x="398.726562"/>
      <use xlink:href="#DejaVuSans-68" x="450.826172"/>
      <use xlink:href="#DejaVuSans-6f" x="514.205078"/>
      <use xlink:href="#DejaVuSans-6c" x="575.386719"/>
      <use xlink:href="#DejaVuSans-64" x="603.169922"/>
     </g>
    </g>
    <g id="line2d_20">
     <path d="M 247.324687 69.248563 
L 257.324687 69.248563 
L 267.324687 69.248563 
" style="fill: none; stroke: #ff7f0e; stroke-width: 1.5; stroke-linecap: square"/>
    </g>
    <g id="text_17">
     <!-- Automation Threshold -->
     <g transform="translate(275.324687 72.748563) scale(0.1 -0.1)">
      <defs>
       <path id="DejaVuSans-41" d="M 2188 4044 
L 1331 1722 
L 3047 1722 
L 2188 4044 
z
M 1831 4666 
L 2547 4666 
L 4325 0 
L 3669 0 
L 3244 1197 
L 1141 1197 
L 716 0 
L 50 0 
L 1831 4666 
z
" transform="scale(0.015625)"/>
       <path id="DejaVuSans-75" d="M 544 1381 
L 544 3500 
L 1119 3500 
L 1119 1403 
Q 1119 906 1312 657 
Q 1506 409 1894 409 
Q 2359 409 2629 706 
Q 2900 1003 2900 1516 
L 2900 3500 
L 3475 3500 
L 3475 0 
L 2900 0 
L 2900 538 
Q 2691 219 2414 64 
Q 2138 -91 1772 -91 
Q 1169 -91 856 284 
Q 544 659 544 1381 
z
M 1991 3584 
L 1991 3584 
z
" transform="scale(0.015625)"/>
       <path id="DejaVuSans-6d" d="M 3328 2828 
Q 3544 3216 3844 3400 
Q 4144 3584 4550 3584 
Q 5097 3584 5394 3201 
Q 5691 2819 5691 2113 
L 5691 0 
L 5113 0 
L 5113 2094 
Q 5113 2597 4934 2840 
Q 4756 3084 4391 3084 
Q 3944 3084 3684 2787 
Q 3425 2491 3425 1978 
L 3425 0 
L 2847 0 
L 2847 2094 
Q 2847 2600 2669 2842 
Q 2491 3084 2119 3084 
Q 1678 3084 1418 2786 
Q 1159 2488 1159 1978 
L 1159 0 
L 581 0 
L 581 3500 
L 1159 3500 
L 1159 2956 
Q 1356 3278 1631 3431 
Q 1906 3584 2284 3584 
Q 2666 3584 2933 3390 
Q 3200 3197 3328 2828 
z
" transform="scale(0.015625)"/>
       <path id="DejaVuSans-61" d="M 2194 1759 
Q 1497 1759 1228 1600 
Q 959 1441 959 1056 
Q 959 750 1161 570 
Q 1363 391 1709 391 
Q 2188 391 2477 730 
Q 2766 1069 2766 1631 
L 2766 1759 
L 2194 1759 
z
M 3341 1997 
L 3341 0 
L 2766 0 
L 2766 531 
Q 2569 213 2275 61 
Q 1981 -91 1556 -91 
Q 1019 -91 701 211 
Q 384 513 384 1019 
Q 384 1609 779 1909 
Q 1175 2209 1959 2209 
L 2766 2209 
L 2766 2266 
Q 2766 2663 2505 2880 
Q 2244 3097 1772 3097 
Q 1472 3097 1187 3025 
Q 903 2953 641 2809 
L 641 3341 
Q 956 3463 1253 3523 
Q 1550 3584 1831 3584 
Q 2591 3584 2966 3190 
Q 3341 2797 3341 1997 
z
" transform="scale(0.015625)"/>
      </defs>
      <use xlink:href="#DejaVuSans-41"/>
      <use xlink:href="#DejaVuSans-75" x="68.408203"/>
      <use xlink:href="#DejaVuSans-74" x="131.787109"/>
      <use xlink:href="#DejaVuSans-6f" x="170.996094"/>
      <use xlink:href="#DejaVuSans-6d" x="232.177734"/>
      <use xlink:href="#DejaVuSans-61" x="329.589844"/>
      <use xlink:href="#DejaVuSans-74" x="390.869141"/>
      <use xlink:href="#DejaVuSans-69" x="430.078125"/>
      <use xlink:href="#DejaVuSans-6f" x="457.861328"/>
      <use xlink:href="#DejaVuSans-6e" x="519.042969"/>
      <use xlink:href="#DejaVuSans-20" x="582.421875"/>
      <use xlink:href="#DejaVuSans-54" x="614.208984"/>
      <use xlink:href="#DejaVuSans-68" x="675.292969"/>
      <use xlink:href="#DejaVuSans-72" x="738.671875"/>
      <use xlink:href="#DejaVuSans-65" x="777.535156"/>
      <use xlink:href="#DejaVuSans-73" x="839.058594"/>
      <use xlink:href="#DejaVuSans-68" x="891.158203"/>
      <use xlink:href="#DejaVuSans-6f" x="954.537109"/>
      <use xlink:href="#DejaVuSans-6c" x="1015.71875"/>
      <use xlink:href="#DejaVuSans-64" x="1043.501953"/>
     </g>
    </g>
    <g id="line2d_21">
     <path d="M 247.324687 83.926688 
L 257.324687 83.926688 
L 267.324687 83.926688 
" style="fill: none; stroke: #2ca02c; stroke-width: 1.5; stroke-linecap: square"/>
    </g>
    <g id="text_18">
     <!-- Noisy Signal -->
     <g transform="translate(275.324687 87.426688) scale(0.1 -0.1)">
      <defs>
       <path id="DejaVuSans-4e" d="M 628 4666 
L 1478 4666 
L 3547 763 
L 3547 4666 
L 4159 4666 
L 4159 0 
L 3309 0 
L 1241 3903 
L 1241 0 
L 628 0 
L 628 4666 
z
" transform="scale(0.015625)"/>
       <path id="DejaVuSans-53" d="M 3425 4513 
L 3425 3897 
Q 3066 4069 2747 4153 
Q 2428 4238 2131 4238 
Q 1616 4238 1336 4038 
Q 1056 3838 1056 3469 
Q 1056 3159 1242 3001 
Q 1428 2844 1947 2747 
L 2328 2669 
Q 3034 2534 3370 2195 
Q 3706 1856 3706 1288 
Q 3706 609 3251 259 
Q 2797 -91 1919 -91 
Q 1588 -91 1214 -16 
Q 841 59 441 206 
L 441 856 
Q 825 641 1194 531 
Q 1563 422 1919 422 
Q 2459 422 2753 634 
Q 3047 847 3047 1241 
Q 3047 1584 2836 1778 
Q 2625 1972 2144 2069 
L 1759 2144 
Q 1053 2284 737 2584 
Q 422 2884 422 3419 
Q 422 4038 858 4394 
Q 1294 4750 2059 4750 
Q 2388 4750 2728 4690 
Q 3069 4631 3425 4513 
z
" transform="scale(0.015625)"/>
       <path id="DejaVuSans-67" d="M 2906 1791 
Q 2906 2416 2648 2759 
Q 2391 3103 1925 3103 
Q 1463 3103 1205 2759 
Q 947 2416 947 1791 
Q 947 1169 1205 825 
Q 1463 481 1925 481 
Q 2391 481 2648 825 
Q 2906 1169 2906 1791 
z
M 3481 434 
Q 3481 -459 3084 -895 
Q 2688 -1331 1869 -1331 
Q 1566 -1331 1297 -1286 
Q 1028 -1241 775 -1147 
L 775 -588 
Q 1028 -725 1275 -790 
Q 1522 -856 1778 -856 
Q 2344 -856 2625 -561 
Q 2906 -266 2906 331 
L 2906 616 
Q 2728 306 2450 153 
Q 2172 0 1784 0 
Q 1141 0 747 490 
Q 353 981 353 1791 
Q 353 2603 747 3093 
Q 1141 3584 1784 3584 
Q 2172 3584 2450 3431 
Q 2728 3278 2906 2969 
L 2906 3500 
L 3481 3500 
L 3481 434 
z
" transform="scale(0.015625)"/>
      </defs>
      <use xlink:href="#DejaVuSans-4e"/>
      <use xlink:href="#DejaVuSans-6f" x="74.804688"/>
      <use xlink:href="#DejaVuSans-69" x="135.986328"/>
      <use xlink:href="#DejaVuSans-73" x="163.769531"/>
      <use xlink:href="#DejaVuSans-79" x="215.869141"/>
      <use xlink:href="#DejaVuSans-20" x="275.048828"/>
      <use xlink:href="#DejaVuSans-53" x="306.835938"/>
      <use xlink:href="#DejaVuSans-69" x="370.3125"/>
      <use xlink:href="#DejaVuSans-67" x="398.095703"/>
      <use xlink:href="#DejaVuSans-6e" x="461.572266"/>
      <use xlink:href="#DejaVuSans-61" x="524.951172"/>
      <use xlink:href="#DejaVuSans-6c" x="586.230469"/>
     </g>
    </g>
    <g id="line2d_22">
     <path d="M 247.324687 105.243563 
L 257.324687 105.243563 
L 267.324687 105.243563 
" style="fill: none; stroke: #d62728; stroke-width: 1.5; stroke-linecap: square"/>
    </g>
    <g id="text_19">
     <!-- CleanSignal -->
     <g transform="translate(275.324687 102.104813) scale(0.1 -0.1)">
      <defs>
       <path id="DejaVuSans-43" d="M 4122 4306 
L 4122 3641 
Q 3803 3938 3442 4084 
Q 3081 4231 2675 4231 
Q 1875 4231 1450 3742 
Q 1025 3253 1025 2328 
Q 1025 1406 1450 917 
Q 1875 428 2675 428 
Q 3081 428 3442 575 
Q 3803 722 4122 1019 
L 4122 359 
Q 3791 134 3420 21 
Q 3050 -91 2638 -91 
Q 1578 -91 968 557 
Q 359 1206 359 2328 
Q 359 3453 968 4101 
Q 1578 4750 2638 4750 
Q 3056 4750 3426 4639 
Q 3797 4528 4122 4306 
z
" transform="scale(0.015625)"/>
      </defs>
      <use xlink:href="#DejaVuSans-43"/>
      <use xlink:href="#DejaVuSans-6c" x="69.824219"/>
      <use xlink:href="#DejaVuSans-65" x="97.607422"/>
      <use xlink:href="#DejaVuSans-61" x="159.130859"/>
      <use xlink:href="#DejaVuSans-6e" x="220.410156"/>
      <use xlink:href="#DejaVuSans-53" x="283.789062"/>
      <use xlink:href="#DejaVuSans-69" x="347.265625"/>
      <use xlink:href="#DejaVuSans-67" x="375.048828"/>
      <use xlink:href="#DejaVuSans-6e" x="438.525391"/>
      <use xlink:href="#DejaVuSans-61" x="501.904297"/>
      <use xlink:href="#DejaVuSans-6c" x="563.183594"/>
     </g>
     <!-- Sampling Rate: 127.48 Hz -->
     <g transform="translate(275.324687 113.302625) scale(0.1 -0.1)">
      <defs>
       <path id="DejaVuSans-52" d="M 2841 2188 
Q 3044 2119 3236 1894 
Q 3428 1669 3622 1275 
L 4263 0 
L 3584 0 
L 2988 1197 
Q 2756 1666 2539 1819 
Q 2322 1972 1947 1972 
L 1259 1972 
L 1259 0 
L 628 0 
L 628 4666 
L 2053 4666 
Q 2853 4666 3247 4331 
Q 3641 3997 3641 3322 
Q 3641 2881 3436 2590 
Q 3231 2300 2841 2188 
z
M 1259 4147 
L 1259 2491 
L 2053 2491 
Q 2509 2491 2742 2702 
Q 2975 2913 2975 3322 
Q 2975 3731 2742 3939 
Q 2509 4147 2053 4147 
L 1259 4147 
z
" transform="scale(0.015625)"/>
       <path id="DejaVuSans-3a" d="M 750 794 
L 1409 794 
L 1409 0 
L 750 0 
L 750 794 
z
M 750 3309 
L 1409 3309 
L 1409 2516 
L 750 2516 
L 750 3309 
z
" transform="scale(0.015625)"/>
       <path id="DejaVuSans-37" d="M 525 4666 
L 3525 4666 
L 3525 4397 
L 1831 0 
L 1172 0 
L 2766 4134 
L 525 4134 
L 525 4666 
z
" transform="scale(0.015625)"/>
       <path id="DejaVuSans-48" d="M 628 4666 
L 1259 4666 
L 1259 2753 
L 3553 2753 
L 3553 4666 
L 4184 4666 
L 4184 0 
L 3553 0 
L 3553 2222 
L 1259 2222 
L 1259 0 
L 628 0 
L 628 4666 
z
" transform="scale(0.015625)"/>
       <path id="DejaVuSans-7a" d="M 353 3500 
L 3084 3500 
L 3084 2975 
L 922 459 
L 3084 459 
L 3084 0 
L 275 0 
L 275 525 
L 2438 3041 
L 353 3041 
L 353 3500 
z
" transform="scale(0.015625)"/>
      </defs>
      <use xlink:href="#DejaVuSans-53"/>
      <use xlink:href="#DejaVuSans-61" x="63.476562"/>
      <use xlink:href="#DejaVuSans-6d" x="124.755859"/>
      <use xlink:href="#DejaVuSans-70" x="222.167969"/>
      <use xlink:href="#DejaVuSans-6c" x="285.644531"/>
      <use xlink:href="#DejaVuSans-69" x="313.427734"/>
      <use xlink:href="#DejaVuSans-6e" x="341.210938"/>
      <use xlink:href="#DejaVuSans-67" x="404.589844"/>
      <use xlink:href="#DejaVuSans-20" x="468.066406"/>
      <use xlink:href="#DejaVuSans-52" x="499.853516"/>
      <use xlink:href="#DejaVuSans-61" x="567.085938"/>
      <use xlink:href="#DejaVuSans-74" x="628.365234"/>
      <use xlink:href="#DejaVuSans-65" x="667.574219"/>
      <use xlink:href="#DejaVuSans-3a" x="729.097656"/>
      <use xlink:href="#DejaVuSans-20" x="762.789062"/>
      <use xlink:href="#DejaVuSans-31" x="794.576172"/>
      <use xlink:href="#DejaVuSans-32" x="858.199219"/>
      <use xlink:href="#DejaVuSans-37" x="921.822266"/>
      <use xlink:href="#DejaVuSans-2e" x="985.445312"/>
      <use xlink:href="#DejaVuSans-34" x="1017.232422"/>
      <use xlink:href="#DejaVuSans-38" x="1080.855469"/>
      <use xlink:href="#DejaVuSans-20" x="1144.478516"/>
      <use xlink:href="#DejaVuSans-48" x="1176.265625"/>
      <use xlink:href="#DejaVuSans-7a" x="1251.460938"/>
     </g>
    </g>
   </g>
  </g>
 </g>
 <defs>
  <clipPath id="p6da97dfc07">
   <rect x="57.6" y="41.472" width="357.12" height="266.112"/>
  </clipPath>
 </defs>
</svg>
