<?xml version="1.0" encoding="utf-8" standalone="no"?>
<!DOCTYPE svg PUBLIC "-//W3C//DTD SVG 1.1//EN"
  "http://www.w3.org/Graphics/SVG/1.1/DTD/svg11.dtd">
<svg xmlns:xlink="http://www.w3.org/1999/xlink" width="655.2pt" height="328.32pt" viewBox="0 0 655.2 328.32" xmlns="http://www.w3.org/2000/svg" version="1.1">
 <metadata>
  <rdf:RDF xmlns:dc="http://purl.org/dc/elements/1.1/" xmlns:cc="http://creativecommons.org/ns#" xmlns:rdf="http://www.w3.org/1999/02/22-rdf-syntax-ns#">
   <cc:Work>
    <dc:type rdf:resource="http://purl.org/dc/dcmitype/StillImage"/>
    <dc:date>2023-12-04T16:13:29.576098</dc:date>
    <dc:format>image/svg+xml</dc:format>
    <dc:creator>
     <cc:Agent>
      <dc:title>Matplotlib v3.7.1, https://matplotlib.org/</dc:title>
     </cc:Agent>
    </dc:creator>
   </cc:Work>
  </rdf:RDF>
 </metadata>
 <defs>
  <style type="text/css">*{stroke-linejoin: round; stroke-linecap: butt}</style>
 </defs>
 <g id="figure_1">
  <g id="patch_1">
   <path d="M 0 328.32 
L 655.2 328.32 
L 655.2 0 
L 0 0 
z
" style="fill: #00ff00"/>
  </g>
  <g id="axes_1">
   <g id="patch_2">
    <path d="M 81.9 292.2048 
L 589.68 292.2048 
L 589.68 39.3984 
L 81.9 39.3984 
z
" style="fill: #00ff00"/>
   </g>
   <g id="matplotlib.axis_1">
    <g id="xtick_1">
     <g id="line2d_1">
      <defs>
       <path id="m36e891d81f" d="M 0 0 
L 0 3.5 
" style="stroke: #000000; stroke-width: 0.8"/>
      </defs>
      <g>
       <use xlink:href="#m36e891d81f" x="104.980909" y="292.2048" style="stroke: #000000; stroke-width: 0.8"/>
      </g>
     </g>
     <g id="text_1">
      <!-- 0 -->
      <g transform="translate(101.799659 306.803238) scale(0.1 -0.1)">
       <defs>
        <path id="DejaVuSans-30" d="M 2034 4250 
Q 1547 4250 1301 3770 
Q 1056 3291 1056 2328 
Q 1056 1369 1301 889 
Q 1547 409 2034 409 
Q 2525 409 2770 889 
Q 3016 1369 3016 2328 
Q 3016 3291 2770 3770 
Q 2525 4250 2034 4250 
z
M 2034 4750 
Q 2819 4750 3233 4129 
Q 3647 3509 3647 2328 
Q 3647 1150 3233 529 
Q 2819 -91 2034 -91 
Q 1250 -91 836 529 
Q 422 1150 422 2328 
Q 422 3509 836 4129 
Q 1250 4750 2034 4750 
z
" transform="scale(0.015625)"/>
       </defs>
       <use xlink:href="#DejaVuSans-30"/>
      </g>
     </g>
    </g>
    <g id="xtick_2">
     <g id="line2d_2">
      <g>
       <use xlink:href="#m36e891d81f" x="197.489563" y="292.2048" style="stroke: #000000; stroke-width: 0.8"/>
      </g>
     </g>
     <g id="text_2">
      <!-- 100 -->
      <g transform="translate(187.945813 306.803238) scale(0.1 -0.1)">
       <defs>
        <path id="DejaVuSans-31" d="M 794 531 
L 1825 531 
L 1825 4091 
L 703 3866 
L 703 4441 
L 1819 4666 
L 2450 4666 
L 2450 531 
L 3481 531 
L 3481 0 
L 794 0 
L 794 531 
z
" transform="scale(0.015625)"/>
       </defs>
       <use xlink:href="#DejaVuSans-31"/>
       <use xlink:href="#DejaVuSans-30" x="63.623047"/>
       <use xlink:href="#DejaVuSans-30" x="127.246094"/>
      </g>
     </g>
    </g>
    <g id="xtick_3">
     <g id="line2d_3">
      <g>
       <use xlink:href="#m36e891d81f" x="289.998216" y="292.2048" style="stroke: #000000; stroke-width: 0.8"/>
      </g>
     </g>
     <g id="text_3">
      <!-- 200 -->
      <g transform="translate(280.454466 306.803238) scale(0.1 -0.1)">
       <defs>
        <path id="DejaVuSans-32" d="M 1228 531 
L 3431 531 
L 3431 0 
L 469 0 
L 469 531 
Q 828 903 1448 1529 
Q 2069 2156 2228 2338 
Q 2531 2678 2651 2914 
Q 2772 3150 2772 3378 
Q 2772 3750 2511 3984 
Q 2250 4219 1831 4219 
Q 1534 4219 1204 4116 
Q 875 4013 500 3803 
L 500 4441 
Q 881 4594 1212 4672 
Q 1544 4750 1819 4750 
Q 2544 4750 2975 4387 
Q 3406 4025 3406 3419 
Q 3406 3131 3298 2873 
Q 3191 2616 2906 2266 
Q 2828 2175 2409 1742 
Q 1991 1309 1228 531 
z
" transform="scale(0.015625)"/>
       </defs>
       <use xlink:href="#DejaVuSans-32"/>
       <use xlink:href="#DejaVuSans-30" x="63.623047"/>
       <use xlink:href="#DejaVuSans-30" x="127.246094"/>
      </g>
     </g>
    </g>
    <g id="xtick_4">
     <g id="line2d_4">
      <g>
       <use xlink:href="#m36e891d81f" x="382.50687" y="292.2048" style="stroke: #000000; stroke-width: 0.8"/>
      </g>
     </g>
     <g id="text_4">
      <!-- 300 -->
      <g transform="translate(372.96312 306.803238) scale(0.1 -0.1)">
       <defs>
        <path id="DejaVuSans-33" d="M 2597 2516 
Q 3050 2419 3304 2112 
Q 3559 1806 3559 1356 
Q 3559 666 3084 287 
Q 2609 -91 1734 -91 
Q 1441 -91 1130 -33 
Q 819 25 488 141 
L 488 750 
Q 750 597 1062 519 
Q 1375 441 1716 441 
Q 2309 441 2620 675 
Q 2931 909 2931 1356 
Q 2931 1769 2642 2001 
Q 2353 2234 1838 2234 
L 1294 2234 
L 1294 2753 
L 1863 2753 
Q 2328 2753 2575 2939 
Q 2822 3125 2822 3475 
Q 2822 3834 2567 4026 
Q 2313 4219 1838 4219 
Q 1578 4219 1281 4162 
Q 984 4106 628 3988 
L 628 4550 
Q 988 4650 1302 4700 
Q 1616 4750 1894 4750 
Q 2613 4750 3031 4423 
Q 3450 4097 3450 3541 
Q 3450 3153 3228 2886 
Q 3006 2619 2597 2516 
z
" transform="scale(0.015625)"/>
       </defs>
       <use xlink:href="#DejaVuSans-33"/>
       <use xlink:href="#DejaVuSans-30" x="63.623047"/>
       <use xlink:href="#DejaVuSans-30" x="127.246094"/>
      </g>
     </g>
    </g>
    <g id="xtick_5">
     <g id="line2d_5">
      <g>
       <use xlink:href="#m36e891d81f" x="475.015524" y="292.2048" style="stroke: #000000; stroke-width: 0.8"/>
      </g>
     </g>
     <g id="text_5">
      <!-- 400 -->
      <g transform="translate(465.471774 306.803238) scale(0.1 -0.1)">
       <defs>
        <path id="DejaVuSans-34" d="M 2419 4116 
L 825 1625 
L 2419 1625 
L 2419 4116 
z
M 2253 4666 
L 3047 4666 
L 3047 1625 
L 3713 1625 
L 3713 1100 
L 3047 1100 
L 3047 0 
L 2419 0 
L 2419 1100 
L 313 1100 
L 313 1709 
L 2253 4666 
z
" transform="scale(0.015625)"/>
       </defs>
       <use xlink:href="#DejaVuSans-34"/>
       <use xlink:href="#DejaVuSans-30" x="63.623047"/>
       <use xlink:href="#DejaVuSans-30" x="127.246094"/>
      </g>
     </g>
    </g>
    <g id="xtick_6">
     <g id="line2d_6">
      <g>
       <use xlink:href="#m36e891d81f" x="567.524177" y="292.2048" style="stroke: #000000; stroke-width: 0.8"/>
      </g>
     </g>
     <g id="text_6">
      <!-- 500 -->
      <g transform="translate(557.980427 306.803238) scale(0.1 -0.1)">
       <defs>
        <path id="DejaVuSans-35" d="M 691 4666 
L 3169 4666 
L 3169 4134 
L 1269 4134 
L 1269 2991 
Q 1406 3038 1543 3061 
Q 1681 3084 1819 3084 
Q 2600 3084 3056 2656 
Q 3513 2228 3513 1497 
Q 3513 744 3044 326 
Q 2575 -91 1722 -91 
Q 1428 -91 1123 -41 
Q 819 9 494 109 
L 494 744 
Q 775 591 1075 516 
Q 1375 441 1709 441 
Q 2250 441 2565 725 
Q 2881 1009 2881 1497 
Q 2881 1984 2565 2268 
Q 2250 2553 1709 2553 
Q 1456 2553 1204 2497 
Q 953 2441 691 2322 
L 691 4666 
z
" transform="scale(0.015625)"/>
       </defs>
       <use xlink:href="#DejaVuSans-35"/>
       <use xlink:href="#DejaVuSans-30" x="63.623047"/>
       <use xlink:href="#DejaVuSans-30" x="127.246094"/>
      </g>
     </g>
    </g>
   </g>
   <g id="matplotlib.axis_2">
    <g id="ytick_1">
     <g id="line2d_7">
      <defs>
       <path id="m981abb2964" d="M 0 0 
L -3.5 0 
" style="stroke: #000000; stroke-width: 0.8"/>
      </defs>
      <g>
       <use xlink:href="#m981abb2964" x="81.9" y="292.2048" style="stroke: #000000; stroke-width: 0.8"/>
      </g>
     </g>
     <g id="text_7">
      <!-- 0.0 -->
      <g transform="translate(58.996875 296.004019) scale(0.1 -0.1)">
       <defs>
        <path id="DejaVuSans-2e" d="M 684 794 
L 1344 794 
L 1344 0 
L 684 0 
L 684 794 
z
" transform="scale(0.015625)"/>
       </defs>
       <use xlink:href="#DejaVuSans-30"/>
       <use xlink:href="#DejaVuSans-2e" x="63.623047"/>
       <use xlink:href="#DejaVuSans-30" x="95.410156"/>
      </g>
     </g>
    </g>
    <g id="ytick_2">
     <g id="line2d_8">
      <g>
       <use xlink:href="#m981abb2964" x="81.9" y="258.49728" style="stroke: #000000; stroke-width: 0.8"/>
      </g>
     </g>
     <g id="text_8">
      <!-- 0.2 -->
      <g transform="translate(58.996875 262.296499) scale(0.1 -0.1)">
       <use xlink:href="#DejaVuSans-30"/>
       <use xlink:href="#DejaVuSans-2e" x="63.623047"/>
       <use xlink:href="#DejaVuSans-32" x="95.410156"/>
      </g>
     </g>
    </g>
    <g id="ytick_3">
     <g id="line2d_9">
      <g>
       <use xlink:href="#m981abb2964" x="81.9" y="224.78976" style="stroke: #000000; stroke-width: 0.8"/>
      </g>
     </g>
     <g id="text_9">
      <!-- 0.4 -->
      <g transform="translate(58.996875 228.588979) scale(0.1 -0.1)">
       <use xlink:href="#DejaVuSans-30"/>
       <use xlink:href="#DejaVuSans-2e" x="63.623047"/>
       <use xlink:href="#DejaVuSans-34" x="95.410156"/>
      </g>
     </g>
    </g>
    <g id="ytick_4">
     <g id="line2d_10">
      <g>
       <use xlink:href="#m981abb2964" x="81.9" y="191.08224" style="stroke: #000000; stroke-width: 0.8"/>
      </g>
     </g>
     <g id="text_10">
      <!-- 0.6 -->
      <g transform="translate(58.996875 194.881459) scale(0.1 -0.1)">
       <defs>
        <path id="DejaVuSans-36" d="M 2113 2584 
Q 1688 2584 1439 2293 
Q 1191 2003 1191 1497 
Q 1191 994 1439 701 
Q 1688 409 2113 409 
Q 2538 409 2786 701 
Q 3034 994 3034 1497 
Q 3034 2003 2786 2293 
Q 2538 2584 2113 2584 
z
M 3366 4563 
L 3366 3988 
Q 3128 4100 2886 4159 
Q 2644 4219 2406 4219 
Q 1781 4219 1451 3797 
Q 1122 3375 1075 2522 
Q 1259 2794 1537 2939 
Q 1816 3084 2150 3084 
Q 2853 3084 3261 2657 
Q 3669 2231 3669 1497 
Q 3669 778 3244 343 
Q 2819 -91 2113 -91 
Q 1303 -91 875 529 
Q 447 1150 447 2328 
Q 447 3434 972 4092 
Q 1497 4750 2381 4750 
Q 2619 4750 2861 4703 
Q 3103 4656 3366 4563 
z
" transform="scale(0.015625)"/>
       </defs>
       <use xlink:href="#DejaVuSans-30"/>
       <use xlink:href="#DejaVuSans-2e" x="63.623047"/>
       <use xlink:href="#DejaVuSans-36" x="95.410156"/>
      </g>
     </g>
    </g>
    <g id="ytick_5">
     <g id="line2d_11">
      <g>
       <use xlink:href="#m981abb2964" x="81.9" y="157.37472" style="stroke: #000000; stroke-width: 0.8"/>
      </g>
     </g>
     <g id="text_11">
      <!-- 0.8 -->
      <g transform="translate(58.996875 161.173939) scale(0.1 -0.1)">
       <defs>
        <path id="DejaVuSans-38" d="M 2034 2216 
Q 1584 2216 1326 1975 
Q 1069 1734 1069 1313 
Q 1069 891 1326 650 
Q 1584 409 2034 409 
Q 2484 409 2743 651 
Q 3003 894 3003 1313 
Q 3003 1734 2745 1975 
Q 2488 2216 2034 2216 
z
M 1403 2484 
Q 997 2584 770 2862 
Q 544 3141 544 3541 
Q 544 4100 942 4425 
Q 1341 4750 2034 4750 
Q 2731 4750 3128 4425 
Q 3525 4100 3525 3541 
Q 3525 3141 3298 2862 
Q 3072 2584 2669 2484 
Q 3125 2378 3379 2068 
Q 3634 1759 3634 1313 
Q 3634 634 3220 271 
Q 2806 -91 2034 -91 
Q 1263 -91 848 271 
Q 434 634 434 1313 
Q 434 1759 690 2068 
Q 947 2378 1403 2484 
z
M 1172 3481 
Q 1172 3119 1398 2916 
Q 1625 2713 2034 2713 
Q 2441 2713 2670 2916 
Q 2900 3119 2900 3481 
Q 2900 3844 2670 4047 
Q 2441 4250 2034 4250 
Q 1625 4250 1398 4047 
Q 1172 3844 1172 3481 
z
" transform="scale(0.015625)"/>
       </defs>
       <use xlink:href="#DejaVuSans-30"/>
       <use xlink:href="#DejaVuSans-2e" x="63.623047"/>
       <use xlink:href="#DejaVuSans-38" x="95.410156"/>
      </g>
     </g>
    </g>
    <g id="ytick_6">
     <g id="line2d_12">
      <g>
       <use xlink:href="#m981abb2964" x="81.9" y="123.6672" style="stroke: #000000; stroke-width: 0.8"/>
      </g>
     </g>
     <g id="text_12">
      <!-- 1.0 -->
      <g transform="translate(58.996875 127.466419) scale(0.1 -0.1)">
       <use xlink:href="#DejaVuSans-31"/>
       <use xlink:href="#DejaVuSans-2e" x="63.623047"/>
       <use xlink:href="#DejaVuSans-30" x="95.410156"/>
      </g>
     </g>
    </g>
    <g id="ytick_7">
     <g id="line2d_13">
      <g>
       <use xlink:href="#m981abb2964" x="81.9" y="89.95968" style="stroke: #000000; stroke-width: 0.8"/>
      </g>
     </g>
     <g id="text_13">
      <!-- 1.2 -->
      <g transform="translate(58.996875 93.758899) scale(0.1 -0.1)">
       <use xlink:href="#DejaVuSans-31"/>
       <use xlink:href="#DejaVuSans-2e" x="63.623047"/>
       <use xlink:href="#DejaVuSans-32" x="95.410156"/>
      </g>
     </g>
    </g>
    <g id="ytick_8">
     <g id="line2d_14">
      <g>
       <use xlink:href="#m981abb2964" x="81.9" y="56.25216" style="stroke: #000000; stroke-width: 0.8"/>
      </g>
     </g>
     <g id="text_14">
      <!-- 1.4 -->
      <g transform="translate(58.996875 60.051379) scale(0.1 -0.1)">
       <use xlink:href="#DejaVuSans-31"/>
       <use xlink:href="#DejaVuSans-2e" x="63.623047"/>
       <use xlink:href="#DejaVuSans-34" x="95.410156"/>
      </g>
     </g>
    </g>
   </g>
   <g id="line2d_15">
    <path d="M 104.980909 207.936 
L 566.599091 207.936 
L 566.599091 207.936 
" clip-path="url(#pb184ece239)" style="fill: none; stroke: #1f77b4; stroke-width: 1.5; stroke-linecap: square"/>
   </g>
   <g id="line2d_16">
    <path d="M 104.980909 174.22848 
L 566.599091 174.22848 
L 566.599091 174.22848 
" clip-path="url(#pb184ece239)" style="fill: none; stroke: #ff7f0e; stroke-width: 1.5; stroke-linecap: square"/>
   </g>
   <g id="line2d_17">
    <path d="M 104.980909 236.519977 
L 105.905996 236.519977 
L 106.831082 237.008736 
L 107.756169 238.99748 
L 108.681255 239.317701 
L 109.606342 225.817839 
L 110.531428 224.166171 
L 111.456515 230.587453 
L 112.381601 229.441398 
L 113.306688 240.480611 
L 114.231774 240.480611 
L 115.156861 212.95842 
L 116.081948 240.632294 
L 117.007034 240.143535 
L 117.932121 238.99748 
L 118.857207 237.666033 
L 119.782294 236.031218 
L 120.70738 234.868308 
L 121.632467 233.385178 
L 122.557553 231.581825 
L 123.48264 230.755991 
L 124.407726 229.761619 
L 125.332813 229.104323 
L 126.257899 228.278488 
L 127.182986 227.789729 
L 128.108073 227.452654 
L 129.958246 226.475136 
L 130.883332 226.306598 
L 131.808419 223.508874 
L 132.733505 225.312227 
L 133.658592 221.520131 
L 134.583678 225.160543 
L 135.508765 225.160543 
L 136.433851 225.312227 
L 141.059284 225.312227 
L 141.984371 221.368447 
L 142.909457 219.228019 
L 143.834544 216.09322 
L 144.75963 218.722406 
L 145.684717 220.862834 
L 146.609803 220.862834 
L 147.53489 220.374075 
L 148.459976 218.553869 
L 149.385063 219.548241 
L 150.310149 219.885316 
L 151.235236 218.722406 
L 152.160322 204.716932 
L 153.085409 207.53151 
L 154.010496 191.874367 
L 154.935582 201.919208 
L 155.860669 224.65493 
L 156.785755 227.789729 
L 157.710842 228.615564 
L 159.561015 225.817839 
L 160.486101 226.138061 
L 161.411188 223.997633 
L 162.336274 226.306598 
L 163.261361 225.817839 
L 164.186447 227.132433 
L 165.111534 227.621192 
L 166.036621 227.789729 
L 166.961707 240.312073 
L 167.886794 227.30097 
L 168.81188 227.621192 
L 169.736967 225.649302 
L 170.662053 220.037 
L 171.58714 227.452654 
L 172.512226 225.312227 
L 173.437313 229.930157 
L 174.362399 231.24475 
L 175.287486 230.587453 
L 176.212572 229.27286 
L 177.137659 229.761619 
L 178.062745 226.795357 
L 178.987832 227.789729 
L 179.912919 226.306598 
L 180.838005 225.649302 
L 181.763092 223.677412 
L 183.613265 222.194281 
L 184.538351 221.199909 
L 185.463438 220.71115 
L 186.388524 220.374075 
L 187.313611 218.553869 
L 188.238697 216.413441 
L 190.08887 213.295496 
L 191.013957 213.295496 
L 191.939044 212.95842 
L 192.86413 216.581979 
L 193.789217 211.643827 
L 194.714303 215.604461 
L 195.63939 218.722406 
L 196.564476 219.379703 
L 197.489563 213.615717 
L 198.414649 211.306752 
L 199.339736 208.188806 
L 200.264822 207.851731 
L 201.189909 205.374228 
L 202.114995 205.222545 
L 203.040082 204.39671 
L 203.965169 202.42482 
L 205.815342 206.048379 
L 206.740428 206.200063 
L 207.665515 208.188806 
L 208.590601 206.537138 
L 209.515688 204.059635 
L 210.440774 203.233801 
L 211.365861 199.121484 
L 212.290947 201.75067 
L 213.216034 197.469815 
L 214.14112 197.469815 
L 215.066207 179.014948 
L 215.991293 179.352023 
L 216.91638 164.857789 
L 217.841467 193.677719 
L 218.766553 191.874367 
L 219.69164 194.183332 
L 220.616726 169.964479 
L 221.541813 179.689098 
L 222.466899 183.969953 
L 223.391986 191.385608 
L 224.317072 190.054161 
L 225.242159 191.048532 
L 226.167245 198.632724 
L 227.092332 188.57103 
L 228.017418 189.733939 
L 228.942505 193.846257 
L 229.867592 196.323759 
L 230.792678 195.009166 
L 231.717765 194.503553 
L 232.642851 187.424974 
L 233.567938 190.559773 
L 235.418111 186.110381 
L 236.343197 185.941843 
L 238.19337 180.835154 
L 239.118457 181.98121 
L 240.043543 179.520561 
L 240.96863 180.498079 
L 241.893717 181.660988 
L 242.818803 176.87452 
L 243.74389 178.03743 
L 244.668976 179.014948 
L 245.594063 178.205967 
L 246.519149 177.211596 
L 247.444236 178.526189 
L 248.369322 176.87452 
L 249.294409 176.217224 
L 250.219495 177.380133 
L 251.144582 176.385761 
L 252.069668 173.588037 
L 252.994755 174.734093 
L 253.919842 174.90263 
L 254.844928 173.099278 
L 255.770015 173.756575 
L 256.695101 171.616147 
L 257.620188 171.44761 
L 258.545274 172.425128 
L 259.470361 172.273444 
L 260.395447 174.734093 
L 261.320534 173.756575 
L 262.24562 176.87452 
L 263.170707 175.071168 
L 264.095793 175.728465 
L 265.02088 175.559927 
L 265.945966 173.588037 
L 266.871053 177.531817 
L 267.79614 172.93074 
L 268.721226 174.582409 
L 269.646313 175.559927 
L 270.571399 176.722836 
L 271.496486 171.936369 
L 272.421572 172.593665 
L 273.346659 175.239706 
L 274.271745 174.90263 
L 275.196832 176.385761 
L 276.121918 176.554299 
L 277.047005 175.239706 
L 277.972091 172.425128 
L 278.897178 170.453238 
L 279.822265 172.273444 
L 280.747351 175.559927 
L 281.672438 175.897002 
L 283.522611 176.217224 
L 284.447697 176.554299 
L 285.372784 177.043058 
L 286.29787 177.211596 
L 287.222957 176.722836 
L 288.148043 177.211596 
L 289.07313 178.357651 
L 289.998216 176.554299 
L 290.923303 176.554299 
L 291.84839 177.380133 
L 292.773476 177.211596 
L 293.698563 174.582409 
L 294.623649 176.87452 
L 295.548736 176.385761 
L 296.473822 174.582409 
L 297.398909 179.014948 
L 298.323995 177.700355 
L 299.249082 174.245334 
L 300.174168 172.273444 
L 302.024341 169.627404 
L 302.949428 171.279072 
L 303.874514 169.627404 
L 304.799601 179.014948 
L 305.724688 178.205967 
L 306.649774 180.346395 
L 307.574861 179.520561 
L 308.499947 179.352023 
L 309.425034 177.531817 
L 310.35012 171.110534 
L 311.275207 172.593665 
L 312.200293 172.273444 
L 313.12538 173.756575 
L 314.050466 170.2847 
L 314.975553 168.801569 
L 315.900639 166.509458 
L 316.825726 169.458866 
L 317.750813 167.992589 
L 319.600986 165.835308 
L 320.526072 162.211749 
L 321.451159 165.515086 
L 322.376245 169.307182 
L 323.301332 162.548824 
L 324.226418 163.374659 
L 325.151505 158.925266 
L 326.076591 158.588191 
L 327.001678 123.6672 
L 364.005139 123.6672 
L 364.930226 148.711887 
L 365.855312 144.582716 
L 366.780399 159.582563 
L 367.705486 163.863418 
L 368.630572 166.34092 
L 369.555659 166.829679 
L 370.480745 164.857789 
L 371.405832 170.2847 
L 372.330918 168.31281 
L 373.256005 170.133016 
L 374.181091 168.31281 
L 375.106178 174.076796 
L 376.031264 173.250962 
L 376.956351 174.245334 
L 377.881437 172.593665 
L 378.806524 174.245334 
L 379.73161 176.87452 
L 380.656697 184.62725 
L 381.581784 185.116009 
L 382.50687 203.233801 
L 383.431957 177.531817 
L 384.357043 171.279072 
L 385.28213 170.621775 
L 386.207216 167.318438 
L 387.132303 164.689252 
L 388.057389 165.515086 
L 388.982476 166.998217 
L 389.907562 165.026327 
L 390.832649 163.543196 
L 391.757735 166.003845 
L 392.682822 163.543196 
L 393.607909 165.178011 
L 394.532995 165.346548 
L 395.458082 165.026327 
L 396.383168 169.138644 
L 397.308255 172.104906 
L 398.233341 171.616147 
L 399.158428 171.279072 
L 400.083514 170.621775 
L 401.008601 171.767831 
L 401.933687 165.515086 
L 402.858774 169.458866 
L 403.78386 164.689252 
L 404.708947 164.520714 
L 405.634034 171.110534 
L 406.55912 175.071168 
L 407.484207 173.756575 
L 408.409293 169.795941 
L 409.33438 165.346548 
L 410.259466 171.616147 
L 411.184553 169.964479 
L 412.109639 170.453238 
L 413.034726 167.318438 
L 413.959812 166.34092 
L 414.884899 167.166755 
L 415.809985 167.318438 
L 416.735072 165.835308 
L 417.660158 167.824051 
L 418.585245 167.655514 
L 419.510332 166.998217 
L 420.435418 164.520714 
L 421.360505 163.863418 
L 422.285591 161.402769 
L 423.210678 157.762356 
L 424.135764 161.402769 
L 425.060851 160.408397 
L 425.985937 159.919638 
L 426.911024 160.239859 
L 427.83611 160.239859 
L 428.761197 160.576934 
L 429.686283 162.869046 
L 431.536457 162.548824 
L 432.461543 163.374659 
L 433.38663 162.717362 
L 434.311716 163.863418 
L 435.236803 163.206121 
L 436.161889 164.200493 
L 437.086976 161.402769 
L 438.012062 157.273597 
L 438.937149 158.588191 
L 439.862235 158.267969 
L 440.787322 162.060065 
L 441.712408 163.863418 
L 442.637495 163.543196 
L 443.562582 166.003845 
L 444.487668 176.06554 
L 445.412755 179.352023 
L 446.337841 179.183485 
L 447.262928 181.003692 
L 448.188014 178.694726 
L 449.113101 183.632878 
L 450.038187 181.829526 
L 450.963274 182.318285 
L 451.88836 181.829526 
L 452.813447 185.116009 
L 453.738533 182.318285 
L 454.66362 186.110381 
L 455.588707 187.762049 
L 456.513793 183.969953 
L 457.43888 175.391389 
L 458.363966 163.374659 
L 459.289053 159.093804 
L 460.214139 160.576934 
L 461.139226 156.616301 
L 462.064312 160.576934 
L 462.989399 163.543196 
L 463.914485 160.071322 
L 464.839572 123.6672 
L 520.344764 123.6672 
L 521.269851 158.925266 
L 522.194937 154.644411 
L 523.120024 151.509612 
L 524.04511 129.768261 
L 524.970197 127.122221 
L 525.895283 126.970537 
L 526.82037 125.487406 
L 527.745456 123.6672 
L 566.599091 123.6672 
L 566.599091 123.6672 
" clip-path="url(#pb184ece239)" style="fill: none; stroke: #2ca02c; stroke-width: 1.5; stroke-linecap: square"/>
   </g>
   <g id="line2d_18">
    <path d="M 104.980909 240.105905 
L 106.831082 239.928366 
L 108.681255 239.469019 
L 110.531428 238.779615 
L 111.456515 238.330663 
L 112.381601 237.75498 
L 114.231774 236.173685 
L 117.007034 233.555139 
L 117.932121 232.835136 
L 118.857207 232.289849 
L 119.782294 231.984091 
L 120.70738 231.949737 
L 121.632467 232.175545 
L 122.557553 232.61017 
L 125.332813 234.291643 
L 126.257899 234.667234 
L 127.182986 234.830453 
L 128.108073 234.746582 
L 129.033159 234.408613 
L 129.958246 233.834614 
L 130.883332 233.062342 
L 132.733505 231.125496 
L 136.433851 226.987783 
L 138.284024 225.380987 
L 139.209111 224.798504 
L 140.134197 224.380495 
L 141.059284 224.124368 
L 141.984371 224.014835 
L 143.834544 224.088194 
L 145.684717 224.126856 
L 146.609803 223.975545 
L 147.53489 223.679111 
L 149.385063 222.730607 
L 154.010496 219.732484 
L 154.935582 218.970954 
L 155.860669 217.980697 
L 157.710842 215.362108 
L 158.635928 214.054221 
L 159.561015 213.049475 
L 160.486101 212.531053 
L 161.411188 212.597717 
L 162.336274 213.257675 
L 163.261361 214.442929 
L 164.186447 216.034649 
L 169.736967 226.930226 
L 170.662053 228.214264 
L 171.58714 229.200858 
L 172.512226 229.843638 
L 173.437313 230.129312 
L 174.362399 230.090043 
L 175.287486 229.80034 
L 178.987832 228.058789 
L 180.838005 227.663401 
L 185.463438 227.281836 
L 186.388524 226.974633 
L 187.313611 226.52751 
L 188.238697 225.939417 
L 190.08887 224.366489 
L 191.939044 222.319812 
L 196.564476 216.451485 
L 197.489563 215.540944 
L 198.414649 214.844502 
L 199.339736 214.370752 
L 201.189909 213.902656 
L 203.040082 213.521118 
L 203.965169 213.160756 
L 204.890255 212.618055 
L 205.815342 211.877141 
L 207.665515 209.91049 
L 209.515688 207.753589 
L 211.365861 205.984892 
L 213.216034 204.782319 
L 215.991293 203.386479 
L 216.91638 202.688129 
L 217.841467 201.642877 
L 218.766553 200.149763 
L 219.69164 198.227516 
L 222.466899 191.293025 
L 224.317072 186.933 
L 225.242159 185.154531 
L 226.167245 183.795628 
L 227.092332 182.944789 
L 228.017418 182.646841 
L 228.942505 182.885211 
L 229.867592 183.589458 
L 230.792678 184.664204 
L 232.642851 187.516327 
L 234.493024 190.542742 
L 235.418111 191.815971 
L 236.343197 192.791901 
L 237.268284 193.400554 
L 238.19337 193.601364 
L 239.118457 193.381777 
L 240.043543 192.756079 
L 240.96863 191.765164 
L 241.893717 190.474398 
L 243.74389 187.339867 
L 246.519149 182.531498 
L 248.369322 179.999721 
L 249.294409 179.038648 
L 250.219495 178.285583 
L 251.144582 177.724665 
L 252.069668 177.329428 
L 253.919842 176.883896 
L 257.620188 176.244782 
L 259.470361 175.621838 
L 262.24562 174.269525 
L 264.095793 173.465652 
L 265.02088 173.215829 
L 265.945966 173.099138 
L 266.871053 173.116922 
L 268.721226 173.489199 
L 273.346659 174.960769 
L 275.196832 175.206017 
L 277.047005 175.174422 
L 280.747351 174.861001 
L 285.372784 174.173937 
L 287.222957 174.251029 
L 289.07313 174.680281 
L 290.923303 175.374064 
L 293.698563 176.517667 
L 295.548736 177.066361 
L 297.398909 177.292572 
L 299.249082 177.212806 
L 301.099255 176.956167 
L 302.949428 176.501573 
L 304.799601 175.686526 
L 307.574861 174.075894 
L 308.499947 173.715165 
L 309.425034 173.562636 
L 310.35012 173.644252 
L 311.275207 173.93701 
L 314.975553 175.635188 
L 315.900639 175.795419 
L 316.825726 175.739489 
L 317.750813 175.443943 
L 318.675899 174.912716 
L 319.600986 174.173824 
L 321.451159 172.236989 
L 325.151505 167.819582 
L 328.851851 163.879178 
L 329.776938 162.255445 
L 330.702024 159.978231 
L 331.627111 156.965572 
L 332.552197 153.2542 
L 334.40237 144.366855 
L 336.252543 135.087571 
L 337.17763 130.898736 
L 338.102716 127.260943 
L 339.027803 124.291526 
L 339.952889 122.045792 
L 340.877976 120.520655 
L 341.803062 119.663412 
L 342.728149 119.383733 
L 343.653236 119.567057 
L 344.578322 120.087826 
L 346.428495 121.653318 
L 348.278668 123.247178 
L 349.203755 123.881871 
L 350.128841 124.361618 
L 351.053928 124.677099 
L 351.979014 124.835538 
L 353.829187 124.767418 
L 356.604447 124.151712 
L 359.379707 123.558652 
L 361.22988 123.363154 
L 364.005139 123.365896 
L 365.855312 123.563455 
L 366.780399 123.883573 
L 367.705486 124.553036 
L 368.630572 125.754873 
L 369.555659 127.647561 
L 370.480745 130.32027 
L 371.405832 133.764328 
L 373.256005 142.474397 
L 376.031264 156.933023 
L 377.881437 165.053625 
L 378.806524 168.264675 
L 379.73161 170.848688 
L 380.656697 172.821578 
L 381.581784 174.25603 
L 382.50687 175.284147 
L 386.207216 178.395383 
L 387.132303 179.080323 
L 388.057389 179.528751 
L 388.982476 179.617624 
L 389.907562 179.269224 
L 390.832649 178.464982 
L 391.757735 177.239841 
L 392.682822 175.670323 
L 397.308255 166.634106 
L 398.233341 165.366275 
L 399.158428 164.484027 
L 400.083514 164.030436 
L 401.008601 164.007763 
L 401.933687 164.376152 
L 402.858774 165.056864 
L 406.55912 168.614617 
L 407.484207 169.226009 
L 408.409293 169.673124 
L 410.259466 170.206629 
L 412.109639 170.382111 
L 413.959812 170.310065 
L 415.809985 170.051141 
L 417.660158 169.575525 
L 420.435418 168.539425 
L 424.135764 167.015132 
L 425.985937 165.976258 
L 427.83611 164.606967 
L 431.536457 161.650366 
L 432.461543 161.105457 
L 433.38663 160.714438 
L 434.311716 160.494251 
L 435.236803 160.446301 
L 436.161889 160.558326 
L 438.012062 161.154298 
L 439.862235 161.918065 
L 440.787322 162.200654 
L 441.712408 162.353288 
L 443.562582 162.281303 
L 445.412755 162.037563 
L 446.337841 162.080987 
L 447.262928 162.394523 
L 448.188014 163.075522 
L 449.113101 164.172308 
L 450.038187 165.679194 
L 450.963274 167.544565 
L 452.813447 171.975552 
L 454.66362 176.568887 
L 456.513793 180.529062 
L 457.43888 182.12624 
L 458.363966 183.4113 
L 459.289053 184.305472 
L 460.214139 184.691025 
L 461.139226 184.445541 
L 462.064312 183.488099 
L 462.989399 181.811772 
L 463.914485 179.49679 
L 464.839572 176.683028 
L 466.689745 169.940884 
L 468.539918 161.644984 
L 470.390091 151.858167 
L 473.165351 136.727348 
L 474.090437 132.31952 
L 475.015524 128.499427 
L 475.94061 125.364124 
L 476.865697 122.957572 
L 477.790783 121.27238 
L 478.71587 120.256525 
L 479.640956 119.823395 
L 480.566043 119.863496 
L 481.49113 120.256364 
L 483.341303 121.627287 
L 485.191476 123.11792 
L 486.116562 123.73288 
L 487.041649 124.210346 
L 487.966735 124.537209 
L 488.891822 124.716651 
L 490.741995 124.704007 
L 492.592168 124.374203 
L 496.292514 123.597249 
L 498.142687 123.398241 
L 500.917947 123.380236 
L 510.168812 123.752652 
L 521.269851 123.661131 
L 522.194937 123.768716 
L 523.120024 124.126038 
L 524.04511 124.917182 
L 524.970197 126.235865 
L 525.895283 128.017103 
L 528.670543 133.885791 
L 529.595629 135.199115 
L 530.520716 135.905961 
L 531.445803 135.953599 
L 532.370889 135.368303 
L 533.295976 134.240131 
L 534.221062 132.702604 
L 537.921408 125.512731 
L 538.846495 124.094346 
L 539.771581 122.981976 
L 540.696668 122.194846 
L 541.621754 121.723321 
L 542.546841 121.534967 
L 543.471927 121.581502 
L 544.397014 121.80582 
L 546.247187 122.552878 
L 549.022447 123.693157 
L 550.87262 124.133188 
L 552.722793 124.262567 
L 554.572966 124.159699 
L 561.048572 123.526668 
L 564.748918 123.53518 
L 566.599091 123.596988 
L 566.599091 123.596988 
" clip-path="url(#pb184ece239)" style="fill: none; stroke: #d62728; stroke-width: 1.5; stroke-linecap: square"/>
   </g>
   <g id="patch_3">
    <path d="M 81.9 292.2048 
L 81.9 39.3984 
" style="fill: none; stroke: #000000; stroke-width: 0.8; stroke-linejoin: miter; stroke-linecap: square"/>
   </g>
   <g id="patch_4">
    <path d="M 589.68 292.2048 
L 589.68 39.3984 
" style="fill: none; stroke: #000000; stroke-width: 0.8; stroke-linejoin: miter; stroke-linecap: square"/>
   </g>
   <g id="patch_5">
    <path d="M 81.9 292.2048 
L 589.68 292.2048 
" style="fill: none; stroke: #000000; stroke-width: 0.8; stroke-linejoin: miter; stroke-linecap: square"/>
   </g>
   <g id="patch_6">
    <path d="M 81.9 39.3984 
L 589.68 39.3984 
" style="fill: none; stroke: #000000; stroke-width: 0.8; stroke-linejoin: miter; stroke-linecap: square"/>
   </g>
   <g id="text_15">
    <!-- pinkyPlot -->
    <g transform="translate(308.395312 33.3984) scale(0.12 -0.12)">
     <defs>
      <path id="DejaVuSans-70" d="M 1159 525 
L 1159 -1331 
L 581 -1331 
L 581 3500 
L 1159 3500 
L 1159 2969 
Q 1341 3281 1617 3432 
Q 1894 3584 2278 3584 
Q 2916 3584 3314 3078 
Q 3713 2572 3713 1747 
Q 3713 922 3314 415 
Q 2916 -91 2278 -91 
Q 1894 -91 1617 61 
Q 1341 213 1159 525 
z
M 3116 1747 
Q 3116 2381 2855 2742 
Q 2594 3103 2138 3103 
Q 1681 3103 1420 2742 
Q 1159 2381 1159 1747 
Q 1159 1113 1420 752 
Q 1681 391 2138 391 
Q 2594 391 2855 752 
Q 3116 1113 3116 1747 
z
" transform="scale(0.015625)"/>
      <path id="DejaVuSans-69" d="M 603 3500 
L 1178 3500 
L 1178 0 
L 603 0 
L 603 3500 
z
M 603 4863 
L 1178 4863 
L 1178 4134 
L 603 4134 
L 603 4863 
z
" transform="scale(0.015625)"/>
      <path id="DejaVuSans-6e" d="M 3513 2113 
L 3513 0 
L 2938 0 
L 2938 2094 
Q 2938 2591 2744 2837 
Q 2550 3084 2163 3084 
Q 1697 3084 1428 2787 
Q 1159 2491 1159 1978 
L 1159 0 
L 581 0 
L 581 3500 
L 1159 3500 
L 1159 2956 
Q 1366 3272 1645 3428 
Q 1925 3584 2291 3584 
Q 2894 3584 3203 3211 
Q 3513 2838 3513 2113 
z
" transform="scale(0.015625)"/>
      <path id="DejaVuSans-6b" d="M 581 4863 
L 1159 4863 
L 1159 1991 
L 2875 3500 
L 3609 3500 
L 1753 1863 
L 3688 0 
L 2938 0 
L 1159 1709 
L 1159 0 
L 581 0 
L 581 4863 
z
" transform="scale(0.015625)"/>
      <path id="DejaVuSans-79" d="M 2059 -325 
Q 1816 -950 1584 -1140 
Q 1353 -1331 966 -1331 
L 506 -1331 
L 506 -850 
L 844 -850 
Q 1081 -850 1212 -737 
Q 1344 -625 1503 -206 
L 1606 56 
L 191 3500 
L 800 3500 
L 1894 763 
L 2988 3500 
L 3597 3500 
L 2059 -325 
z
" transform="scale(0.015625)"/>
      <path id="DejaVuSans-50" d="M 1259 4147 
L 1259 2394 
L 2053 2394 
Q 2494 2394 2734 2622 
Q 2975 2850 2975 3272 
Q 2975 3691 2734 3919 
Q 2494 4147 2053 4147 
L 1259 4147 
z
M 628 4666 
L 2053 4666 
Q 2838 4666 3239 4311 
Q 3641 3956 3641 3272 
Q 3641 2581 3239 2228 
Q 2838 1875 2053 1875 
L 1259 1875 
L 1259 0 
L 628 0 
L 628 4666 
z
" transform="scale(0.015625)"/>
      <path id="DejaVuSans-6c" d="M 603 4863 
L 1178 4863 
L 1178 0 
L 603 0 
L 603 4863 
z
" transform="scale(0.015625)"/>
      <path id="DejaVuSans-6f" d="M 1959 3097 
Q 1497 3097 1228 2736 
Q 959 2375 959 1747 
Q 959 1119 1226 758 
Q 1494 397 1959 397 
Q 2419 397 2687 759 
Q 2956 1122 2956 1747 
Q 2956 2369 2687 2733 
Q 2419 3097 1959 3097 
z
M 1959 3584 
Q 2709 3584 3137 3096 
Q 3566 2609 3566 1747 
Q 3566 888 3137 398 
Q 2709 -91 1959 -91 
Q 1206 -91 779 398 
Q 353 888 353 1747 
Q 353 2609 779 3096 
Q 1206 3584 1959 3584 
z
" transform="scale(0.015625)"/>
      <path id="DejaVuSans-74" d="M 1172 4494 
L 1172 3500 
L 2356 3500 
L 2356 3053 
L 1172 3053 
L 1172 1153 
Q 1172 725 1289 603 
Q 1406 481 1766 481 
L 2356 481 
L 2356 0 
L 1766 0 
Q 1100 0 847 248 
Q 594 497 594 1153 
L 594 3053 
L 172 3053 
L 172 3500 
L 594 3500 
L 594 4494 
L 1172 4494 
z
" transform="scale(0.015625)"/>
     </defs>
     <use xlink:href="#DejaVuSans-70"/>
     <use xlink:href="#DejaVuSans-69" x="63.476562"/>
     <use xlink:href="#DejaVuSans-6e" x="91.259766"/>
     <use xlink:href="#DejaVuSans-6b" x="154.638672"/>
     <use xlink:href="#DejaVuSans-79" x="208.923828"/>
     <use xlink:href="#DejaVuSans-50" x="268.103516"/>
     <use xlink:href="#DejaVuSans-6c" x="328.40625"/>
     <use xlink:href="#DejaVuSans-6f" x="356.189453"/>
     <use xlink:href="#DejaVuSans-74" x="417.371094"/>
    </g>
   </g>
   <g id="legend_1">
    <g id="patch_7">
     <path d="M 420.284687 117.308712 
L 582.68 117.308712 
Q 584.68 117.308712 584.68 115.308712 
L 584.68 46.3984 
Q 584.68 44.3984 582.68 44.3984 
L 420.284687 44.3984 
Q 418.284687 44.3984 418.284687 46.3984 
L 418.284687 115.308712 
Q 418.284687 117.308712 420.284687 117.308712 
z
" style="fill: #ffffff; opacity: 0.8; stroke: #cccccc; stroke-linejoin: miter"/>
    </g>
    <g id="line2d_19">
     <path d="M 422.284687 52.496837 
L 432.284687 52.496837 
L 442.284687 52.496837 
" style="fill: none; stroke: #1f77b4; stroke-width: 1.5; stroke-linecap: square"/>
    </g>
    <g id="text_16">
     <!-- On Threshold -->
     <g transform="translate(450.284687 55.996837) scale(0.1 -0.1)">
      <defs>
       <path id="DejaVuSans-4f" d="M 2522 4238 
Q 1834 4238 1429 3725 
Q 1025 3213 1025 2328 
Q 1025 1447 1429 934 
Q 1834 422 2522 422 
Q 3209 422 3611 934 
Q 4013 1447 4013 2328 
Q 4013 3213 3611 3725 
Q 3209 4238 2522 4238 
z
M 2522 4750 
Q 3503 4750 4090 4092 
Q 4678 3434 4678 2328 
Q 4678 1225 4090 567 
Q 3503 -91 2522 -91 
Q 1538 -91 948 565 
Q 359 1222 359 2328 
Q 359 3434 948 4092 
Q 1538 4750 2522 4750 
z
" transform="scale(0.015625)"/>
       <path id="DejaVuSans-20" transform="scale(0.015625)"/>
       <path id="DejaVuSans-54" d="M -19 4666 
L 3928 4666 
L 3928 4134 
L 2272 4134 
L 2272 0 
L 1638 0 
L 1638 4134 
L -19 4134 
L -19 4666 
z
" transform="scale(0.015625)"/>
       <path id="DejaVuSans-68" d="M 3513 2113 
L 3513 0 
L 2938 0 
L 2938 2094 
Q 2938 2591 2744 2837 
Q 2550 3084 2163 3084 
Q 1697 3084 1428 2787 
Q 1159 2491 1159 1978 
L 1159 0 
L 581 0 
L 581 4863 
L 1159 4863 
L 1159 2956 
Q 1366 3272 1645 3428 
Q 1925 3584 2291 3584 
Q 2894 3584 3203 3211 
Q 3513 2838 3513 2113 
z
" transform="scale(0.015625)"/>
       <path id="DejaVuSans-72" d="M 2631 2963 
Q 2534 3019 2420 3045 
Q 2306 3072 2169 3072 
Q 1681 3072 1420 2755 
Q 1159 2438 1159 1844 
L 1159 0 
L 581 0 
L 581 3500 
L 1159 3500 
L 1159 2956 
Q 1341 3275 1631 3429 
Q 1922 3584 2338 3584 
Q 2397 3584 2469 3576 
Q 2541 3569 2628 3553 
L 2631 2963 
z
" transform="scale(0.015625)"/>
       <path id="DejaVuSans-65" d="M 3597 1894 
L 3597 1613 
L 953 1613 
Q 991 1019 1311 708 
Q 1631 397 2203 397 
Q 2534 397 2845 478 
Q 3156 559 3463 722 
L 3463 178 
Q 3153 47 2828 -22 
Q 2503 -91 2169 -91 
Q 1331 -91 842 396 
Q 353 884 353 1716 
Q 353 2575 817 3079 
Q 1281 3584 2069 3584 
Q 2775 3584 3186 3129 
Q 3597 2675 3597 1894 
z
M 3022 2063 
Q 3016 2534 2758 2815 
Q 2500 3097 2075 3097 
Q 1594 3097 1305 2825 
Q 1016 2553 972 2059 
L 3022 2063 
z
" transform="scale(0.015625)"/>
       <path id="DejaVuSans-73" d="M 2834 3397 
L 2834 2853 
Q 2591 2978 2328 3040 
Q 2066 3103 1784 3103 
Q 1356 3103 1142 2972 
Q 928 2841 928 2578 
Q 928 2378 1081 2264 
Q 1234 2150 1697 2047 
L 1894 2003 
Q 2506 1872 2764 1633 
Q 3022 1394 3022 966 
Q 3022 478 2636 193 
Q 2250 -91 1575 -91 
Q 1294 -91 989 -36 
Q 684 19 347 128 
L 347 722 
Q 666 556 975 473 
Q 1284 391 1588 391 
Q 1994 391 2212 530 
Q 2431 669 2431 922 
Q 2431 1156 2273 1281 
Q 2116 1406 1581 1522 
L 1381 1569 
Q 847 1681 609 1914 
Q 372 2147 372 2553 
Q 372 3047 722 3315 
Q 1072 3584 1716 3584 
Q 2034 3584 2315 3537 
Q 2597 3491 2834 3397 
z
" transform="scale(0.015625)"/>
       <path id="DejaVuSans-64" d="M 2906 2969 
L 2906 4863 
L 3481 4863 
L 3481 0 
L 2906 0 
L 2906 525 
Q 2725 213 2448 61 
Q 2172 -91 1784 -91 
Q 1150 -91 751 415 
Q 353 922 353 1747 
Q 353 2572 751 3078 
Q 1150 3584 1784 3584 
Q 2172 3584 2448 3432 
Q 2725 3281 2906 2969 
z
M 947 1747 
Q 947 1113 1208 752 
Q 1469 391 1925 391 
Q 2381 391 2643 752 
Q 2906 1113 2906 1747 
Q 2906 2381 2643 2742 
Q 2381 3103 1925 3103 
Q 1469 3103 1208 2742 
Q 947 2381 947 1747 
z
" transform="scale(0.015625)"/>
      </defs>
      <use xlink:href="#DejaVuSans-4f"/>
      <use xlink:href="#DejaVuSans-6e" x="78.710938"/>
      <use xlink:href="#DejaVuSans-20" x="142.089844"/>
      <use xlink:href="#DejaVuSans-54" x="173.876953"/>
      <use xlink:href="#DejaVuSans-68" x="234.960938"/>
      <use xlink:href="#DejaVuSans-72" x="298.339844"/>
      <use xlink:href="#DejaVuSans-65" x="337.203125"/>
      <use xlink:href="#DejaVuSans-73" x="398.726562"/>
      <use xlink:href="#DejaVuSans-68" x="450.826172"/>
      <use xlink:href="#DejaVuSans-6f" x="514.205078"/>
      <use xlink:href="#DejaVuSans-6c" x="575.386719"/>
      <use xlink:href="#DejaVuSans-64" x="603.169922"/>
     </g>
    </g>
    <g id="line2d_20">
     <path d="M 422.284687 67.174962 
L 432.284687 67.174962 
L 442.284687 67.174962 
" style="fill: none; stroke: #ff7f0e; stroke-width: 1.5; stroke-linecap: square"/>
    </g>
    <g id="text_17">
     <!-- Automation Threshold -->
     <g transform="translate(450.284687 70.674962) scale(0.1 -0.1)">
      <defs>
       <path id="DejaVuSans-41" d="M 2188 4044 
L 1331 1722 
L 3047 1722 
L 2188 4044 
z
M 1831 4666 
L 2547 4666 
L 4325 0 
L 3669 0 
L 3244 1197 
L 1141 1197 
L 716 0 
L 50 0 
L 1831 4666 
z
" transform="scale(0.015625)"/>
       <path id="DejaVuSans-75" d="M 544 1381 
L 544 3500 
L 1119 3500 
L 1119 1403 
Q 1119 906 1312 657 
Q 1506 409 1894 409 
Q 2359 409 2629 706 
Q 2900 1003 2900 1516 
L 2900 3500 
L 3475 3500 
L 3475 0 
L 2900 0 
L 2900 538 
Q 2691 219 2414 64 
Q 2138 -91 1772 -91 
Q 1169 -91 856 284 
Q 544 659 544 1381 
z
M 1991 3584 
L 1991 3584 
z
" transform="scale(0.015625)"/>
       <path id="DejaVuSans-6d" d="M 3328 2828 
Q 3544 3216 3844 3400 
Q 4144 3584 4550 3584 
Q 5097 3584 5394 3201 
Q 5691 2819 5691 2113 
L 5691 0 
L 5113 0 
L 5113 2094 
Q 5113 2597 4934 2840 
Q 4756 3084 4391 3084 
Q 3944 3084 3684 2787 
Q 3425 2491 3425 1978 
L 3425 0 
L 2847 0 
L 2847 2094 
Q 2847 2600 2669 2842 
Q 2491 3084 2119 3084 
Q 1678 3084 1418 2786 
Q 1159 2488 1159 1978 
L 1159 0 
L 581 0 
L 581 3500 
L 1159 3500 
L 1159 2956 
Q 1356 3278 1631 3431 
Q 1906 3584 2284 3584 
Q 2666 3584 2933 3390 
Q 3200 3197 3328 2828 
z
" transform="scale(0.015625)"/>
       <path id="DejaVuSans-61" d="M 2194 1759 
Q 1497 1759 1228 1600 
Q 959 1441 959 1056 
Q 959 750 1161 570 
Q 1363 391 1709 391 
Q 2188 391 2477 730 
Q 2766 1069 2766 1631 
L 2766 1759 
L 2194 1759 
z
M 3341 1997 
L 3341 0 
L 2766 0 
L 2766 531 
Q 2569 213 2275 61 
Q 1981 -91 1556 -91 
Q 1019 -91 701 211 
Q 384 513 384 1019 
Q 384 1609 779 1909 
Q 1175 2209 1959 2209 
L 2766 2209 
L 2766 2266 
Q 2766 2663 2505 2880 
Q 2244 3097 1772 3097 
Q 1472 3097 1187 3025 
Q 903 2953 641 2809 
L 641 3341 
Q 956 3463 1253 3523 
Q 1550 3584 1831 3584 
Q 2591 3584 2966 3190 
Q 3341 2797 3341 1997 
z
" transform="scale(0.015625)"/>
      </defs>
      <use xlink:href="#DejaVuSans-41"/>
      <use xlink:href="#DejaVuSans-75" x="68.408203"/>
      <use xlink:href="#DejaVuSans-74" x="131.787109"/>
      <use xlink:href="#DejaVuSans-6f" x="170.996094"/>
      <use xlink:href="#DejaVuSans-6d" x="232.177734"/>
      <use xlink:href="#DejaVuSans-61" x="329.589844"/>
      <use xlink:href="#DejaVuSans-74" x="390.869141"/>
      <use xlink:href="#DejaVuSans-69" x="430.078125"/>
      <use xlink:href="#DejaVuSans-6f" x="457.861328"/>
      <use xlink:href="#DejaVuSans-6e" x="519.042969"/>
      <use xlink:href="#DejaVuSans-20" x="582.421875"/>
      <use xlink:href="#DejaVuSans-54" x="614.208984"/>
      <use xlink:href="#DejaVuSans-68" x="675.292969"/>
      <use xlink:href="#DejaVuSans-72" x="738.671875"/>
      <use xlink:href="#DejaVuSans-65" x="777.535156"/>
      <use xlink:href="#DejaVuSans-73" x="839.058594"/>
      <use xlink:href="#DejaVuSans-68" x="891.158203"/>
      <use xlink:href="#DejaVuSans-6f" x="954.537109"/>
      <use xlink:href="#DejaVuSans-6c" x="1015.71875"/>
      <use xlink:href="#DejaVuSans-64" x="1043.501953"/>
     </g>
    </g>
    <g id="line2d_21">
     <path d="M 422.284687 81.853087 
L 432.284687 81.853087 
L 442.284687 81.853087 
" style="fill: none; stroke: #2ca02c; stroke-width: 1.5; stroke-linecap: square"/>
    </g>
    <g id="text_18">
     <!-- Noisy Signal -->
     <g transform="translate(450.284687 85.353087) scale(0.1 -0.1)">
      <defs>
       <path id="DejaVuSans-4e" d="M 628 4666 
L 1478 4666 
L 3547 763 
L 3547 4666 
L 4159 4666 
L 4159 0 
L 3309 0 
L 1241 3903 
L 1241 0 
L 628 0 
L 628 4666 
z
" transform="scale(0.015625)"/>
       <path id="DejaVuSans-53" d="M 3425 4513 
L 3425 3897 
Q 3066 4069 2747 4153 
Q 2428 4238 2131 4238 
Q 1616 4238 1336 4038 
Q 1056 3838 1056 3469 
Q 1056 3159 1242 3001 
Q 1428 2844 1947 2747 
L 2328 2669 
Q 3034 2534 3370 2195 
Q 3706 1856 3706 1288 
Q 3706 609 3251 259 
Q 2797 -91 1919 -91 
Q 1588 -91 1214 -16 
Q 841 59 441 206 
L 441 856 
Q 825 641 1194 531 
Q 1563 422 1919 422 
Q 2459 422 2753 634 
Q 3047 847 3047 1241 
Q 3047 1584 2836 1778 
Q 2625 1972 2144 2069 
L 1759 2144 
Q 1053 2284 737 2584 
Q 422 2884 422 3419 
Q 422 4038 858 4394 
Q 1294 4750 2059 4750 
Q 2388 4750 2728 4690 
Q 3069 4631 3425 4513 
z
" transform="scale(0.015625)"/>
       <path id="DejaVuSans-67" d="M 2906 1791 
Q 2906 2416 2648 2759 
Q 2391 3103 1925 3103 
Q 1463 3103 1205 2759 
Q 947 2416 947 1791 
Q 947 1169 1205 825 
Q 1463 481 1925 481 
Q 2391 481 2648 825 
Q 2906 1169 2906 1791 
z
M 3481 434 
Q 3481 -459 3084 -895 
Q 2688 -1331 1869 -1331 
Q 1566 -1331 1297 -1286 
Q 1028 -1241 775 -1147 
L 775 -588 
Q 1028 -725 1275 -790 
Q 1522 -856 1778 -856 
Q 2344 -856 2625 -561 
Q 2906 -266 2906 331 
L 2906 616 
Q 2728 306 2450 153 
Q 2172 0 1784 0 
Q 1141 0 747 490 
Q 353 981 353 1791 
Q 353 2603 747 3093 
Q 1141 3584 1784 3584 
Q 2172 3584 2450 3431 
Q 2728 3278 2906 2969 
L 2906 3500 
L 3481 3500 
L 3481 434 
z
" transform="scale(0.015625)"/>
      </defs>
      <use xlink:href="#DejaVuSans-4e"/>
      <use xlink:href="#DejaVuSans-6f" x="74.804688"/>
      <use xlink:href="#DejaVuSans-69" x="135.986328"/>
      <use xlink:href="#DejaVuSans-73" x="163.769531"/>
      <use xlink:href="#DejaVuSans-79" x="215.869141"/>
      <use xlink:href="#DejaVuSans-20" x="275.048828"/>
      <use xlink:href="#DejaVuSans-53" x="306.835938"/>
      <use xlink:href="#DejaVuSans-69" x="370.3125"/>
      <use xlink:href="#DejaVuSans-67" x="398.095703"/>
      <use xlink:href="#DejaVuSans-6e" x="461.572266"/>
      <use xlink:href="#DejaVuSans-61" x="524.951172"/>
      <use xlink:href="#DejaVuSans-6c" x="586.230469"/>
     </g>
    </g>
    <g id="line2d_22">
     <path d="M 422.284687 103.169962 
L 432.284687 103.169962 
L 442.284687 103.169962 
" style="fill: none; stroke: #d62728; stroke-width: 1.5; stroke-linecap: square"/>
    </g>
    <g id="text_19">
     <!-- CleanSignal -->
     <g transform="translate(450.284687 100.031212) scale(0.1 -0.1)">
      <defs>
       <path id="DejaVuSans-43" d="M 4122 4306 
L 4122 3641 
Q 3803 3938 3442 4084 
Q 3081 4231 2675 4231 
Q 1875 4231 1450 3742 
Q 1025 3253 1025 2328 
Q 1025 1406 1450 917 
Q 1875 428 2675 428 
Q 3081 428 3442 575 
Q 3803 722 4122 1019 
L 4122 359 
Q 3791 134 3420 21 
Q 3050 -91 2638 -91 
Q 1578 -91 968 557 
Q 359 1206 359 2328 
Q 359 3453 968 4101 
Q 1578 4750 2638 4750 
Q 3056 4750 3426 4639 
Q 3797 4528 4122 4306 
z
" transform="scale(0.015625)"/>
      </defs>
      <use xlink:href="#DejaVuSans-43"/>
      <use xlink:href="#DejaVuSans-6c" x="69.824219"/>
      <use xlink:href="#DejaVuSans-65" x="97.607422"/>
      <use xlink:href="#DejaVuSans-61" x="159.130859"/>
      <use xlink:href="#DejaVuSans-6e" x="220.410156"/>
      <use xlink:href="#DejaVuSans-53" x="283.789062"/>
      <use xlink:href="#DejaVuSans-69" x="347.265625"/>
      <use xlink:href="#DejaVuSans-67" x="375.048828"/>
      <use xlink:href="#DejaVuSans-6e" x="438.525391"/>
      <use xlink:href="#DejaVuSans-61" x="501.904297"/>
      <use xlink:href="#DejaVuSans-6c" x="563.183594"/>
     </g>
     <!-- Sampling Rate: 133.16 Hz -->
     <g transform="translate(450.284687 111.229025) scale(0.1 -0.1)">
      <defs>
       <path id="DejaVuSans-52" d="M 2841 2188 
Q 3044 2119 3236 1894 
Q 3428 1669 3622 1275 
L 4263 0 
L 3584 0 
L 2988 1197 
Q 2756 1666 2539 1819 
Q 2322 1972 1947 1972 
L 1259 1972 
L 1259 0 
L 628 0 
L 628 4666 
L 2053 4666 
Q 2853 4666 3247 4331 
Q 3641 3997 3641 3322 
Q 3641 2881 3436 2590 
Q 3231 2300 2841 2188 
z
M 1259 4147 
L 1259 2491 
L 2053 2491 
Q 2509 2491 2742 2702 
Q 2975 2913 2975 3322 
Q 2975 3731 2742 3939 
Q 2509 4147 2053 4147 
L 1259 4147 
z
" transform="scale(0.015625)"/>
       <path id="DejaVuSans-3a" d="M 750 794 
L 1409 794 
L 1409 0 
L 750 0 
L 750 794 
z
M 750 3309 
L 1409 3309 
L 1409 2516 
L 750 2516 
L 750 3309 
z
" transform="scale(0.015625)"/>
       <path id="DejaVuSans-48" d="M 628 4666 
L 1259 4666 
L 1259 2753 
L 3553 2753 
L 3553 4666 
L 4184 4666 
L 4184 0 
L 3553 0 
L 3553 2222 
L 1259 2222 
L 1259 0 
L 628 0 
L 628 4666 
z
" transform="scale(0.015625)"/>
       <path id="DejaVuSans-7a" d="M 353 3500 
L 3084 3500 
L 3084 2975 
L 922 459 
L 3084 459 
L 3084 0 
L 275 0 
L 275 525 
L 2438 3041 
L 353 3041 
L 353 3500 
z
" transform="scale(0.015625)"/>
      </defs>
      <use xlink:href="#DejaVuSans-53"/>
      <use xlink:href="#DejaVuSans-61" x="63.476562"/>
      <use xlink:href="#DejaVuSans-6d" x="124.755859"/>
      <use xlink:href="#DejaVuSans-70" x="222.167969"/>
      <use xlink:href="#DejaVuSans-6c" x="285.644531"/>
      <use xlink:href="#DejaVuSans-69" x="313.427734"/>
      <use xlink:href="#DejaVuSans-6e" x="341.210938"/>
      <use xlink:href="#DejaVuSans-67" x="404.589844"/>
      <use xlink:href="#DejaVuSans-20" x="468.066406"/>
      <use xlink:href="#DejaVuSans-52" x="499.853516"/>
      <use xlink:href="#DejaVuSans-61" x="567.085938"/>
      <use xlink:href="#DejaVuSans-74" x="628.365234"/>
      <use xlink:href="#DejaVuSans-65" x="667.574219"/>
      <use xlink:href="#DejaVuSans-3a" x="729.097656"/>
      <use xlink:href="#DejaVuSans-20" x="762.789062"/>
      <use xlink:href="#DejaVuSans-31" x="794.576172"/>
      <use xlink:href="#DejaVuSans-33" x="858.199219"/>
      <use xlink:href="#DejaVuSans-33" x="921.822266"/>
      <use xlink:href="#DejaVuSans-2e" x="985.445312"/>
      <use xlink:href="#DejaVuSans-31" x="1017.232422"/>
      <use xlink:href="#DejaVuSans-36" x="1080.855469"/>
      <use xlink:href="#DejaVuSans-20" x="1144.478516"/>
      <use xlink:href="#DejaVuSans-48" x="1176.265625"/>
      <use xlink:href="#DejaVuSans-7a" x="1251.460938"/>
     </g>
    </g>
   </g>
  </g>
 </g>
 <defs>
  <clipPath id="pb184ece239">
   <rect x="81.9" y="39.3984" width="507.78" height="252.8064"/>
  </clipPath>
 </defs>
</svg>
