<?xml version="1.0" encoding="utf-8" standalone="no"?>
<!DOCTYPE svg PUBLIC "-//W3C//DTD SVG 1.1//EN"
  "http://www.w3.org/Graphics/SVG/1.1/DTD/svg11.dtd">
<svg xmlns:xlink="http://www.w3.org/1999/xlink" width="655.2pt" height="328.32pt" viewBox="0 0 655.2 328.32" xmlns="http://www.w3.org/2000/svg" version="1.1">
 <metadata>
  <rdf:RDF xmlns:dc="http://purl.org/dc/elements/1.1/" xmlns:cc="http://creativecommons.org/ns#" xmlns:rdf="http://www.w3.org/1999/02/22-rdf-syntax-ns#">
   <cc:Work>
    <dc:type rdf:resource="http://purl.org/dc/dcmitype/StillImage"/>
    <dc:date>2023-12-04T16:13:29.642011</dc:date>
    <dc:format>image/svg+xml</dc:format>
    <dc:creator>
     <cc:Agent>
      <dc:title>Matplotlib v3.7.1, https://matplotlib.org/</dc:title>
     </cc:Agent>
    </dc:creator>
   </cc:Work>
  </rdf:RDF>
 </metadata>
 <defs>
  <style type="text/css">*{stroke-linejoin: round; stroke-linecap: butt}</style>
 </defs>
 <g id="figure_1">
  <g id="patch_1">
   <path d="M 0 328.32 
L 655.2 328.32 
L 655.2 0 
L 0 0 
z
" style="fill: #fffafa"/>
  </g>
  <g id="axes_1">
   <g id="patch_2">
    <path d="M 81.9 292.2048 
L 589.68 292.2048 
L 589.68 39.3984 
L 81.9 39.3984 
z
" style="fill: #fffafa"/>
   </g>
   <g id="matplotlib.axis_1">
    <g id="xtick_1">
     <g id="line2d_1">
      <defs>
       <path id="mdb309f9aae" d="M 0 0 
L 0 3.5 
" style="stroke: #000000; stroke-width: 0.8"/>
      </defs>
      <g>
       <use xlink:href="#mdb309f9aae" x="104.980909" y="292.2048" style="stroke: #000000; stroke-width: 0.8"/>
      </g>
     </g>
     <g id="text_1">
      <!-- 0 -->
      <g transform="translate(101.799659 306.803238) scale(0.1 -0.1)">
       <defs>
        <path id="DejaVuSans-30" d="M 2034 4250 
Q 1547 4250 1301 3770 
Q 1056 3291 1056 2328 
Q 1056 1369 1301 889 
Q 1547 409 2034 409 
Q 2525 409 2770 889 
Q 3016 1369 3016 2328 
Q 3016 3291 2770 3770 
Q 2525 4250 2034 4250 
z
M 2034 4750 
Q 2819 4750 3233 4129 
Q 3647 3509 3647 2328 
Q 3647 1150 3233 529 
Q 2819 -91 2034 -91 
Q 1250 -91 836 529 
Q 422 1150 422 2328 
Q 422 3509 836 4129 
Q 1250 4750 2034 4750 
z
" transform="scale(0.015625)"/>
       </defs>
       <use xlink:href="#DejaVuSans-30"/>
      </g>
     </g>
    </g>
    <g id="xtick_2">
     <g id="line2d_2">
      <g>
       <use xlink:href="#mdb309f9aae" x="197.489563" y="292.2048" style="stroke: #000000; stroke-width: 0.8"/>
      </g>
     </g>
     <g id="text_2">
      <!-- 100 -->
      <g transform="translate(187.945813 306.803238) scale(0.1 -0.1)">
       <defs>
        <path id="DejaVuSans-31" d="M 794 531 
L 1825 531 
L 1825 4091 
L 703 3866 
L 703 4441 
L 1819 4666 
L 2450 4666 
L 2450 531 
L 3481 531 
L 3481 0 
L 794 0 
L 794 531 
z
" transform="scale(0.015625)"/>
       </defs>
       <use xlink:href="#DejaVuSans-31"/>
       <use xlink:href="#DejaVuSans-30" x="63.623047"/>
       <use xlink:href="#DejaVuSans-30" x="127.246094"/>
      </g>
     </g>
    </g>
    <g id="xtick_3">
     <g id="line2d_3">
      <g>
       <use xlink:href="#mdb309f9aae" x="289.998216" y="292.2048" style="stroke: #000000; stroke-width: 0.8"/>
      </g>
     </g>
     <g id="text_3">
      <!-- 200 -->
      <g transform="translate(280.454466 306.803238) scale(0.1 -0.1)">
       <defs>
        <path id="DejaVuSans-32" d="M 1228 531 
L 3431 531 
L 3431 0 
L 469 0 
L 469 531 
Q 828 903 1448 1529 
Q 2069 2156 2228 2338 
Q 2531 2678 2651 2914 
Q 2772 3150 2772 3378 
Q 2772 3750 2511 3984 
Q 2250 4219 1831 4219 
Q 1534 4219 1204 4116 
Q 875 4013 500 3803 
L 500 4441 
Q 881 4594 1212 4672 
Q 1544 4750 1819 4750 
Q 2544 4750 2975 4387 
Q 3406 4025 3406 3419 
Q 3406 3131 3298 2873 
Q 3191 2616 2906 2266 
Q 2828 2175 2409 1742 
Q 1991 1309 1228 531 
z
" transform="scale(0.015625)"/>
       </defs>
       <use xlink:href="#DejaVuSans-32"/>
       <use xlink:href="#DejaVuSans-30" x="63.623047"/>
       <use xlink:href="#DejaVuSans-30" x="127.246094"/>
      </g>
     </g>
    </g>
    <g id="xtick_4">
     <g id="line2d_4">
      <g>
       <use xlink:href="#mdb309f9aae" x="382.50687" y="292.2048" style="stroke: #000000; stroke-width: 0.8"/>
      </g>
     </g>
     <g id="text_4">
      <!-- 300 -->
      <g transform="translate(372.96312 306.803238) scale(0.1 -0.1)">
       <defs>
        <path id="DejaVuSans-33" d="M 2597 2516 
Q 3050 2419 3304 2112 
Q 3559 1806 3559 1356 
Q 3559 666 3084 287 
Q 2609 -91 1734 -91 
Q 1441 -91 1130 -33 
Q 819 25 488 141 
L 488 750 
Q 750 597 1062 519 
Q 1375 441 1716 441 
Q 2309 441 2620 675 
Q 2931 909 2931 1356 
Q 2931 1769 2642 2001 
Q 2353 2234 1838 2234 
L 1294 2234 
L 1294 2753 
L 1863 2753 
Q 2328 2753 2575 2939 
Q 2822 3125 2822 3475 
Q 2822 3834 2567 4026 
Q 2313 4219 1838 4219 
Q 1578 4219 1281 4162 
Q 984 4106 628 3988 
L 628 4550 
Q 988 4650 1302 4700 
Q 1616 4750 1894 4750 
Q 2613 4750 3031 4423 
Q 3450 4097 3450 3541 
Q 3450 3153 3228 2886 
Q 3006 2619 2597 2516 
z
" transform="scale(0.015625)"/>
       </defs>
       <use xlink:href="#DejaVuSans-33"/>
       <use xlink:href="#DejaVuSans-30" x="63.623047"/>
       <use xlink:href="#DejaVuSans-30" x="127.246094"/>
      </g>
     </g>
    </g>
    <g id="xtick_5">
     <g id="line2d_5">
      <g>
       <use xlink:href="#mdb309f9aae" x="475.015524" y="292.2048" style="stroke: #000000; stroke-width: 0.8"/>
      </g>
     </g>
     <g id="text_5">
      <!-- 400 -->
      <g transform="translate(465.471774 306.803238) scale(0.1 -0.1)">
       <defs>
        <path id="DejaVuSans-34" d="M 2419 4116 
L 825 1625 
L 2419 1625 
L 2419 4116 
z
M 2253 4666 
L 3047 4666 
L 3047 1625 
L 3713 1625 
L 3713 1100 
L 3047 1100 
L 3047 0 
L 2419 0 
L 2419 1100 
L 313 1100 
L 313 1709 
L 2253 4666 
z
" transform="scale(0.015625)"/>
       </defs>
       <use xlink:href="#DejaVuSans-34"/>
       <use xlink:href="#DejaVuSans-30" x="63.623047"/>
       <use xlink:href="#DejaVuSans-30" x="127.246094"/>
      </g>
     </g>
    </g>
    <g id="xtick_6">
     <g id="line2d_6">
      <g>
       <use xlink:href="#mdb309f9aae" x="567.524177" y="292.2048" style="stroke: #000000; stroke-width: 0.8"/>
      </g>
     </g>
     <g id="text_6">
      <!-- 500 -->
      <g transform="translate(557.980427 306.803238) scale(0.1 -0.1)">
       <defs>
        <path id="DejaVuSans-35" d="M 691 4666 
L 3169 4666 
L 3169 4134 
L 1269 4134 
L 1269 2991 
Q 1406 3038 1543 3061 
Q 1681 3084 1819 3084 
Q 2600 3084 3056 2656 
Q 3513 2228 3513 1497 
Q 3513 744 3044 326 
Q 2575 -91 1722 -91 
Q 1428 -91 1123 -41 
Q 819 9 494 109 
L 494 744 
Q 775 591 1075 516 
Q 1375 441 1709 441 
Q 2250 441 2565 725 
Q 2881 1009 2881 1497 
Q 2881 1984 2565 2268 
Q 2250 2553 1709 2553 
Q 1456 2553 1204 2497 
Q 953 2441 691 2322 
L 691 4666 
z
" transform="scale(0.015625)"/>
       </defs>
       <use xlink:href="#DejaVuSans-35"/>
       <use xlink:href="#DejaVuSans-30" x="63.623047"/>
       <use xlink:href="#DejaVuSans-30" x="127.246094"/>
      </g>
     </g>
    </g>
   </g>
   <g id="matplotlib.axis_2">
    <g id="ytick_1">
     <g id="line2d_7">
      <defs>
       <path id="m646a7624e1" d="M 0 0 
L -3.5 0 
" style="stroke: #000000; stroke-width: 0.8"/>
      </defs>
      <g>
       <use xlink:href="#m646a7624e1" x="81.9" y="292.2048" style="stroke: #000000; stroke-width: 0.8"/>
      </g>
     </g>
     <g id="text_7">
      <!-- 0.0 -->
      <g transform="translate(58.996875 296.004019) scale(0.1 -0.1)">
       <defs>
        <path id="DejaVuSans-2e" d="M 684 794 
L 1344 794 
L 1344 0 
L 684 0 
L 684 794 
z
" transform="scale(0.015625)"/>
       </defs>
       <use xlink:href="#DejaVuSans-30"/>
       <use xlink:href="#DejaVuSans-2e" x="63.623047"/>
       <use xlink:href="#DejaVuSans-30" x="95.410156"/>
      </g>
     </g>
    </g>
    <g id="ytick_2">
     <g id="line2d_8">
      <g>
       <use xlink:href="#m646a7624e1" x="81.9" y="258.49728" style="stroke: #000000; stroke-width: 0.8"/>
      </g>
     </g>
     <g id="text_8">
      <!-- 0.2 -->
      <g transform="translate(58.996875 262.296499) scale(0.1 -0.1)">
       <use xlink:href="#DejaVuSans-30"/>
       <use xlink:href="#DejaVuSans-2e" x="63.623047"/>
       <use xlink:href="#DejaVuSans-32" x="95.410156"/>
      </g>
     </g>
    </g>
    <g id="ytick_3">
     <g id="line2d_9">
      <g>
       <use xlink:href="#m646a7624e1" x="81.9" y="224.78976" style="stroke: #000000; stroke-width: 0.8"/>
      </g>
     </g>
     <g id="text_9">
      <!-- 0.4 -->
      <g transform="translate(58.996875 228.588979) scale(0.1 -0.1)">
       <use xlink:href="#DejaVuSans-30"/>
       <use xlink:href="#DejaVuSans-2e" x="63.623047"/>
       <use xlink:href="#DejaVuSans-34" x="95.410156"/>
      </g>
     </g>
    </g>
    <g id="ytick_4">
     <g id="line2d_10">
      <g>
       <use xlink:href="#m646a7624e1" x="81.9" y="191.08224" style="stroke: #000000; stroke-width: 0.8"/>
      </g>
     </g>
     <g id="text_10">
      <!-- 0.6 -->
      <g transform="translate(58.996875 194.881459) scale(0.1 -0.1)">
       <defs>
        <path id="DejaVuSans-36" d="M 2113 2584 
Q 1688 2584 1439 2293 
Q 1191 2003 1191 1497 
Q 1191 994 1439 701 
Q 1688 409 2113 409 
Q 2538 409 2786 701 
Q 3034 994 3034 1497 
Q 3034 2003 2786 2293 
Q 2538 2584 2113 2584 
z
M 3366 4563 
L 3366 3988 
Q 3128 4100 2886 4159 
Q 2644 4219 2406 4219 
Q 1781 4219 1451 3797 
Q 1122 3375 1075 2522 
Q 1259 2794 1537 2939 
Q 1816 3084 2150 3084 
Q 2853 3084 3261 2657 
Q 3669 2231 3669 1497 
Q 3669 778 3244 343 
Q 2819 -91 2113 -91 
Q 1303 -91 875 529 
Q 447 1150 447 2328 
Q 447 3434 972 4092 
Q 1497 4750 2381 4750 
Q 2619 4750 2861 4703 
Q 3103 4656 3366 4563 
z
" transform="scale(0.015625)"/>
       </defs>
       <use xlink:href="#DejaVuSans-30"/>
       <use xlink:href="#DejaVuSans-2e" x="63.623047"/>
       <use xlink:href="#DejaVuSans-36" x="95.410156"/>
      </g>
     </g>
    </g>
    <g id="ytick_5">
     <g id="line2d_11">
      <g>
       <use xlink:href="#m646a7624e1" x="81.9" y="157.37472" style="stroke: #000000; stroke-width: 0.8"/>
      </g>
     </g>
     <g id="text_11">
      <!-- 0.8 -->
      <g transform="translate(58.996875 161.173939) scale(0.1 -0.1)">
       <defs>
        <path id="DejaVuSans-38" d="M 2034 2216 
Q 1584 2216 1326 1975 
Q 1069 1734 1069 1313 
Q 1069 891 1326 650 
Q 1584 409 2034 409 
Q 2484 409 2743 651 
Q 3003 894 3003 1313 
Q 3003 1734 2745 1975 
Q 2488 2216 2034 2216 
z
M 1403 2484 
Q 997 2584 770 2862 
Q 544 3141 544 3541 
Q 544 4100 942 4425 
Q 1341 4750 2034 4750 
Q 2731 4750 3128 4425 
Q 3525 4100 3525 3541 
Q 3525 3141 3298 2862 
Q 3072 2584 2669 2484 
Q 3125 2378 3379 2068 
Q 3634 1759 3634 1313 
Q 3634 634 3220 271 
Q 2806 -91 2034 -91 
Q 1263 -91 848 271 
Q 434 634 434 1313 
Q 434 1759 690 2068 
Q 947 2378 1403 2484 
z
M 1172 3481 
Q 1172 3119 1398 2916 
Q 1625 2713 2034 2713 
Q 2441 2713 2670 2916 
Q 2900 3119 2900 3481 
Q 2900 3844 2670 4047 
Q 2441 4250 2034 4250 
Q 1625 4250 1398 4047 
Q 1172 3844 1172 3481 
z
" transform="scale(0.015625)"/>
       </defs>
       <use xlink:href="#DejaVuSans-30"/>
       <use xlink:href="#DejaVuSans-2e" x="63.623047"/>
       <use xlink:href="#DejaVuSans-38" x="95.410156"/>
      </g>
     </g>
    </g>
    <g id="ytick_6">
     <g id="line2d_12">
      <g>
       <use xlink:href="#m646a7624e1" x="81.9" y="123.6672" style="stroke: #000000; stroke-width: 0.8"/>
      </g>
     </g>
     <g id="text_12">
      <!-- 1.0 -->
      <g transform="translate(58.996875 127.466419) scale(0.1 -0.1)">
       <use xlink:href="#DejaVuSans-31"/>
       <use xlink:href="#DejaVuSans-2e" x="63.623047"/>
       <use xlink:href="#DejaVuSans-30" x="95.410156"/>
      </g>
     </g>
    </g>
    <g id="ytick_7">
     <g id="line2d_13">
      <g>
       <use xlink:href="#m646a7624e1" x="81.9" y="89.95968" style="stroke: #000000; stroke-width: 0.8"/>
      </g>
     </g>
     <g id="text_13">
      <!-- 1.2 -->
      <g transform="translate(58.996875 93.758899) scale(0.1 -0.1)">
       <use xlink:href="#DejaVuSans-31"/>
       <use xlink:href="#DejaVuSans-2e" x="63.623047"/>
       <use xlink:href="#DejaVuSans-32" x="95.410156"/>
      </g>
     </g>
    </g>
    <g id="ytick_8">
     <g id="line2d_14">
      <g>
       <use xlink:href="#m646a7624e1" x="81.9" y="56.25216" style="stroke: #000000; stroke-width: 0.8"/>
      </g>
     </g>
     <g id="text_14">
      <!-- 1.4 -->
      <g transform="translate(58.996875 60.051379) scale(0.1 -0.1)">
       <use xlink:href="#DejaVuSans-31"/>
       <use xlink:href="#DejaVuSans-2e" x="63.623047"/>
       <use xlink:href="#DejaVuSans-34" x="95.410156"/>
      </g>
     </g>
    </g>
   </g>
   <g id="line2d_15">
    <path d="M 104.980909 207.936 
L 566.599091 207.936 
L 566.599091 207.936 
" clip-path="url(#p790e55ead4)" style="fill: none; stroke: #1f77b4; stroke-width: 1.5; stroke-linecap: square"/>
   </g>
   <g id="line2d_16">
    <path d="M 104.980909 174.22848 
L 566.599091 174.22848 
L 566.599091 174.22848 
" clip-path="url(#p790e55ead4)" style="fill: none; stroke: #ff7f0e; stroke-width: 1.5; stroke-linecap: square"/>
   </g>
   <g id="line2d_17">
    <path d="M 104.980909 186.767677 
L 105.905996 186.936215 
L 106.831082 186.936215 
L 107.756169 187.087899 
L 108.681255 186.936215 
L 109.606342 186.936215 
L 110.531428 182.807044 
L 111.456515 184.458712 
L 112.381601 183.632878 
L 113.306688 185.453084 
L 114.231774 184.795788 
L 115.156861 184.947471 
L 117.007034 184.947471 
L 117.932121 184.795788 
L 118.857207 185.773306 
L 119.782294 175.897002 
L 120.70738 176.06554 
L 121.632467 177.211596 
L 122.557553 177.700355 
L 123.48264 184.947471 
L 125.332813 185.941843 
L 126.257899 186.110381 
L 127.182986 186.767677 
L 128.108073 186.936215 
L 132.733505 186.936215 
L 133.658592 186.767677 
L 134.583678 186.936215 
L 136.433851 186.278918 
L 137.358938 186.278918 
L 138.284024 186.110381 
L 139.209111 183.969953 
L 140.134197 186.110381 
L 141.984371 186.430602 
L 142.909457 184.62725 
L 143.834544 186.430602 
L 144.75963 186.59914 
L 145.684717 186.430602 
L 146.609803 186.430602 
L 147.53489 185.604768 
L 148.459976 185.116009 
L 149.385063 185.453084 
L 150.310149 185.941843 
L 151.235236 182.807044 
L 153.085409 186.110381 
L 154.010496 186.430602 
L 154.935582 186.430602 
L 156.785755 186.110381 
L 157.710842 185.604768 
L 158.635928 185.453084 
L 162.336274 185.453084 
L 163.261361 184.947471 
L 164.186447 185.116009 
L 166.961707 186.110381 
L 167.886794 186.110381 
L 168.81188 185.604768 
L 169.736967 185.604768 
L 170.662053 186.59914 
L 171.58714 186.767677 
L 172.512226 187.087899 
L 173.437313 187.087899 
L 174.362399 187.424974 
L 175.287486 187.424974 
L 176.212572 187.913733 
L 177.137659 187.913733 
L 178.987832 188.250808 
L 179.912919 191.21707 
L 180.838005 188.57103 
L 181.763092 188.739567 
L 182.688178 185.453084 
L 183.613265 188.082271 
L 187.313611 188.082271 
L 188.238697 188.419346 
L 189.163784 188.250808 
L 191.013957 188.250808 
L 191.939044 187.424974 
L 192.86413 187.256436 
L 193.789217 187.913733 
L 194.714303 187.913733 
L 195.63939 187.593512 
L 196.564476 188.082271 
L 197.489563 188.250808 
L 198.414649 188.082271 
L 199.339736 188.57103 
L 200.264822 188.57103 
L 202.114995 187.913733 
L 203.040082 186.936215 
L 204.890255 181.323913 
L 205.815342 179.352023 
L 207.665515 172.425128 
L 208.590601 172.104906 
L 209.515688 170.790313 
L 210.440774 171.616147 
L 212.290947 171.936369 
L 214.14112 171.616147 
L 215.066207 170.941997 
L 215.991293 164.857789 
L 216.91638 169.795941 
L 217.841467 163.543196 
L 218.766553 166.661142 
L 219.69164 160.576934 
L 220.616726 167.486976 
L 221.541813 153.329818 
L 222.466899 153.16128 
L 223.391986 153.16128 
L 224.317072 152.655667 
L 226.167245 152.655667 
L 227.092332 152.503983 
L 229.867592 152.503983 
L 230.792678 152.166908 
L 231.717765 152.335446 
L 232.642851 152.166908 
L 234.493024 152.503983 
L 235.418111 152.166908 
L 236.343197 151.509612 
L 237.268284 152.166908 
L 238.19337 151.846687 
L 239.118457 151.020852 
L 240.043543 151.678149 
L 240.96863 151.678149 
L 241.893717 151.341074 
L 242.818803 151.172536 
L 243.74389 151.998371 
L 244.668976 152.166908 
L 256.695101 152.166908 
L 257.620188 151.998371 
L 259.470361 152.335446 
L 261.320534 152.335446 
L 262.24562 153.16128 
L 263.170707 153.650039 
L 264.095793 155.13317 
L 265.02088 155.621929 
L 265.945966 156.279226 
L 266.871053 159.093804 
L 267.79614 163.69488 
L 268.721226 159.919638 
L 269.646313 164.352177 
L 270.571399 166.172383 
L 271.496486 166.509458 
L 272.421572 171.110534 
L 273.346659 168.649885 
L 274.271745 167.166755 
L 275.196832 170.133016 
L 276.121918 166.172383 
L 277.047005 165.346548 
L 277.972091 168.144273 
L 278.897178 168.31281 
L 279.822265 168.649885 
L 280.747351 171.110534 
L 281.672438 171.44761 
L 282.597524 172.273444 
L 283.522611 174.582409 
L 284.447697 175.897002 
L 285.372784 176.217224 
L 286.29787 177.700355 
L 287.222957 178.03743 
L 288.148043 178.694726 
L 289.07313 180.177857 
L 289.998216 180.666616 
L 290.923303 181.003692 
L 291.84839 181.98121 
L 292.773476 182.149747 
L 293.698563 183.144119 
L 294.623649 177.380133 
L 295.548736 178.357651 
L 296.473822 184.62725 
L 297.398909 188.082271 
L 298.323995 186.278918 
L 299.249082 185.773306 
L 300.174168 184.62725 
L 301.099255 183.969953 
L 302.024341 183.801416 
L 304.799601 184.290175 
L 305.724688 184.121637 
L 306.649774 184.62725 
L 307.574861 184.458712 
L 308.499947 184.62725 
L 309.425034 184.62725 
L 310.35012 184.795788 
L 311.275207 184.62725 
L 312.200293 184.795788 
L 313.12538 184.458712 
L 314.975553 184.795788 
L 316.825726 184.795788 
L 317.750813 184.62725 
L 318.675899 184.62725 
L 319.600986 184.947471 
L 320.526072 184.795788 
L 321.451159 184.947471 
L 322.376245 184.947471 
L 323.301332 184.795788 
L 325.151505 185.116009 
L 326.076591 184.947471 
L 327.001678 184.947471 
L 327.926764 185.116009 
L 328.851851 184.947471 
L 329.776938 185.116009 
L 330.702024 184.62725 
L 331.627111 184.62725 
L 332.552197 184.795788 
L 336.252543 184.795788 
L 337.17763 184.947471 
L 338.102716 184.947471 
L 339.027803 184.795788 
L 339.952889 184.947471 
L 345.503409 184.947471 
L 346.428495 185.116009 
L 348.278668 185.116009 
L 349.203755 184.947471 
L 350.128841 184.947471 
L 351.053928 185.116009 
L 351.979014 186.936215 
L 352.904101 184.947471 
L 353.829187 184.795788 
L 354.754274 185.773306 
L 355.679361 186.936215 
L 356.604447 187.913733 
L 357.529534 191.385608 
L 358.45462 195.986684 
L 359.379707 197.149594 
L 360.304793 197.975428 
L 361.22988 198.127112 
L 362.154966 197.638353 
L 363.080053 200.773152 
L 364.005139 202.576504 
L 364.930226 205.711304 
L 365.855312 207.53151 
L 366.780399 208.677565 
L 367.705486 209.5034 
L 368.630572 213.126958 
L 369.555659 214.610089 
L 370.480745 212.95842 
L 371.405832 213.126958 
L 372.330918 214.778627 
L 373.256005 217.407813 
L 374.181091 217.896572 
L 375.106178 219.059482 
L 376.031264 218.233647 
L 376.956351 218.553869 
L 377.881437 215.098848 
L 378.806524 217.407813 
L 379.73161 218.722406 
L 380.656697 220.862834 
L 381.581784 221.199909 
L 382.50687 220.862834 
L 383.431957 222.194281 
L 384.357043 220.374075 
L 385.28213 223.003261 
L 386.207216 221.031372 
L 387.132303 224.992005 
L 388.057389 224.65493 
L 388.982476 224.992005 
L 390.832649 225.312227 
L 391.757735 224.65493 
L 392.682822 223.171799 
L 393.607909 222.68304 
L 394.532995 222.851578 
L 395.458082 227.30097 
L 396.383168 229.441398 
L 397.308255 232.896419 
L 398.233341 218.06511 
L 399.158428 235.373921 
L 400.083514 234.211012 
L 401.008601 241.137907 
L 401.933687 209.166324 
L 402.858774 233.553715 
L 403.78386 218.402185 
L 404.708947 233.553715 
L 405.634034 229.930157 
L 406.55912 230.924529 
L 407.484207 229.441398 
L 408.409293 230.267232 
L 409.33438 228.615564 
L 410.259466 234.379549 
L 411.184553 226.62682 
L 412.109639 228.615564 
L 413.034726 224.334708 
L 413.959812 225.480764 
L 414.884899 224.486392 
L 415.809985 224.65493 
L 416.735072 224.166171 
L 417.660158 225.817839 
L 418.585245 223.997633 
L 419.510332 223.829096 
L 420.435418 221.031372 
L 421.360505 221.688668 
L 422.285591 217.896572 
L 423.210678 219.228019 
L 424.135764 213.44718 
L 425.060851 219.716778 
L 425.985937 213.126958 
L 426.911024 217.576351 
L 427.83611 210.986531 
L 428.761197 219.716778 
L 429.686283 212.95842 
L 430.61137 215.756145 
L 431.536457 214.93031 
L 432.461543 215.756145 
L 433.38663 214.273014 
L 434.311716 214.778627 
L 435.236803 211.643827 
L 436.161889 231.750363 
L 437.086976 220.037 
L 438.012062 213.784255 
L 438.937149 210.649455 
L 439.862235 212.301124 
L 440.787322 207.025897 
L 441.712408 211.155068 
L 442.637495 204.39671 
L 443.562582 208.846103 
L 444.487668 205.711304 
L 445.412755 215.756145 
L 446.337841 205.222545 
L 447.262928 215.098848 
L 448.188014 202.087745 
L 449.113101 205.542766 
L 450.038187 203.570876 
L 450.963274 203.907951 
L 451.88836 202.745042 
L 452.813447 210.329234 
L 453.738533 203.739414 
L 454.66362 206.705676 
L 455.588707 208.846103 
L 456.513793 214.441551 
L 457.43888 209.5034 
L 458.363966 196.155222 
L 459.289053 195.666463 
L 460.214139 196.981056 
L 461.139226 194.840628 
L 462.064312 201.919208 
L 462.989399 193.020422 
L 463.914485 194.840628 
L 464.839572 211.155068 
L 465.764658 193.677719 
L 466.689745 189.076643 
L 467.614831 194.014794 
L 468.539918 189.565402 
L 469.465005 200.115855 
L 470.390091 196.643981 
L 471.315178 200.436077 
L 472.240264 196.155222 
L 473.165351 200.604614 
L 474.090437 196.155222 
L 475.015524 200.267539 
L 475.94061 196.492297 
L 476.865697 200.604614 
L 477.790783 197.149594 
L 478.71587 203.402339 
L 479.640956 195.986684 
L 480.566043 203.570876 
L 481.49113 197.80689 
L 482.416216 208.020269 
L 483.341303 195.835 
L 484.266389 206.048379 
L 485.191476 203.233801 
L 486.116562 210.986531 
L 487.041649 205.054007 
L 487.966735 210.649455 
L 488.891822 205.711304 
L 489.816908 224.823468 
L 490.741995 190.559773 
L 491.667081 212.789883 
L 492.592168 208.677565 
L 493.517255 212.638199 
L 494.442341 209.992159 
L 495.367428 218.722406 
L 496.292514 219.228019 
L 497.217601 219.379703 
L 498.142687 210.649455 
L 499.067774 225.160543 
L 499.99286 198.295649 
L 500.917947 219.716778 
L 501.843033 212.132586 
L 502.76812 219.885316 
L 503.693206 214.93031 
L 504.618293 227.452654 
L 505.543379 203.570876 
L 506.468466 225.160543 
L 507.393553 193.020422 
L 508.318639 223.171799 
L 509.243726 219.548241 
L 510.168812 222.851578 
L 511.093899 219.548241 
L 512.018985 223.003261 
L 512.944072 219.885316 
L 513.869158 223.829096 
L 514.794245 219.548241 
L 515.719331 223.003261 
L 516.644418 220.542612 
L 517.569504 223.508874 
L 518.494591 220.71115 
L 519.419678 223.171799 
L 520.344764 221.199909 
L 521.269851 223.997633 
L 522.194937 222.68304 
L 523.120024 225.312227 
L 524.04511 223.677412 
L 524.970197 226.963895 
L 525.895283 224.992005 
L 526.82037 227.789729 
L 527.745456 225.817839 
L 528.670543 228.784101 
L 529.595629 226.963895 
L 530.520716 229.441398 
L 531.445803 227.30097 
L 532.370889 229.761619 
L 533.295976 228.109951 
L 534.221062 230.924529 
L 535.146149 229.441398 
L 536.071235 231.750363 
L 536.996322 230.418916 
L 537.921408 233.064956 
L 538.846495 230.098694 
L 539.771581 232.896419 
L 540.696668 230.098694 
L 541.621754 233.21664 
L 542.546841 230.267232 
L 543.471927 234.379549 
L 544.397014 231.750363 
L 545.322101 234.699771 
L 546.247187 231.750363 
L 547.172274 235.036846 
L 548.09736 232.239122 
L 549.022447 235.036846 
L 549.947533 232.070584 
L 550.87262 235.036846 
L 551.797706 232.070584 
L 552.722793 234.699771 
L 553.647879 230.755991 
L 554.572966 232.239122 
L 555.498052 229.27286 
L 556.423139 231.413288 
L 557.348226 228.784101 
L 558.273312 230.418916 
L 559.198399 227.789729 
L 560.123485 229.27286 
L 561.048572 227.132433 
L 561.973658 229.27286 
L 562.898745 226.138061 
L 563.823831 228.109951 
L 564.748918 226.62682 
L 565.674004 227.30097 
L 566.599091 225.480764 
L 566.599091 225.480764 
" clip-path="url(#p790e55ead4)" style="fill: none; stroke: #2ca02c; stroke-width: 1.5; stroke-linecap: square"/>
   </g>
   <g id="line2d_18">
    <path d="M 104.980909 186.113912 
L 106.831082 186.337821 
L 111.456515 187.206186 
L 113.306688 187.193934 
L 115.156861 186.813697 
L 117.932121 185.816322 
L 120.70738 184.889936 
L 122.557553 184.278569 
L 124.407726 183.326809 
L 127.182986 181.692041 
L 128.108073 181.379345 
L 129.033159 181.278506 
L 129.958246 181.409246 
L 130.883332 181.763733 
L 131.808419 182.310543 
L 133.658592 183.778547 
L 136.433851 186.059051 
L 137.358938 186.649344 
L 138.284024 187.105751 
L 139.209111 187.416456 
L 140.134197 187.57887 
L 141.059284 187.599064 
L 142.909457 187.293273 
L 148.459976 185.760896 
L 150.310149 185.602306 
L 160.486101 185.541817 
L 165.111534 185.703493 
L 174.362399 185.646853 
L 177.137659 186.059047 
L 180.838005 186.951342 
L 185.463438 188.219475 
L 187.313611 188.459595 
L 189.163784 188.483426 
L 193.789217 188.156124 
L 199.339736 187.843283 
L 202.114995 187.849462 
L 205.815342 187.969249 
L 206.740428 187.87138 
L 207.665515 187.6232 
L 208.590601 187.163755 
L 209.515688 186.440277 
L 210.440774 185.422196 
L 211.365861 184.112134 
L 213.216034 180.806424 
L 215.991293 175.430865 
L 217.841467 172.501997 
L 219.69164 170.334184 
L 221.541813 168.730026 
L 223.391986 167.301448 
L 224.317072 166.474549 
L 225.242159 165.481993 
L 226.167245 164.292793 
L 228.017418 161.3827 
L 231.717765 155.130362 
L 232.642851 153.882098 
L 233.567938 152.855624 
L 234.493024 152.067178 
L 235.418111 151.515458 
L 236.343197 151.183776 
L 237.268284 151.042346 
L 239.118457 151.170627 
L 243.74389 152.056078 
L 245.594063 152.138986 
L 249.294409 151.933815 
L 252.069668 151.83655 
L 255.770015 151.961689 
L 261.320534 152.210941 
L 265.945966 152.358069 
L 267.79614 152.685962 
L 268.721226 152.995923 
L 269.646313 153.44351 
L 270.571399 154.051726 
L 271.496486 154.833642 
L 272.421572 155.794567 
L 274.271745 158.235186 
L 277.047005 162.722083 
L 278.897178 165.526448 
L 279.822265 166.665434 
L 280.747351 167.580436 
L 281.672438 168.271332 
L 282.597524 168.764804 
L 284.447697 169.358593 
L 286.29787 169.842925 
L 287.222957 170.191051 
L 288.148043 170.663201 
L 289.07313 171.277026 
L 290.923303 172.918462 
L 292.773476 174.975078 
L 296.473822 179.223978 
L 298.323995 180.751583 
L 300.174168 181.829355 
L 302.949428 183.147466 
L 304.799601 183.874229 
L 306.649774 184.378017 
L 308.499947 184.627094 
L 311.275207 184.64957 
L 316.825726 184.491261 
L 322.376245 184.664772 
L 331.627111 184.947502 
L 336.252543 184.945465 
L 345.503409 184.833668 
L 355.679361 185.12591 
L 358.45462 185.358444 
L 359.379707 185.544339 
L 360.304793 185.861235 
L 361.22988 186.363531 
L 362.154966 187.088536 
L 363.080053 188.045643 
L 364.005139 189.217866 
L 365.855312 192.077526 
L 367.705486 195.416509 
L 371.405832 202.749076 
L 374.181091 208.068855 
L 376.031264 211.123703 
L 377.881437 213.698637 
L 379.73161 215.736961 
L 380.656697 216.522295 
L 382.50687 217.652804 
L 384.357043 218.398894 
L 388.982476 220.060894 
L 390.832649 220.950362 
L 396.383168 224.001153 
L 399.158428 224.887465 
L 401.008601 225.498939 
L 402.858774 226.429121 
L 404.708947 227.542498 
L 406.55912 228.336528 
L 408.409293 228.715306 
L 414.884899 229.284081 
L 416.735072 229.127096 
L 417.660158 228.872242 
L 419.510332 228.022362 
L 421.360505 226.87224 
L 424.135764 224.888815 
L 425.985937 223.378915 
L 428.761197 220.736667 
L 431.536457 217.971553 
L 433.38663 216.431256 
L 435.236803 215.335469 
L 436.161889 214.96724 
L 437.086976 214.733205 
L 438.012062 214.669704 
L 438.937149 214.798644 
L 440.787322 215.463447 
L 441.712408 215.817778 
L 442.637495 216.052239 
L 443.562582 216.084495 
L 444.487668 215.860292 
L 445.412755 215.363103 
L 446.337841 214.621904 
L 448.188014 212.697879 
L 450.963274 209.786744 
L 452.813447 208.144952 
L 454.66362 206.773129 
L 456.513793 205.799187 
L 457.43888 205.522396 
L 458.363966 205.422756 
L 460.214139 205.644022 
L 461.139226 205.773536 
L 462.064312 205.762036 
L 462.989399 205.530529 
L 463.914485 205.044462 
L 464.839572 204.30979 
L 466.689745 202.336995 
L 470.390091 198.092527 
L 472.240264 196.301951 
L 473.165351 195.648224 
L 474.090437 195.209704 
L 475.015524 195.000939 
L 475.94061 195.013934 
L 476.865697 195.221777 
L 478.71587 196.058797 
L 485.191476 199.741091 
L 487.966735 201.042448 
L 489.816908 202.178195 
L 491.667081 203.731975 
L 495.367428 207.196185 
L 499.067774 210.250367 
L 502.76812 213.650063 
L 504.618293 214.780277 
L 506.468466 215.496731 
L 508.318639 215.926514 
L 509.243726 215.978651 
L 511.093899 215.773191 
L 512.944072 215.60912 
L 513.869158 215.714284 
L 514.794245 215.992685 
L 515.719331 216.446634 
L 517.569504 217.774219 
L 521.269851 220.838275 
L 523.120024 221.954118 
L 524.970197 222.67272 
L 530.520716 224.1895 
L 532.370889 224.999966 
L 536.071235 227.017181 
L 539.771581 229.000713 
L 542.546841 230.287152 
L 544.397014 230.96897 
L 547.172274 231.73315 
L 552.722793 232.942626 
L 555.498052 233.369365 
L 557.348226 233.40105 
L 559.198399 233.092283 
L 561.048572 232.421196 
L 562.898745 231.461688 
L 566.599091 229.249285 
L 566.599091 229.249285 
" clip-path="url(#p790e55ead4)" style="fill: none; stroke: #d62728; stroke-width: 1.5; stroke-linecap: square"/>
   </g>
   <g id="patch_3">
    <path d="M 81.9 292.2048 
L 81.9 39.3984 
" style="fill: none; stroke: #000000; stroke-width: 0.8; stroke-linejoin: miter; stroke-linecap: square"/>
   </g>
   <g id="patch_4">
    <path d="M 589.68 292.2048 
L 589.68 39.3984 
" style="fill: none; stroke: #000000; stroke-width: 0.8; stroke-linejoin: miter; stroke-linecap: square"/>
   </g>
   <g id="patch_5">
    <path d="M 81.9 292.2048 
L 589.68 292.2048 
" style="fill: none; stroke: #000000; stroke-width: 0.8; stroke-linejoin: miter; stroke-linecap: square"/>
   </g>
   <g id="patch_6">
    <path d="M 81.9 39.3984 
L 589.68 39.3984 
" style="fill: none; stroke: #000000; stroke-width: 0.8; stroke-linejoin: miter; stroke-linecap: square"/>
   </g>
   <g id="text_15">
    <!-- ringPlot -->
    <g transform="translate(312.736875 33.3984) scale(0.12 -0.12)">
     <defs>
      <path id="DejaVuSans-72" d="M 2631 2963 
Q 2534 3019 2420 3045 
Q 2306 3072 2169 3072 
Q 1681 3072 1420 2755 
Q 1159 2438 1159 1844 
L 1159 0 
L 581 0 
L 581 3500 
L 1159 3500 
L 1159 2956 
Q 1341 3275 1631 3429 
Q 1922 3584 2338 3584 
Q 2397 3584 2469 3576 
Q 2541 3569 2628 3553 
L 2631 2963 
z
" transform="scale(0.015625)"/>
      <path id="DejaVuSans-69" d="M 603 3500 
L 1178 3500 
L 1178 0 
L 603 0 
L 603 3500 
z
M 603 4863 
L 1178 4863 
L 1178 4134 
L 603 4134 
L 603 4863 
z
" transform="scale(0.015625)"/>
      <path id="DejaVuSans-6e" d="M 3513 2113 
L 3513 0 
L 2938 0 
L 2938 2094 
Q 2938 2591 2744 2837 
Q 2550 3084 2163 3084 
Q 1697 3084 1428 2787 
Q 1159 2491 1159 1978 
L 1159 0 
L 581 0 
L 581 3500 
L 1159 3500 
L 1159 2956 
Q 1366 3272 1645 3428 
Q 1925 3584 2291 3584 
Q 2894 3584 3203 3211 
Q 3513 2838 3513 2113 
z
" transform="scale(0.015625)"/>
      <path id="DejaVuSans-67" d="M 2906 1791 
Q 2906 2416 2648 2759 
Q 2391 3103 1925 3103 
Q 1463 3103 1205 2759 
Q 947 2416 947 1791 
Q 947 1169 1205 825 
Q 1463 481 1925 481 
Q 2391 481 2648 825 
Q 2906 1169 2906 1791 
z
M 3481 434 
Q 3481 -459 3084 -895 
Q 2688 -1331 1869 -1331 
Q 1566 -1331 1297 -1286 
Q 1028 -1241 775 -1147 
L 775 -588 
Q 1028 -725 1275 -790 
Q 1522 -856 1778 -856 
Q 2344 -856 2625 -561 
Q 2906 -266 2906 331 
L 2906 616 
Q 2728 306 2450 153 
Q 2172 0 1784 0 
Q 1141 0 747 490 
Q 353 981 353 1791 
Q 353 2603 747 3093 
Q 1141 3584 1784 3584 
Q 2172 3584 2450 3431 
Q 2728 3278 2906 2969 
L 2906 3500 
L 3481 3500 
L 3481 434 
z
" transform="scale(0.015625)"/>
      <path id="DejaVuSans-50" d="M 1259 4147 
L 1259 2394 
L 2053 2394 
Q 2494 2394 2734 2622 
Q 2975 2850 2975 3272 
Q 2975 3691 2734 3919 
Q 2494 4147 2053 4147 
L 1259 4147 
z
M 628 4666 
L 2053 4666 
Q 2838 4666 3239 4311 
Q 3641 3956 3641 3272 
Q 3641 2581 3239 2228 
Q 2838 1875 2053 1875 
L 1259 1875 
L 1259 0 
L 628 0 
L 628 4666 
z
" transform="scale(0.015625)"/>
      <path id="DejaVuSans-6c" d="M 603 4863 
L 1178 4863 
L 1178 0 
L 603 0 
L 603 4863 
z
" transform="scale(0.015625)"/>
      <path id="DejaVuSans-6f" d="M 1959 3097 
Q 1497 3097 1228 2736 
Q 959 2375 959 1747 
Q 959 1119 1226 758 
Q 1494 397 1959 397 
Q 2419 397 2687 759 
Q 2956 1122 2956 1747 
Q 2956 2369 2687 2733 
Q 2419 3097 1959 3097 
z
M 1959 3584 
Q 2709 3584 3137 3096 
Q 3566 2609 3566 1747 
Q 3566 888 3137 398 
Q 2709 -91 1959 -91 
Q 1206 -91 779 398 
Q 353 888 353 1747 
Q 353 2609 779 3096 
Q 1206 3584 1959 3584 
z
" transform="scale(0.015625)"/>
      <path id="DejaVuSans-74" d="M 1172 4494 
L 1172 3500 
L 2356 3500 
L 2356 3053 
L 1172 3053 
L 1172 1153 
Q 1172 725 1289 603 
Q 1406 481 1766 481 
L 2356 481 
L 2356 0 
L 1766 0 
Q 1100 0 847 248 
Q 594 497 594 1153 
L 594 3053 
L 172 3053 
L 172 3500 
L 594 3500 
L 594 4494 
L 1172 4494 
z
" transform="scale(0.015625)"/>
     </defs>
     <use xlink:href="#DejaVuSans-72"/>
     <use xlink:href="#DejaVuSans-69" x="41.113281"/>
     <use xlink:href="#DejaVuSans-6e" x="68.896484"/>
     <use xlink:href="#DejaVuSans-67" x="132.275391"/>
     <use xlink:href="#DejaVuSans-50" x="195.751953"/>
     <use xlink:href="#DejaVuSans-6c" x="256.054688"/>
     <use xlink:href="#DejaVuSans-6f" x="283.837891"/>
     <use xlink:href="#DejaVuSans-74" x="345.019531"/>
    </g>
   </g>
   <g id="legend_1">
    <g id="patch_7">
     <path d="M 420.284687 117.308712 
L 582.68 117.308712 
Q 584.68 117.308712 584.68 115.308712 
L 584.68 46.3984 
Q 584.68 44.3984 582.68 44.3984 
L 420.284687 44.3984 
Q 418.284687 44.3984 418.284687 46.3984 
L 418.284687 115.308712 
Q 418.284687 117.308712 420.284687 117.308712 
z
" style="fill: #ffffff; opacity: 0.8; stroke: #cccccc; stroke-linejoin: miter"/>
    </g>
    <g id="line2d_19">
     <path d="M 422.284687 52.496837 
L 432.284687 52.496837 
L 442.284687 52.496837 
" style="fill: none; stroke: #1f77b4; stroke-width: 1.5; stroke-linecap: square"/>
    </g>
    <g id="text_16">
     <!-- On Threshold -->
     <g transform="translate(450.284687 55.996837) scale(0.1 -0.1)">
      <defs>
       <path id="DejaVuSans-4f" d="M 2522 4238 
Q 1834 4238 1429 3725 
Q 1025 3213 1025 2328 
Q 1025 1447 1429 934 
Q 1834 422 2522 422 
Q 3209 422 3611 934 
Q 4013 1447 4013 2328 
Q 4013 3213 3611 3725 
Q 3209 4238 2522 4238 
z
M 2522 4750 
Q 3503 4750 4090 4092 
Q 4678 3434 4678 2328 
Q 4678 1225 4090 567 
Q 3503 -91 2522 -91 
Q 1538 -91 948 565 
Q 359 1222 359 2328 
Q 359 3434 948 4092 
Q 1538 4750 2522 4750 
z
" transform="scale(0.015625)"/>
       <path id="DejaVuSans-20" transform="scale(0.015625)"/>
       <path id="DejaVuSans-54" d="M -19 4666 
L 3928 4666 
L 3928 4134 
L 2272 4134 
L 2272 0 
L 1638 0 
L 1638 4134 
L -19 4134 
L -19 4666 
z
" transform="scale(0.015625)"/>
       <path id="DejaVuSans-68" d="M 3513 2113 
L 3513 0 
L 2938 0 
L 2938 2094 
Q 2938 2591 2744 2837 
Q 2550 3084 2163 3084 
Q 1697 3084 1428 2787 
Q 1159 2491 1159 1978 
L 1159 0 
L 581 0 
L 581 4863 
L 1159 4863 
L 1159 2956 
Q 1366 3272 1645 3428 
Q 1925 3584 2291 3584 
Q 2894 3584 3203 3211 
Q 3513 2838 3513 2113 
z
" transform="scale(0.015625)"/>
       <path id="DejaVuSans-65" d="M 3597 1894 
L 3597 1613 
L 953 1613 
Q 991 1019 1311 708 
Q 1631 397 2203 397 
Q 2534 397 2845 478 
Q 3156 559 3463 722 
L 3463 178 
Q 3153 47 2828 -22 
Q 2503 -91 2169 -91 
Q 1331 -91 842 396 
Q 353 884 353 1716 
Q 353 2575 817 3079 
Q 1281 3584 2069 3584 
Q 2775 3584 3186 3129 
Q 3597 2675 3597 1894 
z
M 3022 2063 
Q 3016 2534 2758 2815 
Q 2500 3097 2075 3097 
Q 1594 3097 1305 2825 
Q 1016 2553 972 2059 
L 3022 2063 
z
" transform="scale(0.015625)"/>
       <path id="DejaVuSans-73" d="M 2834 3397 
L 2834 2853 
Q 2591 2978 2328 3040 
Q 2066 3103 1784 3103 
Q 1356 3103 1142 2972 
Q 928 2841 928 2578 
Q 928 2378 1081 2264 
Q 1234 2150 1697 2047 
L 1894 2003 
Q 2506 1872 2764 1633 
Q 3022 1394 3022 966 
Q 3022 478 2636 193 
Q 2250 -91 1575 -91 
Q 1294 -91 989 -36 
Q 684 19 347 128 
L 347 722 
Q 666 556 975 473 
Q 1284 391 1588 391 
Q 1994 391 2212 530 
Q 2431 669 2431 922 
Q 2431 1156 2273 1281 
Q 2116 1406 1581 1522 
L 1381 1569 
Q 847 1681 609 1914 
Q 372 2147 372 2553 
Q 372 3047 722 3315 
Q 1072 3584 1716 3584 
Q 2034 3584 2315 3537 
Q 2597 3491 2834 3397 
z
" transform="scale(0.015625)"/>
       <path id="DejaVuSans-64" d="M 2906 2969 
L 2906 4863 
L 3481 4863 
L 3481 0 
L 2906 0 
L 2906 525 
Q 2725 213 2448 61 
Q 2172 -91 1784 -91 
Q 1150 -91 751 415 
Q 353 922 353 1747 
Q 353 2572 751 3078 
Q 1150 3584 1784 3584 
Q 2172 3584 2448 3432 
Q 2725 3281 2906 2969 
z
M 947 1747 
Q 947 1113 1208 752 
Q 1469 391 1925 391 
Q 2381 391 2643 752 
Q 2906 1113 2906 1747 
Q 2906 2381 2643 2742 
Q 2381 3103 1925 3103 
Q 1469 3103 1208 2742 
Q 947 2381 947 1747 
z
" transform="scale(0.015625)"/>
      </defs>
      <use xlink:href="#DejaVuSans-4f"/>
      <use xlink:href="#DejaVuSans-6e" x="78.710938"/>
      <use xlink:href="#DejaVuSans-20" x="142.089844"/>
      <use xlink:href="#DejaVuSans-54" x="173.876953"/>
      <use xlink:href="#DejaVuSans-68" x="234.960938"/>
      <use xlink:href="#DejaVuSans-72" x="298.339844"/>
      <use xlink:href="#DejaVuSans-65" x="337.203125"/>
      <use xlink:href="#DejaVuSans-73" x="398.726562"/>
      <use xlink:href="#DejaVuSans-68" x="450.826172"/>
      <use xlink:href="#DejaVuSans-6f" x="514.205078"/>
      <use xlink:href="#DejaVuSans-6c" x="575.386719"/>
      <use xlink:href="#DejaVuSans-64" x="603.169922"/>
     </g>
    </g>
    <g id="line2d_20">
     <path d="M 422.284687 67.174962 
L 432.284687 67.174962 
L 442.284687 67.174962 
" style="fill: none; stroke: #ff7f0e; stroke-width: 1.5; stroke-linecap: square"/>
    </g>
    <g id="text_17">
     <!-- Automation Threshold -->
     <g transform="translate(450.284687 70.674962) scale(0.1 -0.1)">
      <defs>
       <path id="DejaVuSans-41" d="M 2188 4044 
L 1331 1722 
L 3047 1722 
L 2188 4044 
z
M 1831 4666 
L 2547 4666 
L 4325 0 
L 3669 0 
L 3244 1197 
L 1141 1197 
L 716 0 
L 50 0 
L 1831 4666 
z
" transform="scale(0.015625)"/>
       <path id="DejaVuSans-75" d="M 544 1381 
L 544 3500 
L 1119 3500 
L 1119 1403 
Q 1119 906 1312 657 
Q 1506 409 1894 409 
Q 2359 409 2629 706 
Q 2900 1003 2900 1516 
L 2900 3500 
L 3475 3500 
L 3475 0 
L 2900 0 
L 2900 538 
Q 2691 219 2414 64 
Q 2138 -91 1772 -91 
Q 1169 -91 856 284 
Q 544 659 544 1381 
z
M 1991 3584 
L 1991 3584 
z
" transform="scale(0.015625)"/>
       <path id="DejaVuSans-6d" d="M 3328 2828 
Q 3544 3216 3844 3400 
Q 4144 3584 4550 3584 
Q 5097 3584 5394 3201 
Q 5691 2819 5691 2113 
L 5691 0 
L 5113 0 
L 5113 2094 
Q 5113 2597 4934 2840 
Q 4756 3084 4391 3084 
Q 3944 3084 3684 2787 
Q 3425 2491 3425 1978 
L 3425 0 
L 2847 0 
L 2847 2094 
Q 2847 2600 2669 2842 
Q 2491 3084 2119 3084 
Q 1678 3084 1418 2786 
Q 1159 2488 1159 1978 
L 1159 0 
L 581 0 
L 581 3500 
L 1159 3500 
L 1159 2956 
Q 1356 3278 1631 3431 
Q 1906 3584 2284 3584 
Q 2666 3584 2933 3390 
Q 3200 3197 3328 2828 
z
" transform="scale(0.015625)"/>
       <path id="DejaVuSans-61" d="M 2194 1759 
Q 1497 1759 1228 1600 
Q 959 1441 959 1056 
Q 959 750 1161 570 
Q 1363 391 1709 391 
Q 2188 391 2477 730 
Q 2766 1069 2766 1631 
L 2766 1759 
L 2194 1759 
z
M 3341 1997 
L 3341 0 
L 2766 0 
L 2766 531 
Q 2569 213 2275 61 
Q 1981 -91 1556 -91 
Q 1019 -91 701 211 
Q 384 513 384 1019 
Q 384 1609 779 1909 
Q 1175 2209 1959 2209 
L 2766 2209 
L 2766 2266 
Q 2766 2663 2505 2880 
Q 2244 3097 1772 3097 
Q 1472 3097 1187 3025 
Q 903 2953 641 2809 
L 641 3341 
Q 956 3463 1253 3523 
Q 1550 3584 1831 3584 
Q 2591 3584 2966 3190 
Q 3341 2797 3341 1997 
z
" transform="scale(0.015625)"/>
      </defs>
      <use xlink:href="#DejaVuSans-41"/>
      <use xlink:href="#DejaVuSans-75" x="68.408203"/>
      <use xlink:href="#DejaVuSans-74" x="131.787109"/>
      <use xlink:href="#DejaVuSans-6f" x="170.996094"/>
      <use xlink:href="#DejaVuSans-6d" x="232.177734"/>
      <use xlink:href="#DejaVuSans-61" x="329.589844"/>
      <use xlink:href="#DejaVuSans-74" x="390.869141"/>
      <use xlink:href="#DejaVuSans-69" x="430.078125"/>
      <use xlink:href="#DejaVuSans-6f" x="457.861328"/>
      <use xlink:href="#DejaVuSans-6e" x="519.042969"/>
      <use xlink:href="#DejaVuSans-20" x="582.421875"/>
      <use xlink:href="#DejaVuSans-54" x="614.208984"/>
      <use xlink:href="#DejaVuSans-68" x="675.292969"/>
      <use xlink:href="#DejaVuSans-72" x="738.671875"/>
      <use xlink:href="#DejaVuSans-65" x="777.535156"/>
      <use xlink:href="#DejaVuSans-73" x="839.058594"/>
      <use xlink:href="#DejaVuSans-68" x="891.158203"/>
      <use xlink:href="#DejaVuSans-6f" x="954.537109"/>
      <use xlink:href="#DejaVuSans-6c" x="1015.71875"/>
      <use xlink:href="#DejaVuSans-64" x="1043.501953"/>
     </g>
    </g>
    <g id="line2d_21">
     <path d="M 422.284687 81.853087 
L 432.284687 81.853087 
L 442.284687 81.853087 
" style="fill: none; stroke: #2ca02c; stroke-width: 1.5; stroke-linecap: square"/>
    </g>
    <g id="text_18">
     <!-- Noisy Signal -->
     <g transform="translate(450.284687 85.353087) scale(0.1 -0.1)">
      <defs>
       <path id="DejaVuSans-4e" d="M 628 4666 
L 1478 4666 
L 3547 763 
L 3547 4666 
L 4159 4666 
L 4159 0 
L 3309 0 
L 1241 3903 
L 1241 0 
L 628 0 
L 628 4666 
z
" transform="scale(0.015625)"/>
       <path id="DejaVuSans-79" d="M 2059 -325 
Q 1816 -950 1584 -1140 
Q 1353 -1331 966 -1331 
L 506 -1331 
L 506 -850 
L 844 -850 
Q 1081 -850 1212 -737 
Q 1344 -625 1503 -206 
L 1606 56 
L 191 3500 
L 800 3500 
L 1894 763 
L 2988 3500 
L 3597 3500 
L 2059 -325 
z
" transform="scale(0.015625)"/>
       <path id="DejaVuSans-53" d="M 3425 4513 
L 3425 3897 
Q 3066 4069 2747 4153 
Q 2428 4238 2131 4238 
Q 1616 4238 1336 4038 
Q 1056 3838 1056 3469 
Q 1056 3159 1242 3001 
Q 1428 2844 1947 2747 
L 2328 2669 
Q 3034 2534 3370 2195 
Q 3706 1856 3706 1288 
Q 3706 609 3251 259 
Q 2797 -91 1919 -91 
Q 1588 -91 1214 -16 
Q 841 59 441 206 
L 441 856 
Q 825 641 1194 531 
Q 1563 422 1919 422 
Q 2459 422 2753 634 
Q 3047 847 3047 1241 
Q 3047 1584 2836 1778 
Q 2625 1972 2144 2069 
L 1759 2144 
Q 1053 2284 737 2584 
Q 422 2884 422 3419 
Q 422 4038 858 4394 
Q 1294 4750 2059 4750 
Q 2388 4750 2728 4690 
Q 3069 4631 3425 4513 
z
" transform="scale(0.015625)"/>
      </defs>
      <use xlink:href="#DejaVuSans-4e"/>
      <use xlink:href="#DejaVuSans-6f" x="74.804688"/>
      <use xlink:href="#DejaVuSans-69" x="135.986328"/>
      <use xlink:href="#DejaVuSans-73" x="163.769531"/>
      <use xlink:href="#DejaVuSans-79" x="215.869141"/>
      <use xlink:href="#DejaVuSans-20" x="275.048828"/>
      <use xlink:href="#DejaVuSans-53" x="306.835938"/>
      <use xlink:href="#DejaVuSans-69" x="370.3125"/>
      <use xlink:href="#DejaVuSans-67" x="398.095703"/>
      <use xlink:href="#DejaVuSans-6e" x="461.572266"/>
      <use xlink:href="#DejaVuSans-61" x="524.951172"/>
      <use xlink:href="#DejaVuSans-6c" x="586.230469"/>
     </g>
    </g>
    <g id="line2d_22">
     <path d="M 422.284687 103.169962 
L 432.284687 103.169962 
L 442.284687 103.169962 
" style="fill: none; stroke: #d62728; stroke-width: 1.5; stroke-linecap: square"/>
    </g>
    <g id="text_19">
     <!-- CleanSignal -->
     <g transform="translate(450.284687 100.031212) scale(0.1 -0.1)">
      <defs>
       <path id="DejaVuSans-43" d="M 4122 4306 
L 4122 3641 
Q 3803 3938 3442 4084 
Q 3081 4231 2675 4231 
Q 1875 4231 1450 3742 
Q 1025 3253 1025 2328 
Q 1025 1406 1450 917 
Q 1875 428 2675 428 
Q 3081 428 3442 575 
Q 3803 722 4122 1019 
L 4122 359 
Q 3791 134 3420 21 
Q 3050 -91 2638 -91 
Q 1578 -91 968 557 
Q 359 1206 359 2328 
Q 359 3453 968 4101 
Q 1578 4750 2638 4750 
Q 3056 4750 3426 4639 
Q 3797 4528 4122 4306 
z
" transform="scale(0.015625)"/>
      </defs>
      <use xlink:href="#DejaVuSans-43"/>
      <use xlink:href="#DejaVuSans-6c" x="69.824219"/>
      <use xlink:href="#DejaVuSans-65" x="97.607422"/>
      <use xlink:href="#DejaVuSans-61" x="159.130859"/>
      <use xlink:href="#DejaVuSans-6e" x="220.410156"/>
      <use xlink:href="#DejaVuSans-53" x="283.789062"/>
      <use xlink:href="#DejaVuSans-69" x="347.265625"/>
      <use xlink:href="#DejaVuSans-67" x="375.048828"/>
      <use xlink:href="#DejaVuSans-6e" x="438.525391"/>
      <use xlink:href="#DejaVuSans-61" x="501.904297"/>
      <use xlink:href="#DejaVuSans-6c" x="563.183594"/>
     </g>
     <!-- Sampling Rate: 113.72 Hz -->
     <g transform="translate(450.284687 111.229025) scale(0.1 -0.1)">
      <defs>
       <path id="DejaVuSans-70" d="M 1159 525 
L 1159 -1331 
L 581 -1331 
L 581 3500 
L 1159 3500 
L 1159 2969 
Q 1341 3281 1617 3432 
Q 1894 3584 2278 3584 
Q 2916 3584 3314 3078 
Q 3713 2572 3713 1747 
Q 3713 922 3314 415 
Q 2916 -91 2278 -91 
Q 1894 -91 1617 61 
Q 1341 213 1159 525 
z
M 3116 1747 
Q 3116 2381 2855 2742 
Q 2594 3103 2138 3103 
Q 1681 3103 1420 2742 
Q 1159 2381 1159 1747 
Q 1159 1113 1420 752 
Q 1681 391 2138 391 
Q 2594 391 2855 752 
Q 3116 1113 3116 1747 
z
" transform="scale(0.015625)"/>
       <path id="DejaVuSans-52" d="M 2841 2188 
Q 3044 2119 3236 1894 
Q 3428 1669 3622 1275 
L 4263 0 
L 3584 0 
L 2988 1197 
Q 2756 1666 2539 1819 
Q 2322 1972 1947 1972 
L 1259 1972 
L 1259 0 
L 628 0 
L 628 4666 
L 2053 4666 
Q 2853 4666 3247 4331 
Q 3641 3997 3641 3322 
Q 3641 2881 3436 2590 
Q 3231 2300 2841 2188 
z
M 1259 4147 
L 1259 2491 
L 2053 2491 
Q 2509 2491 2742 2702 
Q 2975 2913 2975 3322 
Q 2975 3731 2742 3939 
Q 2509 4147 2053 4147 
L 1259 4147 
z
" transform="scale(0.015625)"/>
       <path id="DejaVuSans-3a" d="M 750 794 
L 1409 794 
L 1409 0 
L 750 0 
L 750 794 
z
M 750 3309 
L 1409 3309 
L 1409 2516 
L 750 2516 
L 750 3309 
z
" transform="scale(0.015625)"/>
       <path id="DejaVuSans-37" d="M 525 4666 
L 3525 4666 
L 3525 4397 
L 1831 0 
L 1172 0 
L 2766 4134 
L 525 4134 
L 525 4666 
z
" transform="scale(0.015625)"/>
       <path id="DejaVuSans-48" d="M 628 4666 
L 1259 4666 
L 1259 2753 
L 3553 2753 
L 3553 4666 
L 4184 4666 
L 4184 0 
L 3553 0 
L 3553 2222 
L 1259 2222 
L 1259 0 
L 628 0 
L 628 4666 
z
" transform="scale(0.015625)"/>
       <path id="DejaVuSans-7a" d="M 353 3500 
L 3084 3500 
L 3084 2975 
L 922 459 
L 3084 459 
L 3084 0 
L 275 0 
L 275 525 
L 2438 3041 
L 353 3041 
L 353 3500 
z
" transform="scale(0.015625)"/>
      </defs>
      <use xlink:href="#DejaVuSans-53"/>
      <use xlink:href="#DejaVuSans-61" x="63.476562"/>
      <use xlink:href="#DejaVuSans-6d" x="124.755859"/>
      <use xlink:href="#DejaVuSans-70" x="222.167969"/>
      <use xlink:href="#DejaVuSans-6c" x="285.644531"/>
      <use xlink:href="#DejaVuSans-69" x="313.427734"/>
      <use xlink:href="#DejaVuSans-6e" x="341.210938"/>
      <use xlink:href="#DejaVuSans-67" x="404.589844"/>
      <use xlink:href="#DejaVuSans-20" x="468.066406"/>
      <use xlink:href="#DejaVuSans-52" x="499.853516"/>
      <use xlink:href="#DejaVuSans-61" x="567.085938"/>
      <use xlink:href="#DejaVuSans-74" x="628.365234"/>
      <use xlink:href="#DejaVuSans-65" x="667.574219"/>
      <use xlink:href="#DejaVuSans-3a" x="729.097656"/>
      <use xlink:href="#DejaVuSans-20" x="762.789062"/>
      <use xlink:href="#DejaVuSans-31" x="794.576172"/>
      <use xlink:href="#DejaVuSans-31" x="858.199219"/>
      <use xlink:href="#DejaVuSans-33" x="921.822266"/>
      <use xlink:href="#DejaVuSans-2e" x="985.445312"/>
      <use xlink:href="#DejaVuSans-37" x="1017.232422"/>
      <use xlink:href="#DejaVuSans-32" x="1080.855469"/>
      <use xlink:href="#DejaVuSans-20" x="1144.478516"/>
      <use xlink:href="#DejaVuSans-48" x="1176.265625"/>
      <use xlink:href="#DejaVuSans-7a" x="1251.460938"/>
     </g>
    </g>
   </g>
  </g>
 </g>
 <defs>
  <clipPath id="p790e55ead4">
   <rect x="81.9" y="39.3984" width="507.78" height="252.8064"/>
  </clipPath>
 </defs>
</svg>
